<mxfile>
    <diagram id="b4RBardiPLoGrMqbeJDh" name="Page-1">
        <mxGraphModel dx="3658" dy="1298" grid="1" gridSize="10" guides="1" tooltips="1" connect="1" arrows="1" fold="1" page="1" pageScale="1" pageWidth="827" pageHeight="1169" math="0" shadow="0">
            <root>
                <mxCell id="0"/>
                <mxCell id="1" parent="0"/>
                <mxCell id="24" value="" style="shape=image;verticalLabelPosition=bottom;labelBackgroundColor=#ffffff;verticalAlign=top;aspect=fixed;imageAspect=0;image=data:image/png,iVBORw0KGgoAAAANSUhEUgAABX0AAAH7CAYAAACQSTwWAAAgAElEQVR4Aezd/Y8cx53nef1P+m0wwN0C+9vOjCFpgNtf5qDV3sm+OwG3d7hd8oTTzQE3kLBzXsA8gmbr/CCPH6C1ZXs8NFskMdLKlmWTlNVsSaRkSqIkSiS7SYm0KLZo8TkO34j4ZkZERmZlVmVVZVW9GyhUVj5ERr4yszLy09HZ9509e9bwgwACqylw7vwF8429T9vXT39+wJw/v2Vu3LhpXzIs43S6zDvRz8Y+s3t922ytP2EefuRR8/Aj+8yGFrh1yOx+5FE7XUeV79vm4ONPmINb5ZhiyJdZfA4GyvXIuuL1ybQ9xcqNMbL+xw+Zg3t9nTb2mYf3bpalpZ/9lI29Wq9Ns+fxQyZXxbIQhhBoJ9B0Xr7//ofml+tHJjwv5ZzS88K/h8d7WE1/brpzyM+bPdZdmXKON/1s7E3WG5RVnk++BHveyXnpzi05b8Py089uKamHP4+l7nXb1VRJpiGQEWg6L3u9XvrrUXk9KY9pe12TY1rOjfAaamquQck1sjj/kvOivCZumj2P6HVNEWT96TiZr7yGF+Xaa21yjufGBee9riV6L6651e2SdZXXb6lHvL7yO6Jm2fVDZo/9nkq3K/3saxR8j5ROUW35MEeBqZ+X9lyLj7GH/TmSPR629PgSFD1P/LHojyVZbvf6ZvU6LMdy5tyQ+aNrcHLM22mV5SY5N+a4Q1k1AgggsMQCkr1+8aeb5vqXt2b6uo/Qd4mPKjYNgRYC0mD+zvd+VIRIGvLqu0yTeSb9KRqtyc1mWK6bp7yRdNPKG7GijFyD14/TGz6ZV4fLhrcrUaaVN40yTtbxaBz0hhWzDfe00Z80zpOb62hxPiDQUWDUefnNp5/p5bzsWK2JZ48CmyTcqoS+/rwrz+Nk9bJ87rsg+I6pnutJGXxEoIPAqPOyl+tlcl6469M+s1EEob7C4Xwb+8prWnReSFhbhj/FdS8KjeX6l153/S9D9fyqBEoxWvXcjafHn6phbDzd2F8Ou7qW8xbBclQXDdVcCZXrfjSv8WF5GmCXa5flc+Fa4WbbChmrsgiG5iAwk/Oy2C7XJt2zN2xjFhPtwIbvQGCPJ3s98sepnrP2XD6U/2VKcMwWx7yeh/IeXN+Ktms4vVi+33Mj3kI+IYAAAgiMI0DoO44ayyCAQC8C0rv3xOab5rmfHTASJslLhmWcTOMHAQRmL5Cel/KLmB8++xzn5ex3BWtEoBBIz0uulwUNAwjMTYDzcm70rBgBBBBAoKUAoW9LKGZDAAEEEEAAAQQQQAABBBBAAAEEEEAAAQQWQYDQdxH2EnVEAAEEEEAAAQQQQAABBBBAAAEEEEAAAQRaChD6toRiNgQQQAABBBBAAAEEEEAAAQQQQAABBBBAYBEECH0XYS9RRwQQQAABBBBAAAEEEEAAAQQQQAABBBBAoKUAoW9LKGZDAAEEEEAAAQQQQAABBBBAAAEEEEAAAQQWQYDQdxH2EnVEAAEEEEAAAQQQQAABBBBAAAEEEEAAAQRaChD6toRiNgQQQAABBBBAAAEEEEAAAQQQQAABBBBAYBEECH0XYS9RRwQQQAABBBBAAAEEEEAAAQQQQAABBBBAoKUAoW9LKGZDAAEEEEAAAQQQQAABBBBAAAEEEEAAAQQWQYDQdxH2EnVEAAEEEEAAAQQQQAABBBBAAAEEEEAAAQRaChD6toRiNgQQQKAvga31J8zu9e2+iqMcBBCYo8DG3kfNno05VoBVI7CsAhv7zMN7NyfaOrnePvzIo+bhxw+ZrYlKmtHCW4fM7r7qKmVN6DejrWY1MxHYNgcff8IcbHUibJo9j+wz/VzaNs2evo7pmTixEgQQQGC5BAh9l2t/sjUIIDA3gS6N2rjhXdyUyo1p9OqrwT03FFaMwGIKdApL4ptjCYHj89h/5qZ3MY8Faj0/gTT0lfMyukaW51r5ixe5vpbjo1+wSnm55aNgNF4+O39aRnFuj7FstG5HHf1iuNU253cRv5DKu6z02PScasKI5pXrXHlehedFdI5lyouO58x0RiGAAAIITFeA0He6vpSOAAJzFcg1Ukf0csjcYJU3k8ZUAlp/w1YZHzaO/Q1hfh6tTxoax0HSXBlZOQJ9CNjAJfxFRk1AkglB7Ooz5+bDo3oiVUIePd/cBqUBrd68puPDG1zteZifx2+f1DXcDvlcBEN9YFIGAj0JDPC8LLYsCp2MMel55WeUa2t5nZbvlfB7piitHAjPx0qZsnz8PaELbuzNj9fpxrRYdzlzvD1Sj7Dd4IfL76R43XWBbv57KRPWhd9PYZ0YHoZAzfEQXYuS46U8B2QTcu3fzHEQlOGOtZrlgrZuuB459/QYDeHy7d3M+rkuhmwMI4AAAlMRIPSdCiuFIoBAG4EbN26azdffND/9+QGz/+ln7EuGZZxMm+RHG5xh49SWpw3pzA2Pu1mKb6xkmbqbq6J+lZvGYooNiXMN4nIOHSL0VQne5yuQnpff2Pu0+dGzP538vKwJl+LzwwfByY1g3blpfKgblyF+vpxKKFwf6BTqG/uyN7EyfeR3gRaSfifI52SbdFbeEWgjkJ6Xcs3s5Xo5wPPSne9JQCTX7PS88nCNoW/ufA7HVcqs+Y6ozJfba7JsLnBOr+9a8eSXQ7ki/bg0cK77LkrnyxbZaluySzIyEZjaeZmsp/gYHrvFyNxAzTGXm7XDuPhccx0hqtdfN77S/q6sZzp1rKyGEQgggMCKCxD6rvgBwOYjMC+Bc+cvmO9+70dGAqXcS6bJPGP92JvYanhbluV6MoQNUnuTOVYoE/fItWGzBspSDx22K6/2oCgby2njNy63rDtDCExPYNR5KUHTZOdlGIi4YLY8B/x2SSDxSHn+ul/ghMsl25/MXwS+0bmXLFP3UcoKvgfke0HrJ/XQYbu4XW8cTBXfKTItXH9Sbt3qGY9ATmDUeTn59TI8vwZ0XqbX0PS88lhxEFUNXjf2htsnv7wpv1/kF0fReW1/YaTTq9fsSk/L4Puivqdven3XisffE5WwOyg7qnPDL6AqZQQ9OaO6h99PuYOOcSMFpnpe1q29crzWzajHnDufo32fHhPBcSaluWtueG0rz5/4XGsOfRvXqXVI1l23NYxHAAEEEBhfgNB3fDuWRACBMQWkoaxB73M/O2BDJOktIS+ZJuN0unzu9uMbuCNuaGyjVhubNrzRm7ymtWUaz1qGvwmTkNfddLUpL1yXNtB1HKGvSvA+G4Gm8/LM+x+aAwcPT3Beygkiz9Msbx41nI0DF9lWF7S4ANUNV+eJTew5p+d8ZT3xvOWnTKCjZfiewrvXN/3zQcN6lyXUDqXhFKFvLRUTmgWazsvJr5dDPC8Djx5CXw2wiu+Q9FyshGhyndfr96jrcHrdlmX3mQ3bpghDs9ywn6/4zgm2OzPYPvTVumcK0VHp95OO5721wNTPy7qaVI7XuhnTYzM3X3itzU2vjusS+ha/BK0W48e0qWPtwkxAAAEEEGgpQOjbEorZEECgHwEJdrWH79Hjr9UWKtMk+JV5ZZn2Py0bsUEwFAXA7Vfk5yyDo7iBGwbEbQKjtPE76mazc0VZAIFagemflx3CJRuY+OAiHK6tve+Z5H8BEwXADctkJxVhTRqclOf5w8EverJlyMg0VJHPbZarLZAJqyiw8uflJKGvvcY/6v/aRq+vch7H53YaYrlfRuk8wXmvPRPT9+i89qFverCm3wc6vW68Tg/e24e+uYA5M65l2BxUgUEvMJPzsk573NA3Oh/co4riX8LWrTAen54v8rn4hUowq21Xp+dK7nN0/gQFMIgAAggg0JsAoW9vlBSEAAJtBE5svmnDXOnNO+pHe/zKMq1/5CYquanLLhvMN05I1KpBW2nMVm8gy56E8U3Zng2Zt01YnN06RiLQSWDq56XUJvhFi6uc+8VIfMPozxENJCrL1GxWMV+uzJplgtGud358Dlb+NFXrpMvZ75B4GXfexuMelu+jDUJfZeO9vcCqn5f2O2PvIdfbXq6nNSFpHEQl3yEFt/tuCP+CwJ3j6XVW5gtD33R6UaD7q4ToOi/LZuaX76doPl9Gsj2V76HHD5mN9SdM7rtI5o1/0ezKTMPhsLbFcLLeYjwDrQRmcl7W1WTc0FfLs9dKuUZljlM/T7V9u89sFMsF1zd/fMbXcFdIfE7qytN3/WVMOp7PCCCAAAJ9ChD69qlJWQggMFJAg1z507hRP/rnc20C4qIsG8ToDVsxtjoQzDdu6Ju74SpWJOXnbvKKGdKBtPFL6JsK8Xl6AlM/L6XqRTCr2+FCmDTQiM6ryjK6bPJezOfKzN2EJktEH0cGJVJ+GvpGJSQf0lCl8/dBUh4fV1Jglc/LMHgqvhPS88ofFe0CpraHUBjcjroOp9ftcFldn5Thf/GTBm0126NLhu/pdxShb6gz2+GZnJd1m9Ql9M31rK0d16Ld7J/3W5yP/nPuetvunEzPn7qNZjwCCCCAwCQChL6T6LEsAgh0Fvjm08/Ynr5tHtkg88gjHuSfR7X/cb18wkZpdtkiJIr/NDw7b2ZkeEOahlbFZ0LfjByjhigw/fOyPvTN3TAWRhKKtOi5b89Hf76N80scu0ztzbDv2UToW+wWBmYjsJrnpf9lkJxv6S9bakLSasDk2gHFtbjp3K5cp8PgtkU50fLhsnKMuG0pv+N8ALzlj5+a7ckdXe1D36AnZtN2d/k+y1VohcfN5Lys8+0S+kbHZllg9RcG7cPX9FyTz+XxXa7DXpObjj+dVlPHsiSGEEAAAQQmFSD0nVSQ5RFAoJPAOI1lWab9T3qTlV/SNki1sWkD4Ha9HLS0tOGr44t3uZnT8ouR1RvIsrGcNrpl3vo/vyuKZACBHgSmf16OGfpG/9StfkPDoNfdbHY7d9JApbKmNHySGWwgHQcsxS+b0jAn+31QWQsjEIgEVv28nCj0zV1/03HZ8zK9Foe7ZNR1OQx93fW+vMZrOTKPb28k3xOVXz4F9U2/o6rBnZafvjdtTzovn9sIzOS8rKtI29A3ObbC4tJjJz22qoFteT1N277yuXqMh2vT4fDc0HG8I4AAAgjMQoDQdxbKrAMBBAqBmfxZ3KgQVxrDj4TPw3NBcZc/3642iuPwx/YwCm7YHEB8wxg3ltMbs7KBvLG3bHAXkAwg0KPA7M7L8Fh2592oG0Z3roXLJRteOd/rwpZkueBjJWzRXkjhe9ozLgmMohvpyg23nt/b5uDeQ0Y7+gVVYBCBisCqn5cThb7huds0nF6nK+dueS029pdQ/rso94sg27NXn3/a8J0l5ch6k3VVvkOCuuWCOftLpo190bN9db6ofZGsR6YVv6CqHHWMGCUwk/OyrhJtQ9+G+cLjLBzWVUbHTnjMZx7vIOeovYZvHTJ71re1CFMcY9F5otdBP5suWyzFAAIIIIDANAQIfaehSpkIIFAroP8A46c/n9I/cvNrlganBK+VGxsbEOl/9A6r6YKi6j+3cMFUWk7RoA2LCIflJiu4YXOTuoa+0hsoaSSH62AYgZ4EZnJe2nMvDELahb6yiXJjav8hWpKW6nleCY7l/JOgJ3sOVnv1a1BSyxnduPq5knM8unlOQpYiLKqMr10jExAwq35eZkPfmgA3vkbnrpuZcck5bA+5KIiSa3b4fRFfw239ou+YMCBucQAn3weV75Cg7PQ7Sr775HsvHK/jZM3hsG6XGOn8/DK5xf6pmWUm52XNuouQtW66Hy/7Pz4nygWi46wcXQzFx058zFfK9dfGaHx4vQyHZQ0+HNb5t9b3mYPJdb2oCAMIIIAAAr0IEPr2wkghCCDQVkCe0/ud7/3IPqv32PHXahc7evw1O4/M2+b5v9mC5IaqcoMY3sBVl5KGaPwcwPz81fna9vSN5yvDquoNqW2Yr8e9J6o1ZgwCkwvM5LyUm7/okSXtQ1+7hXb5+PyJy6s6yDkUn89h6FzOX50vXS7zi6LM90txk52EOe7Znk+Yg+txr7yyBgwhUBVY9fMyG/qmPe5zvQ/9Y2Hicz9zTmd+MaShqHt8S/p9EQdgdo/JuV6Es+47rdV6tW0SbE/le6gotwxri6PEhmmHir8ckDZJ2Z7IhL52wSCUrnxHFSUzMEJgJudlXR2iX0rUzRTs58wstm25kZngR1Xbt+V5INOK65zM74//g/oXaWnIm3726yjOM+31Xl8dpiCAAAIITChA6DshIIsjgEB3gXPnL9hAV/5Jm/T4PX9+ywa70pCWYRkn0+Ql8/byIw3TRx6NborGKbdyUyY3bsFNm/7jluimr7hxi28Y45u0auhrb3ijXkbj1JhlEGgn0HRevv/+h+aX60f6Py/bVa06lw+Ao5vP6lwjxuQDmjA4cT10k7BIz/co7HG9kYv6ZAIVdyNd3jyPqByTEbACTefl1K6X49r3cl7q87/deVecU1KnzHllR6dBVNsgKTmH7fleXK8DBL9d9rqu538wuRxsDtvK+fxQsj1RGJfUrQzJtBRpTzS0aWR5DZbD96D+lQBPi+Z9pMB0z8v8tSlqV4b7tBh2nRTitqVuijteXBnN16F4+Wq7NTon/T8rjNvBuk55D9cbXEvD86xVkB2WyTACCCCAQBcBQt8uWsyLAAK9CUiDWXv8asAbvss0mafXn75uSHutFIUhMByBUeel/AOb3s/LMTffhaj5nvhjFsliCAxSYNR5OZXr5ZgSnJdjwrHYwgks0nm5cLhUGAEEEECgNwFC394oKQgBBLoKSM9eeTaa/FMMCZPkJcMyTqZN48fdkKa9c6exJspEYDEF0vNSfhnzw2efm+p5Oa6U9ryPe+eOWxrLITBcgfS8nMX1clwNzstx5Vhu0QQW6bxcNFvqiwACCCDQjwChbz+OlIIAAggggAACCCCAAAIIIIAAAggggAACCAxCgNB3ELuBSiCAAAIIIIAAAggggAACCCCAAAIIIIAAAv0IEPr240gpCCCAAAIIIIAAAggggAACCCCAAAIIIIDAIAQIfQexG6gEAggggAACCCCAAAIIIIAAAggggAACCCDQjwChbz+OlIIAAggggAACCCCAAAIIIIAAAggggAACCAxCgNB3ELuBSiCAAAIIIIAAAggggAACCCCAAAIIIIAAAv0IEPr240gpCCCAAAIIIIAAAggggAACCCCAAAIIIIDAIAQIfQexG6gEAggggAACCCCAAAIIIIAAAggggAACCCDQjwChbz+OlIIAAggggAACCCCAAAIIIIAAAggggAACCAxCgNB3ELuBSiCAAAIIIIAAAggggAACCCCAAAIIIIAAAv0IEPr240gpCCCAwOAENvY+YQ5uabW2zcHHw886PvO+sc88vHeznJB+Lqf0OrS1/oTZvb7da5kUtkgCcozuMxtTq3J9+UM/9oZev6ntMgpGYIQA58YIICYj0JfAs18x5tme2mhS1tG+KkY5CCCAAAJNAoS+TTpMQwCBBRaIAx65MdwTpkkb+2oDxo29j5qHHwlejx8yRXZqjKmUFSnJeoNlw3JqhqN62bI2zZ5kncUqtg6Z3WEgW0wwxiTbFIe+DWWGZUgxex+NrUz7ZZOijOm0rNiVwbQ4R/uh8JtmMFjdAsb0JCC/PCj24aOZ8y8+Z+O11p1X7lionLN2PelxMqr8dP6gBnLe+XNydMgUH8dBKclgl/MqLpNzI6HkY28C0bFVdx1K1tZ0Tsi52f2XeZwbCTEfERiAwLYxX/mKMZr7SnB7332Z11Mj6nrUmPtGzTOiCCYjgAACCLQWIPRtTcWMCCDQt8CNGzfN5utvmp/+/IDZ//Qz9iXDMk6mTfYTBzxyUxqFq0lAGq5rVFga3RRXwqV4vWG5ueFKvexM1Rveok7jhr5J4FaEb+lNfd18QVhXLBuEzxUTP60yPiwnCNGKMovpGv6mFptmzyMN4VwOmXGdBNLz8ht7nzY/evank5+X4TlnhzdH/4KkOD7j0NNtUHksZH9RUTlOwnNThkf8cqZYt/tFjwZXckzrcAhbnstxXSvnAOdGyMZwS4H0vJRrZn/Xy6QS/q872ga2TefE7r37zO7KuejWx7mRuPNx4QR2bhrz07eM+XfPG/MXP3QvGZZxMq2Xn6YettvPxqHrU0n32aNPxdM1pA177NbN85VnXfWz4a6Gv0eN0fns3HWBrozPBcSZcckm9GJIIQgggMAKCxD6rvDOZ9MRmKfAufMXzHe/9yMjgVLuJdNknvF/woAn0zs3DKCSlRQBqx2fho6ZsqLlW4RJRbDpQqcojM6uM9iWMUPfeJuqvYLdJkiIlumVFfRyjDZ11IeGutaFBNUiU/8y6KvOy5hJBUadlxI0jX1ehudcOFxUOjjOi3E6UHdetenpW11297oEzv6XB8HxXZ4n4XHnzovqLyY0NHblyDHtzmVZn/7SQuufvHNuJCB8bBIYdV5Ofr0M1i6Bb/ALD9uLPvgFXzBnMZj7Po+Wk+O9JvgtCtEBzg2V4H3gApvbxvzrnxjzX383/5JpMs/YP2HYGoa0WqAGvkVI6oPVMPi1ge6IXrVt5tF1Vt47hL5ROFwpyI2QbS62p2YeRiOAAAIIdBIg9O3ExcwIINCHgNzAatD73M8O2BBJejHJS6bJOJ3ePWCqBjxyA7tRBDJ+C7Khk5tmb1bDYFZugO1Nq4Y81fey55+sX0KgMigqpkkZwc20rM2ty4dP9rOERX5ZnXfEuovQONmmIsDKrLcMqMo9Wtnu0CAzXKy3LCIYisNZWV/xnGDfi6ycubTSYK0wqzweIi63LIOhSQWazssz739oDhw8PMF5mfyiITlWXd313MltSS5ILY8FOXbj47GcVpYWlh8MB3UpzpnguEsDrfSzll+eU7m66lzyHteNcyO0YTgVaDovJ79exmuz1wC97gST7DGaGS+PFNLvbPtu55Hju3qN1PnK7/ZgBcUg50ZBwcCgBSTMrQt70/FjBb828JWwVh6pcF/+WbpP3WdMGPCKmA1wtReufp409M300i1C6A6hLz19B31MUzkEEFheAULf5d23bBkCgxSQYFd7+B49/lptHWWaBL8yryzT/ScIdXLP4Q2CnlZlS3CqvZ2S0LIMe6SkeL0yprhh1vA1uFGOgypd1vcy3Nhng6yt9X3lP2QL65FWPNkmDbCqgZiEzUlPRF+u1LVyU671TtdXfJZ6Jzf5QUBgg4S9mz7gTtZblFE3EPa4lHniUKBuKcZ3E5jJeRkenzosx1ZDQFSeH5ljzC7nfmFij7FKOeUvU5yGnl+hjYwrj8nKeRHO6oez50j0HROWmak350ZGlVE5gZmcl7Jif00qz7dMbfy5Wrk++F9e2vF2nvJ8ypTirof2Wsq5kfNh3PAF5LENTT1809BX5h3/UQ91oa8PYiu9YpPxbXrxtpmndrd0CH3p6VuryAQEEEBgmgKEvtPUpWwEEKgInNh804a50pt31I/2+JVluv/IDWUZ+tjgVUMhCV2C4LXsoVTe/GqvJPf+hDm44ULfNFzavX4oecasX28QZhU3yTIuCHxkm1x5epOsAae+yxzhsCRLQficomiQ5sfbAMvXO/4nb7FNWEzkpF41740BgQ1nXRAczxfe6Jf7J6xDPJxsP6FvzNPTp5mcl8k5V5wXmW2Q47B63Oh5klmgMir3y4Hqca+/kNDFc6Fvm3NC6lrWWdbTVNeyJ2R1G/WXJ5wbuk9W+X3656X/Pt57qPqLu9z3vv+rmfDxD+4XnXLc+mM2uPY9/Ig7D6Lrpv7yNLtjOTeyLIwclMBzp9r38tUAWJYZ76cm9LWPdgh69BaFJ/O3CXTbzFOUnw50CH3p6Zvi8RkBBBCYiQCh70yYWQkCCKiABrltHtugf9baJiDW8st3H/D4oLXL4x2ywWoYtkp4VXvjWg2WyjqNGCrKLYPOqJevLB7WIy0uF/pu+Zm8g/tYlp8WIcFVJYyLlk2XiD+3CcjiwECWL2/0NWx3z1zVAKx837ORC/PiOvCpu8BMzsvw+AyHM9UtA1SdOCpI1fn0PXec+HNTzjMNr5LzOD5+88Ft9hyp7emr9fE9/nNBWjgu+aUQ50bpt4pDMzkva2DrjvPK7HJ9sM+CP2T2yPEbXKP0lyj6Xnf9is+78vterwf2nXOjQs+I+Qj8z89XQ9//4wVj3rtizPaOMTKsYa++yzLj/SQhrhZiQ9/cYxuS+W2gm/yztOLRDL6w3DwS0Ba9iHOPd5CwNynXLiPz5uqVhsO6Ick7z/RNQPiIAAIITC5A6Du5ISUggEAHgW8+/Yzt6dvmkQ0yjzziQf55VNefsmeR630kN5VRr7qG0Kkyr6w8uJG1w2FQoz2cbCU19JX3mpvXaNnMP05Le/eGGx/WIxwvw8k2FTfaUb18b+Yk7NKiWt18F/Wv9kbM2mnh8i71r9y8hzOkw2lAnQvz0mX43FVgJudleHzaYflnaqPOEQ1e49C39jgtjq3qcVJ8JxTzdFVy88u6K78YaRn6Rt9B6eo5N1KRlf88k/OyRrnuOE9nl+vMnr3unLC/pNS/LrF/yaI9ff15XHP94rqRqvJ5yAL/6gfVUPfiTlljCX817NX3v/hhOb3bUBLi6sJtQ1+dX9/1n7+FzwKeVU9fHu+ge4F3BBBAYKYChL4z5WZlCCAwzk2sLNP+R8IeCVIlUCpDycpNZRhAJYUX4ZAPN21QU3OzmiwaPNNXw183x8bemrpk6xEEnbLeImTNBGRhgBWUJdurf1qrdVQD2b7G8EkX8O9xeJxMTD669WbqGW5DWOdk+erHwMJOrIZ51WUY01Vg+udl8kuJ4FjN1VWP1XJaNfStHMNRaBoeJ+4XMOl3QnqeR70K5XgtjlO3fGW6HtN+vrLOcV11Gzg3VIL3tgIzOS9rKiPHa+6XG9Hs/roYzRtdszT0Da4JmV84cm5EqnwYuMCo0PdMJvSVZcb7aQp9WzzeIbfSNORNP+eWqR2X9uBt6OnL4x1qFZmAAAIITFOA0HeaupSNAAIVgdn9uaoEL7zHnLYAACAASURBVDVBq9RqROikFZebURsuFfNrCBmXr/OX/2hsRFCkgZG8V26CdR1lqcWQv8kuPocDto7yjGHXe7gS1urNeBFmlQu3uukO6+yH01Cg8CqLjoekDpX1u6A+DNXKclOLMMyLi+bT+AIzOS+Lcyg+/+SYKfe324bqcRQHqbXHa3Fs5Y6TunNW1pmbXz2r6y7rWx6fZZ3j+bWUcrqOSd45NxIQPs7kvLTMcswGwWzmuz77iIXin41Wz+Eue49zo4sW885boO7xDhL2So/fmTzeQZ69ED2CQVXqxut06ZvwrDH3BYHxyNDXlxmGtsUjItqGvsH6dVDWW5SjI3lHAAEEEOhbgNC3b1HKQwCBRgH9xzQ//fns/5Fb1DMwDKBMfRikvWKLm9IidK1ZxgY3+8wevYEuQqh4/mp5IVsZJIVj7XCx/soU91/Rg0dNVEJf/+zcMrCqlpEbUy0nN5cbJ9sVhrfZ4cJEy4kDNymjrGNqUTqGvae1JN7HE5jJeRmec+GwfzRCuc/Df4qm2yP7XR/1kJuePjokPqZcKeWxo6WW77n5dWp13WVdy+OzOKft90lZVy2Fc0MleG8rMJPzsqYy8fdwzUx+dHXe6vlUnacsk3OjtGBo+AKD+EdupqYH8MgA1xiTzpN+ruyCpPeuPHe3CGvT0Ffq5Z/p+1T4bF+dT6YHgXP0DN9g2UodGIEAAgggMK4Aoe+4ciyHAAJjCchzer/zvR/ZZ/UeO/5abRlHj79m55F52zz/t1pQHPDITWX30FfDnqCsIqzKjXM9GMueu3LjW997ytZn65DZs76dVL8MkpIJ8bOFKxPjEXFY6+qyZ0PqnXuOcLyse26x/mmue3c35tUwK1yy4hxOlOHa3oxxr+xcqOaK0n3SYJSuk88jBWZyXso/UAvOh3Ifu+rpL1jkU/U40v3u5q1OT4+tauhkGn6500dP3xI5rquOz9ZZJ8o750aowbAx9to3m+tllVuO1/Qcrc7lxqTzukenlN/pzedX7nxP1sS5kYDwcZ4COzeN+W9+XH1urz6/N32XeWWZ8X5qwl0pzIa1mX+4VgSyxpinwunBMuE8vYe+EupqyCsVDYPecNiL2HBY5z9qTPi84fHQWAoBBBBAIBAg9A0wGEQAgdkInDt/wQa68k/apMfv+fNb9uZWgicZlnEyTV4y73g/EryUN50auMj7w9IbtghvpfS6ANEHR0Xv2rDMcji84dX1VOtczm/DHX2kQ1QPXaquPj4Y0mV19pr3IvSV+j8SPsdX6pJ7rIQvX4K5oDduUY5dj1/2kXz463zrg+7snwj7Hsj5QLBqYcPB9VxYXgPB6FYCTefl++9/aH65fmSy8zI81sPhTO2q55Ecd+UxV3ucFcft9ENfF2zF54rblLiuunm1dQ6C8PC8c8u5X9Zwbqji6r03nZf9XS+rrnK8jhX6yi937DXKHbvyy033Cx1/LGeuX5wbVX/GDFtgc7t96Cvzdv6RHrDh4xTC4aNBaRr86vQwzLWz+dBYp4ePddBi0jKKebWnbpfHO/ig+dlnfW/gNORNP/tKyCMnNOyNev9qJXlHAAEEEBhXgNB3XDmWQwCBiQTkRlZ7MGnAG77LtHED3+IGsgiA3E2nBCfFTawPQjVMKcbLVgXTZLz9j+RbeuNabnYR+hQB6LY5uPeQ2UrK0HVE748fMgf3unA06oFsiy+DznId9UFqVPeyesaGtfKf1INHPgST7XONi5BJe2EGZjpvHPrqWBf+at2z9Yxu7jUsDrajWFcc0MVhQ2mha5bnMaf/pK6YxsBEAqPOS/nHUuOel6Ofox0eI2XA6zYoH6TmNrY4FoPjL/1OKD6HgWtlOK2DW1t8fAY1CL437C+W/KSiPmH5Qd1cD+TgvJD5ODcCWAZHnZeTXC+zx2d4rOaGo+PX9dS116Ei8C33mZQfXqPk/OG6UfowtLgCEuY29fiVaWMFvoMj6fJ4B+1NHDzCId2eukC7CLMlGNbAOV2YzwgggAACXQUIfbuKMT8CCPQmID175ZmF8s9qJEySlwzLuPEe6dBb1SgIgZUVSM9L+WXMD599jvNyZY8INnwIAul5yfVyCHuFOqy6gDy2QZ7xK//c7V/9wL1kWMaN/0iHVVdl+xFAAAEE+hQg9O1Tk7IQQAABBBBAAAEEEEAAAQQQQAABBBBAAIE5CxD6znkHsHoEEEAAAQQQQAABBBBAAAEEEEAAAQQQQKBPAULfPjUpCwEEEEAAAQQQQAABBBBAAAEEEEAAAQQQmLMAoe+cdwCrRwABBBBAAAEEEEAAAQQQQAABBBBAAAEE+hQg9O1Tk7IQQAABBBBAAAEEEEAAAQQWV+C++4zhtZwGi3tUUnMEEEBgLAFC37HYWAgBBBBAAAEEEEAAAQQQQGDpBAh8lzPwlf3KDwIIILBiAoS+K7bD2VwEEEAAAQQQQAABBBBAAIEaAUJfQt+aQ4PRCCCAwKIJEPou2h6jvggggAACCCCAAAIIIIAAAtMRIPQl9J3OkUWpCCCAwMwFCH1nTs4KEUAAAQQQQAABBBBAAAEEEEAAAQQQQACB6QkQ+k7PlpIRQAABBBBAAAEEEEAAAQQQQAABBBBAAIGZCxD6zpycFSKAwPILbJo9j+wzG71s6KbZ8/ghs9VLWRSCAAIIIIAAAggggAACCCCAAAKrIEDouwp7mW1EAIGOAtvm4OOPmocfafOqCXc39pmH92769UoInC9r9/p2Y9221p8wo+ZpLICJCCCAAAIIIIAAAggggAACCCCwcgKEviu3y9lgBIYjcOPGTbP5+pvmpz8/YPY//Yx9ybCMk2lj/2wdMrtrQta6IHdP1C1XQt8nzMGR3WtlvjD0rQl3ffgrAW64nrpAV8bX1TMaTw/gsQ8RFkQAAQQQQAABBBBAAAEEEEBgmQUIfZd577JtCAxY4Nz5C+a73/uR+cbep7MvmSbz9Pqzsa9lr9keevpmKt4l9A3D4UxRxhge+5B3YSwCCCCAAAIIIIAAAggggAACCBD6cgwggMDMBSTM1bD3uZ8dsOGu9OyVl0yTcTq91+C3U+g7Tk9fY6q9dMuewF1C36hHb12vZXr6zvzYZYUIIIAAAggggAACCCCAAAIILIIAoe8i7CXqiMASCUiwqz18jx5/rXbLZJoEvzLvRI96CNfQKfTNP4O3GsaWoW64qtxwl9CXnr45QcYhgAACCCCAAAIIIIAAAggggEAbAULfNkrMgwACvQmc2HzThrnSm3fUj/b4lWV6+ekU+o7X07epnl1C32q4nAmh6enbxM00BBBAAAEEEEAAAQQQQAABBFZWgNB3ZXc9G47AfAQ0yG3z2AZ9DESbgLjV1nQKfTMha/YxC3FP3+zjHTb2Vf8x2+OHzMb6E9lnDKfhcH7beKZv3oWxCCCAAAIIIIAAAggggAACCCBA6MsxgAACMxX45tPP2J6+bR7ZIPPIIx72P/1MP3XsFPrOt6cvj3foZ5dTCgIIIIAAAggggAACCCCAAAKrKEDou4p7nW1GYI4C44S+skwvPwsU+vJ4h172OIUggAACCCCAAAIIIIAAAgggsJIChL4rudvZaATmJzD4xzvkHsWQfaxD8viHvZsWNft4B8+dPrZBPu9e326xM7bNwcfjx0i0WIhZEEAAAQQQQAABBBBAAAEEEEBgRQUIfVd0x7PZCMxLQP+R209/PuR/5Da+Thzkbpo9j5RhbRr6Gu15vHXI7AnC32I+CaB9mGxM8gxfXXb8qrIkAggggAACCCCAAAIIIIAAAggsqQCh75LuWDYLgaEKyHN6v/O9H9ln9R47/lptNY8ef83OI/O2ef5vbUHhhHGCUgleHz9ktoJyNvZKL98yzA0mma6hr4S6RcgrBYVBbzgs03w4rPNvre8zB8OKhRVhGAEEEEAAAQQQQAABBBBAAAEEVlaA0Hdldz0bjsD8BM6dv2ADXfknbdLj9/z5LRvsSrgrwzJOpslL5u3tp0voK4GrPNah6Gmb1kJ68bpHPIT/dE0C2fh5vGU4rGFtUdLWIbP78UPm4F4/Txrypp/9ght79Z/MJb1/i4IZQAABBBBAAAEEEEAAAQQQQACBVRYg9F3lvc+2IzBHAQlztcevBrzhu0wbL/CV598mz9tt80zeR3yQKkFsY9hbRZOev/psXgl2ddg+kiHoEVwJfY2va4tgOQqSw57HXYLsatUZgwACCCCAAAIIIIAAAggggAACSyhA6LuEO5VNQmBRBKRnrzzjV/652zeffsa+ZFjG9fZIh0XBoJ4IIIAAAggggAACCCCAAAIIIIBATwKEvj1BUgwCCCCAAAIIIIAAAggggAACCCCAAAIIIDAEAULfIewF6oAAAggggAACCCCAAAIIIIAAAggggAACCPQkQOjbEyTFIIAAAggggAACCCCAAAIIIIAAAggggAACQxAg9B3CXqAOCCCAAAIIIIAAAggggAACCCCAAAIIIIBATwKEvj1BUgwCCCCAAAIIIIAAAggggAACCCCAAAIIIDAEAULfIewF6oAAAggggAACCCCAAAIIIIAAAggggAACCPQkQOjbEyTFIIAAAggggAACCCCAAAIIIIAAAggggAACQxAg9B3CXqAOCCCAAAIIIIAAAggggAACCCCAAAIIIIBATwKEvj1BUgwCCCCAAAIIIIAAAggggAACCCCAAAIIIDAEAULfIewF6oAAAggggAACCCCAAAIIIIAAAggggAACCPQkQOjbEyTFIIAAAggggAACCCCAAAIIIIAAAggggAACQxAg9B3CXqAOCCCAAAIIIIAAAggggAACCCCAAAIIIIBATwKEvj1BUgwCCCCAAAIIIIAAAggggAACCCCAAAIIIDAEAULfIewF6oAAAggggAACCCCAAAIIIIAAAggggAACCPQkQOjbEyTFIIAAAggggAACCCCAAAIIIIAAAggggAACQxAg9B3CXqAOCCCAAAIIIIAAAggggAACCCCAAAIIIIBATwKEvj1BUgwCCCCAAAIIIIAAAggggAACCCCAAAIIIDAEAULfIewF6oAAAggggAACCCCAAAIIIIAAAggggAACCPQkQOjbEyTFIIAAAggggAACCCCAAAIIIIAAAggggAACQxAg9B3CXqAOCCCAAAIIIIAAAggggAACCCCAAAIIIIBATwKEvj1BUgwCCCCAAAIIIIAAAggggAACCCCAAAIIIDAEAULfIewF6oAAAggggAACCCCAAAIIIIAAAggggAACCPQkQOjbEyTFIIAAAggggAACCCCAAAIIIIAAAggggAACQxAg9B3CXqAOCCCAAAIIIIAAAggggAACCCCAAAIIIIBATwKEvj1BUgwCCCCAAAIIIIAAAggggAACCCCAAAIIIDAEAULfIewF6oAAAggggAACCCCAAAIIIIAAAggggAACCPQkQOjbEyTFIIAAAggggAACCCCAAAIIIIAAAggggAACQxAg9B3CXqAOCCCAAAIIIIAAAggggAACCCCAAAIIIIBATwKEvj1BUgwCCCCAAAIIIIAAAggggAACCCCAAAIIIDAEAULfIewF6oAAAggggAACCCCAAAIIIIAAAggggAACCPQkQOjbEyTFIIAAAggggAACCCCAAAIIIIAAAggggAACQxAg9B3CXqAOCCCAAAIIIIAAAggggAACCCCAAAIIIIBATwKEvj1BUgwCCCCAAAIIIIAAAggggAACCCCAAAIIIDAEAULfIewF6oAAAggggAACCCCAAAIIIIAAAggggAACCPQkQOjbEyTFIIAAAggggAACCCCAAAIIIIAAAggggAACQxAg9B3CXqAOCCCAAAIIIIAAAggggAACCCCAAAIIIIBATwKEvj1BUgwCCCCAAAIIIIAAAggggAACCCCAAAIIIDAEAULfIewF6oAAAggggAACCCCAAAIIIIAAAggggAACCPQkQOjbEyTFIIAAAggggAACCCCAAAIIIIAAAggggAACQxAg9B3CXqAOCCCAAAIIIIAAAggggAACCCCAAAIIIIBATwKEvj1BUgwCCCCAAAIIIIAAAggggAACCCCAAAIIIDAEAULfIewF6oAAAggggAACCCCAAAIIIIAAAggggAACCPQkQOjbEyTFIIAAAggggAACCCCAAAIIIIAAAggggAACQxCYa+h77969wOCekc+jXnfv3jWjX3fMnTt3/HxuWD7Hr9vB59vmzu3b5nbj65a5ffuWuXVr1OumuXVLXjKfG75586aJXzeCzzJ8w9y8ccPcqH19aW7ccK8vv/zSyEs+67B7/5P58sv8609/+pMpX9eTYfl83fzp+nVz3b/C4evXvzDh64svys8y7F475osv6l87OztmZ+eaf4XDOu6a2bl2zVy75j/74WvXPjeNr88/N59/frX5dfWquXr1M/uSeXW48v7ZH8tpn/3RfNbm9ccr5o+jXlcumytXLrv5/LB8jl+fBp8/NVcuf2ouN74+MZcvf2Iuf/qJ+dS/wmEd9+mnl8ynn1zy87jhTz65ZOLXxeCzDF80n1y6aC7VvrbNpUvb5tJF97oo7/6zDLvXlrl4MfPa3jLb0etC8FmG/Wvrgtnyr+1geGvrvCleF86bLXnpuAvnzQX7OmcuXKh5nT9nztvXx+b8+Y/NhWBYPhevcx+bc+c+cp/tsPss44rXx8nwxx+Zjz8+2/z66Kz56KMP7evjj86aj/2wjivez35QzPfR2Q/M2VGvDz8wZz9833w46vXBGfOhvGQ+P/zBB2dM9Hr/veDze+aD998z7ze+3jXvn3GvM2feNfKSzzrs3t8xZ868Y868J+8yzQ+/9455L3qdDj7L8Gnz3runzbvBK/78B/Puu38w777jXu/4d/ksw+71tnnnnczr9NvmndNvm9P29ZY5fVpe8lmH3zKn/+Bef/jDW0Ze8edT5g9/8K+3T5k/yEs+++G33z5l3n77ZP3rrZPm7bdOmrfeetO+wmEd99apN428Tp16w767z2/YzzKueJ1Mhk++YU6efL359ebr5uSbm+bNNzfNyWBYPhevNzbNm2+ccJ91+I0T5o2m1+sb5o3XN8zrTa/NDfP65mvuJfP54c3N10z0OvH78rMM+9eJE783+der5sSGe21svGrkJZ912L0fNxuv+dfGcbMhL//5tdeOm/J1LB7+/THzmn/9/vfHjLzksw7//vdHjX29etT8/tWj5lX/rsPy+dVXf+dex/27fJZh/zp+/Hfm+PHf+lc4/Ftz/Fj5OpYMHzv2iileR18xx+Ql43T46Cvm6NHf5F+/+4056l+/+93LRl7yWYeL99++bH5nX7/27/L51+a34euVX5vfykvH6edXfmVeqXv95lfmFft6yfzmNy9Fw/K5eL38kvnNy//Ffdbhl/+LeTl8/Tr4LMO/frF4/frXLxp5yTgdtu+/etH8+lcv+Fc5/KtfvWCi10v/XH6W4fAVzCtl6XJluS9U1xnUo6xnWOdgW2S7/Uu3130Wk8Ao9LKW4ulN1V+sddi///aVX9n9JuN1ONqPv5V9HuxX+1mPB3fM2ONEjg9/DMm7Hlf2XY4/PdaSY1GOUz0+w2O2OKbD49sOl+dCcb7oORGcP3peVd71PPTnqTsv43NWztvonNbzOzj37ffBa+X3wmsybF/ueyT9XtHP9jun8r1Ufl/pd5j9jvPfYen3XfhdqMObm8H3ZeY7Vb9nm76b5bvbvU74d/lc/c6X64JeB+w1Qq4P4bUjMyzXG3ut0WuTXHd02L+fOvm6OeWvXzosn4trXXjd88N6nSyum/6aGn9211u5ztrrsr/+ptdouX7rOL2WF9d5vd5H72W7oGg7SFshbEf4doa0N7TNocNl2yRsr7hhbdfYNo60c6QdJG0cO+w/v+vaSNIu0vZSMSztp6B9Je0v/WzbYrY9pm2ytM1Wtuvef/9d1waUtp0OB21CaSNqO1GHP/ggbEcmbUxth2pbtKHdKu1aaf9Km1WH0/Zw2EaW4Y/OujZ20Z7OtLNt+ztsr0t7PPzsh88F7XoZLtr/4b1AMHz+3MfGvsL7icrwOXvvUdynnM/dr6T3M8n9jt73RO8XjNwv2VdwL1XcV9lx7h7s4ra7P5P7MR0u79n0Pi5+t/d8cq9nX3KPGA67e0a5d7T3kJ9UP4f3nXJfqp/dParcp+q9anlfW97Luvtde98r98af+nvg5D5Z7p2vXCnvn93n9H47/vxHe3/u79Eb7uc/++MVmwvIPb8OpznB1SQ3qOQMPosIx39+dUSG4TOOa0HeIcON2YjNToJ8pchf0nE75oudILsJh4tMJ8x53PD1IAcK86Fy2OVJNluSfCn7crnUl39yuZVmVHGOleZcZf6lmZjLzTQji3M0m63ddON02L2XmdytJJ/T3K4p65Ms0L1um9u3guEkQ7xzp8wVZTjOINNMUnNLzS7rs8579+7arFSyUB0elZ1q2DrX0FcrwTsCCCCAAAIIIIAAAggggAACCCCAAAIIIIBAPwKEvv04UgoCCCCAAAIIIIAAAggggAACCCCAAAIIIDAIAULfQewGKoEAAggggAACCCCAAAIIIIAAAggggAACCPQjQOjbjyOlIIAAAggggAACCCCAAAIIIIAAAggggAACgxAg9B3EbqASCCCAAAIIIIAAAggggAACCCCAAAIIIIBAPwKEvv04UgoCCCCAAAIIIIAAAggggAACCCCAAAIIIDAIAULfQewGKoEAAggggAACCCCAAAIIIIAAAggggAACCPQjQOjbjyOlIIAAAggggAACCCCAAAIIIIAAAggggAACgxAg9B3EbqASCCCAAAIIIIAAAggggAACCCCAAAIIIIBAPwKEvv04UgoCCCCAAAIIIIAAAggggAACCCCAAAIIIDAIAULfQewGKoEAAggggAACCCCAAAIIIIAAAggggAACCPQjQOjbjyOlIIAAAggggAACCCCAAAIIIIAAAggggAACgxAg9B3EbqASCCCAAAIIIIAAAggggAACCCCAAAIIIIBAPwKEvv04UgoCCCCAAAIIIIAAAggggAACCCCAAAIIIDAIAULfQewGKoEAAggggAACCCCAAAIIIIAAAggggAACCPQjQOjbjyOlIIAAAggggAACCCCAAAIIIIAAAggggAACgxAg9B3EbqASCCCAAAIIIIAAAggggAACCCCAAAIIIIBAPwKEvv04UgoCCCCAAAIIIIAAAggggAACCCCAAAIIIDAIAULfQewGKoEAAggggAACCCCAAAIIIIAAAggggAACCPQjQOjbjyOlIIAAAggggAACCCCAAAIIIIAAAggggAACgxAg9B3EbqASCCCAAAIIIIAAAggggAACCCCAAAIIIIBAPwKEvv04UgoCCCCAAAIIIIAAAggggAACCCCAAAIIIDAIAULfQewGKoEAAggggAACCCCAAAIIIIAAAggggAACCPQjQOjbjyOlIIAAAggggAACCCCAAAIIIIAAAggggAACgxAg9B3EbqASCCCAAAIIIIAAAggggAACCCCAAAIIIIBAPwKEvv04UgoCCCCAAAIIIIAAAggggAACCCCAAAIIIDAIAULfQewGKoEAAggggAACCCCAAAIIIIAAAggggAACCPQjQOjbjyOlIIAAAggggAACCCCAAAIIIIAAAggggAACgxAg9B3EbqASCCCAAAIIIIAAAggggAACCCCAAAIIIIBAPwKEvv04UgoCCCCAAAIIIIAAAggggAACCCCAAAIIIDAIAULfQewGKoEAAggggAACCCCAAAIIIIAAAggggAACCPQjQOjbjyOlIIAAAggggAACCCCAAAIIIIAAAggggAACgxAg9B3EbqASCCCAAAIIIIAAAggggAACCCCAAAIIIIBAPwKEvv04UgoCCCCAAAIIIIAAAggggAACCCCAAAIIIDAIgfmHvifXzAMPrpmTg+CgEggggAACCCCAAAIIIIAAAggggAACCCCAwGILEPou9v6j9ggggAACCCCAAAIIIIAAAggggAACCCCAQCQw19D35NpD5oEHw5fv8XvpiNklvX/tu0yX8ZfM4V0PmV2HL0UbYKSn8K4jJh57yuwPy61Mj4vgEwIIIIAAAggggAACCCCAAAIIIIAAAgggsCwCcw19LWLu8Q427N1tdq2FYW7L0NcHxfuD50XYcHnt1LLsM7YDAQQQQAABBBBAAAEEEEAAAQQQQAABBBCoFRhw6PuQCYNb07KnrwS8ld7A2nO4loEJCCCAAAIIIIAAAggggAACCCCAAAIIIIDAcggMOPRN/7lbm56+bp74kRH6+IjdJn0yxHLsQrYCAQQQQAABBBBAAAEEEEAAAQQQQAABBBAoBZYy9K309C23lyEEEEAAAQQQQAABBBBAAAEEEEAAAQQQQGCpBRY+9L10eHf0j9x4fu9SH69sHAIIIIAAAggggAACCCCAAAIIIIAAAgiMEJh/6Ov/aVv06IWaZ/DagPfB4LEP/p+2PbAr+IdvflzU21fG8Y/cRhwKTEYAAQQQQAABBBBAAAEEEEAAAQQQQACBZRCYf+hrjLG9cx+UZ+/6QLcm9BXwct6HXA/fk2tRT1+7UzQMtmX6+ZZhb7ENCCCAAAIIIIAAAggggAACCCCAAAIIIIDACIFBhL4j6shkBBBAAAEEEEAAAQQQQAABBBBAAAEEEEAAgZYChL4toZgNAQQQQAABBBBAAAEEEEAAAQQQQAABBBBYBAFC30XYS9QRAQQQQAABBBBAAAEEEEAAAQQQQAABBBBoKUDo2xKK2RBAAAEEEEAAAQQQQAABBBBAAAEEEEAAgUUQIPRdhL1EHRFAAAEEEEAAAQQQQAABBBBAAAEEEEAAgZYChL4toZgNAQQQQAABBBBAAAEEEEAAAQQQQAABBBBYBAFC30XYS9QRAQQQQAABBBBAAAEEEEAAAQQQQAABBBBoKUDo2xKK2RBAAAEEEEAAAQQQQAABBBBAAAEEbgzMVAAAIABJREFUEEAAgUUQIPRdhL1EHRFAAAEEEEAAAQQQQAABBBBAAAEEEEAAgZYChL4toZgNAQQQQAABBBBAAAEEEEAAAQQQQAABBBBYBAFC30XYS9QRAQQQQAABBBBAAAEEEEAAAQQQQAABBBBoKUDo2xJqsLOdPm3u/f3fm3uPPeZef//3xpw+PdjqUjEEEEAAAQQQQAABBBBAAAEEEEAAAQQQmK4Aoe90fada+r1f/MLc+7f/Nv/6xS+mum4KRwABBBBAAAEEEEAAAQQQQAABBBBAAIFhCgw+9H3+438w/+HYX5qvvvxnvAKD//STf5kPe4MQuG2P3ztnzphbL75obj3/PK86gxdfNHfee2+ss3jn5PfNxee+Yra+/+e8Bmog+2fnzX8Ya/+yEAIIIIAAAggggAACCCCAAAIIIDA0gUGHvhL4/o+/+a8Ie4OwV8Pv04//65Gh773/+B9HHm828D10iLC3LuwNxx861Dn4lSBx64f/grB3oGFvFMT/8F+Ya29+b+Q5wwwIIIAAAggggAACCCCAAAIIIIDA0AUGHfr++6P08NWQN32//j88PDr0feyxkccfPXw79m5+4YWRpuEMF5/7KwLfRQh8fR0v/uQvw93HMAIIIIAAAggggAACCCCAAAIIILCQAoMOfdOgk8/lIy56C33DnqwMt+rx3OVMj3qSLlD4ucr17rJ/mRcBBBBAAAEEEEAAAQQQQAABBBAYogChb+bRCYsQLvf1eAee49uxp+/zz3c6j1c5PF3Ube+0g5kZAQQQQAABBBBAAAEEEEAAAQQQGKAAoe+Chr59/SM3Ql9C30UNZ6dV7wF+T1MlBBBAAAEEEEAAAQQQQAABBBBAoJMAoe+Chr7SG/nA//tX9c/1/cUvWh0IhL6EvtMKTxe13FYnDjMhgAACCCCAAAIIIIAAAggggAACAxYg9F3g0FeCX+nxK496kGf8ykuGzenTrQ85Ql9C30UNZ6dV79YnDzMigAACCCCAAAIIIIAAAggggAACAxUg9F3w0Df3/OEuxxqhL6HvtMLTRS23y/nDvAgggAACCCCAAAIIIIAAAggggMAQBZY29P1P50+a63dvmFsNr+s33zWvvvugyQWn8bhvmHdunzW/e/nPzO+uG3P9s29Ey/z4s2tm++Kfma++XM4XLy/T3EuWd/OW43RaX+9dDrQ+Q9/bH31u7t25U76uf2LuvDQ6VL1z+VZ9lXfOmbCOMu+9c1rmOXMvXDKZ99a5HXPv8lvR8mFZ4w6Hqxw13Gvw+bPHzNUzJ8ytnWvm3p0b5t7Ny+b2Jy+bnVceNrqeT174X80n3//z4rOOv37VmNtnquNl+tXta7XTZLosW/6cNdej8tfN7ZsnzNVoXLqePebGzXGW8+W8esLcvbqebFOb9ab1aPe53FaGEEAAAQQQQAABBBBAAAEEEEAAgcUUWNrQV4LY65//Z/OtT7fKPXP3XfPrt58w33r3qLlqLpv3r2yZW+aaeefMiOD3zIa5fv2s2S5LskPbn22Y68k4c329CHirIe662b69YX485d7FaZWaPo8bfFaWe+kjc8/cMfc+2jS3N+V12ty9Ycy9C8dGhq4a5Op7Eda+ddncs0HuOXPv1mVz5/nnTTHP8xL8luOLZez4580tu+xlc/fWLXP3LQ2J+3lv8kynaeg66fulV4+Z23fS0svPd6/8o7n64Vlzz1wzN17NhZvr5rYx5u72HhvylkvWDAVB7vWrWmYatLow98b2NVtu7TZmQlsJmrM/lXDXhc5FYH3mrF9XWpfcNo83LlsvRiKAAAIIIIAAAggggAACCCCAAAILJLDcoa/0yL14ttwdReC6braN67m75+LZkcFv2ZM33ztXp+u7C3tlHV1/XJ2qYXF+vXXzdVlrJbzV0LTN++Y5c3dnx9yT13XprXvLDes4GSU9UvXzxdPZAFiDXH0vAtwOoa/U467WWZbzIfGt598yd28F03SeCd67+NYGoY09Y+Ow8pKEpsVKb5g7V46ZP334z+ZPH50wt/90o5jiBjSgjctw9cj1uG3T09eXeeZs0CNYyirX1dRbuOhlrIHtmbPGJOFu/fJhuBvWPxyf29bxxyWgfEQAAQQQQAABBBBAAAEEEEAAAQQWTmDlQ9+vvvyg+dYnEvxumVffyIWr8sgG90gGeTRD8VMEyH9mXNg7uhfvLB7tIEFwl5+JQt9jb5k7n+zEj1ioWfm9nU/M3dOvTif0LcJh1xPYFIGv9ux1j4EoHwuh48d7r9nE7OjJQ18JOn3RN0+Yz3+Zhpl/nfTcLYPYct3Syzd4vEIUImerHYS70tNWygwCV7t8dT32MRBJmLvl12V76trQd9096kGCX+1NnAmBte62R7CWKfM1/eh8HQJ1XU/43rQKpiGAAAIIIIAAAggggAACCCCAAAKLILBaoa+5Zi7LYxquXza3fE9f11v2fzKbX9Y8a1ce7WDy06IQuNjb8riITHh88WzlWcB1PXUnHV9UpcXARKGv9JaVwNWu5465t3PdDt+7vmPu3THm3g33LpObnq2rPXz1vWtP37uXd8zdt6RHrzH3btU9H/iWuSfTe3jGbwvWYpYwTBxn+NI77/qytsyXL6SB75+bK2fkkQ7hTzWMteutCWplWn0vW7c+G/qeOWFu66Mhbl4Leh6H6zbm7s1rZZjrnwcs48rQd0/5bF4NnzX8rYS17pEUrldwElx/n56+sTyfEEAAAQQQQAABBBBAAAEEEEAAgVJg+UPfk//ZnNqRoDd5ffZzsyd4tm5dL9zfXb9mtuV10f0Tt4Iu6On71ZfLx0XkA9t1s22f9et6DRdlRAP9PNpB1t/lp7/QVx6hIMGre4bu3R1j/+GavMtPbdh6zs/QUOl7l8vHNRTBsH08gz7TV9+TnrtL8I/cdj7xj2+48o/mUiUU/XNz5Z0T5vbVs8HrhPniSDUcLoLfqyfKnsMN5iboGazP9NX3OLxuCl/Xze2r62WobHv6nrDPFrar1rBXw18ZqeNsYHzN3Djj/olbdd1N663Z/oxfvC1uuUYWJiKAAAIIIIAAAggggAACCCCAAAILILD8oW8Q7OYDWdcrNx/6fsO889m6f3xDpveuLbtF4FvTU9jVR5av6R3csu7pdnU57uYe+gb/nK0IdDWsLR7bUIa6xTxR6Pu8sb2Dz7nevk3b38cjHprKT6flQsUu4+wjE/w/YOuyXPO8waMaKkFoNUwtA9cyxE23M/qcPGah6Emsz/QN1llMC8bZur/qehbbx0Mk5bltq9azeZvbB8HRtvABAQQQQAABBBBAAAEEEEAAAQQQWECBFQh9/1uz5+0nzLdqX/+L+b9fdr14pTdvGqDKZ/0HbfJe/EhPX//oh2KcMckjHFwg/M5nrqdwWrYrr78evlp+WJ9Rw0sT+j5/ztzbORc/M1jD4wn+aVvOZ5RpOH3SIPKLK660e5/8oHwsQhqQdv4cPCc4rKwOB71tpf5l6CvDwbOB7XpHh69FsFs801dXlHlPA17pBex7C2fmTkaldWsf9Ib7KSmUjwgggAACCCCAAAIIIIAAAggggMDCCSx/6HtR/vnTDXPrbv5lfC/bfE9fFwKHoa8LhiXMNcbcPmu2bwehbfTcXnmUg5vmlvfLNB4iQVlj9vKV4LfLTy7U7DSueKbvmI936Kunr4S++g/cNOz173Hv4OQREGMEwl18wzBxnOHLH2251d05ZXZ+Nl6Iqestwtfv7zE3rp4wV7NhcTXEjUNffWawzufffTir6wrfi/V26emrdastV9c/mUlYTx3usn+ZFwEEEEAAAQQQQAABBBBAAAEEEBiiwGqEvvZ5urlevBLMukcrdA597TN9q8/ovf7ZNyq9hTU01p64+l43XqeP+97lQOsU8OYC0gGEvsVzg89JoJsJf59/3tzdcc8annh7n3++C+/kvXOP+H9mJo94uPJjc0XD0OD90q//2dzeOWGuNobC4SMdyjKzG5Pr6bstvzwxxv1TtbD3bxC+ZkJdCVLzoW/5qAj5J2/VHsQ+zCX0ze4iRiKAAAIIIIAAAggggAACCCCAAAJNAoS+E4e+Qe/cqKdvGTLXhbt148cNe3W5ph2eTps4BC1C3+vm7kv6j9xeMnevG3PvwkumCGQvvxU/eiEIkLUnrr7b5/PK/MUzfcveucU8dvkg4NXPRnoc+/m1x6/9LHULpuk8Y7ynhk2ftffoJO9Xzpw19/xK7u2cMtc3/tZc+eVfm8sv/T9m56Oz5q5W4Oq6+TQIg6N1huHpmbNGgtZoerFcEOL6cWFPX1lGnjNcLh/PXwS8RXn50FdD3nJ+FwJX6hTWOyhz6/vxeivLRfPWbWt+vHLyjgACCCCAAAIIIIAAAggggAACCCyqAKFvx9C32NH09HUh7uYnRSBZ2GQG7k099D1n7oWBr4S5Ueib+TxG4CsheZeffsLIvzZXz19udr75rvnihXyIKXW4un3W3HjVTdfANV+3apgahr5x4CvlpfOnn4PQ1wexZdCbTMuF0YS+XQ435kUAAQQQQAABBBBAAAEEEEAAAQSswNKGvt/69HLHXXzDfHy+7J2rvWblXXvk6vtXX14320Xo27Wnb/hsX/doiXBdfQx32fCJe/o+/4a5e2PUGuXRCi916+m7s+NCTvvP2aSXrq4jfExD2tO37OHr5g7nLXsLT7rNWpM27/lgtT6cbZr/k6Pr5sbVa3H4e+eauX3+x+aPjY92CHrR1jyCQcLc4if5Z2ph6FvWr3xExN3tPTW9ht12piFvOH84bSv3rGFC32K3MIAAAggggAACCCCAAAIIIIAAAgi0FVja0LeP8HRRy2i782W+SQPQVVy+i28Zko4X9LL87N267F/mRQABBBBAAAEEEEAAAQQQQAABBIYoQOj7cr5376IGvlLvLj+rGNpOus1dfAltZx/aTmreZf8yLwIIIIAAAggggAACCCCAAAIIIDBEAUJfQl96+3Z8tm+XE3nSAJLlZx8ad9m/zIsAAggggAACCCCAAAIIIIAAAggMUYDQl9CX0JfQt/GZvKsWPA/xi5o6IYAAAggggAACCCCAAAIIIIAAAl0ECH0JfQl9CX0Jfb9f9iju8gXKvAgggAACCCCAAAIIIIAAAggggMAQBQh9CX0JfQl9CX0JfYd4faJOCCCAAAIIIIAAAggggAACCCAwpsCgQ99/f/QvzSL/Q7V51P1/O/oXnQ6FWy++SOjbJfR94YVOvhef+ysC1SBQHfqjIi7+5C877V9mRgABBBBAAAEEEEAAAQQQQAABBIYoMOjQ9+DZ7xD6duyJ/I8f7O90nN15911C3w6h753Tpzv57rzxDKHvAoW+10483Wn/MjMCCCCAAAIIIIAAAggggAACCCAwRIFBh74CduDst8x/OEaP31G9hsXon87+f2MdYzb4pcdvc/j94otGnMb5ufb6t83F575C+Dvg8Ff2z7XNb42ze1kGAQQQQAABBBBAAAEEEEAAAQQQGJzA4EPfwYlRIQQQQAABBBBAAAEEEEAAAQQQQAABBBBAYMAChL4D3jlUDQEEEEAAAQQQQAABBBBAAAEEEEAAAQQQ6CpA6NtVjPkRQAABBBBAAAEEEEAAAQQQQAABBBBAAIEBCxD6DnjnUDUEEEAAAQQQQAABBBBAAAEEEEAAAQQQQKCrAKFvVzHmRwABBBBAAAEEEEAAAQQQQAABBBBAAAEEBixA6DvgnUPVEEAAAQQQQAABBBBAAAEEEEAAAQQQQACBrgKEvl3FmB8BBBBAAAEEEEAAAQQQQAABBBBAAAEEEBiwAKHvgHcOVUMAAQQQQAABBBBAAAEEEEAAAQQQQAABBLoKEPp2FWN+BBBAAAEEEEAAAQQQQAABBBBAAAEEEEBgwALDCn3vu88YXrMzGPCBSdUQQAABBBBAAAEEEEAAAQQQQAABBBBAYDwBQt9VDpnHO2ZYCgEEEEAAAQQQQAABBBBAAAEEEEAAAQQGLEDoS+g74MOTqiGAAAIIIIAAAggggAACCCCAAAIIIIBAV4Fhhb5da8/8CCCAAAIIIIAAAggggAACCCCAAAIIIIAAApEAoW/EwQcEEEAAAQQQQAABBBBAAAEEEEAAAQQQQGCxBQh9F3v/UXsEEEAAAQQQQAABBBBAAAEEEEAAAQQQQCASIPSNOPiAAAIIIIAAAggggAACCCCAAAIIIIAAAggstgCh72LvP2qPAAIIIIAAAggggAACCCCAAAIIIIAAAghEAoS+EQcfEEAAAQQQQAABBBBAAAEEEEAAAQQQQACBxRYg9F3s/UftEUAAAQQQQAABBBBAAAEEEEAAAQQQQACBSIDQN+LgAwIIIIAAAggggAACCCCAAAIIIIAAAgggsNgChL6Lvf+oPQIIIIAAAggggAACCCCAAAIIIIAAAgggEAkQ+kYcfEAAAQQQQAABBBBAAAEEEEAAAQQQQAABBBZbgNB3sfcftUdg8ALvnz1rXvzNK+afDh/hhQHHAMcAxwDHwNjHgFxL5JrCDwIIIDBNAdqutNm5b+EY4BjgGOjjGBhC25XQd5otBspGYMUFpNF8fOOEubazs+ISbD4CCCCAwKQCci05fmLTnPmQ4HdSS5ZHAIG8AG3XvAtjEUAAAQS6Cwyh7Uro232/sQQCCLQUkN9sEfi2xGI2BBBAAIGRAnJNkWsLPwgggMA0BGi7TkOVMhFAAIHVFZh325XQd3WPPbYcgakLyJ9E8IMAAggggECfAlxb+tSkLAQQCAX4fgk1GEYAAQQQ6ENgntcWQt8+9iBlIIBAVmCeX27ZCjESAQQQQGDhBbi2LPwuZAMQGKwA3y+D3TVUDAEEEFhYgXleWwh9F/awoeIIDF9gnl9uw9ehhggggAAC4whwbRlHjWUQQKCNAN8vbZSYBwEEEECgi8A8ry2Evl32FPMigEAngXl+uXWqKDMjgAACCCyMANeWhdlVVBSBhRPg+2XhdhkVRgABBAYvMM9rC6Hv4A8PKojA4grM88ttcdWoOQIIIIBAkwDXliYdpiGAwCQCfL9MoseyCCCAAAI5gXleWwh9c3uEcQgg0IvAPL/cetkACkEAAQQQGJwA15bB7RIqhMDSCPD9sjS7kg1BAAEEBiMwz2sLoe9gDgMqgsDyCczzy235NNkiBBBAAAER4NrCcYAAAtMS4PtlWrKUiwACCKyuwDyvLYS+q3vcseUITF1gnl9uU984VoAAAgggMBcBri1zYWelCKyEAN8vK7Gb2UgEEEBgpgLzvLYQ+s50V7MyBFZLYJ5fbqslzdYigAACqyPAtWV19jVbOpnApcO7zQMPrpmTkxWzUkvz/bJSu5uNRQABBGYiMM9rC6HvTHYxK0FgNQUm+nJ78+vm/vvvL15ff3OU4Zvm68H891cW+NQceKwsT8qOZ6lOt+uPZxpVCaYjgAACCExZYKJry5TrRvGrLnDK7H/wIbM/k7K6AHa3OXwpZ3TJHN71kHngwfAVz9u8fK5MY9qFvq7O8brDeuSG47rZtV86YnaF2x59lu3LLHNyLdlmWdeaOZkdX9Yj55sX6D52ou+XpO1abYvW1+fNr8dt1McOfFo/M1MQQAABBBZKYKJry4RbSug7ISCLIzBaYNuYr9xnzNHRc+ocrpHuG746sub95FrZCNYG+67MHYWWOc2GclrFsb/cbKP566bIee3nx0x9+9cFvmU+6z6XDWYJdJPlK2W60LdcJt0aPiOAAAIIDEFg7GvLECpPHRZQoEs7Lh/6Rm21XUdMNfd1oa+032x7be1U5BQt/2AmPI3mLj+0C33L+aOhKLSNpmQ/VNYVLu+H63od2+0LXWzoqz2UnWmubZutyIQjx/1++fTAY+b+xw6YMKqVcWXbtL5iEvhG8316wDxW6ZxQvzxTEEAAAQSGLTDutaWPrSL07UORMhBoFJCbha8Ys904UzAx7u1R28jVBnTYSJZSdHzy53yLE/q68DVq/BpjbA+IdKRXsw3tdFoaHAfCbjANedPPlQUYgQACCCAwAIF5NpwHsPlUYeYCXdpxSehbtMk0qC3beHH7rhyvv8B/QNp3xfLaeziYLwmGcyyVINbOJHXU+uhSmWDVrzvqLGDHpctKGa5e0TZVlnfreKBS78yyTT1903avbkJP7+N9v6SdDyavTFO7d/LSKQEBBBBAYJYC411b+qkhoW8/jpSCQFVg+1lj7rvPmKeedT19Zdh+HtHlVxu6u3bbP5Ozjf5K6b7hXNfw1ZuEoGG9MKGv7d2Q9MqV7ZcQN+lB4VjqwlppgGfKKSzT5dLPxYwMIIAAAgiMEDhw4EDxOJ7w0Tzh8N/+7d+OKKXd5Hk2nNvVkLmWQqBTOy4IY/0jGvavuUcX7Fpbc+258NENa0f84xy0N2sZfNr2mm2/+TJ3rZn9yaMfijJ9O0/beEVgLOvadcSczDzTV3sNxwHtJXPY/uVYEOhWQltj3LLBPLqjfds1CoiNa6uG46Seu9ZOxT2dM+sxC9fTl9BXDwXeEUAAgUURWJW2K6HvohyR1HNxBY4+5cLeEVmvbqA2xqWRXNe41sZ92JDW5fU9XbbNMrpsX+9j3ZjX9dCtG2/qGtp14/3WVcJlF/qGAUWXZ7H1ZUY5CCCAwKIKNDWe+wp8xWasa8uiolLv+Qt0acdlw882m1ANjfO/9O9QloSrNvTVXsLariw/x6UlPXHTMLZ228q6x+1SV96uw0fsc46jQDr4azRXRw2/fY38uuJl/OPM6jo8xBsz9qdxv1/cM3mbOht0qdKINmyXopgXAQQQQKBWYBXaroS+tbufCQj0IXDUBb7PHm35XN+kB682eoMeu/ondHXPRStqnTTO04Z/Md8UB8ZqONeFu3Xjxwp92/TqdQ1ugt8pHiAUjQACSyeQazz3GfgK2FjXlqWTZoNmI9CtHae/uHdttDIMteGlhJXartPewMU/fHPzSu9b217Tdl84f7p8bfipYasvS9a1dsp3JKgLfJ1mFMBGoW8SCAf42r6Ubdx/0s8X9mquPEoiWNg/FiIKd2Xb7XZrEFxuT7jktIYn+X5xwa/8Q7bJwl8e7TCtvUu5CCCAQFVg2duuhL7Vfc4YBPoTePYrxjzlu/jaPxN8qrFsbTiXf3KnjWdt+Mri/iaitrHvV+FvFLQsLTvuhdFYnYknjtVwrgt368Z3Dn19j970GcC5ra1dZ25mxiGAAAIIiEDYeO478JXyx7q2sGsQGEegSzvOh6RFgOkf4VAEuUVoK206174r22QNoa8sJ2Xr8uF7bpts+889gkHbflqncn25BZNxUeibTCs+Sr1lXen2yAy+vaoBdrFMMFCE2q6+NjRf4NDXbVnwl2PhY8lsm1ICYX0F/7A4ILGBb7hcMI1BBBBAAIHpCCxz25XQdzrHDKUiMIaAbxwHf/ImhWiDvWyo+/mk0d+0lkUNfe1jFzINYWksZxvBrnFdzXClp27a06JD4Cu2lUdANIEzDQEEEEBABaTxPI3AV8on9FVl3ocjoG0z9/8Y9h+WkNY9i7dL6KvhrHvfbQ4fXrPP5m0f+sZBq2tD7ja7dj1ktBNAaqbtzHjd/lEKUY/deFxcXi709Y+TaGivyrrd84lzoW+8vrB+8brTLZrsc3/fL93/YozAd7J9x9IIIIDAJALL2nYl9J3kqGBZBPoUKHo71DRyi0ZzPhyuVMWXp2GxNur1c2X+KYwYr+Gcf46ZNIQfO/BptpbZP4OrhMQdA19ZEz19s96MRAABBOYpMN61ZZ41Zt3LL+BCT31+rWtraXvNt+u0h24QpNa2yWwvWx/66vzp8kW7MNC1bT8XoMpY1/ZbMyeT8cES9YOtevrq4vnQt1i/zpZ712295EPipp7Bvof0YoS+0nfgMdP2MWEEvrmDg3EIIIDAcgjMs+1K6LscxxBbsQQC7jlw4WMcyo1yjea0Ed/8XLaF/UdutoPtY+b++4Pevmn4anvg3m+K3r3p58ojH1zgWxcaW2kpoyhQe/nWB83l3mEIAQQQQGCWAvNsOM9yO1nXYgmcPCx/gZUPP0duyaUjZv/aWvE6LD2F9S+/glDUlmMD3Fx7UYPn8u/AwtC1qZ2ZrV8Poa9pU0awffp4B1tv8ZDnAdvezq7XtD4zeHihr3RYCNqtFtR1Ymhse3r4bOeF7E5hJAIIIIDAIgrMs+1K6LuIRwx1XkIB11CXf7SR/fG9dsvpfv5cLw8pwDeyy/m1t0dzUJxd9wQjJ/lys70j6p57Vgl5y5BWn5UW57cSIusz1OL3sDEerzMIlScwYFEEEEAAgX4FJrm29FsTSkMgFUhD3/hxC3buXK9bCX0Pl8Hv4bW1IvRNw1r7udL+y7cjw9C3eMZuZdl0G/znNoFtsWi63Tqhuv0u0A3au9pm1R7N+k/n/DOR7aMyHlwzh+VREGJk/2Gclt//+/jfL/5xDkF7M2yL1tbUdmyI26ZFm7VVAbUlMwEBBBBAYCAC419bJt8AQt/JDSkBgYkFXKO8/nlrxvcccf8N2q9Og+C08a7jtYeIn13XUfunhBNvRbWAeX65VWvDGAQQQACBZRDg2rIMe3FZtyEOP7XtVbbf9JEP5V9vWYmTa8b2YvW9fcvQ14e5EohKx4AgIC17u1aDVdV16w97Bev6w3E6d/LeS+hr5JkN5gHpses7INs6hW1Xux433fX0PWIO+2cQy2cX9Poev7b373Q7MPD9khwHfEQAAQQQmFhgntcWQt+Jdx8FIDCpgDbAywZxrkTX0yNt6OqyyXOAMz2GyxuPZN4kHM6te9xx8/xyG7fOLIcAAgggMGwBri3D3j+rXbsy9C3aXb7H6gO7jpjDa3EbTIPbS4fXzOFLp8x+337TYPTk4d3GBcZB+CuBaRKk1pm7OlQD3rrxUTl9hb4295Xtlnq4dqtud7Q+/ZCEwLsOnzKHd/k2cjBNZ+/7ne+XvkUpDwEEEEBgntcWQl+OPwSWRkAD4ObweJabO88vt1luJ+tCAAHq7+PpAAAgAElEQVQEEJidANeW2Vmzpq4CPvS1z+RN/oIrDVFtcJsGstqWk2Ul7AzLcNP0L7ZcL9jy+b1lTcsyHtAewuXE9kNpfRuXLMPuutmKEHxUZwO73tQlCL0zHRvq1jnOeL5fxlFjGQQQQACBJoF5XlsIfZv2DNMQWDgBbRQPI/id55fbwu06KowAAggg0EqAa0srJmZCAIExBPh+GQONRRBAAAEEGgXmeW0h9G3cNUxEYAEFfM8M6d3R+OdzM9i0eX65zWDzWAUCCCCAwBwEuLbMAZ1VIrAiAny/rMiOZjMRQACBGQrM89pC6DvDHc2qEFg1gXl+ua2aNduLAAIIrIoA15ZV2dNsJwKzF+D7ZfbmrBEBBBBYdoF5XlsIfZf96GL7EJijwDy/3Oa42awaAQQQQGCKAlxbpohL0QisuADfLyt+ALD5CCCAwBQE5nltIfSdwg6lSAQQcALz/HJjHyCAAAIILKcA15bl3K9sFQJDEOD7ZQh7gToggAACyyUwz2sLoe9yHUtsDQKDEpjnl9ugIKgMAggggEBvAlxbeqOkIAQQSAT4fklA+IgAAgggMLHAPK8thL4T7z4KQACBOoEXf/OKubazUzeZ8QgggAACCHQSkGuKXFv4QQABBKYhQNt1GqqUiQACCKyuwLzbroS+q3vsseUITF3g/bNnzfETJwh+py7NChBAAIHlF5BG8/ETm+bMh2eXf2PZQgQQmIsAbde5sLNSBBBAYCkFhtB2JfRdykOLjUJgOAJycy69JuRPGnhhwDHAMcAxwDEw7jEg1xIC3+Fc36kJAssqQNuV69S41ymW49jhGOAYCI+BIbRdCX2XtbXCdiGAAAIIIIAAAggggAACCCCAAAIIIIDASgoQ+q7kbmejEUAAAQQQQAABBBBAAAEEEEAAAQQQQGBZBQh9l3XPsl0IIIAAAggggAACCCCAAAIIIIAAAgggsJIChL4rudvZaAQQQAABBBBAAAEEEEAAAQQQQAABBBBYVgFC32Xds2wXAggggAACCCCAAAIIIIAAAggggAACCKykAKHvSu52NhoBBBBAAAEEEEAAAQQQQAABBBBAAAEEllWA0HdZ9yzbhQACCCCAAAIIIIAAAggggAACCCCAAAIrKUDou5K7nY1GAAEEEEAAAQQQQAABBBBAAAEEEEAAgWUVIPRd1j3LdiGAAAIIIIAAAggggAACCCCAAAIIIIDASgoQ+q7kbmejEUAAAQQQQAABBBBAAAEEEEAAAQQQQGBZBQh9l3XPsl0IIIAAAggggAACCCCAAAIIIIAAAgggsJIChL4rudvZaAQQQAABBBBAAAEEEEAAAQQQQAABBBBYVgFC32Xds2wXAgMROPPhWfPCy78x/3T4CC8MOAY4BjgGOAbGPgbkWiLXFH4QQACBaQrQdqXNzn0LxwDHAMdAH8fAENquhL7TbDFQNgIrLiCN5lde/b05t33RXPn8Gi8MOAY4BjgGOAbGPgbkWiLXlDMffrjiV1c2HwEEpiVA25X2OvcsHAMcAxwDfR0DQ2i7EvpOq8VAuQggYHv4Evhy0ezrokk5HEscAxwDck2RXhP8IIAAAtMQkO8X2q5ca2hvcAxwDHAM9HUMzLvtSug7jdYCZSKAgBWQP4no68uScrjwcgxwDHAMcAzIMSDXFn4QQACBaQjQduU6Q1uDY4BjgGOg72Ngnm1XQt9ptBYoEwEErAANZy6YfV8wKY9jimOAY2CeDWcu7wggsNwCtF25xtDO4BjgGOAY6PsYmGfbldB3udstbB0CcxWg4cwFs+8LJuVxTHEMcAzMs+E814sqK0cAgakL0HblGkM7g2OAY4BjoO9jYJ5tV0LfqTcdWAECqytAw5kLZt8XTMrjmOIY4BiYZ8N5da/obDkCqyFA25VrDO0MjgGOAY6Bvo+BebZdCX1Xo/3CViIwFwEazlww+75gUh7HFMcAx8A8G85zuZiyUgQQmJkAbVeuMbQzOAY4BjgG+j4G5tl2JfSdWROCFSGwegJ9NZzfuXDNPLV+xfybZy6bv/n24r/+zXcvmyfXr5h3L3BB7fuCSnkcUxwDy38MzLPhvHpXcrYYgdUS6KvtyrVo+a9F7GP2MccAx0DbY2CebVdC39Vqx7C1CMxUoK+G8//5iytLEfamgfX/9Ysrpu2FgvloVHAMcAxwDLhjYJ4N55leRFkZAgjMXKCvtivf11yzOQY4BjgGOAb0GJhn25XQd+ZNCVaIwOoI9NFw/vTqNfPffW/xe/emga98/u//gdBXL4S80yjiGOAYaHsMzLPhvDpXcLYUgdUU6KPt2va7jPm47nEMcAxwDKzGMTDPtiuh72q2Zzpv9aXDu80DDz5k9p+URS+Zw7seMrsOXxpZjl1u1xFTmfPSEbPrwd2mRREj1zHUGU6uPWQeeHDNWLKOlbTL5tyCclz5D5kH1k4FY4c12FfDOReYLss4LvSrcaFnP7OfOQb6Owbm2XAe1lWW2iCwpAL2PkHvO2a7jX21XfnO7+87H0ssOQY4Bhb9GJhn25XQd7btiDms7ZTZ/6CEjxKw6rB8Tl914aQLeN3yUn397JbPBr8n1zLl+/VpQGnnqVvnHJjCVfqGZsXI1t0b6naoR/FZC6qZr+KeCW3Thm5NfVwAL7vkkg/V431j65/UywbFyTit8TTe+2o4L0vAm9uO+gvYMfN3999v7v/aT8x7n6cX+rPm2a/db+6X6fb1pHklmee9H3+tnJ4tw5f54U/MV6WMJ48Fj5rw6y7Kl/V8zTz7YVoPPtfvP2yw4RiY1jEwz4bzNK6VlInAYgu4Nq9rlwbDNe1X2z4d0bHBpG3hGQL11XZ1339xe+2rPz4btLW4RkzrGkG5HFscAxwDQzsG5tl2JfSdYSOi26p8aJgLCevGFWFeEv4V44OGWFAZ14s3H8AWvUmLdQa9c22DLLNcEOiGPX3DwDEcH1TFaCOvErjW9grOOQV1jAr3H2oaoWmAbevrG6Vh3bWO0rh1PlUDZxrWw++TYl9IXXLjfJl2vbJtu83hk217RbvydDuiOvtNd/UNAv9Rje6cX4dxfTWcc2HpsoyrXpD0BuFJ88rRJzOhr0yPA1gb8IbB7tEnTXhj8cqTaairDQFX1t89+bVM6Buvo1pPLYN3bDgGOAZmewzMs+Hc4RLIrAisiEB4fxEM2/Z22BbOceTa8UE7tbj/CMeNKjO3nvbj+mq7ynXhlSfDtpT7hfrfHZ3t9yXXJ7w5BjgGOAbmfwzMs+1K6Nu+DTCMOW2g2r6xEwd/QUMs2Jq60NcuWxMK1oa2ZnTjbf/JJJSWBp2uRwPZKBwtyyx6t0pk6h85oSGnbpKOzz32QEPPsBxZTpZJywm3P3bUNdW8+21w5WkQe8o+EiOuUzX0dXV3+7cYtqFv2NiNh8t667rcwzRydc6Nq9mKXkb31XBuDni/NBe0tjdumR98O37+7w+27upUY5Lp0bTPvsz/s7h37tjlv9j6opj+8mdlkW7ojnk5XK9fxk27a94+Gtcp3J7Gi3A29M1dtORGIryxSOaxvXlregM/eczY0LjS07ehvKRXceM2MC+9ejgGOAZ6Pgbm2XBOv/35jAAC4f1FMNwq9M3oJX8xmLbZM0v0OqqvtmuubVRtbyXttZ6/K3N1YBzmHAMcAxwDsz8G5tl2JfTttZkwg8JmFfr64FIaWkX4WDyYt2zQuWlJT9eRPX3L5U0wr9XLhr5Gur+6R0ZoGOw/l4FnbO/qFT8LzAaetT2GdflMIB30Mth/WHrdxqFr/GdqfnkJsbXOD8rzj9uFvq6OZfl2+2obzXHIW/QcDusnXkE9qj2oYyNV6Ou9r4ZzGJKmwxLAXnjnsrEBbibULcPaL8zbN4wxGu6+c8cU047eMl8YV05cvgTKd80XN0w577cvG1lnsWwY9sqwDXybg95wHY0X3T5D37AnsNxUBEFw9SZkRIjMTQkhHscAx0ByDDz7k5+Uj5SJHg2jj6G53+z+3x/vxW2eDee+ro+Ug8DyCATtet/5wwa1te3Xpi33bdu1Ndve3rVrd9kxpGmxHqf11XbNte+kvRX+JVZuHsbNPozBHHOOgdU8Blal7Uro22MjYSZF2QBvVE9f1/hKA779J/Pj3XxhcOuDy7VT/vEFGkK69dpgctcRc9j+ozI/TcNYQWgKGYsQ0q3PhrPay1eWrQt9dbyd19ev8Z+k+W3VsnX5sJ4jdljYKzYcdou58iuhs64nDF6jOqtl8F6pU7J9uTKD8it1SLfL7o/AW91aHUtpYd0+99VwDkPSuuFc6JvOWz+PC4TTINcFytVp9aGvm1dC6HTddZ8bGxltQ9/G+dzjIuI/J4zH5UPfMqjheb6r2RBqPDaTwI95OUbkGGhqPPcV+Mp6CH27XYuZG4HpClTvL8rQN2jvFm3XhvsY2+bVR5tJxwQpu2H+KWxYX23XynUx+GV7ZRrX1F5+IYgrbRGOAY6BrsfAKrRdCX2n0FiYapGdgrok+GxbsTC01dBUlg3HS8OtmObWU/z5lZ0vCBn9fBqc6rsU2Tr01XVLQKohaCUsjTfQrscHnK7nb7dGY1jPcNitxW1zfeCqwa2uswzSy1rmxpXORdnaAC56WpcltBry++OwfxyG/jKgKL9VIePN1FfDuS4wDcfXB7plACthbdHTN+yhm+udK+Nsz+F86FuKBL16bY/hO+bt8JES2rM4XF8w3Hhhagxz9aKef0acfY6v7W1XfUxDGvKmn9M62elNj4/gZoWbFY4BjgF/DOQaz30GvvL9ROhbXoEYQmD+Asl9gFbIt1/3rwW9dYN7BJ2tfA/axb6tX/zFYXHPUc49raG+2q6uLeXaaPaf7qZ/ccV1k+smxwDHAMfAII6BZW+7EvpOq8UwrXJtY0mDxBEr0aDUPl6gJjHUAPXBpj/z940w2+Byw42BYbBeDRiL97Uj5vCusv6VMFXrEwa6Ok57qPrPjXWw2an0LnDrcgFwud4mOX00RFFn7Zlg6+SDdB2n72F9pXA1KMYHDdli5Q3jdh0xJyWkFXO7vbvN4cP+ERe6Tn33DeF8vXW5IIRXx6Ie0xvoq+Echrt1wyND30ywa0Ngu/nJM3m/7R7r4J7FWw19wzrY9Rof/Np1BMGyf2xE2oM4XD4NWKPPI0Nf12O3+U8F3Tz3681GpqfJqNBX6iQhcvN6NITmPdqHNOYG0Zhjn8z2vAwbz30HvrIvCX2nd92mZAS6CzSHvq79GrRD6wLc8B7Ht/Vdh5Ka8rtXtNUSfbVdK9cd2/6iLVVxoZ1EO4ljgGNgAMfAMrddCX1bXf4HNFPYIGqslg8UNRh8cLexv2kvPuufW5VB6KVLaTCsAaefJ2iAlQFjuXy1Om75XDgrIaz+Q7doul9HPnD1a/DzRMtVV+4fTeHq50Jf1+DMzFodZdcx3rYVPZGlUVvsr4aAtwiG9fnJa6bslat/4ubDW/9YjV2Hj5j9Et5K+WHjOVdvWwe/7RXfpm2ssnQd01fDOQxJ64YbQ9/aZ/ZqL2D3z+A0nI0f39Ac+v6NDYj984DrguWG3r6Njd/G0LdN4KtBT/k4B9drN3x0Qzhc/WdvWj9ZjtBXPXnX44J3joW6Y0Aaz9MIfGV9hL5dr8bMj8A0BfR+Qe8tfEeSok1ahraVzh5FtZJ7Bt9ezf0VYbHIlAb6artmvxszv3jPzjeAAIR6cX3nGOAYWLVjYFnbroS+U2owTK3YIkRsXoMLZdfMfnnurn02724bshZLNZRTBrppUOgCQul5ur/oPVyGy0XDTFdi1+EbfmHwaDQAXbPlRMtpKBkEoVpc8d5mnqKnr9uGLj19ZT1u/rLxakPoMFz1/6iiGjyXHmFwXfwjt0ro7vaP27ZwWam3+2z/iYX0WJaeviNCX93vJwss7XXs92U4fgbDfTWc64LecHxt6Dsy8HXBb7m8C4CzPNnw1s1vn+Nr1xU87sH/07fsIyX8Ix4aL6a1oW+XwFcaLGXom1sfPX1p1OWOC8ZxXAz1GCD0zV6hGInAnATKUNfU/CM3F/a6dn9t2zls+6ehr7bNo7b4dDa3r7Zr9vuT0JcejQT6HAMcAyt5DMyz7UroO532wvRKbQhri5X6hpI0qmp/oz6ynOC39kEDSwNhKVt6BtvPwXRt7IWBZzpsG3s+ENbHL6R1l6C6/kfD0aYg09df6+bXV21oZtYi8+7abf9rsAbSup32kQu54Fb/yYQG0kUors8tXjP7d4UBr6zXb0fjtgahra2X+wd6dT1907Da7if7LF+xEhMJ7n2YfDjt2Z2xmHBUXw3nMNytGy5DW+29e9n8jX/cQu4fq738WRjO+qA3G+qmPX2/NBfss37detwjIvTxEG7eIuRtEThnbwq0MZANfUcHvq88GT/H14a6+ngHLTt4r4S+R5+MevXa6ffX9wJu3IZgPcxHiMgxwDHQxzEwz4bzhJdFFkdgCQW0fSmb5trftv1s296+re7b4Q9UHjHm28LaXledTOhbtJvTeXWZnt77arte+fyY+buo7TW6/dbH9yNlcJ3lGOAY4BgY3jEwz7YroW9PDYSZFWMbTaP/JP/kmmtkhaFvGghmw9iaDSmWLRpaGrzm6+Lm99N8Q08DVLeK5kZec+irQehDpi7E1XC6XGdzfcvNlvmk3kGjNfcP52p7+pYlxUN+/VHAmxknVrtcQLz/8BGz60H/qAdxLxrMTT2Qda2ubPGx+0KWtw1o2bb/v72z7bXlKM90fsJ8i/Jp5ieMlD8SzS8wCJxkZGETHIGRbAVmjE3wGEfYKGSImQSNPEmsYWw5AqGwFWJCIMY+kA0zKMHY2SeA37bxMWefjY9tavRU1VNdVV3dq1evfl/Xls5Za/VLddX9XPV2d61e1T49eqzXoQbOTUavbLdmb16A6AfY8l3ux9nEsM1W9BYNXzkuN30rM9mlrYavms1puiXDOS5PqVOufoQtfvTCb5r/+g9vmnMxgu0PtKX7fjP5obXoh0Pk2GTSUe8Ea6avf4ZvdR0M31Kc2FZnCU3QZAoG5hw41/oUNqDAsSsQxpciRDV+1gUTdomBLopIxsE6ns+N4Wyc6xdbuDH/+GPYocauti3Mxmw8Jos+coo+kmvAGQwsj4E5x66YvmsbqHU0fbVY1vDLB1iyc2c63pD0A63KPI0efRAMYL2af5XHP3z4IyYxlfNjg4GZmcZNg8LsEq4IblCYG7/BoK6V2w1Ea6uLrRy5gVwNWuVaycDV5sXtz68dViH8sX90hTVuK6M1NbO9xlE+9Tpf+eMqPyGGotmOxztUMmn+o2uEmFcD5pB2deKg74YaOMcm6dbe0ykvr1MmJsQEBpbNwJwD50E7SRJDgS0oYMeX3riNTN9qjOnHotm36FqL7ucD8fyj9fgBdw41dqUfWXY/QnyIDwzAwJQMzDl2xfQdcJAwSVLBuOt2tWrAlR3fJx19rEFu4GZJ2482fTFl/bNo/5N/tq/s9PvEMHUrciPjdw/T115Hj9e8FUzqPHvumvVVBKmBqwZxdFxS7gbTNwxSU2M1PNM3Mngrg1gfZZGfI2sj1Lz1uu1r+lrTufrRPPejb3qd75uvfLgyl3Odhvg81MB5a0ZvXJ4pOxuuxeAGBmBgCwzMOXAeom8kDRTYkgLpXEPHrTpOdmPNsODCzwF2mrlhPD29UkONXbfQ1lIGxgwwAAMwMAwDc45dMX2nH0t0uqIdQGVGZrJytmFfPogKA7EGczRJMzE1/V15vU6yr60IbpAXBnfhUDUa4x+B8ztlANg5/ZBg/Y2WcYi0YrN1n5W+djDb99EaTqMkhvIoBv+oDmuWZ2UL8VU1/GDaxlWOVW3t9spcr/iqtmkSQ74ONXCOTdKtvacjHaYjRUd0hIHjYWDOgfOQfSRpocD6FcjHrt70/cr37bf+vnIqjyrLxprZmLSoAabvUf7QEf348fTjxJpYHxsDc45dMX2LIw02rlYBNT0zc3S15Vl5xjF99Tm/za/H1uFRXgZ5MAADhzIw58B55d0y2UcBFNihwFBj10PbOc6nr4QBGICB7TAw59gV03dHx8/u9SlQPb4hW1mwvqKsPsdDDZxvf6zZNF3zyt8P/cU5KzmubaczZ2BGLGFgGgbmHDivvmOmACiAAq0KDDV2pT+Ypj9AZ3SGARhYAwNzjl0xfVu7fXaiAAocosBQA+enf3jN/Pafb8v4lfJIudbQSZFHBlMwAANLYmDOgfMhfSLnogAKLF+BocauS2ozyQt9OAzAAAzMy8CcY1dM3+WPPcghCqxWAQbO83YudO7oDwMwsEUG5hw4r7ZDJuMogAKdFGDsSr+5xX6TMsE1DMzLwJxjV0zfTt0/B6EACvRRgIHzvJ0LnTv6wwAMbJGBOQfOffpCzkEBFFiPAoxd6Te32G9SJriGgXkZmHPsium7njEIOUWB1SnAwHnezoXOHf1hAAa2yMCcA+fVdcRkGAVQYC8FGLvSb26x36RMcA0D8zIw59gV03evYQAHowAK7KPA3/zd0+bqz17iubX8WBkMwAAMwMAgDEifIn0LfyiAAigwhgKMXec1RjCm0B8GYGBrDMw9dsX0HWO0QJoogAJWgR+98KJ5+h+fwfjF7BnE7NnaAIDyMKiFgf0YkEGz9Cn/8uMX6GVRAAVQYBQFGLvu1y7Tj6EXDMAADDQzsISxK6bvKMMFEkUBFFAF/uWFF+yqLPlKA//QAAZgAAZgoC8DsgJP+hT+UAAFUGBMBRi70k/17ac4D3ZgAAZiBpYwdsX0HXPEQNoogAIogAIogAIogAIogAIogAIogAIogAIogAIoMLECmL4TC87lUAAFUAAFUAAFUAAFUAAFUAAFUAAFUAAFUAAFUGBMBTB9x1SXtFEABVAABVAABVAABVAABVAABVAABVAABVAABVBgYgUwfScWnMuhAAqgAAqgAAqgAAqgAAqgAAqgAAqgAAqgAAqgwJgKYPqOqS5powAKoAAKoAAKoAAKoAAKoAAKoAAKoAAKoAAKoMDECmD6Tiw4l0MBFEABFEABFEABFEABFEABFEABFEABFEABFECBMRXA9B1TXdJGARRAARRAARRAARRAARRAARRAARRAARRAARRAgYkVwPSdWHAuhwIogAIogAIogAIogAIogAIogAIogAIogAIogAJjKoDpO6a6pI0CKIACKIACKIACKIACKIACKIACKIACKIACKIACEyuA6Tux4FwOBVAABVAABVAABVAABVAABVAABVAABVAABVAABcZUANN3THVJGwVQAAVQAAVQAAVQAAVQAAVQAAVQAAVQAAVQAAUmVgDTd2LBuRwKoAAKoAAKoAAKoAAKoAAKoAAKoAAKoAAKoAAKjKkApu+Y6pI2CqAACqAACqAACqAACqAACqAACqAACqAACqAACkysAKbvxIJzORRAARRAARRAARRAARRAARRAARRAARRAARRAARQYUwFM3zHVJW0UQAEUQAEUQAEUQAEUQAEUQAEUQAEUQAEUQAEUmFgBTN+JBedyKIACKIACKIACKIACKIACKIACKIACKIACKIACKDCmApi+Y6pL2iiAAiiAAiiAAiiAAiiAAiiAAiiAAiiAAiiAAigwsQKYvhMLzuVQAAVQAAVQAAVQAAVQAAVQAAVQAAVQAAVQAAVQYEwFMH3HVJe0UQAFUAAFUAAFUAAFUAAFUAAFUAAFUAAFUAAFUGBiBTB9Jxacy6EACqAACqAACqAACqAACqAACqAACqAACqAACqDAmApg+o6pLmmjAAqgAAqgAAqgAAqgAAqgAAqgAAqgAAqgAAqgwMQKYPpOLDiXQwEUQAEUQAEUQAEUQAEUQAEUQAEUQAEUQAEUQIExFcD0HVNd0kYBFEABFEABFEABFEABFEABFEABFEABFEABFECBiRXA9J1YcC6HAiiAAiiAAiiAAiiAAiiAAiiAAiiAAiiAAiiAAmMqgOk7prqkjQIogAIogAIogAIogAIogAIogAIogAIogAIogAITK4DpO7HgXA4FUAAFUAAFUAAFUAAFUAAFUAAFUAAFUAAFUAAFxlQA03dMdUkbBVAABVAABVAABVAABVAABVAABVAABVAABVAABSZWYFbT94EHHjD8QwMYgAEYgAEYgAEYgAEYgAEYgAEYgAEYgAEYgAEYGI4BTF+MZ4x3GIABGIABGIABGIABGIABGIABGIABGIABGICBDTGA6buhYHI3ZLi7IWiJljAAAzAAAzAAAzAAAzAAAzAAAzAAAzAAA2tlANMX05e7ODAAAzAAAzAAAzAAAzAAAzAAAzAAAzAAAzAAAxtiANN3Q8Fc650H8s1dMxiAARiAARiAARiAARiAARiAARiAARiAARgYjgFMX0xf7uLAAAzAAAzAAAzAAAzAAAzAAAzAAAzAAAzAAAxsiAFM3w0Fk7shw90NQUu0hAEYgAEYgAEYgAEYgAEYgAEYgAEYgAEYWCsDmL6YvtzFgQEYgAEYgAEYgAEYgAEYgAEYgAEYgAEYgAEY2BADmL4bCuZa7zyQb+6awQAMwAAMwAAMwAAMwAAMwAAMwAAMwAAMwMBwDGD6YvpyFwcGYAAGYAAGYAAGYAAGYAAGYAAGYAAGYAAGYGBDDGD6biiY3A0Z7m4IWqIlDMAADMAADMAADMAADMAADMAADMAADMDAWhnA9MX05S4ODMAADMAADMAADMAADMAADMAADMAADMAADMDAhhjA9N1QMNd654F8c9cMBmAABmAABmAABmAABmAABmAABmAABmAABoZjANMX05e7ODAAAzAAAzAAAzAAAzAAAzAAAzAAAzAAAzAAAxtiANN3Q8Hkbshwd0PQEi1hAAZgAAZgAAZgAAZgAAZgAAZgAAZgAAbWygCmL6Yvd3FgAAZgAAZgAAZgAAZgAAZgAAZgAAZgAAZgAAY2xACm74aCudY7D+Sbu2YwAANjMHBydmnM5Zk5aWrnT87Mpbk0ZyfoP4b+pAlXMAADMAU8EzAAACAASURBVAADMAADMAADMAADMDAfA5i+TWYA27m7AwMwAAPLYuD03Mjf+WlLp2mPcUZuZfqeGOf/nvrXE1cuTN9lxZf6RjxgAAZgAAZgAAZgAAZgYLUM2KnY+Wkx/237HnhA52t+nvbAqZGZXzLvkwTaFvTMyo3Lf5LfhvzYOaqd1e733+WZatMyFy5cE9O3IAp3IfaDCL3QCwZgYEgG7IAg7gPtwMF1/PHm5H0YALgO15yfmmD6WnNXBg0n5uRUVvcaN2DA9C0OyIaMJWnRNsAADMAADMAADMAADMDAlhnw869kcibzrXNzbide+Q7/OTGHV276yhzTlzU2ftuNbmUiM7jdSeZ0IK8S03cgIWnEFFheYQEGYGBoBvxAwhu7zhQ+dx2hN3TjO59q9p7q4x3khGAKP2AeULPXGsA83gFeh+aV9GAKBmAABmAABmAABmDg+BhoMznb9u1a6evmf7F57OeCC/PzNJ/O+PWLluJ5qM1vg0keFy9/X0ujO1uYvguDhIaxO7xohVYwcCQMWJPWdezakUo/KJ2pGryl5/a27bPsqPnLM31Z8ctYAAZgAAZgAAZgAAZgAAZgoBcDdt6VGZWyKKe0XQ8LK2LjCZ6b5JkHCo93CHM7Of4AE3RwD8EvQnLlEUP30lyenRpXrNICI2/6hpXO7St9Q7l7sonp21O4wUEhH70aF+JwJKYf9eOI6kfhzqd06tFgIJi9dsSQ3eX1na4OJqrXc3MamceYvrQd9B8wAAMwAAMwAAMwAAMwAAOHM2CNyXNvdPrXYPp6g9ZO56LH9gXT18713RzQfXuz/li/JK2lmL62QJfmzD8+MCmPn5O68uT6YvoekbmRB5/PNLgwAAMwUGMgGLmZwevvADtjN99XWAV8cmLsIx/0RwFsuqW7r8SgFgNuvDA2gQEYgAEYgAEYgAEYgAEYKDDQavpWq3CSd4lJ2uGH3PQah658HWqeY/NhdGFR/KNzuoipPj9119b9iRztHw5Y2cxK3wKwQ0FAOhgnMAADMNCXgfod3nJPWDdttQM+88/0Dc/21fZe7w5j+jJoVSZ4hQUYgAEYgAEYgAEYgAEY6MWAm3+ls7Vkde4DD7jHHexa6Xt+bi7F4PTztHP5JTj/GAQ3hfOPjDjABB1mfh6t1vULlNTEtguA911klKUxTB7dPBzTl0rdq1IPCSFp9TXFOA92tsyAM33LX4nx5dav1GTP5LWbz0+r5/02HBd+0C07H662zBVlg28YgAEYgAEYgAEYgAEYGJIBa/o2Pd4h9YLDJzVJbT7UKZWVs+LRuQmdsYt4rOnrTNbcSB6yDPulFc1VI8NWi1HNYSNzuMV71EVLtuz2uG7ndckzpm+L8F0E5BgaSxiAARgYg4G+K32rDth2nvYusNuWDCz8V4h01FF1zGOUhTSpIzAAAzAAAzAAAzAAAzAAA9tkoMn0jePtfNxTb+hGj0OwOy7N5aX8PtuJXZSo8zj7jc2wOth9wzOkM6OX50xa/41Tb/o2zSuTYx/wjyDUg/d4VW1iTbu8x/SdEZQuAeKYbTaKxJW4wsAuBirztlErP0A4i1fqulGAvUOsg4UTa/BKpxwbyfrQ/frjIRqvR3/BN0NgAAZgAAZgAAZgAAZgAAZgIGHAGZupg3l5dmbO003Zp/iZt9VKXpmLqbFr0xXTN5rj6b755mx+Fa4+YiIyfdNFRjrf9XNQ/5iKNN+FfT69viZvmv4DBtOXyppU1hwQPmtF5RUWYGBaBmKDNhsfJB+bTdvK9G2Ine1Qm8+ftrwNeaSPoo+CARiAARiAARiAARiAARhYAQO7DdnU3K3mW/F2Nw8UA1VN3zhdeT+UIVpdv99cLDa7a4ZvNNe0+ddHV0RxdNv95Db6hqpRQzk6tm9eMX0HELGv+JzXr2KNr5u/c6OVMqqs7deOG6q0bDvNJzikE4eBjAHX2bd26LaXbDZtd9a7znU7rc/t7QDHog8MwAAMwAAMHD0DdowSr2JTJiozo6aRHZckd7ZbP9QMBsaS2VhSNT/0lTlejVVYG4m1Q1md63z1T7Im6/zMyO9qN//FbWRUz6L205m+Z+b0/Nycneh1mud/U7Eam72X8uNz+sNtcd2I56pRmao8npgT+41VLVes1HBlXJfpm0/QrXCxMNH7BmfcBUfh8uIWl1nPVWG4blUJemihTEj89X2ERXjbFHMdbCk/+tmeWK547ZdxZbDHNF0zbhjkvV5T85Dvr33WFZHl/Fk9NZOd0+yhfS1fpHEQy0evp3Idam3Dm2buMX2pg9RBGIABGIABGJiMAR3Dl0YsOga3xzSMXdr2xeNCfx1M33a2Y1MmCYnGQp+tGX2OWdHpU3Ku/6DaN87xGlm4NGdnTV94V49CylUygUo5kW3xeQ2aaH4ayhqX273XcXgDq8KjCtQlTb1+UxHy7XGa9tyWfMR1o/a+oGM2J2+MYS2t6pEDVqOoTMpDqqNqqIWTMuTbdF/12rrgpZCn9JoN8Z/wvJKedluIqYtJvZy6/dQaxbrf1uMsZlLm0nWm08JzFcrk4qp51nyk3mNTbFJGXRrpNmP68u+uuQHTt97INU/0vXgKja+o5UraFBS2K8SDvtpaWzV2Xd6FuEUNrpwXtruWwP36Y2joMgbCdolroREOFbn6akFe7qrBcWm7iurScnmJt+/gJytLTYcoP6GjlYPC9kIZnCjcjUxivSMOHDsjL76OJvBnHV2pvQh1oIptc1/gj7H1LUt7hti74jTkQ9sE7bc0fyUNokF/a5qaBq9Fzlu1a4qH1bLEbtU+u4Ff1Eehf1H/uI8tYl5qG1rjUrUJcdq876fLPhyX46fjdj9eKbTdxKZ7bDrFQ+tHqe5IO6T7836GNmpnG1Vj1Wrp+3NbARzvyXgk2l4+PwlU64cw5yFWxViJ7rV5megftTtJbDIdXahOgwFbS8sbs257Vm9jFjTd2jbXDhbP13OGeNU63kRTpMdg80srXvQVfJ+HlNly+e2pcZ5OToz9MS81vnzaTcWx20N7ls7Dq5hW8aolF1870b8lv+F6VbrqLdgyu0KZ5HdIkrTj83Q8qf1lvG/57+say2pW3+dHQUu4jxg9P5Vjo7LXAqSJNMydGnUdVzvtjzV3+pqUU/MWldceV+Snyq+TINJE0+n4uhLTV8FX6XwD0ghANclKOlN7fAVHU2D0KsUAdRQ2uS7nFDviLhq5kJ2Zk04ausYkdCb25LxyeJZqFavciLs8pp1Fku82Bl0NNqd5pbZ4ul+ljNNyPFZ8xvv0MqFskR7JYMVfy7Lr3+s5benH1+J91cCiBVpMwYCr3+W6X5qMl9uDdIDUmmbUfkxRvrVdo1U7bc/zPqQKStrfyfF+8qBjDm2T16bL7Plt0l54btsH7ymTB+rRiWONR23iHLdTbtwVmy+zM3agNnPkf1c8dH86p5FxbdTnaLzydm2FeswRg+qa9fmqzin1VeKg3YVuS1Zp2lhEsWmKgY8Z/Un7OFX4l69dn/sfk7Kvl5d107cKRrVqth6o5CgbN6070Z5Q1wr73GFRfCeIo2sDomtGTGkRSxzZ87QN9/nsPr/07XvcphTL6o4Lmvm82XzptaP8JnmKtld1sMRDOo+3acf52mPFaFO+3BikpLErn+jr4uB8Cfc+giZ6W2lR0LBzmUs6sK2dk23rsxLT1wfBNhalCtUlSL4jDpVcK2HaEBwzDEsse2PjWmz0NKaeB9eqd1rpWzXEnpO4ownp5Ay567jdLXeBw/kNX0PwnaC5vLTPgsmX79vTG4xiiVmtA7QnuHri3laPuih16kuMO3nq0qZxzFY4cXW8oW/T9kH7Lv0ct1GF9rA1zcLxW9FyiHK0aqf6azxES3fCzh+U0EE+7XDPtqukvbLctk+P4XUQ83cnx51j4Se0O9qyIer0ltNoj4fXOF4xVaoHnWPWs+6WrrnVbVZL35/bviEyeSzr0bwzPlb10FhEJlDbW/qTdialflyK4SvGr8ylLi/t+/hmk61DDe2QC2HPOV5jfIUPP6fMglsZfu3l6tSmKUszzC/dsChbeOXzkzLr2qi83Pb8hpi4spf1q+SMr104VsZwLpPVKdm7NJ/VWK+23dfdipU4dupN+Dz4sWOZuboWrn1vmB9om8HrIGObTnVqxVqv2PTVgYzW0HNzlj0lOmlAtGL7ylY1Jq4SJseuOKBbA7aKU9yAZu81toqCfT03p8Xt/qB4wh46oYwp29loA3xmBwt6ibjBb79MbPQWWPMnV+lpHqSzqjqpIp+FC1fpiEaF68E2HQMMLI4BV5UbBnU6aNc2Sz+3DoZ9u6NfgyPme8V8r3iEdjqeYGR9lNffDd55vEPvcYqyr3Uh5rptX3wc7/eqC6VY7eK4tf4k+vvxzo62rJQHtlVtTHs84jFldU5NP+rPwfUiaKpa6oQhfhXW7f66KRzOT+pIS8w4rlPMtH7EYbDvo3bHHhN9jmNRmGqFpGTOZffbPqkw52pkoTJ9q/lddn7bhUMO6m9Cev78al4YtwVjzy/9tfK+ulGPejnslhATzbseV+ln8mtIvXBByRZ9FepSdJzjxI/j7PZsTO7zHvQt1j+Xz0pzuabfdnaW/MhXI5e1RV4NWhavXygjx3VqJ+I6v9X3qzd9bcXyldaavraByBrO+Fmt0jjY43XiVTV82pS416yyU2lmqTSu3e34eAcf1/YGud4g+tN8/1I9diHeLjtDunZHNcF3H5vuAscdQM5lPS+uofENvMvRzmf/uHxqfpp49lSfVeXbaqNGuZq4YvtS2XB1uKHP0UFyGNhG7UPYVo9ta5r0Z639Wat2eTw6TQRcfHSQn04I6rFbKqez5yvXPua4bV98HO9b2e8S43aO95mg+mPDxJ660EX//Jj2eERjwjadqT8H14sQF6ul789tZ+LG5zZOl2fuuaQai2i/Pd91Pm7Avsf/YX5C+9YSR9felPpfjU3pUYIuRP3neNX50r5JHnSsF9XNKNY7Y+nraqkcgcFGDnyba6+n+Whudx2OPeaXnuNaHot5d3nKy22T0HoSyuPzb7d7/UrjYCd6Z9O3ddGgXHuf9rFWRpdn94xa9Z6aNS/FMI3DfueW0mPbcWq4TtP39Myc2Qc8R62kaVnpK7Xl/DTcjXNtgTTgEnTXaOSNDRViGRXCxqrW6Jfz5hpFYaK5I9PBcfL8rNCZ+HR9g22ZsO+b0xNOquvGPLr38uwofZ5juNt3Ws6/pFXlz/4iXcvgRdOIOvCoE3Q8x2zH7/VcXqnnMLAEBlwb0tDOlAabWaNT6r9a08zbPD4nbW2rdnk8fCxKMcjZ0va9NhFC/0T/XLfwOdc+1q1tX3wc77tp3aJTK8d7xSGewNMXBc5btC8d0xoPSUtjokPUkkmix5T27ZmfUh6PaptqqXrHr5dn5sxOSR3vNnb5HMeen40HGrf1M5GOKR5aP+Iw2PeiezaW0mPi/rzhEHvozjmenKxGv/wslf14auwXk8/P7Gt1rbZ5mhqHVX124wjZnrHSUF8THTrV8/7zS3ctNYujtt3XjXQM5K5T6eCOt7pndcOlq+V1enVZ6ZuUXYMsukll9I++acyzfptLNGuDQdMNx2n5q9jZa0iZ2toIm46WMWonOsb5mOo2ZY3qVkO9jzVaoekrtSGtDHGB2t7bulpr6Noa2f3EbLs2+/ppWWr0i1rmDejluTm/1BY4eg0diPyKZJYnbcz9MVUH4DsWi17LqmOX2cLKXGnwz/0PuhXY1etG2Wx+q52Iy3vekV2e+cFEQwJ5p1rUskPDwXkZO2h2sJFwzEy5JqDQNghX2rY19F1VVU/Pb00TXlt5bdUuj4dvv9NJTLl90Pa6y7HHXB8ay55rH3Pcti8+jvet7DdqH+nWyrGPQ7exhjcVwrisXG+65OmYj2mNRxQ331SFLiNph6g/B9eLOoPNppTETOqIjUnet2ssQqTa3yRxjOJdz8+x16/KfAvauABEK0JbPAF7bDrOcuk0z/GqOifn+fZOwmnbvGhuGYW41Ha6Ou6v7fmwcT+VhUVycjo3TMsXJd76Nk1D2xU9ZZ/5pSt3mp7NU5z3wKrTJS+3kzuac3sxq+PK+ml+a5rYa2fxs2n6fNbqXXZsyK/Uo1LdLm2TYyPuNA8SN+tlyTlRXIULPSb2KHzZqevH3oYdVv71mL6hMpYroWucCg1MVEld3dYVviqcq6RVI6LbeQ2dRqTh1NtszHZOCLShdQ/pt1+huBSTtYphczr+XOkl/MArdHS+Uz6xdwKjRtn2KHXWXJvstieseXblRwTSTqi6tjTkuxiu708HEKdn50bKLneQHc8x2/H7Spep48n10B4G6gy4tqPctzWbvppO1Y7EN0Rb05yxTV9D/Fu107GITtTdwdXjf1q01b6Fgbuyu+drrn2sddu++DjeH2xutXK8Vxz8GGbnGG9PTo4sxq3xKGjhmyw3ktVvnu0VN+LRqR/zmtrxuH1f9fE2Bn5xSm3+mR1rr9W4jZW+nWJh60Fkvmm9sIGI53PNcyVXb/aZ4+lNe7+iVMYMkoiu/O280te3kzrm8FyFcYT/rHNYp0c1Lpxjfun4jgxb1VvzWjmz7e9C31CVx52gdclvV23kOu7itQVY9Tm0HhvHv2PblsfAlq+JnZg7/94+31fKUO0L+bNpa/l8fhx8JsRc9eT14PFM9/ajIxsLjslKTF+pSPFKybzyN7UZaUW2dSZuGKJKWk8hq3ALDuKWgW3sOKJ4uIYybTxzTXam4xtU4aAagClnkrasDC406NF5dYZsarbjCYeFDqzeeIQGPypbXI58v5b7XJY0h3TjPDa9r187vg7v0QcGpmXA1eWGyZsfXFbtUilv2lZV7Zdrc+jH+rC8Xzz8hCy0waX4uG2t6Ta0+33yv9lzdMJYG8fp5Lq6ebtZDRbASTvH2hal4+9yPLrXnfL5zXXtmI5vj0dZozAm1brUVrcWwNx64qn8l2cEdqtornrbJiuLUbSvJZWwCyMo0y/htS0e6df7HWPu+DDeChUlyJ29cWOscFgyDsivfelX5WoS7nO4VsPjJmtjOc9HHPddbYDb39wm5/vd50vTd35p85xo4WPkdmSGrOsHKh3csU1p5HlNTV6vubZrEQtOR9XejZWrtCQPbq5fLZxq5qo6Lz6mXI5kpa+u+g2mb/VDgDZ/oW3Ixu4+83HM19Mmxhrxfs64rcT09ZDYhi6tCKfn7nNVAaXCp8eowKFCRY2ALtHPGxs9h9d5K6iNWanjSGJ4as5tA+8aXNcouvdV856/KzPi4l2dG7jQQVgxL/54v8+1zVnn6s8P6SX5dxpXDJc1r+935bbb7bWrfOeljT+35QHey9qjyzp1KdXFej1aQNla2geX3wZDOGpH8uNc2dvauQWUO8r/ourYnvFQ7Xe1rXocA/ee7Gk/XJjQBROltG+pnK00Xzs5do1P+PZUc91Ox07Nx/XkZaX67qvDzniUdPAxCm1WW90qnc+21hVmSUwa+pPS+KQx9jYN+vNGffryaIMQz9cy09emm7ZTxbg1xLg9v7kp7GZqoU7KtfN6Ktv8tdJxhE+rOEft+U3S81P3DdQe88uiRuF3a2K9pW13+ibl1t/LqZXHx8Kvko7ntuX3+bXkelWMbT7lGqF+VfuaY1fOb1M5dLt9/rNkMjZ27TeJ05y749K67tqTdFtz/ugv0abMwLpN36gxdBVCVgOf+me51iu6Pbw2IehSwcviAdX4uoQGuVOH7hritCN0edyZju9EXdMbs+M7mGQFcFpuefyDe6ZS1XAXOy/ZXevAqrQCww1lbdpvt4d0m3hu2l5dH57RYikMONar+pS/k/pVtecNbNsDnFnq3rp6XUw71J/5GPDZTb++pe1S3G/Jtlp+tZ2q2i6XHoPEvkx3jodvr/X4vO3Xr3PKr4Ire6U+qm8+j+q8Un3Q/rJtnx7Da6tR1ZWlLhzrMelXjtWw0HbKt1u19my+drirBks6TrUutyuiseqturo+M34ckBpJtXhRZ3rUGXnMWv6jIlkMtL0qrPTVeObjnsbP8fiAeNXiZfX0j9Jwhtq5OZUOW9od23HHsamPJw+a4/nriLenz8QNebCxqq7nDj2p8q+M5O2j316r77YsbgVr3j45puJyalvgXpv2O+30MQ1VXtP0C9t9XvI82s15efYwfV0+y2VM85SWL93n+p3zU5dv2+a5jNlv9epKX7upVrfa+ixNN792YbuNYTU+T66V7ZO82/21djy/Dp/TOE+oRxQzZTS013rzJGwofyOtXgcdN7U5xQFt/HpNX1cDwgQ5FctX5KxhSSpVEK3QWIV9EwLDNauOLtLCxiyLY3OlLjSsPq0+6Wj97FLhPI52EOFu3FWdq9snjXuZSy1PraHQDCSvVbrJeUGjJp6btsO46sjr8liwdccPuvI6XO0rsO0qne0f/FtXi0LnW69HS4h/qQ2otT9+wJ80C/IhG5wm5Y4PDm3F8uK9hBjEeegUj6i/CsZJrLe895qX0nOHLpPHWItFvFf2M9Zt3nRfrn3BVFlEWWJuVva+O8duTFYPifLetP/QSf1xtW3t8WjQOO8HqD/FOUjvtiLSU1f4hb5c90k7Fo1VWq9lz6lMotZjV9aejF0WK/H5qTXOgvF6KvVCH+9Qb6FCrLyWYTx1eWb2mePF15Yxmq2rIS9+8YI5t892PbE/7hW1fXYRm7aVUZvm+ckNVdFRvv0sZmauaXMbEZe9fi17XmgrCmNtq09pu2934r7a5zvXVlfC5ttVu1AWH4TLc4mc/NXzG45trQMub1ovg/lry6lliX8fx2uv9TboEcVErtdYR/319PnphWOTstbSKWjZWr4sX3Mcq1rFeNnHZ7i8NfLYpK3+cF6SXjW27hb3EXWJYhbXGfte670vm25L81yOseWiUZP9y7Ma09fXdT95cuLEDYQDKGoAJACZUEmlCpVAK3i9kUwDsr+4nN9VMw97Xpl3fo7ibePp0pGO0PHQnkDMTz5ZT/YFVgrlUTAz1kLjb0cH6UBNTimlX2M4u27Tfrs9XL/Oc6VFmg/4LMQz0xyN5tUobrPt+8B59Rys+KtaLl6uDmjtDwNj3ynbZ5T1HizOqwc8oj8MwAAMwAAMLJWBavwRxh5+XOnGM2f2x5aTm7R2bOLnM/YgHb10fy3NKWBEGKnmhTqelNegl9toTsPYP5tDaTyisafVVU2e1jledW07D4sN0PDNn2weG7MQ8pSxbo9x32LrGuOm+aOe37Tfbg9lz7QJZRBO6/NLl2a0vbFsTicXk6r+SKpVHfLbIw1d+rvqSKSvxtJm16/ylrLZ7VU+q8OqbXpzJnCjsfGxCLmI8qfaxgyGbfa8Kn17TTUHNX/+GjUd9doLfdW4pFpJ/Kry6jFVfKtHmdTMfA1Irq1oGNjM6sjU2kTx1LLFTJS2BRYkrxmDYV/T9p7lW43pGwToWVDOn7lCELfanVeYhEkYaGdAB0Kik+v79GtmbaZve5r5DR7XMUcDQ9oq2ioYgAEYgAEYgAEYgAEY6MmAM3OTGxxouZ+W3lRODdQdc5xZNfYx37GwRk3QxPTVeV5s9tuJX3STZtaylXRPb1LIzY/4xw9tOdXM9wa1bqvm/9ENDV/eYBgX31TmeZVGKW/1bZi+iwOoHqR9g8rxaAgDMLBmBnb2e/7rcW4w6TrMZFDUkEByDG3/foNP9EIvGIABGIABGIABGICBLgx401IfcbXmecnkeVft8hWuXXSf7ZjDTF81g91cTQ3V5S/KifOt74Nfq6Zv2GBd7dB+hONDnEXDgrErPBy4shnTd7aKgSk1eQNKrEMjg/bUv+UzkJq51seNOjz72XaS6XG2XO5gc3aicY6OcSdGX+fTY3hdPhPEiBjBAAzAAAzAAAzAAAzAwLIYUKO2/Xm7anS2rvRd0SpnO60UU/fyzJy6XwI08uPNEhtb1mDoZp/V2Jdz9Ri/Ldem8REQe3hbmL57iLWsikVDRzxgAAY2zEDW8Tkft+PjHUIP7G+tnrvn6Nm7x/k+31FrBw1TG2aK/p4bfzAAAzAAAzAAAzAAAzAwPAOxkRmbmZHWJdNXtwXz08/Vlv8NTV3dfGkuL6vHO7gffPRzUH1RU1gN3tNz+3xxW1Td5p9Dnpfb6XPYqmdM3whCJvtM9mEABmBgCQz4u8X5yt7ocxWnaBWvtue2B3VfjwkDCXsT9sQ/MP+wjrO69hK0Ig/EAwZgAAZgAAZgAAZgAAZgYH4G8vU18crVeF6mfqjzh6N8+wTi8xYZ11BQMXzPwzN9ZcWvGLe2rGLoihmem75+zmqTCKavn/+Gz04Tm05xDhxppnPghldM3wZhFgkWeR3+jhSaoikMLI8B1wO2P4IhdLQyVEiffxTvcndL3Z1Y+76WdrQPFpbHAjEhJjAAAzAAAzAAAzAAAzCwKgbi+ZgauGr66uei5+ZPzFe8Fo+djQm/6OhcnsIbLTRSc1dmp5eXxpyfmzM5Rrdnhq6blp6GuOafpcylbftqgek7Gyjdnfl9g8rxaAsDMLBFBmynt+tOp/9qkQ4UdHARjOH8q0f2NnNqGm9RO8pEmwADMAADMAADMAADMAADMDAVA3bu5pbyWmNT52Wtpq9/zMGyfwRQFg2dm1M7r6ybvjIPtWXda6Wvf+5vMtctr/7dN36Yvpi+4c7CvvBwPB0GDMDAOAz4Ds4asl3+62baysBDzeBx8g0P6AoDMAADMAADMAADMAADMAAD7kfIqvlXN9PXm5/6aL4l+3UNpm9t9tpxpa/TK34M4TDfSMX0XTJE5A1DGgZgAAYCA51W+lq9/Fduzk7cV2LsHdNTc3p+Lj+RGj02YpiOlEEtg1oYgAEYgAEYgAEYgAEYgIHjZMCvfE3mrbqIp1qc09X0FQ11lXBtwY5bxWMW8SPcBdPX5cvNMa3561fuhpW/kUa2jPEjH9xk15yd+Hrkv6HavjJ6d53D9I1EP84KuhsSdEEjEv3ieAAAIABJREFUGICBJTDg+sGznZ28Pc5cmvPT2PSNY1iZwm7wUQ1GllBO8hDHivfwAAMwAAMwAAMwAAMwAAPLZSAyOeNlrsmjCqoVvJ1NTG96xknGRursehRNX7+oyD7T1/+Qmzk3Z2fyjN/q+b2S95rpG6Vny5abwD29S0zfnsLNDhj5Dqv/iAUdIAxsiQG9K1zr3nds8Ct4neNrwmDCf66frEZvZQDD0ZY4oizwDAMwAAMwAAMwAAMwAAMwMBIDkUlrFxJdnptz6+16g9uavJUhnq9adqbvmRE/uMtffn7XuGL6Yp5insIADMAADMAADMAADMAADMAADMAADMAADMAADGyIAUzfDQWzq9PPcSPd6YElOgcYgAEYgAEYgAEYgAEYgAEYgAEYgAEYgIEFMIDpu4AgYMJiwsIADMAADMAADMAADMAADMAADMAADMAADMAADAzFAKYvpi93X2AABmAABmAABmAABmAABmAABmAABmAABmAABjbEAKbvhoI51J0A0uGuEgzAAAzAAAzAAAzAAAzAAAzAAAzAAAzAAAyslwFMX0xf7uLAAAzAAAzAAAzAAAzAAAzAAAzAAAzAAAzAAAxsiAFM3w0Fk7sv6737QuyIHQzAAAzAAAzAAAzAAAzAAAzAAAzAAAzAwFAMYPpi+nIXBwZgAAZgAAZgAAZgAAZgAAZgAAZgAAZgAAZgYEMMYPpuKJhD3QkgHe4qwQAMwAAMwAAMwAAMwAAMwAAMwAAMwAAMwMB6GcD0xfTlLg4MwAAMwAAMwAAMwAAMwAAMwAAMwAAMwAAMwMCGGMD03VAwufuy3rsvxI7YwQAMwAAMwAAMwAAMwAAMwAAMwAAMwAAMDMUApi+mL3dxYAAGYAAGYAAGYAAGYAAGYAAGYAAGYAAGYAAGNsQApu+GgjnUnQDS4a4SDMAADMAADMAADMAADMAADMAADMAADMAADKyXAUxfTF/u4sAADMAADMAADMAADMAADMAADMAADMAADMAADGyIAUzfDQWTuy/rvftC7IgdDMAADMAADMAADMAADMAADMAADMAADMDAUAxg+mL6chcHBmAABmAABmAABmAABmAABmAABmAABmAABmBgQwzMavq++vqF4R8awAAMwAAMwAAMwAAMwAAMwAAMwAAMwAAMwAAMwMBwDMxq+l5c3jT8QwMYgAEYgAEYgAEYgAEYgAEYgAEYgAEYgAEYgAEYGI4BTF+MZ4x3GIABGIABGIABGIABGIABGIABGIABGIABGICBDTGA6buhYHI3ZLi7IWiJljAAAzAAAzAAAzAAAzAAAzAAAzAAAzAAA2tlANMX05e7ODAAAzAAAzAAAzAAAzAAAzAAAzAAAzAAAzAAAxtiANN3Q8Fc650H8s1dMxiAARiAARiAARiAARiAARiAARiAARiAARgYjgFMX0xf7uLAAAzAAAzAAAzAAAzAAAzAAAzAAAzAAAzAAAxsiAFM3w0Fk7shw90NQUu0hAEYgAEYgAEYgAEYgAEYgAEYgAEYgAEYWCsDmL6YvtzFgQEYgAEYgAEYgAEYgAEYgAEYgAEYgAEYgAEY2BADmL4bCuZa7zyQb+6awQAMwAAMwAAMwAAMwAAMwAAMwAAMwAAMwMBwDGD6YvpyFwcGYAAGYAAGYAAGYAAGYAAGYAAGYAAGYAAGYGBDDGD6biiY3A0Z7m4IWqIlDMAADMAADMAADMAADMAADMAADMAADMDAWhnA9MX05S4ODMAADMAADMAADMAADMAADMAADMAADMAADMDAhhg4WtP3n159xjz+o8+aP/nB3eYzp3eae597j/0n72Wb7JNjFufmf+c5c/Gnf2ouPnGfubj7HnNx223un7yXbbJPjtkQpJSFu2owAANbZuAXF2+ZV167Zl68+or50Qs/5V+LBqKRaCWajcUE8ejOIPHortUUdZt4EI8pOFvrNagf1I+1sku+l8XuGuMxRfs31ricdA/3AY7K9H394g1r5orB+4dXfscZvVec2aumr3312+SY+6/cas+Rc+cC7sbPrzkz97bbzPXf+z1z47bb7L9g+HrjV7fLMdc/+EF7jj0XA3i22M3FDNc9vHFEQzScgoE3r1+aq//2ijn/+ZvmrZtvG/7aFRCNRKuzn7xiRLuhY0Q82vXP9xKPXJF5PxOPefXPr048ckXm/Uw85tU/vzrxyBXhMwqMp8DY9W3o8TjpDTsPPxrT92tX/7e5/8r7zf3PvT+s6k2MXr/St7RNzpFzJY3JAXzyKXP9jjvsPzF1c6O36bMcq+ddPPnU9PnGaEZzGIABGNjJwMuvvWHOX39zvFHeRlMW4/flV4e/GUs8+gFDPPrpNtZZxGMsZfulSzz66TbWWcRjLGX7pUs8+unGWSjQR4Gx6tvkHhlzzJ1zzDgmmzd9ZYXun/3wPvOp7/7nvc3e3ACWNCStKVb92hW6n37IXHzoQ52N3iYD2Kbx6YcMq36HvWMSVyTeoy0MwEAfBl68+rJ5662bfcZtR32OaCba9dG87Rzi0Q8r4tFPt7HOIh5jKdsvXeLRT7exziIeYynbL13i0U83zkKBPgqMVd/axtbsm3+OvGnTV8zZz37/w+a+5953sOGrBrCkJWmOafxac/YPPmYuPvCBww1fXR0saf3BxzB+uSs0uElCQz5/Q04M1hsDeS4Yf/0UEO2GZp949IuFnEU8+ms3xpnEYwxV+6dJPPprN8aZxGMMVfunSTz6a8eZKLCvAmPUt6HH46Q37Nx2s6avGr73lp7Z2/IoBzV3W1+fvWU04zcYvmrWDv2K8Tu4SUCjNGyjhJ7oeUwMyMCLv34KjDFoJR79YiFnEY/+2o1xJvEYQ9X+aRKP/tqNcSbxGEPV/mkSj/7acSYK7KvAGPXtmOZuayzrZk3fv/yXzwy6wjc3gWXF7+M/+uzwBuLn/mTYFb65aSwrfv/0T4fPNyto0RQGYAAG9mZABl789VNgjEEr8egXCzmLePTXbowziccYqvZPk3j0126MM4nHGKr2T5N49NeOM1FgXwXGqG9rNEKPKc+bNH2/8ZMvm/uv3DrYIx1yw1c/yzWeeelv957kNwF246t/Yy7u+OBwj3TIDV/9LNf4u28Mlu+m8rCdFZswAAMw0M6ADLz466fAGINW4tEvFnIW8eiv3RhnEo8xVO2fJvHor90YZxKPMVTtnybx6K8dZ6LAvgqMUd+u/eKGefHsZTsWlPR3/Xvh7CUj56x1nvjD1143v/G/vmB+7QuPdPr36489ar79s5/NVt7Nmb7yWIdPfnd8w1eNX7nWEM/3lcc6XP/gBIavN37lWvywW7sZs9ZGiHwTVxhYDwMyKOKvnwJjDFqJR79YyFnEo792Y5xJPMZQtX+axKO/dmOcSTzGULV/msSjv3aciQL7KjBGfRMT9/r1G52zIseKSbzWOauYuF0NXz1OTOK5yrs50/drZ4+bP7zyO6Ov8lXTV64l1zw4gE88aS4mNH3tteSafB0bDWAABmBgNgZk4MVfPwXGGLQSj36xkLOIR3/txjiTeIyhav80iUd/7cY4k3iMoWr/NIlHf+04EwX2VWAp9W2MfEzlbamRu+/rVPnLr7M503fKVb5q/Mo1c2H3/TzlKt+LaLXvvvnk+PWsIDy+WD1jHrzrKfM8BubB7dHxsTNfvZYBD3/9FBhjsEg8+sVCziIe/bUb40ziMYaq/dMkHv21G+NM4jGGqv3TJB79teNMFNhXgaXUtzHyMdUcdl+zV4+fKn/5dTZl+r74xvPmU9/93clW+arpK9eUa+fidv78/Avm4s4793yW7x3mxuceNzdPTsxbjz1ibujzevd5lWvKtRdjkp2ZL911q/nwE2fm4vIZ8+B7bzW3xP+CoRcfl5k133o4OcelFR2za7/VIrv2Q8+kGr3wlPmw5Cvf7nX85kNRvhuOEc2ff+Jum9cHvxXlz6bhyhfKHsrtj9PrW23uNl96ITtf9heuK9erXys7V3QvnHtxeWa+9NAehqrPY9v1Ep3iOMfvi3nJ86yfMX2XU5c1Joe/fvOh7oxr+Uusl7bp8XO+yoCHv34KjDFYHCIeP/1r17aHNvy9d5unWsL87Gekz3jEPJvJsG862emTf9x6PCYX9MALbiIezz4SjenSOkL9uGlvtByIydGevtT6YcwV80fxOPgzV44iRsuNx1HITyGPTIGl1Lcx8jHVnE5N3LbX//jEX5gXfvGm+Xf/87+HR0FMlb/8OpsyfeUxC/c+e8vkpu99z73vsEc8PPGkud7ZrP19c/nY0+ad1y7S5uniNfPuaxfmV1f/wfzynts6GcjXb7/DXCzoEQ9iylQmrRivD5tvRoa0NQmDASr7MzNIDN3EJHTmbTAed+2PDN9wTnT9YETf9ZT5phi2ybWcuWXzGLa3mNNiit71sHnwrlszI7blHMmLNVOjclsTO9VJdAxmg+iVGd1hX8hnbMwNY/raWN51t7klxCu+hmoVlSPRWY9tyovuz18xffMGfr2fsxsvfgIU2odvPZzVm5gFqUMPm282ca+TqRY2p9RNBjz89VNgjMHiEPEQM+ojf/2z3YXyhtYfPSuT/NTQkpM7p7P7SpMcsfV4TCLigBdZfTx++mXzkeiGiTV5P/ploy0m9QPT95Dqssz68TPz1Efjm4Ty+dZu/ckhYizg3GXGYwHCkAUUGEGBpdS3MfIx1RyuzeyVfWL4/vytX5pbnv5aMHxl+1T5y6+zKdP3cz+429x75T2Hm77f+y/mq6//1Fy++6r54b/eszu9K+8xcu1c3M6f7/1Ex5W6d5jLx75j3hW/9+Kqefvki+byrnvML/+P3yaNwmvfM7/8eDfT164OvvcT/fNdNOpi82WP99bMjM3LuunrTNfKKLTmZtG4rK6765h8v5i2ZcO3SlPimp9nY10rw01zUTBl7apZa/Y6gze+nqQbjK2CvpK/dH9uEhdW5DaZX0XtmozWQrqF/DnmJU8Sp4IxH51TXMEZ7bfxDnl05QyGtRp3ba/h3DR2netlkhfSmFa3isPAyQtPmQfttwBuGntzJcS+ahNsHr/1cFZH3M0SPXfacuzmRgY8/PVTYIzB4hDx2N+MwvRtqpdLikc/Suc7a+31o16PUkOsvn8+rbtceanx6JL3LR6zmnjIzcEjWO27mnhssTJQpqNTYCn1bYx8NI0nh94em77/4a/+PDF2mwxfTN+BzJVBTF9v+L5tbpqfv/mUeez7HUzkqUzfex41b1+9ML+69mNz85F7/Gre3zeXJz82v/LN1T4rfZdk+tZN1JLpq2aiGimlY3Sfe62n27Z/d3raYBTTFXO1tnqwbnxW5zojszJ98/Klea3M4nR7lV6DuVVaFSkGddEUlfxGj6eI39fKluZDtbFGtz82XfmcHh/MvMb6Xxl/Ie3GYyVtVvp20ymNw/LOaWHwvXLT46nqESSREezK4c7VGyOpORxzHd9gmlcPGfDw10+BMQaLQ8RjfzMK07epHVpSPPpROt9Z664fboXjH2XPPJFHoegq+v3r2XyxkCsvNR7zqjLf1dcSj7Vx3jeia4lH3/JxHgosSYGl1Lcx8tE0nhx6u5q+8uiGN956K6zobTN8MX1bjZzuE3J9xm7v1z6G73POFL7/yvv7r5jt+GiHG48+bd69uGne/c5jHVcG717xa39AbiD9D6lMYs5U5qc38LLHO+QrfZtM0Cofuamas5TtFyNUH90QzM6yOZQYrV6/0jaXx2glYrIaOLu+fY5x/rX06Fy7P/7syyNmszdwc5PLajrISt9cu+bPkgc13cornd25eV6Lq3hLxnTN6NO8YPpW7Ksma32tDP9wc8DH/fknHq6eY52t6rXtiJjCYUVwob7I86nl8Q8LaPckXjLg4a+fAmMMFoeIh0zS4/YsN67qpW02ffdLp57ylFu2Ho8ptRziWuuOR7qqV/WIDbD965mmMs/rUuMxjxrzX3Ud8ZC+IX7cw/y6jZWDdcRjrNKTLgpMq8BS6tsY+ZhqLqymr7yK0SvG7z3Pfbv4SIf42Knyl19nU4936Gz2fu9+8/fX3zBv3/x/5tvP3+ke33CA4avXzcXt/Lmr6fv498y7Ny/MOyePlJ/Z+9Dj5u2rL5l3nn50P1N4dvNDTJjcnJEVe7Ex4wxSNTdVW2vy1H4IzRld1oRtWZ1a26/maGQ01o5pMXibTV81tHOTN/tsDeFb09XCNk+qg2iS6+QfIZGUszLMrE5armBk+xWPUTlVT/vM4NL2zoy4lZaVgZ9/rkzIbz70sPlSpx+Xq87RfIrW1TV0P6av6rP+V8dNbHjJ+w8/9LB5UExd5T1Zxe65j24KNN9Y0Dql7Mz3KgMe/vopMMZgcfB42OeS3mrajd+y6Zuo0imd5IzJPxxVPCZXd/8Lrjseu03fRBHqRyIHH3YrsPz6UV7tvrtk6zxi+fFYp67kGgVKCiylvo2Rj6nmwLGRq8avfPP+zn/8++RRD/lxU+Uvv85xmr7Pvd984V+fNi+9bZzx++P/Zp/hu9cjHfwKXzV85TUXt/Pnrqbvo/9g3r3ZvNL3xmNiCt80767O9C2ZmXXTJ6wejQxIMXVK29tWmNq4JGaqN3xkm5pJ4Rpl07Jk8Ja2xSt96/tLpm9uRrljXBlLOnnT1xu19hqxuZuVR4zW1hWOajzHaUTvi1oHrfyzjhOz3j9/NcuHxMDlRcq0I09R+nGdqpcF0zfWZ93vqxsX+UpfV6ccM8mqX+UkMX0LN0lY6Vsa/61y2xiDRUlz6D+7IrH1mYwdTF//w25LfrbjscVjaE6GTm/d8SgbXvJ4h6YbKLvr2dAK75feWuKxX6nWe/Sy4+H410eZrFfl7jlfdjy6l4MjUWANCiylvo2Rj6nmv7mZK5///V/+WavhK8dMlb/8Opsyffd7pm9l/Jp3bxqzzzN8c8N3qmf6fvyL5u2XbppfXftnc/Nz+kxf/wiHux4xN//5mvnVxVVz89FsX4OpvJxn+oqxmZsz3czA4krfkqGrhpC8Nu0vmr6ZMevTqRu4qflaVTQ1al06+crF8FlM2+TRD9XKw8rYLulU+lG5yjBzZY2fZZq+r5m4ycrJKg+2PNlX6asy6nFtZczjG/0wnOjea3VxVE4bF0zfekw0Nmt6lTqTchrqyXvdqnlnBAtvhRsGienblE7hvLiNmPC9DHj466fAGIPFMeIRfyW9XNLupu+STYBji0c5lsvZuvZ4xM/vdaqWV/+q4rvrmR45z+ta4jGPOtNfdbnxOD7DV6K/3HhMzyZXRIGxFVhKfRsjH1PNhUumb5dtU+Uvv84Rm77yLF41fi+6/2hbbvjK56lM39vuMJePf8d61L+6dtW8ffKYubzn4+aXjz9t3rl6YY1red7v5R27n+V7cdtt7hEQ935itjsOFYzOLEy/rt/F9C2c12ToqonTur90TTVtU9OsaPqWTFvZVljl6sqe518+F8zRu/TxEG7VbG7U1o3v3Ax1eX/e/gCW+3r886pH9hpWVWbbbX53mb6l8vt0JI+psZvm0erZqFOqfcWNGN7R8135IbcF1OXmWMVx6/Q+ugEhfCTtgxi79lEPZ/UyJ6ZvXp8kf1LPMH3HHlBOkf4Yg0VJ87C/n5mnPvNlE1KxXzvf9UzGkunbJ53Dcn7o2duOx6HqTH/+6uNh684jRn/Lza7k/ajWLeqH9KOHt1fTc7mUKy62fny0+rHCpWg1RT6WGY8pSs41UGB6Bcaoby9efdlcv36jc2Hk2BfOXqrP40oexAK3/fpjj+5c1ZubwL/x2BdmK++mTN+vnT1u7n32FveM3pI527DtoR/cZR6+4n6QLX5cQ9f39z33PiPX7mRklKB94klzvWE1rpiz6b87zI0vnph3XpPVydHfxUvmnZNHzY2Ohq+kef32283FE0/2z3epLD23iamTmpklAzY3lLJjWg3dlhW+UZ5zc9J+LpiRRdPXmkmxuZmbunn+6/tz89N+jh9/YMsYGVnyuZY/b6gGk9ZdR/S1j0Sw5myURij/jpWyIb28HO5zrl1SH/LYRIZeOM4e0/C4jpDH8rVdGjvy3ymNtvTZF2I1tpaWUbdK98N33Z3dMJA4lG/G2Pwlpi8rfaNeYnNvxxi0SpoH/z37SPRDbrHh61Zw3aLGVXJcxWr4+nqyP07n4ByOksDm4zGKauMluvp4iDRxHdB6o5LF+1bwY1eLjYfqeWSvi4xHwnTVJyz5sT5DYbPIeAxVONJBgYUpMEZ9u/YLZ+JK2l3+iUks50w2txx47vrtn/7MiImbG7tNn8Uk/r+vns9W3k2Zvi++8bz51Hd/d2/Tt6u523ScXFOu3Rva518wFx/6UGbu5mZv4fN9nzNvffWr5q3PfXz/c8VMlmvKtQeuBL3Sq60SzQzdQh5T49UZm/HXwMN7++iAXfsrQ8+al/r18sRQbUojNlDTY1Iju7qG08gdm6xgvNTn4upgr7Ai0ZujrnyF/dYQc+azM42r/FXPwXXXjvMnx+Z5SWLZavpKvKoVycl5NnZuv7te9GiHWlwj/RLtc+1Kn9PVw/U8lM5h23J1cszcctfd5sPxDxiGtkJYqdgO5UhM38J+VvoubOjZPztjDFolTf76KUA8+uk21lnEYyxl+6VLPPrpNtZZxGMsZfulSzz66cZZKNBHgTHqW5iH1eb2zLWXoM2mTF8R9JNXbp3c9JVrHhrM63fc0c+4ra0ELpjDDcfYay6oYorZGpuQ7ZqKIVQydGhY2nVr0qfDKtlW07cp3fr21kdIxDyqud36vF9vDHqTvjs/9Xz10410htdNjf/4hoZse9h8Uwzf5GaA3x5zY03fZ8yX7tIbJ02vy2g/ZODFXz8Fxhi0Eo9+sZCziEd/7cY4k3iMoWr/NIlHf+3GOJN4jKFq/zSJR3/tOBMF9lVgjPo2/HyQOfaQmm7O9JXHLHzyyu9MZvzKtQ56tIOaFfKYhQ9+cDrjV661kEc7VEA7s2e3cdf1OBqLSlu0QAsYWCIDMvDir58CYwxaiUe/WMhZxKO/dmOcSTzGULV/msSjv3ZjnEk8xlC1f5rEo792nIkC+yowRn1b4hyLPFVz/82Zvq9fvDHpal9Z5SvXPBSqGz+/ZqZc7SvXkmsemm/OryoTWqAFDMDAvgzIwIu/fgqMMWglHv1iIWcRj/7ajXEm8RhD1f5pEo/+2o1xJvEYQ9X+aRKP/tpxJgrsq8AY9W3f+Q/HTztn3pzpKwB94ydfNp+88v7RV/vKNZ556W8HM05vfPVvzMXIj3m4IY96kGv83TcGyzeVdtpKi97oDQPbYUAGXvz1U2CMQSvx6BcLOYt49NdujDOJxxiq9k+TePTXbowziccYqvZPk3j0144zUWBfBcaob8xNlz033aTpK9D91Y8+a+577n2jGb+StlxjcMA//3lz8YHbx3vMg6Qt19DHSvCKFjAAAzAwGwMy8OKvnwJjDFqJR79YyFnEo792Y5xJPMZQtX+axKO/dmOcSTzGULV/msSjv3aciQL7KjBGfcNbwvQtMfBr4jaXdgy1TR658Mj3P2LuvfKe4Y3fK++xaQ/xWIe8vPaRCx/7mLErcht+gO3ikO2SNo91GJW9PKZ8XnYjSHyIz5wMyMCLv34KjDFoJR79YiFnEY/+2o1xJvEYQ9X+aRKP/tqNcSbxGEPV/mkSj/7acSYK7KvAGPVtzrkU1949l9/sSl8Jvhq/Q674lbTETB7D8FVg1fgddMWvrPDF8MXsZUUnDMDAohh48erL5q23bu47Xjv640Uz0U77zaFeiUc/tIhHP93GOot4jKVsv3SJRz/dxjqLeIylbL90iUc/3TgLBfooMFZ9G2ocTjq7Ddw+Gm3a9BVBxJz9Hz+8z3zqu7978IrfT175bZvWmIavBtEavw9+2lzceefBj3q4/nsfMhcPfpoVvphdgxskyiuv4zTQ6Lp9XV957Q1z/vqbfcZtR33O+c/fNC+/eviPqOZ1jHj0w4p49NNtrLOIx1jK9kuXePTTbayziMdYyvZLl3j0042zUKCPAmPVt3w8zedlzWE3b/oqcF87e9zc/9z7zf09fuBNVvfKuZKGpjfZ6xNPmuu3325/fG2fRz7Isdc/cLs794knp883BiuawwAMwMBOBt68fmmu/uRV8/rPf2Heuvl2n/HbUZ0jGolWV//tFSPaDd0XE4/9cCIe++k19tHEY2yF90ufeOyn19hHE4+xFd4vfeKxn14cjQKHKDB2fRt6PE56w5rGR2P6CjiyQld+fO3+5241smq39Xm/V95jj5Fj5ZwpVvc2wW1X/X7+8+b6HXcYWbUrhm7JANbtcowcKz/YxvN7h60wTTFiOzrDAAz0ZeAXF2+Zl197w7x49RX7XFR51hb/yhqIRqKVaNZX713nEY+y9iUmiUd3rUr6Db2NeBCPoZnaUnrUD+rHlnimLMvieenxmKL92zW+Zv98c+WjMn1j0P7p1X+0Zu7nfnC3+czpneHRD/JetonRK8fE5yzi/Xees2buxb2fMBd331M9+kHey7bPf95cyDGssEMDGIABGIABGIABGIABGIABGIABGIABGIABGDhKBo7W9MUUne9OA9qjPQzAAAzAAAzAAAzAAAzAAAzAAAzAAAzAAAyMxwCmL3c7jvJuB43KeI0K2qItDMAADMAADMAADMAADMAADMAADMAADMzLAKYvpi+mLwzAAAzAAAzAAAzAAAzAAAzAAAzAAAzAAAzAwIYYwPTdUDC5gzLvHRT0R38YgAEYgAEYgAEYgAEYgAEYgAEYgAEYgIElMIDpi+nLXRwYgAEYgAEYgAEYgAEYgAEYgAEYgAEYgAEYgIENMYDpu6FgLuEuAnngbhYMwAAMwAAMwAAMwAAMwAAMwAAMwAAMwAAMzMsApi+mL3dxYAAGYAAGYAAGYAAGYAAGYAAGYAAGYAAGYAAGNsQApu+GgskdlHnvoKA/+sMADMAADMAADMAADMAADMAADMAADMAADCwQSDnzAAAGdUlEQVSBAUxfTF/u4sAADMAADMAADMAADMAADMAADMAADMAADMAADGyIAUzfDQVzCXcRyAN3s2AABmAABmAABmAABmAABmAABmAABmAABmBgXgYwfTF9uYsDAzAAAzAAAzAAAzAAAzAAAzAAAzAAAzAAAzCwIQYwfTcUTO6gzHsHBf3RHwZgAAZgAAZgAAZgAAZgAAZgAAZgAAZgYAkMzGr6vvr6heEfGsAADMAADMAADMAADMAADMAADMAADMAADMAADMDAcAzMavpeu3bN8A8NYAAGYAAGYAAGYAAGYAAGYAAGYAAGYAAGYAAGYGA4BjB9MZ4x3mEABmAABmAABmAABmAABmAABmAABmAABmAABjbEwOpN369//euGf2gAAzAAAzAAAzAAAzAAAzAAAzAAAzAAAzAAAzCwJgbGXNmM6YtpjGkOAzAAAzAAAzAAAzAAAzAAAzAAAzAAAzAAAzAwMQOYvi1Lq9fk3pNX7jbBAAzAAAzAAAzAAAzAAAzAAAzAAAzAAAzAAAwIA0dt+n7xi19sFYBKQiWBARiAARiAARiAARiAARiAARiAARiAARiAARhYGwN9TN/f+q3favVKNc1FP95BDF9MXyrs2ios+YVZGIABGIABGIABGIABGIABGIABGIABGICBXQyoQbvPq5i+XYzfxZq+avhi+lJBdlUQ9sMIDMAADMAADMAADMAADMAADMAADMAADMDA2hjYx+zVY9X03WX8LtL0jQ1fTF8q7NoqLPmFWRiAARiAARiAARiAARiAARiAARiAARiAgV0MqJG7z2ts+rYZv4s0faWgsfHbVvBd4rGfCgYDMAADMAADMAADMAADMAADMAADMAADMAADMLA0Bto8z6Z9senbdIxsX6zpK5lT47etAEsLFvmhAYEBGIABGIABGIABGIABGIABGIABGIABGIABGNjFQJvn2bRPTd+m/bp90aavZJLHO1BBdlUQ9sMIDMAADMAADMAADMAADMAADMAADMAADMDA2hhQg3af17ZHOsTpLN70jTNber+2YJJfGiAYgAEYgAEYgAEYgAEYgAEYgAEYgAEYgAEYgIGS1znUNkzfrwMYjQwMwAAMwAAMwAAMwAAMwAAMwAAMwAAMwAAMwMC0DAxl8JbSwfTF9DVU6GkrNHqjNwzAAAzAAAzAAAzAAAzAAAzAAAzAAAzAQMmsHWrb6k3foYQgnWsGDdAABmAABmAABmAABmAABmAABmAABmAABmAABtbPwKym76uvXxj+oQEMwAAMwAAMwAAMwAAMwAAMwAAMwAAMwAAMwAAMDMfArKav4Q8FUAAFUAAFUAAFUAAFUAAFUAAFUAAFUAAFUAAFUGBQBTB9B5WTxFAABVAABVAABVAABVAABVAABVAABVAABVAABVBgXgUwfefVn6ujAAqgAAqgAAqgAAqgAAqgAAqgAAqgAAqgAAqgwKAKYPoOKieJoQAKoAAKoAAKoAAKoAAKoAAKoAAKoAAKoAAKoMC8CmD6zqs/V0cBFEABFEABFEABFEABFEABFEABFEABFEABFECBQRXA9B1UThJDARRAARRAARRAARRAARRAARRAARRAARRAARRAgXkVwPSdV3+ujgIogAIogAIogAIogAIogAIogAIogAIogAIogAKDKoDpO6icJIYCKIACKIACKIACKIACKIACKIACKIACKIACKIAC8yqA6Tuv/lwdBVAABVAABVAABVAABVAABVAABVAABVAABVAABQZVANN3UDlJDAVQAAVQAAVQAAVQAAVQAAVQAAVQAAVQAAVQAAXmVQDTd179uToKoAAKoAAKoAAKoAAKoAAKoAAKoAAKoAAKoAAKDKoApu+gcpIYCqAACqAACqAACqAACqAACqAACqAACqAACqAACsyrwKym77vvvjtv6bk6CqAACqAACqAACqAACqAACqAACqAACqAACqAACmxIAfFcZzN9z86umouLiw3JSVFQAAVQAAVQAAVQAAVQAAVQAAVQAAVQAAVQAAVQYF4FxHMV7/X6jbfMxeXNSf/92ksvv2quXr1qrl+/bljxOy8IXB0FUAAFUAAFUAAFUAAFUAAFUAAFUAAFUAAFUGDdCrzzzjvWaxXPVbzXWUzfa7+4YX760ivWdZblxvxDAxiAARiAARiAARiAARiAARiAARiAARiAARiAARjoz4Cs8BXPVbzXqVf5yvX+P8DjyxMRz4w7AAAAAElFTkSuQmCC;" vertex="1" parent="1">
                    <mxGeometry x="-870" y="90" width="1321.86" height="477" as="geometry"/>
                </mxCell>
                <mxCell id="14" value="" style="endArrow=classic;html=1;fillColor=#d80073;strokeColor=#A50040;jumpSize=35;opacity=70;strokeWidth=9;" edge="1" parent="1">
                    <mxGeometry width="50" height="50" relative="1" as="geometry">
                        <mxPoint x="250" y="140" as="sourcePoint"/>
                        <mxPoint x="490" y="140" as="targetPoint"/>
                    </mxGeometry>
                </mxCell>
                <mxCell id="15" value="" style="shape=image;verticalLabelPosition=bottom;labelBackgroundColor=#ffffff;verticalAlign=top;aspect=fixed;imageAspect=0;image=data:image/png,iVBORw0KGgoAAAANSUhEUgAAAuUAAACoCAYAAABHY5BlAAAgAElEQVR4Ae2d/68mRZ3v+UeaDHM8M7KIGhSXIEPUcPVcN6IcNntFGSK6MMq4g6wzzIUL7HiOE9fJCIuDF/YcTRZINjuikhiCMcMPCpL1LrA76xNNTuL/UjdV1e/qT3+equ7qc54v3f28fzjp5+mu+tSnPvXq6nfX8+k+11x77bWm7e/w4cPm2LFjreXa7Mz6eFF8yvzrpW3zp5+cN5On7zMn14ukjygryxV3fsW8s7tt3n7kE+aGol63uHXT/Pr5+DHZj099+evmP3a9D9YP58vuI+b5Wyt7xeHbzUsXt83V83ebTdFOcf2d5vXdbfPemTuC37F9sr15f4av6Au2k91z5soDH3V+FsV15sTDj5rJC6fMpduqfjb59uH7TprJ7pPm8l2zKe/jJHxysay+W1+ObBw3v1Njg/64cergf1Pf2o7ljCliKv3DZ80N2suxq2Ogxyw13mhbjjva3c9W9k/6gD7Y9lL91O3psZ86XqybC+e2a3yinVgbiEHsmLRdHPtrc+WF+rlu/X7t+Fp1/hY3mKcee9xMLj1otm6qWC+Km83z39s2kwv3mC+Vc0Bsn2yv6TPq2vZh8+c//7l58skngy9N9Xms/brHGDFGZIAMLJqBaxbd4Dzag4Ce7J40P7ixuhDKtlAGYgPb179yffQihvIxwS7t5nxOXfQhFPoiyuHP5Ln7zWlx8+CFXSV4IbCkuGqLw8xFeSm8IKScfeV3m3iDz+gPmIht5RihXu4WcU3ZKCAi1U1Lihu022YX5bCFQJc3R2gbcUTZWW7RRpPAD76pMdR+YKya2EPc9Dgm45+4adZt53wvFiDKiw9tmF88u20mu6fNjz9ZzXcU5RQQOYyyDDkhA/1lYBSi3AKGlXB7IY4J7c999e/MfzWIdg3pGEU5xEpK0GjxjZjE9sf2oXxsO2tRbttwNu1q9yf9LxFadKG/8xScsb7qfW3iOeVnaj/st9lFObnV45YjcmX9rp/hY4o5aS+UVTcntTKlgNZjLcv4Pub/KtMWZ2m77fO8RfnH/+YB8/926yvu8ImivL8XWowRtxwjMkAGmhjIEuWHDh0y73//+6Mryk3Gl3HsW99+wqWQ6BVuL8rPmpf/qvqpucm/orjJ/NPWP5im1fem+vJY6qIPESIFRmyftHWQz16s2BW2atVb2sNxKWKt8LU3OrpOtfpZFz/W/1+qNB3bBvolbcu29eccEe/jes5cOfll83oiFQX+yxjrtub9HX1P+QA+pHBFHRv7VMxQJmbXj48am0TaEezoX0gOGhfw1MVuxVWc0RwufLvx+rE+hRuThpuBWL3YvnmK8ru//vfuXPyPxz9rPiF+yYIfFOW82IMFbskCGRgmA1mi3AryRx55ZBCi3IIYWxWHyNY/aTvBmchHj9WZfOcL5pbIBbHpBIDo0uIKYkiKqti+JttdjsEPKf50fYhYxMn5HMnXRj1dvkmAoW+wrYW+toVybowiohtiyh7XsYV/dqvbhV0Zd1l+1p/RflN7KAPf/Bj53GjZN10O5e1WxxPjXSuTSA+BGJZlnc1E+bYYwV5Tn1M2MK6aJdiU8YjZQH3dF9efCEfWRqyObj/Wlt43L1HuU1aeMK/e84HkPExRPsyLsGaI3zmOZGB1GRilKI8BbVfQJ7vTK+VIU5EPgMbqc9/qniQc+36MvV8Br6/+x8bGr6ZPr5TjJqXppjRmbyj7KMr7welQeKGf5IUM9I+BlRDlyDePCe+mYwS2f8ByTFZzTLBK3rZ6HcpFVsSbjo2BK4ry1Tw3xsAu+0B2yYBnIEuUr62tmY2NjeTPpn0PJtJQYivlPtWl/dWHfe8j/eOkRgaqNBSdymNjgxz3tvSXocaRopxzwFDZpd9klwx0EOVjCRYeApW5pjGhPpb+sh+c6FaVgdjzCTGhPqb4UJTzfB8Tz+wLeV5FBq759Kc/bfjHGJABMkAGhs3Ar371K/Pss89yPuc1jQyQATIwUAYoygc6cBRQwxZQHD+O36wZ+OpXv2ruueceXow5p5MBMkAGBsrANTfeeKNp+7v55pvdKxHbyvF4eywZI8aIDJABMkAGyAAZIANkQDOQ9aDn0N5Tvop5SOwz8+/IABkgA2SADJABMjBcBijKrx3u4PHE49iRATJABsgAGSADZGAcDGSJ8vX1dbO5uTnYVyIS1nHAynHkOJIBMkAGyAAZIANjZSBLlI+18+wXT2wyQAbIABkgA2SADJCBPjBAUc70lUH/AoJ//hT7b63zOsGKWzfNr5/fNpPdk+YHNxamuPMr5p3dbZPrg/f5rHn5r9YGG/vQ5zIG84r1Qe3O0s/A2ne+YG4pCoP/e/D2I58wNxTFYMfyoDFmfYoZMkAGyMBsGKAopyjft5goik+Zf720bSalSFnGSRmE0tP3mZPrixFGod8Q5RDpmT5QlM9m8srhbZaiPNgqeQd7FOWLG8+cMWcZjgcZIANDZSBLlB89etScOHFi3+JtqMGh380ndhCnSxTlyxij0G8tyjPjMAZRvoy4L7vNlCh//SvXc27k4gYZIANkgAwcmIEsUT60VyJ60eNTC5Z9IR9z+0GcZorRscSiKG4y/7T1DyFdpWscKMqbb/b6ygnSlrAyDpFOUT7M8ewrZ/SLPJGB1WVgdKK8Lc8TAupPPzlv8Be7qOICjDJ2K8v54zYv+BYn0Oxxd7FGfvFulTOMNuVx2JU2cSJC9KGM3eoUkVnYhLio2vXpKG1+IsbSP/k5N7ca7eot+oacbX3cftc+6PjIOrAnfYzFXdaZ5WekOcj2J4IPHI/5pI95IejZkjFoilVTXxCb2JjFjsEf9CVWD+3FOJbMwb7ch7p223ZcltWfZ+mnts3vq3vB5Nhz7MkAGZgnA1mi/MiRI+b48eMHXpafZ0dwAbdiISZubNtY2ZICzguHb7gH9uAfLujSDvZBQEjRbsu540+fNm8+b1foy5XUcgVZ+ibFE2zKdmC35mMkZ7nZZnVD4PqN3G+R8xxtpyxnYzjtZ91mze6MV8oxTk1jibFCHGS8cMz5iNgJH2NjLuvM6jNEqRauftyreMbGwvmuVuTdvvKmz41R4Ku+ct/Vfyvu5U0C6mMcJJ/hWMQ3HLPbMC4NzIUyYmxqNsqxwzknj+V+To0B6gcfhJ/22Le+/cigH8RF/7ilgCADZIAMDIeBLFHe9wENoqbhTRBtF2f0ERfpmBDw4qV84wbEXnkxlwJbtwWbUuja9kI5IUpcG0oguLKlGINAStqMCBnv23Q6j97fxab3fz4Peqb8wBjJbSgrYlg7ruImj8nPGD8rdmN/KdEvbejP3mYlvnE8tl+yhXLgGmNu90Moa39iNmGnbYt2NPMxn2ArsBth1Zbx/jQzF2yEmwvxS01RGPgl+4/2c7ehjYSfaEP3Pdc+yw3nYsex4liRATLQdwYGL8r9xb/9dXS4+LZd4L3omRZSdiDlMdjDxVyKIi0EmoSjFOEoB5sSHn0M37U4034FXyKiFQIPMcm1Cb9S5XF8Eds2HxCPnFX3Wfsrx1balqxgvx4Luz8mimPlbNmYTdhu2wZGhHBFXGMsWnuxOmgnHMtgTsYIfcMvC/57/FxEW23b4Ivom6yDflo+Un2V5fmZF3UyQAbIABmYFwODFuXygooLeSpQuOBDgKbKNYkbaQNiDxdyWU8LAfipBbT1QQovbVP6qG3o7yirbaBcbPUX+xATlNV+apuhLaTFRMQXysx7m/JZtosy6K/dos+y3Cw/awakbckK9uvy8Bl8hXKJlf+YTdTJ2WoBrL9rG9pfeRy+y3jrz4i/99uvqNvPbz5yj3nlkhfi8pi03+Vzk5+wgzLSRx13lOWWF2MyQAbIABmYFwNZorzvOeUQjTo9RAZNCmq5X39uEiNS+KBNXLxrx1S+LUTKlNhNlINN6ZtuL2lTpa9AcOi2pW18zrXZVh7HF7FN+ZxqG+WtAJNx9uO3HU1dsWVz4ifbDHGPrNBKVmQduT/FYYpjWVfazP2MuCAm7max4WarqX/hWEN9+FX10z4wfTo8OG39+NJX/878VyR+qJuzDb5k2kH5/Yx5jj8sw4s5GSADZIAMpBjIEuVDeCUiRIW9mGIVTnYax9vElRa/0kbtp3YlfqUowoUdq/eptrEfQkjXk21X4sX/F0jU1f2J+S9X46VN/bmLTVs3VV7b7fo92G14RgA2Q9kMAXiQOqjbZRuLe/BXvH0FNnHM8vCYffgy0qd5iXLrQ+D7k/4/lsbOo8rX5odLY31HXbn1vJ41L9/7N+bXF/w/gHLn0tP3mR+fTcRAPJDc5KNtp+mckn7Iz/upI+vzMy+4ZIAMkAEysB8GRiPK0XkrBvQqKI554bxdWyH1F+D621dgQ17wURf7tPjtKsrDhV8JT4guKcjQVm1fInUEZSH0bd+xDzcJiIfeQhTKdmR9aRN1vfg6WN4vbGGLGKRusFDOblM+o4wdlzfVv0GHfYwlys56i7gjbvD19ccfNO9ERLltH+zF3oZij6d8l/zttx/e37Pm5ZNfM++0rCwHfhPl0Pdc5uTKNOqmzmPEQNZJ9bnVT5sOpG5+0D7GLWWb+3nRJQNkgAyQgVkykCXKh/YfPb1AmX7zgw0cLrj2gu4u6glx5G1U6Qw6NQZ2cOGWokgLAYgxtImtFr8YWNhGObvVAhI2tQ3UhV/BZpkqI23az1I0dbUJ2xCSsC1tokyXbfBD3bDABo6jPb3VfZ/yLzHmsD/LbU1Alu36ffEbGYxfKoawp3mQ/O3Xf3Br46ljaG3K4zrm9vsUi1nM+RV3Wx99ku1gn+yTHP/48cpmjp/6XJe+yHb5mRdfMkAGyAAZmCcDWaJ8ng6sgm2ICC1aVqHv7GO3CQyiPCaKGctusWS8GC8yQAbIABkYEgMU5dfOH1iK8vnHeEgnXZOvPh0o/itPUz0eI2NkgAyQATJABobNAEU5RXmv/1PrKk0wSKOIpWSsUhzY12FfVDh+HD8yQAbIwP4YyBLla2trZmNjg+JtnwKeK+X7g3MVTmqZP516uLNrHJB3Hsunlvtm1V5X/1ie5wMZIANkgAyQgWkGskT5EF6JyMGdHlzGhDEhA2SADJABMkAGyMAwGKAo3+fqNwEfBuAcJ44TGSADZIAMkAEyMAQGKMopypmWRAbIABkgA2SADJABMrBkBrJE+RDuLugj74LJABkgA2SADJABMkAGhsrAaET5+vq62dzc5F3eku/yhnoi0G9O4mSADJABMkAGyMAyGRiNKOfDqDyRlnkisW3yRwbIABkgA2SADByEgSxRfvjwYXPs2LFer0JTlPNEOMiJwLrkhwyQATJABsgAGVgmA1mifAiCdwg+dh3oolg3F85tm9q7pZ+735wuil7fIOl+fvD4Q2ays2Wufvdus1kcMiceftR9f/f0Hcl+FIdvNy9e3HLlbN2q/vL7Xlx/p3l9d9tMXjhlLt1WmCMbx83v7PcBjo0eK37nBYkMkAEyQAbIwHIYGI0oHxtAEOQQfkPuH0Tr1fNWlBfmw/eddDca752Ji/IgyHsqcq1/L12sRHkQ6T31d8js0PflXBgYd8adDJABMrB4BijKe/pgJIReSrgO6WSJifLJ7jlz5YGPRlfKbfm3dtLHl933lCjHTcey/WP7i59IGXPGnAyQATJABg7KQJYoP3TokLHpIQdtjPXzgfVCtr/CtMtY6huMtr65dJfdJ83lu5afqhLrZ/gVo1wZh0inKM/nOxZX7mP8yAAZIANkYJUZyBLlQwjQ2tqa2djY6P2Ng141TsW2TbiiHuwh73wSEbO+jBe5SB2x5eVqNYSmXZlHGZcjLXK7m3LA4c8strb9WD+0beSqI+c8lurjbLnc7+tcLnssTl5U2xugW0IZJ7CRO96wqq994ndeUMgAGSADZIAMkIH9MDAaUT6EBz2LohKGMQGpBTYEJLZ1Ee1tSfEK+7KchULaxcOIVVkv1iHKbVuVID1n3rxw2qWZOHH7/Clz6ePzWb2eEti79Yc8JztPmMtf8G0XxfvM95/aMhPrz23Y5x+KlfGwfccNRuhXURj0FWOAlW5bxt6UuHi9cNq8edHGpowz88V7f8O7nwmQdXjhJANkgAyQgb4wkCXKr7vuOnPTTTf1+qI8BFFuBx0CuS3VwZdLp6/4lJDp40FwChGZalO2EeqVK+1IOYGfTpSXwtiKWP1mlLBa7d6UUgno/YDu2oqs+MOW9futnen0Fohr+GzLQ5Tr3HzZBupBpCNetk64eSnftAIfuOUkTgbIABkgA2SADMySgSxRPgTBOwQfuwycFMyxek5UJoSiPtZmy9oPohx50mXqBsSsFLExf2a5r6mtAq9UFDcdaDsIaHGsyVaoV75NBWJexivYTMQaNrjlxEwGyAAZIANkgAwchIHRiPKxPYwqhaEe4DahqIVoky3YHo4oL1NXhPCu+lCmmggBrWOBsnKLlXKKck6mkgt+Jg9kgAyQATKwSAZGI8oXGbRFtNUmpJ3YFOITPsUEe5stW7eLKF9m+kroX1SUl3nl4hhFOSdUnBvckgUyQAbIABnoMwNZonwIOeV9DrL0zQvkbf8wZcN/5mwT0qnjENdY9bVtp8pKv1AvPAja0/QV67MT2uLBT/QDK95IuQllG/LTbRnUQ8xkvMJNQOQGCO1yy0meDJABMkAGyAAZOCgDWaL8oI0sov4Qbhwg8OxbPvBQYSo2UhjGygQRLQQn7Os3kLTZsvaDvXKVGQ96QuDmrDjH/NzPvra2vIgu375Svg3GvpHlwrnqv2yi3TZbru/MKe/1Q9wYS255wSMDZIAMkIExMzAaUT6UBz29QD74SrmFEiLcinz8YaVbQjs2Ue77blNV6q9NxEq37DtFOSdwyQM/kwcyQAbIABnoKwNZonwID1EORZT3FQT6xUmKDJABMkAGyAAZIAPLYyBLlA9B8A7BR4K+PNAZe8aeDJABMkAGyAAZ6DMDoxHlQ8gp7zMI9I0TFRkgA2SADJABMkAGlsfAaEQ5IVoeRIw9Y08GyAAZIANkgAyQgYMxkCXK19bWzMbGBt/QcO3Bgk1YGT8yQAbIABkgA2SADJCBGANZojxWsW/7hvAwat9iRn84KZABMkAGyAAZIANkoB8MjEaU80HPfgDFE5vjQAbIABkgA2SADJCB7gxQlDMlhWlJZIAMkAEyQAbIABkgA0tmIEuUD2EVegg+8q6x+10jY8aYkQEyQAbIABkgA6vAwGhE+eHDh82xY8d4l7fku7xVOGnYR14cyAAZIANkgAyQgVkzMBpRPuvA0B5PNjJABsgAGSADZIAMkIFFMZAlytfX183m5iZXoVd0Fbq4+W5zZWfLvH3qts4MFMURc/rMY2aysxX+3n3qc+YzRdHZljwpPvPAKWfP2/Jt/Okn583bD7f7WBQfMpfOb5vJ0/eaBw7oh/RpkZ+L4qg58+hjxvb5vRnEc5G+z7ItxGHy3DfMP36sO1PFX9xhfvrMtoujjeVk90nz2vEPRdm0zFXxruKfw9ws+0xbFAhkgAyQgXEykCXKOfjjHPzccS0+dre5srudJXibbEIAzUJEfnTzfvP73e0gSCGYcgQSRfl4eD6oKJe8eqbSovwgzMl2+Hk8/HEsOZZkgAzMkoHRiHI+6Dm/E2MoorxplVOeNGMQ5bI/q/x52aI8l7lVHiP2fX5zM2PL2JKBcTFAUb6iKSldTuQ+inLtU9sqp+wvRfl4JrFFivKDMCf54+fx8Mex5FiSATIwSwayRPnRo0fNiRMnonmWs3TmILb6ulJeFNeZEw8/6nJVL99Vz3ltOtYUCwgRmwbypTKNw+fU+lzpKu+1ag9C1B7DXyqNBOID5Vw+eCR9pbj+DnP5mSpXfLLzhHnt3g8mOZll+kpTfPSxWN9t35BTjuOxvGR9DN9d7Mq0HsQpJ3VG+2a/u/z4RC6zPob20abdNrU7NZa7Z82Ln6m48Dcz9X3Sx7bjsiw++zatzYpH6yPSPybKB1sPx9CvWBlbDuyjHLaxsZuy2ZJ37sun01fQP255ESYDZIAMkIF5MJAlyvsqeGVA1tbWzMbGRlIQyrKL/nxk47j5nc1/PnNHzb/i8O3mpYvb5ur5u81mhwcOpTBxwtI9rPakefPCY06geXFRCS0IMynCsQ/CFDHxIrCqa/ejrBR/ePhTPrTp2m14IHQZojzqe+RBTy1+EQ9dX4piKRwPIujQhhwfF/eIn/ArNS7yuPep/iyA7meb3zEeZBuxz+gPUjucjedOmzcv2IcxvVBHX8GyjGW1ry6QY/yEskpw636GcpEbAvShLRYoxy0vxmSADJABMjAPBkYjyucRnFnZLIp1c+Hctpk8d785LcS3F+vnzJUHPloT623tVgLDixaIFQhsKS5C2cibRmQ52ybElBTfsf3hjSrKpmzra6Kf6A/8hCDDftfG1Kq7XIG3n8+af/l0tcIr66Y+Q0AjLigX25/yzQvK6s0eoa4Sd6n6aLNpG+KmhGVqPGCr6Tj81LHW+72NSvx6JqqbMt1/tN20hV+IuxTIaB/HdPuwO1WufNuMXhGPxQ5jMcVx+aYVvR9t6vMB+7nlxZcMkAEyQAYWwUCWKD9y5Ig5fvx4J+G4COeH1MaH7ztZS2EJqStKqOf0SQsRiBAIMCkucCwmRPQxLcjgC0QWbCBtBd9Rzm6dAEsIaLQHP2W9eXxGe9pPLfhs2zqmbl8p4qS/sbqpsl36JMcM9doEsR4X1HP+uNSaSmzjmO6njBGOISUG3yGgYaNtq/3yotwLfR2/pj7KY6gnx8L1MyLWkxy3/PIQG4O2vvI4L9RkgAyQATIwKwayRPmsGltlO0hVQQqL/i5jc+dXv2n+c7d6d7IVSZPdb5qnb/QrxUEslSurEFYQLFJcaIEk29H1pHiqlVOvRPSpK9vhvePyHeQ+/7xaaa3ZiYhceXzWn1N9h8DTYlOXj4m7ZN0D9g12MYb6eyw22l9ZxvteZwj5144nsFMKVd+uTS05ay6fvN/83v0KUk81kfabPmu/JFfol4+9f9e3Xv2G7Vq9RHz1uWDr2nqyr/qzHne0J88b7OOWF1syQAbIABlYFAOjEeV9fxhVr4y71JUXTplLt3VLybBgaCGixbUUFzimV4udHSW2pQiSAGqR1WRT1tOfUQ/CUx7H6vuUwA//dGgf6Suqf2ivLgyr+Nf3l4JxKkXHC1Ut7Jr6hnbbti7+EMvO9/jNDezoccF+u/XHplfKZRlXDivNtp+2TWxdeo7va4wdbUd+135JruoxLvwvKyptp+YX4tFBlMdupqR/qc/yvEmV4X5enMkAGSADZGBeDIxGlA/hYVSfQ/6kuXyXzzHv+oAnIOgkyht+stfiJSZKbFvuP3KKt69IYRXLHYefejsL4aptNn1Ptef7Gf+PniEmd9n/9DgtamXf5X8DTbXV5J8+VgnpW9x/69TCP16+/iAnynTxx4nmp+81Ww+ccg8Ko49vn7knGgPbhq3jVtzVTYs91kWUx5hzNmor+IWBTzomaEuutmNf15uJlC+IKbe8EJMBMkAGyMA8GcgS5UPIKR+CKMcDn+/973vMSxetOK9WabsMchdRbu1ChMoVagiX2j4l4NHOu9sPmtefqYs/Z3Nny8i3r7T1oYtQbLOVe1yu0oZYPHfKvHrusfBKRGkLPiYFp4oR6qKejCeO5W4R7/eeuse8fH76hkDbwRimxCeEc+o47IEPvC3F7kdd+VYUlIdAdjFSD7zaMtovOQaoC3Edvgs7iINuW4tm385Z8+rjp0xNlGP1P/GaSfRDb7V9fZzfeTEmA2SADJCBeTKQJcqHIHjX19fN5uZm7x9GtQ98OjGzjwc8AUIQLYmf9mPiAkLJtu3FVFz0QVyinBV02KfFnd+v35JSF+rTaSn1XPS3T9021zFDrNAfLwbjqSmILwSp7q89HkSkWiFGjA4iyq39IJAjKR2u/TIlB/2RWymq0Rc97igv+4YyNWFbtiP3wabdIkYQ1/IY7KGNJlFu6+kxsj7G7Mp2XZkyRs5+JF6IJfrs6iihHiuD8vqmQPaRn3lhJgNkgAyQgVkzMBpRPuvA0N7qnmxSRJKD1eWAY8+xJwNkgAyQgUUykCXK+/4Q5SIDxrbGfYLOasWbnIybE44vx5cMkAEyQAZmzUCWKJ91o7RHkPvIQEhNiaRC9NFf+sTziAyQATJABsjAeBgYjSgfwsOoPHH6eeIgB9rlHKtc8f2MGcQ9cpObtgfNQd+Pf6zTTw45LhwXMkAGyMBqMzAaUT6Eh1F5sq32ycbx5/iTATJABsgAGSADKQayRPkQ3mxCUU7IU5BzP9kgA2SADJABMkAG+s5AligfguDlw6g82fp+stE/MkoGyAAZIANkgAykGBiNKE91kPsJPxkgA2SADJABMkAGyEDfGaAov5aQ9h1S+kdGyQAZIANkgAyQgbEzkCXKxx4E9o8nOhkgA2SADJABMkAGyMAyGRiNKB/Cw6izHGj8+/p3n/qc+UxRZP2r+qL4oLn03S0z2dky8/j39sH+0/ear2X6JGOCPk12zpp/+XRhipvvNld2toz9V+/fu7m9j/5fpj9pXjv+oax4yLb78hmvZ+S/eF/MhQGvr5zsem7wz6MY/8XEvy/nHf3geJMBMtAHBkYjyofwMOosBxzioct7riFA7Huz3374tpkLV9if7PNd36H+7lnz4mcKgz5aUf6PH6MonyU/i7AVxjODh2XdUBXFUXPm0cdMEOXFh8yl89uGopwX6EWcI2yDnJEBMiAZyBLlhw8fNseOHZu5iJOOHPQzRfnywe4iwmLjHeprUZ4h6qy9ZQm7WF+471oTxjNj/JY1dklRnnkjyHFe/rzDMeAYkAEyMBYGskT5EATvEHycJTRYRe6yUj7L9mO2uoiweP1y1bIURF3tLUvYxfrCfcMQ5XacPvPAqbAyHkQ6RXmvF2F4flGEkQEyMEYGRiPK+zo4RXHInHj4UTPZecJc/kI9BZ+O8nYAAB5lSURBVKPpWFt/aqIcudc2/3rnCfPavR+sXVCrXG2fTx4rY9tDOZtv/pG77je/d/biNl15kaNu89T937bZb/pKW5/18bqPW8am5SANwZb1In07mqqjj/lcbp9XbEWateXt+VQa3Xbbd4xPLBaxY/AntNsgCiEcUdZu5c0ZbmbkPulv23FZNvZZxicWI31c+unK46brL+4wP31mO8Ral7PfZZqVHCMdL1kOPusyuWlQqM8tL/pkgAyQATKwSAYoyhfwSsQjG8fN73a3zLun76iL5cO3mxcvbpmr5+82mx0fjISwe+/CafN7IeDcql9EmAMqL1TiD0PCphPXUzb9w5ewg4cwpRiC2IsJUdSbxbYojpjTZx5zD4DKXHPdt9AflT4BUStFGh6wdKKxLB8rl+t/qFum4sh62k95LNQT8a8fL3OexXHdz7ZxQPmUaJft6c+Wr+iYR/rZ5oe03RQTlKuNkei/Y758UBNlY/ts/dc7PBgNW9zyokwGyAAZIAOLYCBLlB86dMjY9JBFODTGNopi3Vw4t20mz91vTgvxbcX6WzvnzJUHPto5thBWUlja2HkhtGVSb2VpEj9Jmx+721zZrd7YIt+y8oDoT0yE+ZsErKJPb1N+NnHgV8ifmHrLSqxvXpzVV7vRz5q4dH2cXuWP2WzyTR6DiKy1gwcLhais1Wk57v2p98fWl/uDsA83F17IQ4TH+i996PrZ93P6Ri/GQ8p2TpwRT33Th/2Ic+h/IsYpH7ifF10yQAbIABlYJgNZonyZDua2vba2ZjY2NjqL21z7By334ftO1lJYQuqKEuq57UBYQWihXhAkidcSNomfpM1SsAbRc/0d5vIz02khXUQY/N3P1gntiOCK9U0LNtteVKirPsKvmE0ca9vG4oEYI5baRhi/SP/CMbXyb23ofsoY4Rhu4Pz3aRGtfcn9Dvu6T7H+p2zmxDnVTsym7b9MlYmV4T5efMkAGSADZKBPDIxGlPf9Qc/i8O3mpYtVCov9blNX3jtTT2mxcHzu/m+a/ww52lhdPml+8MEqJx3iLinKE+/2bhI/SZtKsPrUleWI8lTqio1brG9ByJYiF0JxKm6qjzhJYzZxLGfr61cr2/q7tqH9lcfheyz3GvsgjGU79vObT91jXj7vhbg8Ju3nfG7yAW3DDsrqlW0cl1vvU/ONQhdRbm17m1XOOm5KZLv8zAsyGSADZIAM9IWBLFF+3XXXmZtuuqm3q9A2mL0X5cV1/oHPcmXcpa48f8pcuq0S2l2gSApoPHwZWU219pvET9KmEqwpcRQTYW7FduoGAzca6TSbVCyaRGuqb3K/931a/KX6JOumfGraj5hawQrf9Q2BrI8yMQEZjiXGtmbHjZnt5y3mzKOny+1j7oHQL23eX3sOQdZr+oy+aN9SsYvxkLKfE+dUOymbcr+3z/ePy5jwM4UIGSADZKBfDGSJ8r4LXgvVEHx0D3y6t7C8z3z/qf094IkTCAJJCzz/BpXpVWzUaxI/SZtalJdvzdD54D7XezovG23PauuFvnrw1N6MuH/6EhHc5T+EsbF6yL7+LiJqU4KvKV45/akJ6SCU0/9xNJSPpK/Y9lzfIw9Val/8WD5pXnvg8+anF/w/X3J9ee4b5sePJGJQxsmuuutVb2s/FaPkfvwjnki8tb85cU61o22lvue0karL/f26cHE8OB5kgAyMkYHRiPIhPIzqH/jcMu+e/aJ58eKT5vJd+1sltyDGBHR4ADMh6Gy9JmESs+naUqLc7tPC2Any506ZV889FhW9ts6s/ryf1So7+v324w+aK+otHGjT+utyjBPHU4KvKV6w3bb1ts+ayyfvN79vEahtohxjpFertQ9YpXZ9LttEXbtP38zZ+oiBrCPt4ri8qfHx8SkiMSHvbyKmb5SkXdd2eaMnbU+ViXCoyzhb7magShny++rvwI/V477ZnaOMJWNJBsgAGejOwGhE+VAG3z/wuTX1Jpau/gfxplJD9Oq1tavf5z3ZrdJHJjvVijNEmxZsEGNSdE2174RfKXxahGfXvsbKO59C3/2bWLyfcQGIvqXEbKyPtt2ZiPK2FejyjStWDMf+tFBF7HVZ2TdZBuMW2ydjK4U86sjjVTxEnrYd61JQp+rghgj+Sj+lfYwRytmttJkaI2kDn2O2dBxRltvuFw7GjDEjA2SADMyegSxRPoSccsIxezjGFFOINH3DMaY+si88B8gAGSADZIAMDJeBLFE+hAE+fPiwOXbs2MxSJIbQZ/qYf+L5NIp6SgPjlx8/xoqxIgNkgAyQATIwXwZGI8qH8KAnYZ4vzKn4Iu9ZpkKkynL/csaIcWfcyQAZIANkYNUZyBLlQ3iIkqKcJ7M8mWX+9CTxcKcsn/MZ4l7mPMc+TzLejpLTHsuQaTJABsgAGSADq8NAligfguAdgo88sVbnxOJYc6zJABkgA2SADJCBLgyMRpTzYVSC3wV8liUvZIAMkAEyQAbIQJ8YGI0o71NQ6QtPcjJABsgAGSADZIAMkIEuDGSJcr7ZhFB1gYplyQsZIANkgAyQATJABroxkCXKhxBUpq90G/ghjCl95JiSATJABsgAGSADq8LAaEQ5H/TkSbsqJy37SdbJABkgA2SADIyPAYrya8c3qDxROaZkgAyQATJABsgAGRgWA1mifAir0EPwscvJURTvM99/astMdrbMu6fv6NV/Ki2K68yJhx81kxdOmUu3Fb3yrUuMWdZPVhVr58yVBz5qisO3mxcvWvaeMJe/0D6+xdE7zWs95LTL+FZ99jHoUneRZfvsZ+DoufvN6aKdm0XGbb9thT7t7O/c2G+7TfWObBw3b5X+NJXjsWGJMY4Xx8syMBpRPraHUYti3Vw4t23sP6d57wxFOSes+U1Y4SZrtxQeJXv2ny5dvqtdXBXX32le393uHaddmLFi96WL22ZSxqBL3UWW7bOfmLMmoxLl5QLEPs+NWbNRFIf8gsiIYjzrGM3K3hgWG2YVC9qZ3/VXx3Y0olx3jN/nB1EQcVwpH8WvBGE8tfDIHN8xiHLOFwefL1ZKlGeeG7PmygvFfv+aM+s+L8se57WDzwnLGrsht5slytfW1szGxsYoBMiQB6svvgcRt6QLU1/iMCY/PnzfSYOV8a7jy4sXL172XBijKLf9yj03XFrJ86fMpY+3/7qk545csf3B4w8xbXBBz4HlzGv45eLqd+82myNJ2dJs8vti5/csUc5Bmd2g+HzALZM6iaucUZ9PPmnJHYQ9m3vu/vZ5UZBjXOVReps6haYu2qo0G1vu6vnpyQnl7XH86Xx0lHE/fZepBCibbTMRA/wMGWKUmSstY6I/t9kM4xj5mVkfQ7wdE2V+NnxNPU8QbKDPLZxo/w/yfbrvW2Yi0ldwPMa4PoZ+2H7WWd7faiBiOYmcB7Fj8Afxbsujd6IoxHzLyFQNXKDlPhnntuOyrP7cxc/QjvAzNha6jbbvGKsqVvUxqony8FyCn0NiHIfxEH7q2KFM7rkx7SPm0ek5t87blokx0xYTedy2/ZJ7FqMeF1km9jn4EZkrZHn0rSmdMdhCTCPngbU5xbEq5+zYfZ/E8yW+T6GeKO/ZVMdd+/FnUtCPiqPp56Y621TzZuw89rGxPpUpQJEYgbfg2+62v66i7E6co9/Z4yImctz4eXb6aRViORpRPoQHPcPF0p7oGSewnUR+15Dj6ifI+gXA3t3/8gB37eHiLy4QXjD/fcgvDgL6hdPmzYtV+7GVBV/2tHuAECeUv3ht11Z8YNMKcZnXG7fpbwSksEc5fVHHRepdkZfvVr4OIGJjNl2fvlc94Ib+pC8OIm7I4caFrMzjduMf8RPty5sVJ4ie3N8qHcYlZ+uZeyKwYOsg9hALQZxFGHf1Ra56YAEXtfLBYT9G8Yt6m5+p8fVsp3Pf5YqobiOcu/aGrhwf38/qYhzGPNJvFyc8vC3OLd1OzvdmP8sHxK0P4iHsD9/39do5mNOOLJPDHMb96oXT5i0RpxjHXvxUsbRtOY4sByI+sOlFUlU+arMUZvK8sLGycwrYRJ/03BnG7oA37JWdaaGJtrGtmNqKLmagHLZ+DOLPeVS2qnnF1rMxldeDIDoFH4Fj0XcfX3tDY2Pu8+rduNqxKW8+cKPlz//y5qccuyoO9XPY92HLyPkYbckbx0ab6vyK2YzNAa6dXe8n2gp9F8wh3t6H9HyBci7O4Yas3l9Zhp8pznMYoChf0E9hGAw/MWxnT8IpUR4m4RmmkOTaDBOuumEIF9DIBIf+Y+vjUF1gutiMTZahvpiwcQGSF2nbPiZiTMzwKXerhWWqHi4suHj5tqcf1ApxE2LVlS0neukn+iSFS6x9XKjCio8T/NWqYVv9mE3csGmBExsPN77qhgK+y/EIolxxHItdzKfYPm9zekWrbdwaxa4TfHXBY9t2fop+OhtlX8L5FISKv5mU/Y/537av0U+3Qp03v7S1g+MYtzZmAsdCkFsbqfGAfbl1faudw+UNeMa5ERtf8FU7h8pV/CmOldiUfnX97PqhbjCkjRBTwY48rj+jfIqd1Lmp7fh5oZp3cVyPkZ+fwVH5sGs5rjqmOP81H7CJ+a+pDz5elaBN2dTzSspmbI6v96lKMdJth5h0fIAdbdo5F32GLW4pyHMZyBLlR48eNSdOnOh1TvkQVspzBwXl/CQyLQRwPEz84iKGY/vZ2knUvgpPX6y0rSCAtZDCim+2KK/61sUmJmzpZ6y+v1BVbaAfoew+4+bHpVxFanhlYBApIh6xi2esnPU1XPxESlCqT+jbPLe2328pceT8jFy8cEGWYsjVVyIk1seUzdy+xcY3dfGWNt35FOmfLeMEn+Ld+alunBwb5Yojzif8WuK/5628Sb/05yY/A0uRn9m1ndzvucyFtgXvto3UGMfa1wKpi81YXGJtew4jwrTD/BXzXe/zN2zVLyk4jjlgsjPtA8robezckWVSfMoy+iaxfqwU3uXYOY7Dg9/lMdxsOuYh2IupX8pgF2OHOaCJIz+nV3N1bI63dqVf9nvKZmwO0HXhZ4wbZzsyr6FO09YzPL0o0FSHxyjawUCWKB+C4B3jw6ipSQSDZ7eujFwF3afQtLb8BNcuGsKEp0QKJuH4iol/vSPyxKfSVBLvPo/ZDPtE+3YSt+/KlitJNjZvlT9XRleMRX0Z05zP/qIhVp5LIabr+vGpLjaxi2foT4aY8X2q7On25vk9thJp20tdQKXASgmCmGhqspnbP+eTuAFIXbylveTFGa+hk+dZ7bMWKH58XJvP/a358cOPupWzHB+kP6nPKT9RPpyfwkcII5Tpss1lrgvHtn0fD3kOlZ/FjVEXmzgnZV8ds4ID267nONKui9d2LX2mS5x0WZwXcuU0nAc2hVH0U9eV30MdNT+gTDjeMp/hxlTPz9ZOYKa8frh5a0aiHO01cYSxwwozYicXXqyf0i98z53jdV3EL3U+pXxAvdTW2nPXt8Q1IVWP+ynMLQOjEeVjBDo1iaT66sq7C0v1M2CqbGx/7iQUJnB1EYhdQGETEzPa1X3rZLNcqZEC336WeYq2Hd/2/AWsb8de5Kfb8qITqyY+31feODg/Eyt0McGq44Z46q0t95YQZVM3JYkLvLYjv3e9eCEu9kJr+xL7FSbWR9smuNEXZelP02fPIuJeeCHW0udU/2w77pjiPdY+xtv22Yo/y6Sra9t2K2/5q6Mx+8GXbEGH1IN6rnbKdmx/LnOx89/ai40x+NTngh6DzjanHsyr8tDRN9+fg48D7MW26J+e91AWfMbmDJTBFjcvqXMhNXeiPrahXOQ80IJdjnmoV/KvxzN1rtpyL16M37DCJ2xdvEQ6ZMqm9MvW9eWm513YlVtdF8c0c9if8gHH9TbcHO20/9qs6/I7BTkYyBLlR44cMcePH+91+go61Petm3wyf1pOTSJNfdxPHdhLXQBxHFs9SVf7y/xPMemn/NH7u9tsv6hCIMmVM/ia2oaLU8e8QD+Bx3MJ3aRvV6D+h13Nn/Y7FXd98bM+76dPqb523a/HzPmDVWTx9hXYDWP63P3m/9ibBBsD8fChq69+Cg919/nTMerbbYh7+QaJlKhBndTF2R53fY/cdKEuthjL98581nz/KS8IHRs7T5hXHjpu3ooIe3kxz2G1yU/4IbdhHPb5K1ouc+i7FqIxjlO/uui+5doMMRRzj4yB/Nx0rspy+/kc/LDzh3i4PGYrjEvL9cDFKsKNtJnLp4tvZAXXjpEV0DhH5Lke/OwqytVzGE0c6T6mBLH0y/a/yaaMj/2s6+K4Zg77Uz7guNz6+NmFmembQFmOnym+2xjIEuVtRng8D7QwYc/g7StePNZXxIP9lgm8abz85F6tMNqyflKOvX2lLrJiF1A/EVarJdaenQQPkr6Smlxj/fIXobhYjpX3q1I+1UaLCx8L+6Bm/W0ydn9KZLg6VmCWq9Z6ZdDbnL6ZcfsTgjXWJ8fDnN++4se3WnEFb1e/96D5pbigW9/xB57cT/gRkeIvqnU+XN9nIMq97XPmykNfNq9FbgjgI7api7Pzx/2aUV50G58jECvTZZshbpaBiGjEBd2dExnCudFPK4RUG7AfYw99b9vmMBc7/13sIhz7PlTnJVhyv+iIXwFybQbhmBG/UDbjJqstLvJ4dUOft3KLuuEcUeOG2NlfmNrGrmJMXROOqrevuLGo57kHv8U5IufYEK8OohzMad5jHNm27K96uCFw/U6c/9IvxC9mE8fkNlbXHvcsNiyWtDCFXzLcG9XUooNsn5+r6wJjkY7FaET5EB5GtSD6iWFahABSTFAh3aCWE60mXEywMk0hMrHDdu7WixmRcyl+VrQ29CQNu6kLqJ30ZKqJu8C4Sbe6eHWxibLSphM0Ng6RCdSvVIr+lPFC/iL8933zAtnakxeJqTJPKXvigibLepulUFNxRLlU3Pw4xFmZ7tNiVmg0G0hNsf+iPhav0DchtNBvF5uIYHP7ExdlWbftMzix51JK1LibKXn+yPMtwhIEQDg/Xd36eQneZZuxffAfflrmZB0ct9sufk7NIRmrtrKt1Oc25sJYqzkoxjH6LONoWfLzYyWQOtmMzYfl2MZ+gYjFKSedJBUfZ69hHkjVs/t9bKv5EGW9j1U8sD+1neJTjYVrK9xgVnOYjo8fB+9PGKsWUS7H0n5O/VLgbMtzLrK67OIR+fVN+iVjMM2m75uc41N1XcxS81NLrHAzmTpvpY/8nBaijE0Vm9GI8iE8jErwKvAOEgs/iU5fwIJgjIipg7R30Lr6onZQe0OqnxJVQ+oDfZ3NeTvPOMZWe9EeRKAWnjje1y361HfBlxLQfY0r/er/+bzKY5QlyoeQU05RvhonWhB5kRSdpmPLPMnx82ZsJXmZfi2ibSuI3ppxmsAi/GYbw5pPkHYWE7AQjbFjfR7noZw7iO8qzm995oe+DWsOw3hlifIhCN719XWzubkZclnRQW6HCWZq3MKqcyQVxF/E4ukeKXvz3m9X721OqM6tnHe7fbCPm5GhiaE+xI4+dJu3kCKj09eQXiD/SzBj2y22bfGiKJ9tPNvizePjjvdoRDlBnQYVokjn+k1/n04F6Xs8kaMr88oPkg866/76GwSf17hqolTmP6fySrvEO9zY1PJQq3xYybPMIe3SxiqVlWzK2E1/rufK9z1G/peyCBf7zPPue3/74h9F+fS1ty9jQz+GNzZZonwoD1ESwOEByDHjmJEBMkAGyAAZIANkIPOfBzFQPFnIABkgA2SADJABMkAGyMD8GMhaKR/CAAzhYdQhxJE+zu9kY2wZWzJABsgAGSADZCDFwGhE+RAeRk0NAvfzBCUDZIAMkAEyQAbIwGozQFEu/vsgT4bVPhlWffzNNdcY/jEGZKAbA6s+b7D/vG6SgdkxMBpRzvSV2UHBE2w1Y0kx1k2MMV6Ml2WA8+Vqzpccd477PBgYjSifR3BokyfdKjFAkUmRSQa6M7BKcwT7ymsiGZgvA9f84cIXzZeKYiF3+8UXHzR4F+5vH/rLhbRJgOYLEOM7nvhSkHUXZIwZY8Y5cDxzIMeSY7lsBq6ZLFCUo7PFPV6cL/KGAG1zy5OODJABMkAGyAAZIANkoG8MjCZ9ZX193WxubnL1nQ+ukgEyQAbIABkgA2SADAyOgZmI8i89dNose9Wbr0TkHW/f7njpD5kkA2SADJABMkAGchm45g+P/c+pOwnkfsfyvmPHik/dY97c2TKTf/622fnEYvLTdQcpygm9ZoLfyQQZIANkgAyQATIwFAaumTweEeXFZ82ru1vR1e/vPL5lJjsPmnPq4dCiuMX8+II9tmVe/eLihTlFOU+6oZx09JOskgEyQAbIABkgA5qBqCi3he49eXpq5buwYn1n28SEvK1TFIXZcqJ9y8RW4HXj/E4gyQAZIANkgAyQATJABsjAtSYpypGSIlNYfOrKabP7yeaVcL5dhScXTy4yQAbIABkgA2SADJCBfAbSorxc9ZYPcLrUlYxXKFpR/qefnF9aKgsByAeAsWKsyAAZIANkgAyQATKwfAaSotwOjlvxLh/e9KkrW+bV/9W8Sm7fxOL+QVAkV32eA762tmY2NjamHlqdZ5u0vXyAOQYcAzJABsgAGSADZGAMDDSLcpdDvmV++9Atxovt6Qc8EQT7oOcuHvRsEe6o07YtipvM01f2zN7envnvXzzaKLj5oCdPyDaeeJyMkAEyQAbIABkgA31loFGUW6ftA582hWX38S3z5kO3RIUxVtEn/9yeb94lEMXRb5p/e2fP/PnPfzZ7f/yt+b+b6VV6inKeZF3YYlnyQgbIABkgA2SADPSJgWtcqol9x/iOXRH/yynRjQc+mwT3PP950EeeuRJE+fN/TVHeJ3joCyczMkAGyAAZIANkgAzMhoGZ/EfPeQ5G8ZFnzJW9PbP3h1+Ys+rd6LLdQ4cOGbtaLvfx82wgYRwZRzJABsgAGSADZIAMzJeBXovyojhqvvlv75i9vT+YX5xNr5ITkvlCwvgyvmSADJABMkAGyAAZmC8DvRTllRjfM3v/3bxCTkDmCwjjy/iSATJABsgAGSADZGD+DPRSlO9n4A8fPmyOHTvG9JVr5w/NfsaHdTguZIAMkAEyQAbIABlIMzAaUc63r6QHmScAY0MGyAAZIANkgAyQgX4zQFHOlWX+ukAGyAAZIANkgAyQATKwZAZGI8p599fvuz+OD8eHDJABMkAGyAAZIANpBijKl3xXRDjTcDI2jA0ZIANkgAyQATKwKgxkifIjR46Y48eP82cNCngyQAbIABkgA2SADJABMjAHBrJEOR+i5F3qqtylsp9knQyQATJABsgAGVgGAxTlc7jTWcZAsk1OIGSADJABMkAGyAAZGC4DWaKc6SvDHeCmk/Pbr1w1e3tvmGdvWdx/Sy3u+pH5zR/3zJ///Gez98YPza3F4tpuigWPjZNxjivHlQyQATJABobCQJYoH0pnxuJnUXze/Og3fzR771w2p26Yn2g98zMvyn946/zakGMCQU4xzglScsHP5IEMkAEyQAbIwLWGoryH6StFcVcQ5d/6wPwE86JF+V0/+o35494bZlE3ATzBOcmTATJABsgAGSADQ2GAopyifGEimaKcE+NQJkb6SVbJABkgA2Rg0QxkifL19XWzubnZ69fffN6twu6Zvb3yL5H64fOo0+WcHVv3uM993tt7x1w+dYMJ9YRd36bNyS7TTRJtF8W3zStX98zeG8+aW0QOdfF538Y7l0+ZG4rCTPUB9sJ2Ov+7+PYr5mo4bvs1XQZQhT6o8rGV62D3jWdnlvdNUc4JDixySxbIABkgA2SADNQZyBLlfX4lYsi/tuL5Wx8INw7FmVfMW6XYtYMehPE7lw1SQorijPmZFctCyHrh6Pf98FafRvLOv/+7+aN9KLF8SPGNZ29x7VRl98w7l79lPlAUJtgU4j3sUw82IscadQFnbvoKRPwbP7w19NunpPgbicoebgrqD1Y2pa9UAn526SYU5fWTD+PDLeNCBsgAGSADZIAMDF+UlyvFUpjGwMaqtl4VroSxX62G0PZCucztLvOgm8tWud/FmZ+Zq+UKu/VlHqIcNxnTgt7faGD13bbvBfa0uG4S5b4PdnW/LuRjsc3dR1HOCSeXFZYjK2SADJABMrBqDGSJ8qNHj5oTJ06E1dg+BckJTrH6HfMtrKZHBGZYlS5TS7xw9Kvu4VhpvxLlflVclpXtohxW1Ociyt3NSP3XAeuD9Nm+uaWp702iXPZnFp9TMZiFbdrgxE0GyAAZIANkgAwMnYEsUd7XTgbB2SrK4+kbtl9axEqhLY/ZlBeIbaxOy7IyRlU5v/qeEqRVOS/yYUO3i/1yi9SVkENfyxPfc69TdD6HfPbpFe9FiHL00aYI6V8pZH/4mZMpGSADZIAMkAEysMoM/H8zpJZSU2KfqwAAAABJRU5ErkJggg==;" vertex="1" parent="1">
                    <mxGeometry x="520" y="110" width="705.71" height="160" as="geometry"/>
                </mxCell>
                <mxCell id="16" value="H:\SSMES_Dev\Genesis_MVC\Areas\MES\Views\Shared\Dyn_FuncModule\_Main.cshtml" style="text;whiteSpace=wrap;html=1;fontSize=15;" vertex="1" parent="1">
                    <mxGeometry x="530" y="70" width="500" height="30" as="geometry"/>
                </mxCell>
                <mxCell id="17" value="" style="shape=image;verticalLabelPosition=bottom;labelBackgroundColor=#ffffff;verticalAlign=top;aspect=fixed;imageAspect=0;image=data:image/png,iVBORw0KGgoAAAANSUhEUgAAAtkAAAGDCAYAAAD+sAySAAAgAElEQVR4Ae2975cd1Xnvef+RavQDSfzwjUXb2ImRTATClq2rsd204PqCSPwjkROEboiNbMaQxJgfDnGQsS2BGmRbSQzCBuViHAVPs7gtQGkTqaHtBuxaSzPvZubVzLv7YsZrzTNrV52natc+u+pUnVPVp+qcz4teVV1n1/7x7M+u893Pefau/zAzMyP8YQMYgAEYgAEYgAEYgAEYqI+B/4Ax6zMmtsSWMAADMAADMAADMAADhgFENp58fsmAARiAARiAARiAARiomQFEds0GZfbK7BUGYAAGYAAGYAAGYACRjchm5goDMAADMAADMAADMFAzA50U2dsOPSsXwlDC95bkyf1Ba6GYfWxRLl26JOHaGbk3KFfPIJiVxxbDSvfobHmUezWPaTwm/RS+J0tP7m8tT9PYN7QZTxAMwAAMwEBXGUBkz8yIilMjiPWvijDO6/xEvNUksgfVUz+vo+55bZq066aPQsQ1E4uavReTNk5oDyIHBmAABqoz0EmRXWdHJ15xRwgHs4/Jy0tPyv6SHui66pQnlE19Fo333qmnqf8bZ+6NRFLevXXVbdLyUXu9N4Z+njRb0p7qD19shs1gAAZgYLIZmGqRrcK1TSJLhZ8tpoNth+TZC/0C2x2cvnvdNPyfDmi1V5v6n/5J+wdbYAsYgAEYgIEuM9CoyA6CbXLo2QtJCIYJxRhF0Gj4RZmQDhWmSVonJEDrFoZrcubewfHSscc7TmvXww010Hy13EFtVqFnpzfntsiOyx4cL6x5Rff2hLnmu9bzdtuwanpN45Zr0mqaqN963nRNXzZPTW+3Kcrbya+oL9Surr3t9lQ9z7RtnX+xqFpX0vNFAwMwAAMwAAPdYqAxka0i112cOPvYyyMvLlNx5Io2hc/noY7ueTldKDkoD81LjxpWYgvRVPj5hbraIG9iofW0xapbr0FlaP3MUe99b3lZLliTB59Ij9Nm6631se2qeUbtHpSnx+OudnNtoNftthfFR6stTT3cvGwbVDnXttWVX5WySdutByX9RX/BAAzAAAxUZaAxkR0LpqyIq1q5vPQqjmwxaKf1iUr7c3Ouoi0vDze9ikJXkBWVpWW490Tl5+wi4rYt+b/ETipJWksM22311cNtZ9RvVllV8vTZIrnfiiXXa2598q7H9op/FcGTzUPOZZb/YQIGYAAGYKCNDDQisovEUh1G0PzzBHLikXVCROyyVQDbeaiQ1vAGWwT6BKSdn+9cy7Dz0XT6me3JNZ+5bUv+t4Sv5uEek7SWoI3y7HmYffVw83AnR1Xy9NnId3/cP/3hL4nXvkRb3XoP87+vvsPkwz083GEABmAABmAABlwGmhHZFUSdW6Ey//uEm3ufilgVzK4HVD+3RbbmoZ/ZonQYQebLJymjF488WGSrB3fwrwJ5dsmrh05G1EZ6tGOjq+Sp5dg2je0Wit1OvabluUc3xEhtVtfRTCRMmXb/1pU3+fCQhQEYgAEYgAEYMAxMrMi2AVfxZ4SVir3Ea+qEVpj7NL0twsYlsk19Yu9yv+fXbmNU77wQFM+kR4Wu3ca0rFTQVxLZzkJGY293chPVM0o3uD1u++r+f5g+rbsO5MeDGAZgAAZgAAYmk4FmRHZvV5GmPJJ5wq8I0nzhnPWymjzy01YThr58tI55n6n4tb3B6nG2r2k+9jHPLr6y3LAQzce9XjnPEqEevvpo+XnHdFJUrQ/y8jPXtW3uRKPoHj6bzAch/Uq/wgAMwAAM1M1AIyLbVDJPGK7H7iJGKKrHWg3m81qqcLM93FHdcz2/1QTeIDHpCtqoju+9IWdfvpDZws/UyaSNPMNOvLW5Z9DLaHz10PzUTrYthg0Xcdujtvcd3fJ9aexr2gZjg7pEMSKbB6rNGOfwAAMwAAMwUCcDjYlsU0kVMUYY6Z+KuqqN8OWlebrCyxaMmsYWjm7ZOiHQtObohjn4RLqbT9TmnkC387LP7fa79Yw91b0YbEdM5+VtC061kevxVoGaTdu/h7mpW9zOIcNFeuEqdnv13K1T1B5PeIlJb9tIbay2cvtFPx/mqPay7TJMPtzDQxkGYAAGYAAGYMBloFGR7RbG/5MLYCqCU4Gu/a2TGJ/Q1jTjOCKyJ5fHcfBEmfAEAzAAAzBgM4DIngEIG4hhz9Vb7hPSRZ8NW14d9yGyYb8OjsgDjmAABmAABnwMILIR2eIDo+o1Fay+sJyq8ddVyx4lfZU48lHK4V4ewDAAAzAAAzAwXQyMTWSrd1NjdouOvhhdQG0fqBoy4valT3i3pf/sOtcZ792W9lGP9o0T+oQ+gQEYgIHpYGBsIhvApgMw+pl+hgEYgAEYgAEYmEYGENmEi9QSLjKNg4c286UBAzAAAzAAAzCQxwAiG5GNyIYBGIABGIABGIABGKiZAUR2zQbNm81wnZkuDMAADMAADMAADEwPA42L7C1btsjc3ByzI8Q8DMAADMAADMAADMDA1DDQuMi+4oor5O67754agzJDnZ4ZKn1NX8MADMAADMAADOQxgMhu2YzyjlPL8vZLD8iOIMhMTILgDjm1fF5O7s9ez+tYrjPoYQAGYAAGYAAGYGB8DCCyWySyjcAOw7flpQd2ZAS2GSDBHadkOQwlDJsR2pq/2ePaJ/IZpOMbpNge28MADMAADMBA9xhoXGRPKxQ3PHJWVnMEs88mKnLPn9zfJ7A1fXDDI3J2NZTw/EnZ73i6Nc0wRy0bcd29ATxMf3MP/QwDMAADMAADzTOAyG7Ik11FZMehIOXEc5xvKEVivOrAiTzob78kD+wgFKWq7Ujf/EMKG2NjGIABGICBLjKAyG6ByK4myG+QR86uSlijKEZk8/Dq4sOLOsMtDMAADMBAmxloXGRv3rxZ9uzZkxsC0QbjGJFpYpHdPzf+WT3Odjrbo6zhHPbn7rmd3rRd86wSAlJFlJexLyKbh1QZTkgDJzAAAzAAAzBQnoHGRXabt/ALgp5X2FpMqELZ9RQn16146KJY5rJCWPN1xXcRxHpPXTHUiOzyA6aoX/gMO8IADMAADMAADCgD0y2yewsJXbEaiU5LeBtj5QnRvOulRXa0a4h/RxHtJPc4jPfbzcP+P68NdhrOeWjAAAzAAAzAAAzAQHkGENmrYd+Wda7IVlHrinEDWp6Yzrvuwlk2nX1f4oGvIS67bq+4XU/Oyw9EbIWtYAAGYAAGYGCyGGhcZG/YsEFMyEgbwUnEquW1VtFpx0jrNTe+Wv/37W1dVjyXTWfbL6n3CCJbQ13csBi7HM4na7DTn/QnDMAADMAADKwfA42L7DZ3pnqoVSzr0fVYazr3elHbyornWOyOL1xEJxBV2lbUbj5bv8GLrbE1DMAADMAADLSXgekW2SXjoYfxHJcW2Tlx4UWDpm5hTEx2ewdoEQd8Rr/BAAzAAAzAQHsZaFxkb9y4UWZnZ9sZLtJ7VXmZnT2S8Aprd5EisFUI22EnvvTqJR+Uzr63rIC37yk6R2S3d4AW9Ruf0W8wAAMwAAMw0F4GGhfZbd7Cz4BpBKaGidhHd49sk1YFsZ3OnOcJZBXadnqfoK8imofxqg8agIjs9g7QQX3H5/QdDMAADMAADLSTgakW2bG47X9FuYppn9BuAuSkvBJe8rw6j1IvRHY7B+cofcq99CkMwAAMwAAMjJeBqRXZiUfY2llEYSz6TNPUfVTxXLQAUT3jeZ7zYeuEyB7vIBy237iPfoMBGIABGICB9jLQuMhuc0y2hoq4IRxV46/rAjyvPib/xNs9wrZ9efXU9rp2yEvP9fYOaPqGvoEBGIABGICBdjDQuMhue0erB9mOmzbn4xKcd5xakldP3i07giCzWDQWwufl5P7s9brsa9uhyJteV3nk044HAP1AP8AADMAADMBAMwxMvcgGrGbAwq7YFQZgAAZgAAZgYJoZaFxkt/mNj9Pc8bSdBx8MwAAMwAAMwAAMNMdA4yK77Vv4AVdzcGFbbAsDMAADMAADMDCtDCCyZ4B/WuGn3bAPAzAAAzAAAzDQFAOI7JkZ2bp1qxw4cCCz0LApg5MvgxkGYAAGYAAGYAAGJp+BxkX2pk2bZOfOna0WsIS0TD7oPMymp4+DHd+Ql95elh/d1sxOPLA0PSzR1/Q1DIyfgeDKv5OX331R7nd2XetC3zQusrtgBET2+AdRFzjpSh13fOMleTsMJUz+VuVfHrw+M9GNhahJ0/+ZaWcQ7JBvvPS2lUcoq//yoFzf8odc0q7lU3L7kHUNPv2cfObEmuw+8P6MzYr6P7jue7Ln+JrMn3hddnx8a+n7ivIc52fB1X8hz10wfLwrrx77VOn2XP0Xz8mFivcMamcTeQ4qc9yfx22Ox/DqT/+ytP199Q6Cq+UvnrsQjeV3Xz0mnxpyXPjyruPaRx5/JXoO/fQvmRTXYc+u5LH54DPyZu876t0X7y9k/Mq/ezn+Luqg0EZkEy5SCHdXBiz1jCdKKrCXT91e2K/BR78pP1+NRfbZh3aVSrt69iHZlfMFreJ2nEI8mRisnpWHdvm/sFUM7z38pzKT15ZP/0Q+vWBE9u8V2sVmLsr3iTWZX3hDdu6ZAJH9vrvlJz2RvXTsM6Xt8L67fxKJ7Cr32Hb0ndeRZ5eEnArs1ee/XNruPrvptSB4n9z9kwti3v/w7tIx+UwO95q+zqMt8JNJ/7uvyrFPpePzuu/GIvv5L6fX6qzDpOQVBJvk6rtel/knFuXDOybHViq2Bwntsuna1t+IbBY+1vIgbxvY01ifMiJzGLuoIC8U2T3RXpRmmLKr3BNPMFalaNKgYvg//deDtYrsKvWc5LR1CGLXPnXk2RUhl4jS1efly+sohl2b1/F/8mvIu0ty7DOpKAyu+678wvKod6Vv6rDJKHkEweXyvsOxyP79nak9R8mzDfcGwWY5+MybEg7wUifpwnflxfu70/7GRTahGIRitGEgT0MdguBWOXk+lHCEUAmfnbogssu2HZHd7POoDkHsMlhHnl0Rcup1DjsusoPgI/L4K6GEjsB2+9b835W+8dV9Pa9Nu8g2tg42H5Rn3gzlvdefkls7MglFZLfckx0Et8gfPLwq8yd+Jh/YmJ295X0WfPQJ+YT56fpE+rf30B9JYEGZ3Pv1B2Um+Lr8YRRP2kv/6A/kqplsWWUeJsHsEXnhYigrz94pwe7jspTEBIeytviYfNIqPxowTpowXJPFxz6ZeNZnj7wgF8MVefZOf118n8fX4ljG6OfJtUV57JP++8u0qUtpjND8wb8Vi+zg1pNy3uqXMBy8QDBPZCee80x+lu3N9eUfyW1Ov9968nwm1tuXJvZKx3XLpvfHkBd5sYNgTj70TTOG0vHQd37/38rGXj0DK1xk2xcXZS657+fywa1ZljR+O82vP40y5KtHUdiK3ld0TLyFnj7Q+NvUO/pT+UsVP5re+ek++Mjj8op+Fh1XpShWVkMbklCA6J53ZZRwkbJ59tc1FDt+2fe5W0833ry/7Gox6UV9VeazOkV2InSt/rTt49anr+0OG276ov/V9mVCXlKRncaOR/20anjNjjdTZhz6Yz9n+hmN0kT174l9tYEnz2R8aBr76Nigf7wV86F1LbJ7kR2jzz72I9mbPIN8z7AV+cO51E6X3f7zXkhJL7wkuTebbibKd1U+/sWbk+9cU150/wknrdFJbj1qCltJPNQDPNmmbkna916Xp25N2+zasE2hJYjsmRnZsmWLzM3NZUBzO22c/1/xpVfl5oU1ufG/bMrUUcX03rv+OPnpO7pmRPJlKYDmfiMUbKEdi+xfJ8Ljxtsuj/LWPOcj8Z3mUab9RmSfWdGH34qcPhTfP3vkjKyEsfjWfHYfX5JIVB/dm7TppuPnIvFlRLpJF9+XFd56vznGeaTl+PIMbjouix6Bb+fT5fPEg2t/MbjnHqFr2nzrD/5NjMg+dXtxP+eJbNtupdIEupgyLTOZGKz+izx4fVqPj37z57Kq7eh55oPgo/LNn69GdXZ3DomEeEEstta1vCf7Ddn76KrM98S3EcgffnBV5h89Je/blNZT8zXH939lReYXfi4f3Nb/eRB8Ra7/3prMP/oPcrV1//u/8urQCyVVyNhxtkawmNhbW9wkwq1nT/0s0Lhrj/Aw7UnFj689PUFkRIgVCjCK1zkROyXyjNq++tNMSEVc36zQ1v4paoumMSJz+dU0Zjm1W7GQ0vvrOCZl1uzJNiEaZvKkfe/WNRaD2cmRG9bh3lP0vy+/vPRR37y7LMsXTN/FcejKpk4U9V6Tr6Yx14LgOvmu8ZiHWaGtLBixrm325ZlMRCyPu9rK/TXBN95i3v3Mad5mPIY5Y0zbVeZY1pO9wYjsnrC++cFjckUQiBlbH7x/LRPPfdnHTsnehVXZ8yfzyXewqUd0/8Jb/cL9RJo2qYtPjFd0XCbCuYTINvWLBfR78vpTt2bqrTYMgivl717u6ZCSeeq9TRwbF9mbN2+WPXv2eI3RRIOGybPtIS1BcL/sMp5pR/hecdCI59flut0bC+2bCGrr/uTaQvb+5PoQ3uxEZK8tytG96RezXldvduLxPn0oU+8gmJUjZ1Yk7HmfjUA+Z7zbPSHueq4jUd4rK7r3hYvRvXbZw/Cg91x92yPyjy++KC/m/f34QbnF42nR+9f7mAjWkuEi6y6yIy96f8x0cOsP5N+cXU5UZLsx3vH1rDc78aiXaHd5kb2WCGztR+PVvrlg95BCkd3bfaQoFlzLKXuMhcyq2AvG/EIiXvhmdgqxPcyJoHO8dVp+kTCNvZ7Z/Mx9o4jsUfNUweUKM1OvorZoe31HtedInsgKoiPpk3UU2enkJhs77bNHmWtJfmGWzbx7VRCrGDbpEjvksGnnFYvi7ETI5Jk72bTyVOE8qOykTU6/JPXMEdG+eth1r3KeCNsnFqUoJtuI5Fuefk8+c8+9me/XWHynHuqyIjvY+AXZ8ehaX37Bhj+Jrn/6nq9myqnSJpO2qsgOrvq2/CIMpWih5FXf/kW80HfAriVV6zpM+sZF9jCVWu972i6yjT2u+Vo2ZCQWw6syf99DctkAoecTzum1H2a83qPYPhXTR2VvQZ1ULKun2y4z9l7HISKaXxR+YgS4EdE9j3giqldOy6FeWeoJV5Fu5zsN520X2Xne5sQLbm0RqGK6aBGj9mniza9ZZLu7i0Qiu2D3kEKRHdwj138//ql31BARbbdPOKootL3biRCwvHWaR9HRl7+mjwS+J79RRPaoearI9nkNi9qibfIdE3taC/V86eq65hN9deSt3llbTNr5xvYxMdTZnT/sNGXPE94qieysIE/y8DDm1iNpm7XVoa+/fXkm91o7uXjT9ba09NlPyyoKq3LrPMz/VUT2vOOJ9pVXVmTHYSJZz7bJL/GOf/85eX/B972vbPfaIO+0nb5rcdmI7JkZ2bZtmxw8eHCk2ZgNQRPnURjHk2nIiIZ1aJiHXWbs4fbEbj2aCupximw3zMOuux0iEgQ3yfFzGs+9W44vrch/O3VGVlaelTsD87/5LCvoNTQlib0kJjuX6/X0ZCfeZg0B8Rxtr3VVkT0oFl0Zq+LJrlNkm/KTkJMkRnJNRhHcKhBsz23s3c56mH2iQe1RdFTxYHvK43ZoqEi/53NYkZ14Cj2iKi/PuK0anmYdHW+jqXNeW+z2J3XwsGlPWux76jpP4qGdEJi68ldWfCJRy4jtbNlxBMEd2zvrXdZy3KOvb/KY1RCM5Plu9ZXdtrJ5JhMzq6060bH7XK/5yo2vZScJbhvr+H9cIjuK0V7w6Al9jh37ycgi29gn8WgP8FKryP5NRxY/IrIr/JRXx0AZNo9EFPdCPiIhbYlmzXf7V+MFXrb4Tu610vuuaR7DHtXz7ApfNz/1Vvs82bYAT8JHjKg2iySN1zoKITGe7liArzghJ3ZZqeDOXzxpp3fPCReJd6JIPM1F+2SX2MIvEvUl4qZNP1QT2b1Y7RZ7sl22MoLbWnTppiv6PxFmltAwsan9orgXLuIRsEX5+4SKSZ8ngMxneYK4qJyqeaZi2J1M9OJzhxDZqXjL2i/xZK/T/tKJGLa8soNsV+bzJF/LY1t0Xyq4s7HORffYn+n9ZcJsfJz5GEsWHToc+9pWOc/MGErjuLVNyoEt5PWz9TqOTWRHsdv9nuw6213Jk23e/jhAiNdZt1Hzalxkd8FLPKoR1+v+aAFktMtIvBuIveDR1CEWzmZxVuqxTq//OnN9nCI7jrXOLoSM69kLCXFDQFZOy8PHl8QIavVur/zzKXnhYhqvndcHtmc8L03br+uLXvLezqj1b3u4iApn9+2TWn/7qGnLhIuY+9Qr7y6ItPM05+P0ZPfVZcBiysRT64n3TISmR1D2l1OvyDb5q4ixfyJPhWpW/Gp9Um+gX7iVzTMpx2l74pV0rtv1dScgSd164QC299J8puLKvR59Zu3UUkZMallFx0Rcevq86L5Bn/mE6KB7dMLk7sAy6D7zudqtTPiJ9rvdN4kdLEGt/LhC19e2snnGE9XsxMrXvpQt/44nvnvMNR3DdfCxHiI7CK6SD5gFkla4SbDlW7J7YU1Gjb3Os1HiwS65SDEW5L/JXfhoyonTmPCn8b+KvXGR3YV457zOb9t1XQB5451PySee+Jl8YEO6uNDUNRHOJ16T6268LAoTCOzt+SzxnaS1ro3a3rKe7MRD7WzZ59sdJPVGp4I6ib0O051Fgih8JOuxTuK2nYWYo7Zzve/XtzianyWL3qg4VpFdsPOH2iupX4ltA6uKbE0/SMCnHuSCrfasLfy07uY4Uky2eVW747GOBP/xNfEthlQhGe1M4OycYOqSipDBMbRp2v7wDrt97rlPqGgaFVEaqqL1XT17Vl5xFljqPSo4Io49ntqyeSaCx7JL4uU0HkmPyFYhpvXVOulRy7ZFoYo6U1+vyO4J86iPrHADzXOYY9JXnjYMk5/eo+13Bar5PO677MQnmcRZIlfzKntUb7Zt06i8jzw+8GU0iR2s8rUNdsy9/WuO3TYfu748q0wktD15DLl20TFR1+4iJv8ojvpEseD17Q7i1i3qh97CxZsf/H5vB5KewDZhILbI1pfgnOjf7s+Xb9VrVUR2kvY3+Vv4JWmiXyfydyGpWs9h0yOyzaynAzugaAfHCyDXchc8qhDXLXzmjeDevTFeOGkJ6nGKbG1LKpZ7cYAeMaxeb7OYUXcN8V0zeRqRb/bpjmPkekfLK67ldu2o4RrGk13k2U1EbEHYRHbPacdW1jZ6qffcSdP7WXX5R7f1xXrHW+y9nbW/Z/vA2Ovs5pvdr1tFc1F77X5M296/L7edzpynQtuKM7QEsL1Ptn2vT2RHix01NjH6crLydLb7M/ene27H6dy4b7s8IxTiL2j/2/8SYej81B2JQmuhnk9c2OXY57YQzowjU4YjJBPRE5Vv4m8/I/G1HE92bxs5X0iL1qFsnv1tX5Wffrnnsc8RqNm8DX/ZmOG+z017PxOHoPhEtqlz0keWGNS2DHNM+iqnDVXytCcJfX3ptl23c7RZqqMOyRZ71nh34s7LCmLTdhW6SXtMXr26DyOyE3vb7dZzh3dTfj93cbvyhLfyYdetSh/60qrQTr/j0x1DTPqyIjtqj/FSW8+vT99zbyzkLZGtdegv1zzDRhfeiSgu4XUuG4+t6aJn4Zh3GGlcZG/dulUOHDjQ94WsHdeGI972Zt8C14Y+pg6T38cqzAd5syeBBfWS+d6op0Ik74t/EtrfljYkwrwGQWralIi+mvJri53aWo94Utk/KUzEtEdot7UtXa1XWZGdpCvxWnUT9vLtX8QT6XG/gr1xkd2FjkdkT74A6wKH1HE0DhNvdolwlK7bWr2UPg+rCj/fZ11vd5vqn4RUeBabDltPRPZoz4Aqdi+aqCYhSTX9QlGlXtOWNhHPAzzZGmddtD+22k7TtmEHEkT2zIwgstfvwaaDgCM2b4KBJLTGCn1popxx55nnaUuFX793btx1npTyUxv7479HbWeVOOFRy5rm+5MJjRM6Y2yisd5MVJv/ngpK7Baiad4bsG2fpgvD8cdi69hCZJsYpg0bIqGtRuHY/MCaRhsXxkNrHKA5TrhAbLrvI6G9fFYe2pVdGNx0ueudf+Jts9kx53jfWh2eWIaTOE45jvetY2eKMmUWpcksLHV5c/5vQ32L2uJ+Zts6ifXOWbzr3sv/w2sF9TYbmw8Sz1f+3cut2ClkmP5uXGR3ISZ7GMNxz/CDC9thOxiAARiAARiAgUlnoHGRTSgGg2jSBxHtg3EYgAEYgAEYgAGXAUT2zIxs2rRJdu7c2fmfGN3O5X8GPAzAAAzAAAzAAAyMh4HGRXYX3viIt3088DHosTsMwAAMwAAMwMCkMtC4yO6C4RDZDPAucEod4RQGYAAGYAAGusMAIpst/AiTmenOgOXhSl/BAAzAAAzAQDcYQGTPzMjGjRtldnYWsVlBbB4+vSIXnr9H3h9M9jZpPMjKPch2PPCSLJ99WHbBA8+RCs8Rxle58YWdsBMMdJOBxkX2li1bZG5uji+emr54rjj4qsydWJP5R38gV80UC9wg+Lr84fE1mTfp9e/rD8rMiELICOwwvCjP37Odfq2pX9frARpseEhuVBai49uya76foyC4XD5wn8XNiTWZO/J1b38HwQ554KW3xOx3uorQ9tqo6f4Ngo/LB++/mI5z07ePPSfvv7K/b4vqElz7Ldn9XbvffynXf/oDY2lTUT35rJuCg36j36aNgcZFNvHO9Q6qK770qty8YET2D+Wqy/K/QBOBPSBdVeCDw6dlJQxl6dguvng7JrD7+vq2n8n8wqr8oUdk22mDTQ/JjQtrMvdVv8jWtPtPnpcwXJWzD7eXDRWR+77yFdk44mRT2z3uYyqwF+VD1+Y/E6rWc8uBn8tnFozI/iBjvetjnfrDMAyMhQFE9oSGiwTzL0Qe7xtvu7w2sILgsJxeCSVcOkZYwCQ8sGoW2UGwX06eN2+sPCsPt/Rti8GH/miOhIcAACAASURBVFZ2f29NJkpk97zPdbcJkV2vg6TqJIf02B8Gus8AIntCFz5GYSULr8t1uzfWJrL3Pb4oa4SJ1GbPsT9AaxbZpj3B/pNyPgxl+dTtrbTTRIrsj/1I9p1Ykz1f/HitNkdkd/8LfuzPmElwRtCGWp8r08Zk4yK7CwbtQkjL9q+uZuMtB8RWx2El9YnsMl5sTRMtiNz3uCyuhVGcronVNd7v652f5wM3TRSGcn0yoGNRvyTHrvf/BO77XMNZojJNuWH+/W1n86pDr8n88Z/K9pk/luseTeNk5x5+Qq6wbKlx1m7MdLD7B7L3xKp84uAtiU0zbW5CZKs3e/mU3G7VMVNuiS+tLbf/XD59YlE+9MFA3nfXeYt9f4xwNs2azH/ze3J5r/w0nCK1YbJGQePTrfRx2f3lxGXEddL2RNei2Gc3JjqbLm2Pk26IuGktW4/Bx0/JvoXBIjuug22D/jZqnuZYRmT35ZnTniD4E9nx93bZpr43+bmcmZG54+fk3TCUxaPX5qax68o5EwIYgIE2MoDI7pgnOwjul11PrMn8fQ/JZY6ISRZFqnAwsdt6Hh1fk+tuvGyoLy0VxEWx2EZkP/eWCusLycLI4PBz8lYYZnYjiQVyNrZ73+OvyJqVzvz/Tmjyeb+3zvECzCU51gtN8OUZ1XuxX+C3cTC6dbr6rtd7/ZcK5Sg+2lmEmBszfdMPZe/Cr9dVZJs2xLHZy3Lqdv/kyG2n7/9Y4PX4/eb3ZEsQSCqWUwGbudaLRw6CP40FnUfwlfFk54nL9x0+L/ML2bjn6FpvjGm4hq98uz196SyB77OF71rQ814n47tvrGdFrBHDe6049NRu+UI7zw5an3jSYe5PY7aN4N9jlWPSahz8/INxP0bXzMTghD9sJwiOyAurvefI4lG51nnOafkcEVUwAANtZwCR3bHXqheJbBu22j3Z0YLH4h1FUpGdCl9Tp+R6z5utHu+Lz98j250v0MPPmV0qYu9zLM7TMl3PdZT24vNyz/ZYzLmi27bHMOdX3/aI/OOLL8qLeX8/flBuicTftfLlJwvSvfhT+f5f7PROFIrqFYlsRyQHwdZ41w/j4VZPbd7CxDGJ7B3feEneHnEBpIpSFaRqp1T4xTtexGIzK/RM2si7e6JfQDYhsm95+r2+UI1YfKeTgbz2uOm0nVWOZT3Zbp5qizyPcmrrVERrHolINxOZq4onU4m330kXtd0zETJlHDnzK7l06ZIsfudDlceN1pEjAgwGYGDcDDQusjdv3ix79uzhQVniJ/IyMIxLZMcCNxW8vrraYrpov+Q4pMOfVyysY++18UK/8o7xdl8vQbBPHl9ci8JPMv9bizBjz3e3Q0Rsu0Yi+8lX5Q8+moqYVGS/0FqRXUdcdpHAs22UJ+BUQLoiPe+6nWde2ZEo9HmynWt2XnpeJU+9p+xxVJHt2kjLzauzfh5PEIq3CtQwEV8ZUf6eiZDmzxGBBAMw0HUGGhfZXYh37lInjk9km9ANvzBW+5UV2UWCXUNLYiEdh5/EL70xO5ssybOnXpG1yCMe73TiesP1/kmIye6+yD4w9OR6kMAzzCXe1ExIVDZEyhV30yqyi2zl2kjHc5k+iIWyZXPHM52EiuT1EVsEDj1GtJ84IkRhoL0MILJnZmTDhg1iJgNdAHVcItsN3fDZqqzILsrLFuCR9/qVd+JFkyZcxXito/huE04SC/DCGPFeLHhYENfta4dea0W4SAc92ebtj2+ZcJFHbhh6TJUReKafkpADJxRB+9A9TqPIVm/yvFlIau2jPcgWZftAbZwK7jRMRuPT84S83suxvSKBvqFvYGB4BhDZE7Tw0R4Itcdk90I3il6lXlpkF+QVxVXbcdYmRnvpmDx8eiV6AY6WsfTsKVlcK/asG3uoZ9t4xm37dOF8FE92EFwm0e4kTkx3pt0N7C5i8t//9BsShsty6kAa5pIpt0ToVFmBFwu7/tjrvPIGCUtzn6/sRKg6oSG+EBJf2b48Tbqy9/vy1GuDwkXUm+wK3UG2yKuzlus7pvf0YuajN1GuVH77pO4uErLwsXPPLR8XXBtepGG7btuucZHdBS9xl0JaxubJ1p1DPFvx6UNABXCZl9XECxzjeGu9P/Zi9+848k60FV8qqPXeaIFkb2eROGZ7uW8nkroXQ2pd1+NYWmQ7iyETgW1+ol9nkW1eSPP0G6GEy6fkgLOotYrNUrHWv+jOzkc9pZGX9oODRX0cNrEiReld8ZkI7MieWW9wWZGc156y99ttds8HiuzeC3js16zbu5O44lvzz6uz+Ty2Seqxjq/1tid0FkNG9TO2K7mLShDMyfFz7/a2/7wgp++6EqFZYmKq/cax26KM/pus/mtcZHcBmLaL7OQV6TlxjXsP/ZEEjqCp25Nt+nHQlnpVRLbmZ7bsy8RPO28KVE90aHm3fddMflH55o2Udp4X0t1HusCiXceyIjtq+2Wf799LO9p1JLuF32XGe21zZG/99kS6yFL33k7S2ukK9t4O9j8tb0Qvoxk+Htu0p0jg2TbS80is2u2KzrMiUNN645MdAZgIw16e5kUvcZ26J7JNu932RIL7qnirQ1tk9+17nen3rD2jych3rXhsY6vedotqaz2mk6H+9LqfuaaN6jt3XM69G49l9sqeLNFh9zPn9O2kM4DInpkRdkApN9BtEe2+WGbSBwrtG8xI4sVePSuP3DDYq4xNB9t0Wm1k9so+8ysjshflOx+CpWnlgHbzjOg6A42L7E2bNsnOndX3CO66YSe1/rpNXlFs9qS2nXYVP/DjWOzRFjxi42IbT4t9NCb7wunDcpXzK9202IB2MhZgoPsMNC6y2x6KAcTVIdaY6C4uJqS/q/d3GZvFO4qEsnxqtDCRMmWRppk+bINdgyMvyGoU7nVBTh++ilhsYrFhAAY6zQAiG4CHAvjwc6/J4rE/l/fjZRrKfm0QNHXVIQh2yAMvvSWrZx+RG+Bh6nmoiyvymdzJFH1L304LA4jsjm3hNy1g0k4ewjAAAzAAAzAAA11moHGRvXHjRpmdnW21d4eQFgZxlwcxdYdfGIABGIABGGgfA42L7C50OiK7fWB2gRvqCDcwAAMwAAMwAAN5DCCyzZ68W7bI3Nxcq73teR3IdQY3DMAADMAADMAADLSPgcZFdhfe+AiY7QOTPqFPYAAGYAAGYAAGusxA4yKbUAwGSJcHCHWHXxiAARiAARiAgWEYQGSzhR9hMjAAAzAAAzAAAzAAAzUzgMiemZGtW7fKgQO8RGOYWZrvniCYlSMvXJQwDGVt8TH55DrsnRzMHpEXLq5feb52c63Y02FzYdhYTz6a6Jsg2C3Hl0IJV56VOxtgXJluKv8mbEKexWMA+2AfGJguBhoX2V14rTohLfVCH4mpMyty6dIlWVs8KntrECCJ4OiJM1egmc/PrBiRXU95PAjrZcK1Z9v7K5kQrC3KY58MvN6dILhJjp8zIvu0HKqB8TwbNZW/W57+b9r1V//Lj+VnF/Tvn+TovX4b6D0cmx0v2Bf7wkA3GWhcZHcBDER2u+GdPfKCXIy84lkBfdPxRVl87JORAGq7aOvCOFjPOra9v3SiGK4tytG9foG5XiJ7PSeOQfA5+c6FH8uLL39FPtGbOAT3PSQ/u/BP8sPv7fZONtaTG8pq97Oa/qF/YCDLACKbcJFWf3EGu4/LkkdguwO57aLNre+0/9/2/ppWkb332PflZ//+TfmS5ZkPgkD+7Lkfy8/ezF6fdoZpf1ZMYA/sAQP9DCCyaw5yrxuyILhF/uDhVZk/8TP5wMasRy3vs+CjT8gnnliT+RPp395DfyTmy1Lrl9z79QdlJvi6/OHxNO38oz+Qq2bStHrPoGMSo2qFdKw8e2dSpnu/CmiNzw3DFXn2zmy5u48vibl++lD2el9edrhIT5jH+a4l3m77HiPyTAx3WnZ6vl5x5HZ9fOexfeL6qzdf6+uza2yrtB3GC6uhDkn4Q078cN7nfXnm3O+rf9G1MiK7v4/6+zK2i+EmXQcQ2chqu10P145qzzD02zn9XO2aMprxZDs8+frHrkeZ8zI2KpNP2TQaJvLis3+UGbPx9Wcib7YvbOTjj74svwpDOXdiX+a+suWSrv+LGZtgExiYDAYaF9mEYowOyhVfelVuXliTG//LpsyXmIrpvXf9sczoT7tGYBuRfFkqSs39cyfWxBbascj+dSLEb7zt8ihvzXM+Et9pHlUHfHDTcTkXhrJy+lCmzpqPih3780hULaWLyBLRXvCTveaXCJLlZblopb/p+LlIpNviXcW9/TO8SWdiyO36aN7jOqoNVTRq2ELcplRw+uyUCMDexMX2zKrwttuV5NGLL05EtzPBMf22VDBxsvMsOk/6KyeG3tdHs0fORGFDtoA111aSRZRxOFHSdmdCEE8Y1mTx6N6YdY2pdtpo6m3bS+3utkfLWTPMWXnEdUr7x72v7P+DbFQ2n7Lpglu/Iqcu/Fh++P00LCQOH/knOXrf5+RxT8hIEHxBfnyhNwE5d0L2WRP5suWSbvTvCGyIDWGgnQwgslvuyTYDJwjul13GM+0I3ysOGvH8uly3e6NXyOqgSwS1dX9ybSF7f3J9SG92UuYAkV3GQx2JbuNtLrGwTAWJG0OrQtUWZr6y9f5hvNiJQLU8+FkP6HCCS+vutl+va5vUm+t6+902ReK8NwFJRHRPiCaCsSd6kzaVsL32eZVjWrdsnL3JI61bdkFhInwt8awi254wmTzcyVVee/IEcVKWNWFz26c2c39pSds22s46mr/btthGvZ1NamQu+M9Zka0C+zv/cyDm/HETq/3MHX3Pmj955kI0QX1tAU+2ywj/t1P40C/0y3oxgMjuyGvVr/laNmQkFsOrMn/fQ3LZAO+RTzin136Y8XrXBV4iBHM92eqBTH9+d8tWseKKTDed+V/TuoLEVw8VYLYozbvfV9Z6XfPV3S07T5BGNjFbKZ5ZSbaYiwVlbG/T3jhcJvu/evITkWlEnCVq3fKH/b/I3lo3rYtdhvad/jKRiOSed1rTajrtYxWsLkt59yftLyOynYlIUdu0fmWOWmeX6TL3DpPGFtm2wDZ5xSL7GXFDSYYph3sQODAAA9PCQOMie/PmzbJnz54+70ebDNyFkJYojOPJNGREwzo0zMO2Z+zhtmKsNTb70VRQj1tkm/qqiEy9vlnBrSLDji2222mf5wkbLcMWbHrN9lq7oQR23uM613radXfrkuehNelsoWhCROL8Yq96FI6x8t/k1JkVMR7xJP7bK1Y1Hrk+wZ3XX1G9MzH1VtmJ1zaN0c8Tya7INvnG19JfFRLbeYS0bbtB4SKucC9qm9t/Rf8r/+svsr8i37nwT2I82Fo/9WTboST6GUcEEwzAAAz4GWhcZHfB8J0Q2dECyF8nISORkLZEs9p5+1eNx3tNbPHtE9S+a5pHHccyAtEuR9PrAjTzWSJ0PAsi7XujtPbCR8uzr/naQlXjwVNxb4RcKtzcvAf9n4i1RAS6wjAVdoPysj/31d3+3JwnNnK8qfFn+rKUOOxCxZ8R1WZSYWwSCU/jqY7Ce4ptEIvUUMpMetx6uv9rXXwCUj+z+8y9X/8vK7IjO/VekJTpd4/dTN6JXT0CXMtWEdy0yPbZoQnmVEib7fpsgR3Zo7eNn3tdbcHR/wWLXbALDEw3A4jsmRnZtm2bHDx4MPHatHVQRAsgo11G4t1A7AWPps6xcF6VeUd8+wS171qd7S4jEN3yknushXWxiBr8JkcVZq5oS/Lsha0kYitHXLl1Guf/bt3z6qJeWw2h0HTGJiYkREWaisKV0w/L8aVYUMdlrMg/n3ohs2BU83CPeWWZdLpY0bdLjJtPXn9F+eiCxBJhKqVFtmMLtz7u/20Q2W6dmv4/3qrvmb4t/Ey5f3b6x97r5jPdXSRk4WPrv0OaZoj8p1tQ0v/9/Y/I7sDCRwVXF0DeeOdT8oknfiYf2JD+nGvSJML5xGty3Y2XRQ/8wN6ezxLfSVrrmpZTx7FIIMZCd7lvaz3vgkSNK/a8on13iZfRuPWwxZNvl4062l5XHm7d8/JVwWp7mBNPp+WJTdpuPO696yq8I++uNfGIBPpyugWgKTvJ00pn1ynuv9iLr4sy7c/tc62zOynSNGUnV1VEdvxG0PKLEbUOeW1JbOfYY1DbtI2DjsmkJWc7wkH3D/O5erPtBY76MhqfFzsIPi6Pvvyr3laYK/Lf7vsQQrND3ynDMMI9/UIKm2CTPAYaF9ld8RLnGaht1+MFkGu5Cx5ViKd7ZL8W7T4S3WcJ6iZEdiIKvGET2ZCJSKAsOWEVliB07a6C0/6pf+XZdHvAPGGj96k31+Srae289NyO03brsN7/++qeV4dE8Fm29wlY44l2X3fvuxbZ6ab4RUBqG3P05al10vrmhd4Yu+ftTW7ydsVs1E+evcztPiorsk0dVTTb7YnPs2xqe/z3pOsGEps3JbJ7O/TohMiuV5PnKrST16r/+/fk/v3ZCb1dfvDxv5Nf/Doey+yVjdiw2eAcHqadgcZFdhfinacdgmlqf+KN9Qh6FWG2iJsm20xyW3UC6E4SUu9+vtCeZLvU0bYg+BN5Jtor+zVZ2JcvxusoizwQbTAAA11iAJE9MyNd2AGlS1C1ua55YsvUWT2xrhBrc3uoW7kvnKLdY+I48/QlNdi0nE3VThqT/daL98mHrUXH+jnHavbEXtgLBiaHgcZF9pYtW2Rubq7VcXp42ycH6EEPpyRUxIlzjePEL0q0u4mzjd2gPPm8/fzk/UqRhLB4ftmgX4v7NfjCj+VCFJ60Ii/e9+FWP+Ppy+K+xD7YBwaaYaBxkd2FjkNkNwNXW/s+iaW14pej2FyE1kQLJf2lwo3J5peL6Rr/bX0uUS84hIHJYwCRPTMjiOzJA5uHFX0KAzAAAzAAAzAwTgYQ2Wy3NNHey3EOLsrm4Q4DMAADMAAD08tA4yJ769atcuDAAYQcYh4GYAAGYAAGYAAGYGBqGGhcZBOKMb0zOGbv9D0MwAAMwAAMwMC0MoDInpmRTZs2yc6dO6dmZjWtsNNuHvQwAAMwAAMwAAPrxUDjIrsL4SJ42xlw6zXgKAfWYAAGYAAGYGA6GGhcZHcBJER2ddgPP/eWXHz+Htk+BS+fMG1dOraLXzqII4QBGIABGIABGCjNACK7Y1v4XfGlV+XmhTWZf/SHctVlxa8wDoL7ZdcTa3LL0+8lf/P3PSSXjSiMjegMw4vy/D3bc0EzaS5duiTh0jHZNWJ5ZSZqQXBYnnsrrL08zde0Zb2F9hVf+u8yv/CafOT64n627bP5ljPyKcPHd/9Zrtle/j47j2HPg+A+efGdMOr3xb//j7lsDJv/KPcFwa2y8NpvJHzzWfmzy9fXLqPUm3urOwCwGTaDARhoCwOI7JkZ2bhxo8zOzrZKFOQBUlZkq8AuI8bzyvJdDw4/J2+F4UDBWbfIDvY9Lq/0BJwRvObP9qSrGG5C1AfBPnn8lXckDJfk2K56BFoshi/IDbden8sdIru+LwpEdn22tJ8Ll9/+knx6YVn+cO5DuRzb6Tlvph+wK3aFgXYy0LjI7sJr1ScRzmD/mcjjfeNtl9f25dekkC3qg32PvyLvhGFGVJv0h597LfGmN103Ffl1ifimRHaRHaf5M0R2M19AiOxm7DrNY5W2w9QkMdC4yCbeeTwDJvZ4vy7X7d5Ym8iOxW5xmEjdg0M957bX2ldG0yLblFln+xHZ6zsuENnN2BuR3Yxdfc84rmFrGOgeA4jsjoSLXPO11SSu2sRYD4qtrltklxGxGlah4RxuSIf7gFDvsKb3xXnH8d+DwzQy9XNCS3yx1Jpey7aPed5qre8gwe+2U/8P3v9XsuvxbIy8HS9vzvf++WeTSVEaLrJDrvnavyf9P//oU3KlE+du0tp5+dLk1WN+oThsRe/LOwa3Lshrv4ljsY0dw/BNefbP8n9BuXXhNflNaKWvIU7ajgfXvrTjwrMiO40dN2nffPbP5HLHnppe84ra5dRT04SLfy//0bFB2Tw1fzdWPLjvxejXm+TzcFH+/j/WE6qU149lrwcffFh2f7eY4z1f3JtwHNz0I/lPvZCSWJSn92bS9fL9n+65VzZZ/RHfvyZ2WlNXtx7zA8JWDpxaljAM5ewj7bBjWXuTrnvCij6jz5QBRHbHFj4msdaeBYwar22LLft8fmF4z7YKTJ9gVZjso6bPE6Q+D3UkfF97Xu7pLdhTIRxeTK/ZZdjnmvbi8rK8Y8VO+7zPWjdbTOeFpGTL6MVml6iPfZ/vvLQn+7uvyd7H1xLxrUL9U/f+TZ8wNOUEwbz8wbfMwth+IR59vvNJ+cTCmtj3R/d8o56FkrGAzhfZ971oYtuznxtBed4jdH12811TQRqJ3Z44iwXwy4kwTQTxm8uy/Ju0fL23X5AvZyYKOpGwxbDmGQlwq03+PGNhn7m/J6Ttepv26STErpPPbj5brPe1Mp5sFcnmWTR/9Cfy/qtjkXv1ofNiC2MVzWVEtuZpp1UB74pxY5MgeFjO9iZ24dlHkgnAetuL8hBfMDBdDDQusrsAVJdCWopEtm3r2j3Z0YLH8qEiKmTzRLZP/Nr1N+eahy2G3TT6v4psd3Gi5mHXw1d2cv+A3VDKeta1XnnHsiLbCBPbux0EsVc7b/eQQSK7TLl5dS5zvUhkqyi1hWaZPIvSlM0zSWeJYZOvesBdoesrM25b6lGukqdfePfveKL1cT3hedd99XSvadnqFXePo/RHFZE9/+D3ZWuBh7qsyA6Cm+QD91+Uvvxyrqs9Hj4b/3qCJ3u6RI72P0f6fRwMILInyJNtA1S3yPYJU7s899wnbu006sn2hYhoOs2jksh2RLLmUZfIrmoHbYt7LCN203CR9OftUUV20PNkjxoi4rZH/y8S2SaN8chGnl8n9ELvr3pUD7Pt9fXlkQhip1wVr+VFtuUFz9kW0JenCl27nr46xenSMrQtvrT62TiPVUS2z8Ns1720yO6Flfjyi73ji/LhD6djxi6Dc4QWDMDAejKAyO7Ya9XH5cmuKi594tYFW9OoZ80V3Il3uUR4RpK2hMjWcm3xHrdv8NaEVe3gtln/H5fINuVryImGEtUpuAeJbFN+nKaemGyfeFUb28c8keoTxJGNnBjrlNFUAFfJMynHEvlad9tr7dpGy9XjKF5n2x51nY9FZEcx3mlct3Ksx/kFRHZd/Us+CFIYGI2BxkX25s2bZc+ePcTA1fSGpHGJ7NjzXF+4iDtwVfgaMaFx37qQ0g0Bce81/1cS2b29vlW4mKMr8H1lmGvrHS7ivoxmVE+22y5bcNthKW66sv+XEdl2XioqwyEX9qlQtT3Edv56XkkQF8ZKDymyc0S7W+88T7a2Y5ij2sjm3T4fRbiPRWQXeLKHsQ/3jCYisB/2g4F8BhoX2V2Kd+4CKGMT2b0dO+ywiyJ7qWgum97k5btHPcyD8qkisiOhXMI77rYvEf1D3OvmNU5PtlsXFdr2Ykg7TRLiYXbRsGJq7TR6XlVkm/uGuUfLSzzEA+pWRWTn1ce9Xj3PNJ5b6+8eNfzF9m67adr0/3qIbBMCYrzUGh4SBJ+X67691heTPcguursICx/zBcEgG/I5toOBagwgsmdmZMOGDWImA12AZ2wiu+Jry32C2bavEbrqsdbrvlAMFbbG8+YK7TIvo/HVY1hvtC8vrXvVowrbvF1ATH5NxGSbPF2PdZHgVxEbe/sHi0RXiNp2ifPK5pEnVO37Bp3HZYaZrfjifH27i2Rfq67ts2OyffklEw1r4WRe3fPzTL3gRW3Sslwvd9E94/pM46jdRYh2fXQnEBXJ9mf2ebKg0dmBRMNA7Ptjcb8m9u4idl7ueRAckFPLcYhSGC7LqTuI2XZtxP/VxBP2wl5lGEBkd2Dhowpr/bJxj3vv+mOZcTyMdS98NDD5RLANmYpQ+6do+9wW1bZ41jRFYSG6UFLTmmM2v8Py3Fuh2HHWpm5aJ1ugq9fbzkvP3fvt9g1qv522zLkKbbs/bQFcVmTrjiJ2Pva57aHWcBP7czckxa27ij5biNppVJSqDe2jGwaintpMmgFeaLusvHM3375tAissUjRlaJu1npFnOQojSYVyFZGtaTU/++gL18gL8Wij8FahbTNlC+KyItvYXb3Umlck3nPCQ3zlmvvyhHdw4JQs97bxY4cRBFLes4TrsFEnA42L7C54iQlpKTeoVJwWCdE64WwiLxX3PkGvQt7XPhXrvs+aqCd5lmOyK3Yyot0V/qbuOjnwCe2utK0r9dS9ssPwrDziOCW60gbqOVnPBfpz8vuzcZHdBYgQ2eVBLxsj3dZ+LxLLeZ8VCfO2tpN6lWe6aVsl4SPWziJaZtFnmoZjPX2pMdnLp+7oRGgg/V5Pv2NH7DhOBhDZMzPCDijVBqGJaTY/d9vhGuOEuErZiTfeeiuk3p/XrjiGu/zOKpofx2pcTaq9NFTE58nWUJuuLHTsYh8FD5+NXqdOLDbjsYv8Uuduc9u4yN60aZPs3LkTz0FNW/i1ZcCZRYeLx+6U7R382VU903ZcrDn3hpD0Fnx2cULRFlaq1CMvFrm/r9LY6Cr5jzOtG+cdM9e9dozThpTdbcFB/9F/08ZA4yKbUAwG1bQNKtoL8zAAAzAAAzAAA4jsCfMwM6gZ1DAAAzAAAzAAAzAwfgYQ2R3Ywo+BMv6BQh/QBzAAAzAAAzAAA1UYaFxkb9y4UWZnZ1sdk01IC4OmyqAhLbzAAAzAAAzAAAwMYqBxkT2oAm34HJHNQGkDh9QBDmEABmAABmBgchhAZM/MyJYtW2Rubq7V3nYG3eQMOvqSvoQBGIABGICByWegcZHdhXARQJ980Olj+hgGYAAGYAAGYGA9GWhcZBOKAdDrCbQpa/PBZ+TNMJTwt6/LU58NGv+FIgg2y8Fn3ly38tbbnpTHGIYBGIABGICB6gwgsqd8C78rvvSq3LzwLGV3CwAAIABJREFUuly3e2PjYnS9BmjdIltFtP1CFFvA6+f2tfVqK+VUf+hhM2wGAzAAAzCwHgwgsmdmZNu2bXLw4MGJEZlVwJlEkV2l/YPSBpsPyjNv9nvFgyu/Lf/6+lPy2SAQRDYP60Ec8TmMwAAMwMD0MdC4yO7Ca9WnOaQFkZ0/6IPgSvn2L/oFtvugRGTn29C1Ff9jKxiAARiAgWlhoHGR3QVDtl1kB8Et8gcP/1rm73tILgvul11PrMktT78X/c0/+kO56rJs3HHgpDFpb7zt8sRTH3z0CfnEk2kempd91PRJ2U45WkZcp7h8vbb3rj+WGaeMbDqrPU666N4g256yDF357V9IJqTj3Rflr3PyUgFtp3/3xb9ObGTKNN7qX4ShuNfd+mRFdizMNd/f9rzd9j2aXtPYR1/ISeJNL2iPnT/nfIHBAAzAAAzAwPgZQGTPzMjWrVvlwIEDGYHVJjhV6KoITgRwT6BmBKzv2v4zcvPCmvgE7CBPtpbtinkV1JmyLXE/b8V5B075mqdpjy+dtm/YPlABHeaIUp9ojYXvv8mLf50KfCPaw/C38vpTny1kQ0Vz+NtlWX4zTe8T6UndrEWZmi6vvjp5CMN3M/Ub1j7cN/4HL31AH8AADMDA5DOAyO7AwkcVpbYgNYMzuW55ma/52qq4gtikzbvehMieX/iZfGBDKlZdQZ7U2xLicXtiL70t3Id5CCVCNk9kl/BQJ8K5hLBN06YCO25PL9zEqocKats7ntxvCW+73XpPngi303I++Q9t+pg+hgEYgIFuMNC4yG57KEYXQE1EqSWmffVWMVvFY92IyI7CWlKR7dY1rz1a/8ZFdm8xownTsMWuXc9E+FYR2Y5I9ol9Fcx2uUlZzv12fTjvxgOVfqKfYAAGYAAGlAFEdpc82YNEthPfrOElenQ94QaCaRTZpt0qgO14aFv4mjTVw0Wy+3JrGbYHOrlmCWoV3r74bR2oHHlowwAMwAAMwEC3GEBkd+C16nmeX3ewqSfY58l20+r/0yqytf3mqMLXCG5b6Op+2674tu+N7/e/jEbzzYhsy4teJPDdMvi/Ww9W+ov+ggEYgAEYaFxkb968Wfbs2VO4cGzcILY9pKW8yO7t2jHA423be2iR3VvMaId2qMi3r9ll6Xlee8rer/nkHX3iNi+tXvfdkyyQtLzOmt4+5oV7+PKMhXu1BYxJPUqErtj14pwHPAzAAAzAAAyMj4HGRXYXOndSRLaxte7kMUjoar/odn5F6V0hrmVEu4NY8ddlRfK4RbYRusvO1noasuF6rdWb7W6tZ9IPehlNvsjOLpDUvsg7ah1cT3teeq6P74GK7bE9DMAADMCAMoDI7sAbH/NEqXaie1Sxq7HYeswT0iq0NZ05utvomd1J9PN49xBrr+veXtRabl45Ws+89pS9X/Oxjypo7RAM+9wOAzH36bZ4mqZoqz5f3pkQkKBCuEgvrZZrH10hr+1TT7lJa5ern3PkgQ4DMAADMAAD7WMAkd2BhY8MnPYNnGH7JG8xZRISkhOaopMC19M+bD24b3KYoi/pSxiAARhoJwONi+xt27bJwYMHWx2TDZzthHPS+kU94j6PdeFnvcWSvvsmzUa0h7EIAzAAAzAwKQw0LrLbHu88KR1JO9r/UNKwD19oisZd22EtKrxNmIh9nb5uf1/TR/QRDMAADMAAIntmRrqwAwqDdXIGq4Z+ZOKxS7y+HQYmhwH6kr6EARiAgclnoHGRvWXLFpmbm2t1uAje9skHnYcZfQwDMAADMAADMLCeDDQustezMcOWRdw4g25YdrgPdmAABmAABmAABnwMILLZXaTVvzL4oOUaDzMYgAEYgAEYgIG2M4DIRmQjsmEABmAABmAABmAABmpmoHGRvXXrVjlw4AAdV3PHtX32Rv3wMMAADMAADMAADEwzA42LbBYVMsCmeYDRdviHARiAARiAgelkYOpF9g2PnJXVMBSzndr5k/vxuONxhwEYgAEYgAEYgAEYGJmBxkV2V8JFVGwjtKdztomXgX6HARiAARiAARiok4HGRXadlW0yryC4QR45uyrh+ZOyPwhGnr00WVfy5iEAAzAAAzAAAzAAA+1mAJHd+zkEkd1uUHmQ0D8wAAMwAAMwAANdYgCRjcjGa0/cGQzAAAzAAAzAAAzUzEDjIrsLr1U3syI82cyOuzQ7pq7wCgMwAAMwAAPtZqBxkd2VLfwQ2e0GlQcJ/QMDMAADMAADMNAlBhDZ1k8D8Q4jb8tLD+zgJxPLLl0CmrryAIYBGIABGIABGGgDA42L7G3btsnBgwc7I1rVo82+2QzQNgxQ6gCHMAADMAADMNBNBhoX2V0CA092NyHuEmPUFcZgAAZgAAZgYDoYQGT3wiLUgz1on+zghkfk7GooYUhYCQ+J6XhI0M/0MwzAAAzAAAxUZwCRXVVk33FKlnuvYR8kyAGyOpDYDJvBAAzAAAzAAAxMAgONi+zNmzfLnj17Wh+TXdqT3XszpInZRmTzEJiEhwBtgGMYgAEYgAEYqJ+BxkX2JG7hF8duh/L2Sw/IDl7B3voJFA+O+h8c2BSbwgAMwAAMwEAxA4jsquEiwR1yajmU8O2X5IEdAQKTrf5gAAZgAAZgAAZgAAb6GEBk96AIerHW50/u7zOSmakFPXFtwkTwYBfP3JjZYh8YgAEYgAEYgIFpZ6Bxkb1hwwYxISNtNbSGfiCeeRi0lVHqBZswAAMwAAMw0D0GGhfZQNE9KOgz+gwGYAAGYAAGYAAGRmMAkU0MUWt/ZWBwjza4sR/2gwEYgAEYgIHxMdC4yN60aZPs3LkTIYeYhwEYgAEYgAEYgAEYmBoGGhfZXdnCj5ne+GZ62B7bwwAMwAAMwAAMTBoDiGxmlFMzo5y0wUt7+EKCARiAARiAgfYygMhGZCOyYQAGYAAGYAAGYAAGamagcZG9ceNGmZ2dpeNKdtwdp5ZbuQ/3vsdfkeXn75HtvOESlkuyjHelvd4V+oa+gQEYgIHmGWhcZNOJ5TvRCOwwfFteemDHugi5/S/9P/L0pf8v+Vt4+VnZ4BHRQbBPHn/lHTF7iV9sQGjb+YfhkhzbxZs0GTflxw22wlYwAAMwAANtZACR3ZBXLn7JTXnBPOiNk03CEwRPy9fe+53kiWwt+/Bzb0kYXpTn79le2yRABTbimgekcsYRFmAABmAABiaBgcZF9rSGi1QR2frK9vD8Sdnv8SQ3DVpZkR0Eh+W5t0IJLz4v92yvx9sc7HtcXnknlKVju2oT7k3bi/x5+MMADMAADMAADAxioHGRPa1b+FUR2VXSDurQYT4vK7JN3sHh5+StsD5RjMjmITUMs9wDNzAAAzAAA21nAJE9MyOxyA2jmGMTdxy+/ZI8sKPfU6seZ5NG/86f3J94YIMbHpGzq2k+msY+2ukNHJpnnhc7CO6UL73x/8pCeEluuzxbp7zPgs/+d3n4t79LYq1N3PWjP/6aXJbjJa8kstWbvXRMduXkVwV6RDYPySq8kBZeYAAGYAAGusLA1Its32JDEx+99NIDssMSkSqgbTGscdRvO2lN55f1Tmu+rvi2Afroyf9Tngx/J/f97dZE0JvPVUzbAjq6trwsuzemglzvt9PZ+VcR2ea+ODa7ngWKiGweljaLnMMDDMAADMDApDDQuMhu82vVg+AGeeTsaq7n2u7kSIx7PNx510uL7DtOyfKAHUXyRHAsnv8vuesLGzPi2663OU883rm7h5Rb+Kj5mu383qlpASQim4epcsURFmAABmAABiaJgcZFdtuNZUSyCefICxEx9deQjioe67Iiu2w6s92eHTIySDjbdk/Svpn1cGuaPBGvn7vHOuOy6/SKu/Xkfx7WMAADMAADMAAD42Jg6kW2MXwsdNNYaldwa0iHHVttn/v2ti4rnsum09AQDRlx/7cB0vAQew9sc77QEpGt2/YZG7KrCA8/m13O4QEGYAAGYGBSGGhcZG/YsEHMDiNdMZgK7jA8Lyf3x3HNRZ7svHaVFs8lwkVMGYk3uhfyEQlpj2jWF8yoGM/c60kffz6+cBE82TxM88YQ12EDBmAABmCgyww0LrK7uIWfK5CrxG4rDG4eet09qpfcF4ripo091GaXkVgUuwsZEyHuiOm865p/1XCROoUxMdk8QJVDjrAAAzAAAzAwSQxMtciOPdSpx9p0bJ6g1p1E7N1FikBQ8TwovXrJB6WL6xaL6/v+4XV5+LdFW/qliyFVQNcVLpK8kIYt/Drz60wRp3zGFxoMwAAMwAAMNMPAVItsA5WK4UyMdc6bF1UQ22nNeZ5A9uXt26qvrNfb1FfDQfJegW6L6khYh7HgjhZOWh5uN50bv+16yXUA1rnoMbI/b3xErM8083BTZjliXxiAARiAgXEw0LjI3rx5s+zZswchUSAkVLznifVxgOErM/Fi81p1eC7g2ccO1/iCgwEYgAEYmDYGGhfZ02bQYdsbe7NDKRObPWwZo94Xx2JflOfv2V6byCQmm4fuqFxyPwzBAAzAAAy0kQFEdos8crpnty+kZNzwxC+gCWvfck+38wtr9I6P21aUz8MeBmAABmAABmAAkd0ikW0G5B2nluTVk3dnXuk+7oGqQvji8/fIdutV83XVS8NQovj2sJ7XtddVN/LhIQkDMAADMAADMDAMA42L7C5u4TeMIbmHAQgDMAADMAADMAADMKAMILJb5snWjuHIIIUBGIABGIABGICB7jKAyEZk17aIkQdBdx8E9B19BwMwAAMwAAP1MtC4yN6yZYvMzc0h5BDzMAADMAADMAADMAADU8NA4yK7C7OiDRs2iIkd70JdqWO9s0zsiT1hAAZgAAZgAAaaYACRPTMTCey7774bkc3sGgZgAAZgAAZgAAZgoBYGENmI7KFAMi+maWpLvyZmk+TZrJdixzdekuWzj8gNDWzxSN8123fYF/vCAAzAQDMMNC6yt27dKgcOHBhKyK1Xp3dpm8ErvvSq3LywJvOP/lCuuiwotGsQ3C+7nliTW55+L/mbv+8huWxEIdTEmx/z+treQ9vso23+lo7tKmx3Xl5tvL75ljPyqYW0j+YXLsgNt15fuX1XfOm/J31s+nv+0afkyhH7uay9gmCHfOOlt6O+WW1AaNv5h+GynDpQzH3ZepOumS8V7IpdYQAGYCBmoHGR3QUBu2nTJtm5c2dlYTMOiMqKbBXYZcR4lXYEh5+Tt8L63/xYpg7jLLtM/aqmUYG9988/Wxt7QTAvf/AtMwlbP5Gt7d5/8ryE4aqcfeSGGtsTC3jENV/ayhlHWIABGOgKA4jsCY07CvafiTzeN952eY2C57A891Yo4dIx2bVOXlJ7IE2SyDbe2Wu+9u8y/91/lmu21+eZHafIDoL9cvJ8KOHqWXnkhnraFOz4hrz0dijLp9r9a5jNKecIABiAARiAAcNA4yK7C+EikzgYYo/363Ld7o21iex9j78i74QX5fl7tteWZxXbT5bIbsbjPE6Rbfoy2H9Szof1iWJENl9UVZ4RpIUXGICBNjHQuMhuU2O7XJdrvraajbkdEFtdt8jW2Og8L3by+cXn5R7HM5v3mYpmjbUeFG+t6SchJrusGA7e/1ey6/E0ZtvEW3/q3r+Ry3N+SSiTr5tnURx41VjvxJu9fEoO5NSxyjhEZPOFWYUX0sILDMBAmxhAZHdsd5Ek1tojsjVe217oaJ/PLwzv2Q72PS6vvFMci523INInjqNrTtiJub9IaPvyadNgGlQXFcB2n7jndix1JIYfzYaTaBx3ntDWMux87HoFO5+UTyysZYR6dM83suUk4SwLr8lHro9DP5K8B4S4xLHZ9SxQRGTzhWnzyzk8wAAMdIkBRPYEiWwbvNo92dGCx+JQERXi7tZ+sfhekmO7iuN01ePt3q/tqkNkB8E+efyVdyIxb3vQ7XP1lGt59mf2eejx2mtdBx0TwVpxgWIifnPuG5RvLNIH72ASi/H+dHnX7faa7fzermkBJCKbL1SbLc7hAQZgoEsMNC6yu/Ba9S7sgKJQFXmyNY051i2yy8Rjq4C1xecg4WzXWdPmhqSMcWcTu551nA8Sw3llJCI7x5s8KF/1ZBeFiJiyTZiIb1GmhprkedLNvXXGZdfpFc+zKdf50oYBGIABGGiCgcZFdhcE7ObNm2XPnj1jWcxXtVPbLLJNW2Lvb+rxdv+326vhIbZ32JwjstOHnYaH9IWVDCmyoz5y4rxdwa1C3i3T/r9JkW3K13232VUkZcEeO5xjFxiAARhoPwOI7I5t4TcukV0klu2Brt5oDfmIQkWc2OvE4+3sVKL3NimytWxX2Nv/tyVcRBcd2vtoqwD2eZlNPwzyZNt9FaW3BLddTp4n273f93+d4SJ4stv/JeJjgGv0GwzAAAyswxZ+27Ztk4MHD3bCS9wFIMYmsnsLH1U8F9kqEtYmXvkO/2LJPDGdd13L0hhpFcF6vYvHQWI4T0znXVcbDMpX09lHXwhI2dhtOx89r1MYE5PNF7VyxREWYAAGusZA457srhmk7fUdm8gOyr+IJl4AeVGeP/WivOVZHJiI6TBdDKmLJgkXiR+iiZi2XrOuAtqEbQzryTYeattjbXj3CWota97aXaTM2GALP74Ey3BCGjiBARiYBgYQ2TMz0nZvuwprOybWPt971x/LjLMncd0LH81gKLP40aSzQzLyPN+2qI6EdSS4450/7HAR9V7b4Rx6HjrhJl0asImIzdklJLZj/MIa7WuNnXZDOTQvTece7fhpFe92miIhrSErZdPXuegxsgFvfORXwI6F9HXpOURdEbow0CwDiOyObeE3zgGReKCdGOtx1omym31AVLFv4sXmteoIY4QxDMAADMBA869V78LOHV3YAaWK2GkybezNDiXPQ91k2eTdHkHt64s4FntVzj5yQ21fLsRkt7vPfRxwjT6DARiAgZiBxj3ZXRCwXdjLu03A6tZ7k7AAsU127XJd4h1FQql7yz0T3mK28wtr9I532c7UHfECAzAAA91hAJHNzxlDeR0PP/eaLB67U7Y7seAM/u4M/rr6SoXw6tlH5IYGeNAwlDh2v57XtdfVdvKZPt7pc/ocBmCgLAOIbET2UCK7LGCk42EEAzAAAzAAAzAwjQw0LrKn0ai0mYcJDMAADMAADMAADEw3A4jsmRnZunWrHDhwAI8uXn0YgAEYgAEYgAEYgIFaGEBks4VfLSAxW5/u2Tr9T//DAAzAAAzAQJaBxkX2pk2bZOfOna0Wcl3YAcWA2wVbMsCyAwx7YA8YgAEYgAEYmE4GGhfZXRCwXQkX6YIteZBM54OEfqffYQAGYAAGYCDLACK7Q3FHiOwsvAxm7NFGBg6dXpGLzx9he8sOPVvbyBF14vkGA91nAJHdoS+CSRHZQXCDfOgbazL/2D/I1SX3VQ6C7fJ7X16W+RNr8pm/elS2lLyvzQ+pvUcXZS0MJbz4vBzZHpQKqQqCvXJ0ca3SPYNs0ESeg8qc1M+NwA7DFXnhyGyp/vTZ4YPf/l/lu+Hv5IT+rfxaPn1tOT58+bXpWhD8vtz/4lsSGu7DX8o/fG4y2tUmG1OX7gsz+nBy+rBxkb1x40aZnR3+CwfYUti6YMtEDH/vrHzwQ/4v0CC4UT78gBHZ/1hBZF8jv/flX8otT78nn/7rv5OtEyCy932nJ7JXXpAjs35bufwHwT75jhHZFe5x83D/ryPPIDgkp1dCCZeONfJCGrfObfw/OHRaVsJQzh3fPbTAtttlXsJz++L/kIWVNZnLGUt2+rafpwL7TfnHz5fjve1ton7p9xO2wBYw0M9A4yK7C0bnter9YAzbb0EQi+H575+Va3OEwTAie9j6TNp9dQhi1yZ15JmI7HPHZfcETIBcGw36v4n2T5zI/v375cW3QnnzHz9fyyRkUJ/weX3PdWyJLWFgOAYQ2WzhV+sXHiJ7uIFY9gFWhyB2y6ojzyZEplvPNv8fh/6MFibitm8cIjsIPiNPvR7KL//hc7U+F0zbgo/8NSK7Q+GJLo/83+yzHftOpn0bF9ldCHHoSqxzm2254VOnZd+JtShm2sRN9//9UnbuiX8izniyr/xL+ehjafp9//Vg5ss9id+28nTT2A+nvnoUhK3Y9xWdJ7HTURypiSXVv4vy/JHtUX2DvUdlcS2UpWM3iIYNaDp3EVwct6t5FIdYJPHSSZm9+0YIF6mSZ19dwyU5dkP6U3//51a7TJ2deHNv2U6aor6wP1Nhb2ye1MOEq/T6wtjffJa5pxfSoX2Tnybu2yTfyP7Ztmu+Wo9wgBc/CG6W23/xP9JY6/B38tg/f0+uyvH8j0NkmzbNPfVGzPgv/0E+l1M3bXuVIyJ7MkVEFQZICwPTxkDjIrsLArYLdTRgdqGeVTzZn370Ndl3IhXfGyOhviK7D+zJCCMdlMHs4/LxhTXJE9lbPv8LmT+xIjfdkd5v7tk9wkLJWGRdTBayJYIqPCfHd6diM9j3nUhkx+JtKflM465dsWfalOSVI85UuF984YjM9sTOqF7nKnmati9Z8cVJfR2hXaYtcRqzaHNZnrcWBSZ2G0Jop/UJo908ZiMBfVGWl5ej/or6zso3mvwsZcNZVETb/ZOZJPXSJ3b3tb0n6otisYPgPrnrwu/khBVfHez5idz/69/JiaVfyIc8YnZcIjvqq7mn5A0zsVj9V/mWxbn5bNg/RPbwthvW5tyHzWFgvAwgskf40lhveCdNZM9bAtvYMrjyy5FXO2/3kCKRnSy4LIgFr9pfiYhzRHAsnFMvdlR3FdmOh1lFpOvNju7RxYJO/vFnvV1E3PxGWPiYeJFHyDMWoNm2D2qL+bzoL7an30tcdF/SP70Jj4pjnZTEAro4X83D7h/Nx/VMa1/agjxqeyTui0NF4h1D/g/54ifTiZm599pv/2/yvfB/ly9+Ins9yremhY+/f/+L8pb7S4j9f47HWkVxGK7Kv35r9MWcmh8x2cXjoYh5PsN2MNAtBhDZAwRAm4CeOJHt7C6iIjtv95AikW366fIvLMZhKjWEiJj8VIC5YisWhVlRpQJsxfI6D2InL3+7bDe/xKPqCOVBZdWVpwrQPqFZMGEYVDffpGXQPXZ7tH+0bupRjkV29hcHN9+kD6xdUdx89B5Nawty89mgeOwkTORcv8c6OPhL+fvwd/Lgk7f2TUTG6clO2/wR+evelnujxml/5qnXJQzZWURty7FbYon+or+GYaBxkc2rwOsDswu2rBIu4m7hN6rINgMgDjlJY7znRxTcsVBLPbcqtNwt9GoX2b0QhFpFdsU8k7baXs/euQpZfegkaT1eeU1jjhquYsdEx+fZSYt9T965W6Yrjn0iO77mxI2bNln1dvPR8pPyLEFuPvNNuvQec9RQkQXd99pzfPDEf261yL506dJQoSPptn1mMSW7ithccF7fdyO2xJZtZaBxkd3Whtv12rx5s+zZk8bx2p9xXm3wjltk2/2VCu407tv+fNB5El7hikxLkGketYvsXvhJrSK7Qp6JGHY85gMFqMc2iY100aGTZpBI1fvdYyJ6e/m5dbNFdtqXWTHv5mHKcPPRctUmfX0yIFwk8Uh7PNmat++Y3GfFcfvSDbo2dLhIb6eROFzkpr5JwKBy3c/nIk82L6Bx7cL/1b5jsBf26hIDiOyOLCjsClRtEtnGZpHQXvAvpkwElmcXCnOviirXa+vri9pFtoZfOF5TFYCuJ13rlHhqnfui9lTIU8tx2557XfN2BLTWyxzzwiqKRLaWF/oWHDplalqtc1Zk916W49QvYcC67uajbYivZ0V6ZNfe5MUNI9H7zPFjz/zfspATe22ns8/rEtl2nmXPg888Ja+byaVZ+HhTf7x42XzsdBqTPWrYiZ0n5wguGICBNjPQuMjesGFDtCtGm43QhVhnY78u2NLUUz3IebuAZLbws3ZVGCVcJN7qL+uxHrQYUsVU9FO4T5SWEE/Kdd0i2+TrxirH9V2Ss2dXvG98VMEYtccjSqvkqbax3+Bob2WoQlbbb46xqE1Da+zP0rLjnUC29/o9mRTkvIo8/dyzHd8wItuyi06ionCVASI7SWul0/ap3W1b6Wd6jHYSWTO7i5R/Rfq4RHbi+X7zH+Xz1vjUtgx7VJHNwkdE0bAMcR/sdI2BxkV2FwRsF+powOpKPU1dVWin+2WnAriKyDaLHT9m7ZE9v2DFW5/IeqhVpKdlFr+6XcWREaU+0WjaEQtdTwxvmBWTZUW2ltkfkxyX4XpDbZEZ7Tk9G8Ri1gnj0AePSR+JbI8YtNMk5Zst7nLy7Gu72c6uN/HIs1emvsYTam2hZ8p3Pzftjbfe6/cQm/SJ2He2TIw+qyCyo/S9uidtD81Wi73X1Fv2SsvM9ru9naHJz/5zJ0T2Z3quovmEG5NtCe9kkaSVJhPLnbPdn5Yx6lFfRtOEEEZkZ5kZta+4H3vCQPsZQGR3yEPcJZE9CYNfxVZfDK5uo+cI7UloM21IhX3eRMJno2Ty5PlFxJd+Gq8hstsvCKaRS9oMl00ygMh2PFJNGnvUvBHZ6/swiL2ufg9r0Wej9jP3r28/u/bWyVUVkW3yUM+/+2uEm/+0/o/IHi/X08od7Ya7cTLQuMhm5476AMeW9dmyzKDLE01JfG5OyEaZvEmzvn1Zxd7DimxThobDuPuIVyl/UtMGQW/P7RrfIjmptqJd7X0+0Df0TRUGGhfZVSozrrRd2H96XLaZ9nJVcKVxvL3Y6QovnZl2G3at/drnVT3Z2s5Dp8/J4vE7RRd36nWOZs/wOXnqDY11Zzs/mECwwcBkM4DI7tiCQgbkZA9I+pf+hQEYgAEYgIHJYACRjcjO7JLAwJ6MgU0/0o8wAAMwAAMwMF4GGhfZXVis14U6moHSlXoyqMc7qLE/9ocBGIABGICB8TOAyDZ7Om/cKLOzs6336CKyxz9geGjRBzAAAzAAAzAAA2UYQGSzhV8jk4urr75a/vRP/7SRvMuATRoegDAGYwXuAAAYkUlEQVQAAzAAAzAAA+NkoHGRvWXLFpmbm0Ns1SDmu2TLa665Ru6++276vYZ+H+cDgrL5goIBGIABGICB4RhoXGR3oWO6Ei7SBVtqHRHZww1ItR/HfvuZPah50Uu/XWBl/W0SXHlITi+fk+NzAY4EHAkwAAO5DCCyWVCYC8coX96I7Ga++INgrxxdXJPw4vNyZHv1L/jkRTqh7lV8UZ4/sr0RBkbhx723jjds6v7X6Z7nS3Lshuo2dOtW5f8g+D15+P77ZG3hAVn8k/cX2j342G1yfuEBWVs4LN/70PrWc1Cbgg/+J3np+w/IL4/slg8G7arboLoP+lzbVmT3Kw+dlgtmDL2L0B5kTz5v5rsAu3bDrohsRHbhF/0kDeREoIb54mrv0UVZC0Np6xv7gmCffMeI7BreNhm/0dL/2viq/R4Eh+T0Sijh0jG5oWbRpeJ42JfD+NoSi/Zzcnz3+gvELxz+qrx38iFZ/OIgkX27nH/qm7L21H9dd5GdCnwj8uM/e1IQXLtPfv79b8ov77lJrq25v339tZ7XgmCH/OixwXYPrv2OLIahvHvuuMxNmA3W096U1Q2xSD8N10+Ni+xt27bJwYMHWy3kurJrRxds2faBqK9K94noVISPR3yVsV3rRfa547K7RsGRiPea8x23yF576l55bm5rK5+LX7jrSOxptyYBxgP/yP13JmJ/KkT20c/LV68unoRd+51FCcN35dxx1h2VeX6RZjihht26a7fGRXYXBGxXXqveBVu2/WEQ7PuOLK75Pa5JKEXNgq5Om0ybyI5/WajH2273wzhF9sdv/zNZaanIvun2L8lFE8piCWzbbno+2SL79+SRv7pf1kqI7CC4Vr6zGEq4+oIcqXFyqXbm2F1xRd/Rd4YBRHaHAva7JLJNXQ8cONA6T10iUj0hIxoqomEJiRfVCYFQMe4uwks94RrvHI68UM+XZxRT7AkX0fonMccD4rbLhIsMyjMWq2l7k7I15ttTh757HPvql1Ni/xKTnrJ5at7jFNlah7yjCl0N01g7+jm55yq/R9WO8db0w8ZJJ3mVEZd2uEgSO27CSu6Vn8xt6xv3aZxzGn7i1lPTmLCUrA3K55lnA/XO6+drD90sH69JFMfe7FV54Yi/j0w/Bx84SmhJh75r88Ym1xHOVRloXGRv3bq1lWKrqqHakL5LtmzzwkdfyEgiZi3xmify1Bu+8sIRme19USdpL74gR2bjL1tNN2ycciLmM+X4Y7Jj0XhRXjgSv1SpaDKhLA8S2VXyTNpfIIgTG4dpOE5yn0eMa/t10qP1to9V89R72yyytY5RiEaBRzUIrpMf/f0DfR7XLxw+7BW6mm/eUUXu2kPzsmeAAE082Y9+RS4e/VwSVmHizd0Fg1G+j6ZpTPnGm2885rbQ1jwjIWwJfW+ePWFvx4T7Yt2TicNCGtcexVxHdsufvOTZyHddY7NXXzjSN7kw6YPgSjl0+oJEE1AWSnpt5LMr1xC0k8BA4yJ7EoxEG6oP9jaLbJ/4VUHnFc6OcNT77bSxxzcVj8pMLGTzF1pqOveYiEdL9Js0iXi2rmvdXTGq9fTFn5u8ikR21TwTsezYym5XvICxP/Qjvt6/y0le+lHy1HsnQmRHO3zUt/gwXuxYLr9EEFti2Ng2+JhZrFli5xQT420mEJZHuUqekWfaWRCq92eEeyTG++Pfo3rmeN2VkbLH4Kq75PSF4gWQV90V70by7rknWCSJR5uJxhQxgMhmd5FGBnyrRbbu0GGFjMQiOSsA84SjilcV2Ykg9ghM3RkjT+jmfZFr2VqGpvOJ7DyBr3nkedKLRHbVPJOyPDbQukfC1poc6HW1pxt+4+sTvUePVfPM3Gd51PV6m46DPdm9XTAcj/CwbYgFcjWRbXuSTbmax8CYbhXZVihMIpKdHUt8eUbe7TyRbd0fiXFnIhDVMwp3yXrSh7YbcdmNfIcM2x/cV90phs2asxkiG5HdyAPSvODHCO22Dt5YYMZb9SUi2RGAecJRRaEK4CSdxiF7jq6XeZBd1JOsZWh6n8iOvbIFcdE5wrdIZFfNM7FBTlmJjT220Thut61F9TP2GCZPtWPcvv5fHvTzNhwHiezYBj2PcG+bPRNqYXtyq7RDRa7tXc67X9OWFdnZGOs0LtteXFglz1h4Z9sax12nXus0VMQqz7LT2kK5CUWeDfR6svjxV2dY/DhFHkrtf47NCdRJsG3jIrsLrwLvyoLCLtiyK4NChXLk5d17NNpxxBV5ecJR79X0ifDNEZjD2MQtQ/NIyrImBLEYrS4Yi0Rs1TzzbKX1Nsc8r7Odxj4vEy5SNU/Nf1JEtrbHHBNRboSkFYZhpyk6T/aHtrzLeemrCGJddGh7t5O6Wl7mKnlGot3sIZ4RzWnctdY78nhbZej1Oo/R2x+jcBFCQeq0K3khXieBgcZFdhcE7ObNm2XPnj2t9boqaF2wpda17cdErJqQkYdPy0qYDRUx9c8TjnEYQygqsk3aWLRVi72O78nZTjDn5S4afmK/jEavVQ1JKRLZVfPMs5XNQVxef+y1ncY+14mGG0Zip6map95bRmTbnvKiOmiedR99QnRQGek9wy3qixcZloiptncXsRZJuqEdpj7RGy4doZvWM92LuqzITvIssUAz2i6xptjrPNvrziG/OuNf+Gju0zS8IRLhmMcR1yeTDUR2h37e6pLIvvzyy2XXrl2tnrjEAq0XZmF5hu2HnSueVWCbEAdbZKsgLPu6cxWlly5dktCKDbfLdgVkLHyX5OzZlcwbH9MJQ3kBa8qJ8++fXJjPhskztlV+HbTNee212x7XYfBbJKvmqWWUE9lx+UV9pPk1cfQJUbucaKGi47HWHULcMA77vqLzxJvtvPY9FraDX0bjE9nRAkdL6Ca7ohgvtCW+q4jseB/rwROJuD0mXKS5V9N/4Kh5Ic2v5EzBFn5xmvhZk7cLSVG/8NlkCjD6dfL7tXGRzVsK64OoS7Zs88JHfbCpMDYiyhbM+rk5pmKzJ8ajLfpi8eXe05dW448929OZvI3QiwRcQZhJLAa17Oej7QGja55JQWbSoGWHWdFrTxI0Fjo99nviy+Rp2ytTX1MHT9v70kR17S/b5OtONOyy7PMyefrTWLbd3r/Pcdr+6uE4dv3Knide2kwYhBVT7Ijqj/deHmOHTdhhGWXLddPpFntpvmav6vQNlWUFsck3FbrajjgvN5SjUp69hYtp/TTvbJy2tusLh+O3WGbTjy68g+ADctS8jGZAPLbGbZvxzmvY6/tO1P7liE3bykDjIrutDadezQ7KLohsGGiWgTrsm3iqc15YU0cZRXnoRMwOzylKz2fNM5V4wi0vuNpdJwfDLv7UfMoeYw/1u3LuieLXqgfBVXJXtFf24LRlyyZd86xhY2w8KgOI7JkZ6ZKHeNQOX6/7Edk8nOpiTb3J44iLjr3f/pCautpHPtXGStF+3hquMmy4TJW+0DjrMntfa9pBHu8q5ZO2GjfYC3uNgwFENlv4NRI33YWY7HEMOMoc7kGvoR5VF3cOa28tL7Te4DlsXtw3XJ/n2U3DStzXzSehNk+l2/jl5THqdd1RZJBoTtKFoawWLIwctT7cXy9j2BN71sVA4yK7Czt3dGVBYRdsWReY5MNDzmXg0Olzsnj8Ttlu7WbhpuH/LDe6fV42FjmNX06ul9i2r0227Y/z7rXJE0LSRL2vPHRaLrx7Tp6Y64/jb6I88sxyjT2wR1cYaFxkd0HAdmX/6S7YsivgU08e0jAAAzAAAzAAA00ygMhmC79GwkWahJa8eSjCAAzAAAzAAAy0nQFENiIbkd0hBtr+QKF+fOnBAAzAAAzAQMxA4yIbQzPYYAAGYAAGYAAGYAAGpo0BRPbMjGzdulUOHDiARxePLgzAAAzAAAzAAAzAQC0MILLZwq8WkIaZne4+viQrz945tvKHqTP34ImBARiAARiAARgow0DjInvTpk2yc+fOVgupruza0XZbBsGsHHnhosSv6V6RZ+/M394qCHbL8aX4ldYIbR5WZR5WpIETGIABGICBLjHQuMjugoDtSrhIF2xp4I/E9pkVCcNBQntWjpRI16UBRV35AoABGIABGIABGDAMILI7FHfUFZFtwApmj8iZlXBgOIimC1eelTt5yUirf/HhS4MvDRiAARiAARgozwAiG5HdiLBT8bxy+tDA/GePnJGVcE0WH/vkwLQM7vKDG1thKxiAARiAARgYHwONi+wNGzaI8cDSyaN3cpdsWUVka9q1xcfkkzne7DTeuzgEBc5G5wwbYkMYgAEYgAEYGJ2BxkV2FzqpK69V74IttY4qnMt4spMY7rVFeeyT/sWSwe7jshSyUFLty3H0hx82xIYwAAMwAANNMoDIZgu/Rn5lqCKyDeA3HT9XuFAyCG6S4+eMyF6R04f8QrzJgULePIhhAAZgAAZgAAaqMNC4yN64caPMzs42IuSqNLQobVcWFHbBlmrnMt5pTWuOxGXz4LJ54BweYAAGYAAGus5A4yK7CwJ227ZtcvDgwVZPBAxoXbClOyCMR/uFi7EHumjf7ERkH93b+n5w28j/fBHAAAzAAAzAAAy4DCCy2V2kEVGbLFRcW5SjeweHd5i3PxIKwgPKfUDxP0zAAAzAAAx0lQFENiK7GZHd82CXXvho3hRZIMgT0R4O3nu7q4ORevNFAgMwAAMwAAOTw0DjIrtLccRtB7tLtqyy8FFDStYWj8revC38eqL90qVLkRjP24Wk7X1I/Sbn4Ulf0pcwAAMwAANFDDQusosKb8tnmzdvlj179jTi0W1LG9e7HlVE9uyRF+SieRnNgHjsOG57cHz3ereV8njIwgAMwAAMwAAMuAwgsju6oNDtyLb9X1Zkqxc7XDkth3K82Nq24Kbjcs7slV0ird7DkYceDMAADMAADMDAOBhoXGR34S2FXdm1owu2VIjLiOw0znrw3tdp2sEeb60DRx6qMAADMAADMAAD42KgcZHdBQHbhToaQLpST1PXMruFxGkGi+Y4XVi4MHJcA4hyeXjDAAzAAAzAAAz4GEBkz8xIVzzEbRfZqbfZxE0Xi+cg2C3Hl0Ips/uID1yu8UCDARiAARiAARhoMwOIbLbwY8Fnhxho88OEuvFlBwMwAAMwAAMpA42LbHbuSI09KnjYsj5bjtoX3E9fwAAMwAAMwAAMFDHQuMguKrwtn23atEl27tyJRxePLgzAAAzAAAzAAAzAQC0MILI7tqCwLRMT6sHsHQZgAAZgAAZgAAbyGUBkI7Jrma0xyPIHGbbBNjAAAzAAAzAwfQw0LrLbviOGgb4LdWRwTt/gpM/pcxiAARiAARjoLgOI7JkZ2bhxo8zOzuLRJQYLBmAABmAABmAABmCgFgYQ2R0B6bNPvyG/Ma8UD0P5129trqXzmR13d3ZM39F3MAADMAADMNBuBhoX2Vu2bJG5uTlEYU1i/rMnY7GN0G73wOLBR//AAAzAAAzAwHQz0LjI7gJgXQoXCYLPysk3fivhv35LNgcBk5eaJi9d4JQ6TvfDmv6n/2EABmCgWwwgsju28DER2S//rVyOyGaSwSQDBmAABmAABmCglQwgshHZrQST2Xq3Zuv0F/0FAzAAAzAAA1kGGhfZ27Ztk4MHD7ZayHVpCz882VmAGdDYAwZgAAZgAAZgoI0MNC6yuyBgu/RadUQ2D5I2PkioE1zCAAzAAAzAQJYBRHYH45jMDiO/DX8p//T5y1r9CwGDLTvYsAf2gAEYgAEYgIHpYaBxkb1161Y5cOAAYrBmMR97tH/Dvtk125WH3/Q8/Ohr+hoGYAAGYKBJBhoX2U1Wvq68N2zYEL1ava78ms4nfjHNL+WfvrCRyQsiGwZgAAZgAAZgAAZayAAiu4O7izz9xm8kZAs/HigtfKA0PcEkf7xOMAADMAADXWEAkd1BkR29jAaRjchGZMMADMAADMAADLSWgcZFdhdisruwA4rO2thdhBm8ssARFmAABmAABmCgvQw0LrK7IGA3b94se/bsae1MyB5AiOz2Dia7nzinn2AABmAABmBguhlAZHfsZxZE9nQPWB7Y9D8MwAAMwAAMdIOBxkV2F9742CVYg7/5mbwbhvLy317eCc97l2xLXbvx0KKf6CcYgAEYgIEuMNC4yO6CEbpQx3jbvjDaF/vNH39BNgYBIrtjv0J0gTPqyBcXDMAADMAADNTDACK7Y7uLAH494GNH7AgDMAADMAADMNAkA4hsRDYecTziMAADMAADMAADMFAzA42L7C7s3NGFOjY50yJvZvIwAAMwAAMwAAMwUC8DjYvsLmzhB1T1QoU9sScMwAAMwAAMwMC0M4DIrvmngWkHivbzUIUBGIABGIABGICBGUFkI7KJwYIBGIABGIABGIABGKiZgcZFNjMZZrMwAAMwAAMwAAMwAAPTxsDUi+wbHjkrq2G8//QbT88zi6t5FjdtA4r28iUCAzAAAzAAAzBgGJh6ka0DQcU2QpuBoUxwhAUYgAEYgAEYgIFhGWhcZG/atEl27tzZeg9xENwgj5xdlfCNp2Wetym2vr+GBZ77eFjCAAzAAAzAAAysBwONi+yubOGXiOzzJ2U/IhuRTdgMDMAADMAADMAADIzAACK7ZzxENrPa9ZjVUgacwQAMwAAMwMB0MIDIRmQzSx1hlsqDcjoelPQz/QwDMAADMFCVgcZF9oYNG8SEjFSt2Hqnx5PN4Flv5igP5mAABmAABmBgchloXGR3CZ54h5G35Gd/c13rJwVdsit1ndwHCH1L38IADMAADMCAnwFEthMqkHi0w1DYzs8PDYMJu8AADMAADMAADMBAMQONi+yNGzfK7OxsJzzDiSf7gR2dqC9wF8ONfbAPDMAADMAADMDAuBhoXGSzhR9wjwtuyoU9GIABGIABGICBcTGAyGZ3Ebz2TsjQuAYj5fJFAAMwAAMwAAOTwwAiG5GNyEZkwwAMwAAMwAAMwEDNDDQusrsSk50seOSNjwyymgcZXonJ8UrQl/QlDMAADMBAWQYaF9llKzLudIhsBs24GaR8GIQBGIABGICByWEAkd3zWgYHTslyGMr5k/vx5OLJhQEYgAEYgAEYgAEYGImBxkV229/4GG/bF0oYhvLWSw/IjiAYyaDMQCdnBkpf0pcwAAMwAAMwAAPDMtC4yO7KFn7DGpD7GHwwAAMwAAMwAAMwAAMuA4hsfgrBcw8DMAADMAADMAADMFAzA42L7K7sLuLOPvifGSkMwAAMwAAMwAAMwMCwDDQusoetGPcBNQzAAAzAAAzAAAzAQFcZQGTX/NNAV0Gg3jzEYAAGYAAGYAAGYKA+BhDZiGxisGAABmAABmAABmAABmpmAJFds0GZAdY3A8SW2BIGYAAGYAAGYKCrDDQmsrfe+ay8Gcb7T//6zNeYHSHmYQAGYAAGYAAGYAAGpoaBxkS2zjq2HXpWLoShILSZiSoTHGEBBmAABmAABmBg0hloXGQHwTY59OwFCX99Rr7G2xSnZvY26QOH9vHlAAMwAAMwAAMwUMTA+onstTNyLyIbkc3PZDAAAzAAAzAAAzAwBQwgsqegk4tmWXzGLBwGYAAGYAAGYAAG6mcAkY3IZjYNAzAAAzAAAzAAAzBQMwOI7JoNykyw/pkgNsWmMAADMAADMAADXWOgcZFtDBLvMPKuLD05zywJUQ8DMAADMAADMAADMDDxDKyLyDZCO95l5E0J2c5v4qHq2kyT+uIdgQEYgAEYgAEYqJuBdRHZ8YtpjCd7PwKTmSsMwAAMwAAMwAAMwMDEM9C4yA6CrXLns29KOGALv2DrnfLsm+YNkYSV1D2TIj9m5zAAAzAAAzAAAzCwvgysg8juvYxmkMje/pgs9l7Dzotr1hcCBh32hgEYgAEYgAEYgIF6GWiPyO69GfLSpUsDvd5AUC8E2BN7wgAMwAAMwAAMwEC9DLRGZJuOjXchCeW9pSdlP2+HnPhYJQZzvYMZe2JPGIABGIABGGgPA60R2UGwXR5bDCV8b0me3B8gMFkQAQMwAAMwAAMwAAMw0FkGmhfZvVjrtTP3eo2UiOswlHfxYHttxKy0PbNS+oK+gAEYgAEYgAEYKMNAYyI73rbP7BaCeC7TEaRhwMIADMAADMAADMDA5DDQmMgGksmBhL6kL2EABmAABmAABmCgGgOIbGKdCFGBARiAARiAARiAARiomQFEds0GZZZXbZaHvbAXDMAADMAADMDAJDKAyEZkM3OFARiAARiAARiAARiomQFEds0GncSZGG3CwwADMAADMAADMAAD1RhAZCOymbnCAAzAAAzAAAzAAAzUzAAiu2aDMsurNsvDXtgLBmAABmAABmBgEhnopMjW16+38e2QwexjshiGkvfynUmEaNQ2BcFs9LbPS5cu8cZPJn14UmAABmAABmBgIhj4/wGw5gsxsd9bGwAAAABJRU5ErkJggg==;" vertex="1" parent="1">
                    <mxGeometry x="-150" y="680" width="729" height="387" as="geometry"/>
                </mxCell>
                <mxCell id="18" value="" style="shape=image;verticalLabelPosition=bottom;labelBackgroundColor=#ffffff;verticalAlign=top;aspect=fixed;imageAspect=0;image=data:image/png,iVBORw0KGgoAAAANSUhEUgAAAmoAAADdCAYAAAALgl6bAAAgAElEQVR4Ae2d66/d1pmf5x+hdYt0PE6BKEqbIJVsxzdUjhI0UY4SJI40A/eizFjxIOjYceBkxpbjS92pXU9rWdJITtRkKhuQNWMpUQLI8BzbUk4MWdKBT+SYqL/3y/R7pwb6Fovc7+Li2ot7k5vce5Pcz4cD8myu67ueRf74rgv/4KabbhL+sAEMwAAMwAAMwAAMtI+BP6BR2tcotAltAgMwAAMwAAMwYBhAqOFRxKMKAzAAAzAAAzDQUgYQai1tGN6keJOCARiAARiAARhAqCHUeIuCARiAARiAARhoKQMItZY2DG9RvEXBAAzAAAzAAAwg1BBqvEXBAAzAAAzAAAy0lIHWCbVtD5yWd+NY4hsrcnQ5ahU40Y7n5GIcy/rZH7SqXG1+44qiHfLcxVg++ugjiT9YkaP72tWmbbYdZeNNGgZgAAZgoHVCbenQablihFoLH+oItWodRkVaG9uSm1+1tsRe2AsGYAAG5sNA64Ram0FAqFWDNLXXB7JydB8eyJa61Nvc3yhbtf6GvbAXDPSTAYRahQcoQq1aJ0CoVbMXN1nsBQMwAAMw4DMwsVCLom3ywOl3JTbDlIO/GytHZTmabA7S9ucu2nSS9N4/K48UpBVte0BOv5vlG8c3ZOXocm2vjQ67mvlUoTlVrlBzw8bxupz9wXC9NbymZ47+/DZXzOx47mKSb5J3QZpuvm66cZz3XEXRkhw6fcWmZ8J+sHJU9hXZdDD/Ll4/Kz8oCOPDM+5/t27jwnKdmxMMwAAMwAAMDDMwkVCzQslM+Hcmh+947te1BZOd11QgGKLt6YR+IwpVdCRxfj354gMVNUNiZ8dz8ms3n0TMfCCrq1dEBY2N682pS0SKVwcVYq5Yc8XcuDRNfLeM1laeqLO/O2WKlg7J6SuxLbffGbRsRaLTD1/mf4TacIcrYzfCYDcYgAEYgAFlYCKhlnq/wl4kTXjSoxUZnsjR9NJVoXnvkV6b9KhiyRVQobQ0nAoqDZN6ucaXSevmerbKpqlxy+Sdlme4fYp+N/UoKofWcZJjmuZ4u0ySNnG4icEADMAADCwCA5WFWhRtT7ZbcMVGk4YqEiSahxUUDQ13mnQTT5XjfdK8/KPm7Qu6qkLNFVtl0yyyi5+39fAFhG5RXn49m/jflqOEXZvIjzS4YcMADMAADPSRgepCbTA/bF5CzTSCHcaz8+Mmn6NWRVAUCR1fLCkoOpzoziVL5p85IqpKmoVDn44YUkHn5+n+7wtNLW8TR83fHaJtIl3S4AYMAzAAAzCwiAxUF2qDuU7zFGpuQ7mi7f2zj1ReUDANoWbTHJrgn27+OplHbXhxgC/6jF1s3o4YdO01q3NbDkdEzipv8uFmDgMwAAMw0BcGqgu1wWrCaX05wHpkKggNFWuTrjot8oj5jVzW+1VUh9DvpdMcCOQy3rDU8zY8R82vj/u/lsMVke71Sc7TNJmjNontiMNDBgZgAAZgwDBQWaiZSPah7m2hsX0Gqz7NQgbfc1Z3gYEVUP7qyeCqz+FPSPlCL5SeiknfC6a29AXYUJoVPJmaV5UvAugwLas+uTHwcIABGIABGGgPAxMJtUSsDb7hqHuomeP7E34DUxcouGm5566nLB1Sy+/fFsfvB/cxqwqaihWdz+V7l8qKqsQ+A2Fl00pEYDp86aZbJc1UvKXfzdR0E+HnDbGm7VMwVFowFKnlcMtW1X5++DRNPGq+Xfi/PTdA2oK2gAEYaDsDEwu1tlesb+VTIeXPDbRzwQJibd42QKhxA5w3g+QPgzAAA11nAKFW4RNS82xsf8WnW5ZR19xwsz5HqHGDnDVz5AdzMAADfWMAodYRoabDnkMetcEQa5X5aLOC2M7Vq7AwZFZlIx9u5jAAAzAAA11gYCpCzX5iyu5z5n6XM3/uLwyoa7TQN0jd+W65uV0dExA6/OnWwZz74q2uDZuMrwsbkrl0BfPjmsyPtLjxwgAMwAAM9ImBqQi1PhmIutDhYQAGYAAGYAAG5sUAQq0jQ5/zAoR8uTnBAAzAAAzAwPwYQKgh1Cp/zYEOO78Oi+2xPQzAAAwsFgMINYQaQg0GYAAGYAAGYKClDNQSatu2bZP9+/fTuC1tXN66Fuuti/amvWEABmCgfwzUEmo333yzfO9730OolRRq+0+tyrVzj8nOKMrZLIr2y6nVS3JiOf87Ha5/HY42pU1hAAZgAAaqMIBQKymyqhg1FNaItDi+JucP78qJNBM22n9KVpOtTKYj1rL046BQDJWX37iRwAAMwAAMwMD8Gagl1BZ16PPOpy/IWnxNzj22c0h0haBWoXT55L7C8NGdT8uFtVjiSydk2fO4hdIs+5vmfe38YdnVYLpl8yfc/Ds5bUAbwAAMwEB3Gagl1Ba14VOhdj3oHfNtkg5rxhJfPin7xgilNN1YLp1YLhR0fvrj/k88edfPy+FdDKuOsxXXu3sjo+1oOxiAgb4ygFCbYOizilCrEjaK7pSnL6xJfO2cPLazGWF1wAy5ItQaE759vRFQLx5yMAADMNBOBnov1IxQcT+5lH1OKj8fzHq+nM9euZ4tOzTpXM/SSj+L5YY3wNs0S3jTtIOkwq78sKrGKzoi1NrZ8Yrai99pLxiAARiAAZeBWkJt69atsnfv3lZ6K6x3Kr4sJ/el3ikrtjwPk/3dEVTRgXSCf2iVZlkvmaY7am6a2xjmXOOE8vXDlvkfoUaHL8MJYeAEBmAABtrJQC2h1ubtOVTwXPcm0SfCJc5704rmcSVhA8OQpYVaspqz3Fw27SBRdEBOrTa3qACh1s6Op+3NkfaBARiAARgYxcCCCjXHy5bsYRaLL+iM0YqGIcsKtbLh3AaynsCAQHTDlTkvEqtl4hKGGwcMwAAMwAAMzJ+BWkJtaWlJDh482L2hT3eIU7fFKJx7NuwRKyvAyoZzO4IVat7wrBtm3LluyWEWJbDac/6dbFx7cZ02ggEYgAEYKGKgllArSrQNv+sQoruQwJz7+4lpuJBHrageZQVYOs9tWOgVpWt+n2QBQlF66lFrar5bUT78zg0GBmAABmAABqbDQH+FWrIYYLxIsh6sCkONpYXawFtXRSipuKoiHEd1jqJ5dqPicG06nQ27YlcYgAEYgIGqDPRcqMVSZsWlrvAs+1UAFVPjwqu3blw4t9HKikA3zqhzFhNwUxjFB9fgAwZgAAbazUAtobZlyxbZvXt3K+eoGfCMSPGHPtO9z/KrPk1YK6r8uWoFn3SyYs0J7++jZtJNhVe5fdGsd6/G/DS/wyHU2t0B/fbif9oLBmAABmDAZaCWUGvz9hypQBr2qGWCbFisuYZp6tzmVyD43HyKyuyGqXqOUKPDV2WG8DADAzAAA+1hoJdCzXqmnM1uFbpR1zRM00cVYKPmqlkPnbMitYlyINTa09maaE/SoD1hAAZgYLEY6KVQMxDrsKc/R81uXdGwIBrXcRLBFIc/uG5XejY45Knl0fl3oWFZDcNxsTo97U17wwAMwEB3GKgl1DZu3Chm+LOtDa6eLHeempmj5ou3WZX/wKkVefPk92RnlP/geioes014my6P2sHUfZRXr+l8Sa87NwLairaCARiAgXYyUEuo0ajtbFTahXaBARiAARiAgX4wgFC7qR8NSYekHWEABmAABmCgfwzUEmqbN2+WW2+9tbVDnwDbP2BpU9oUBmAABmBgkRioJdTavD3HIjUideWmBQMwAAMwAAP9ZAChxtAnHlEYgAEYgAEYgIGWMtB7oYbXr59vGLw50q6zYiCKviR/8dPX5e/+878b+yDb8CfPy+t//7L88N78yu5ZlZV86Bcw0D8Gagm1TZs2yY4dO8bevOYJDkKtf9DOkyfyXjyeoujL8penXpe/f+7fj73XbfjT/5IItUcRamNtRV9avL5Em0/W5rWEWheMjlCbDIwutG2ojNHya7L32Lrc9a3NpR8UGmf52Dn5zKbZekKi6Bty8nIsZo+71Z/eV7rMobo3/VsU7ZLHz1+XeO2X8uPbZ2uXputSJ702C7Uo+nO57a/XZfkvnpWN3v6MRXWOoq/I5564LsvH1uVLf3ZQbioZryi9ef8eRbfIg69eSfrQjZUX5astrc+k5YxueVBevRLLJHWrE3fe7Ur+2bO790Jt69atsnfv3lY9AGcF4M0H35S9x96WnXdt6EX9o9tekntfWpc9h/5IooKbcbTvrHzt+Lrcdd8nStdZ4ywfPyef2ThbQWKE2su/icVsyrx66tulyzwLhqLoNnniF2sSr12QJ++YrV1mUb+yecxLqFlB9Vf/XT65OWx/I9RuN0LtL/+TbCroE349o2ivfPaJNfn6iQ/kS3/2J7KhZDw/nbb8H0WfTISa6UM3Vo7I3gbqowLHvEDp3yRCybXRpOWMPqlCbbhu0WdfkItOGU1Z1848ZO8jo+K6ZeM8E0VttEUtodaFoc82Gn1WZbr5O2/K146/Izvv3mQ77qzynkY+iVA7ui57vvvHhV4AFV1VhNo0ytqHNBFq6c17fkItFVTLf/Uz+WdbmhNqfWBzmnX47AsXB965vDD65IOvyjuOCJpmGdy0i8SWlnPtzMP2/p6KwXfkzEMpL0Vx3fQ5b7dIM+1TS6gxrNjuBkaotbt92n6DRKgh1NrOaNPlu+XBV+VK4pXKxE/TeVRNLyS2ypYzFLdq/oSf/3MEoTbn5bhR9HX5/FNrsvzoj+Wm6FH5wpH1ZO6ImT+y/OzLcstN+TfpyA/jzcfS4cEkvknjuJOe+d8Jb/P28rF5JGUavJkN8k2GHQdDkDaPXDinPl64UUOWRTcDW8ZB2W2e7v9u/s7QZzr0q/Ufnn+Wvx62t5YrVI5J6mPT2/W4nL+eDavE8Zr88se32zdjDafHXY+fl+vuEEcD88bc+XE6vOPOk8sLtWwuXTK88ssfy+3eEJOd0zainDbM6k/lPs8Ga2XT1PQ9G0TfOCmX9VpyXJWf3pfvP2rPKsdZe9SW/u3FZJ5lkPWE+wvyz/9Q+6Uz9Pkv/1r+lXP/uHv/9hxPdj6b03f8MK5dhsoxYgjWjTfqPIo+Ky9cdLnPD9WNiutfq5rW8DDhmvU8mbRtejdW5Mje8dwkHq0bK/LiV7M5cmk/KkjXYdMdnhyq12BOmvZJPeqwrp3rVqKcOaGWGya9ISsvfjXHR2KDQN7+kK8OC5s6qGBMy1g+zaxO+TmF+fRiiRP7httCyxGvnZGHvHuRb9Ou/997oba0tCQHDx4cArItDZcKgPetONMhOyu4XBGiwueHT9p5JWaoz0yeD4mGcR41m/ezP5FbNmSdIYp+JHe8tC7Lbj76W3KTf9sOpyZDjU7+Ns1AuKqT/P02Kj/0+Y7sedaI39ROVmR5glTTt2X27JBdHwho7/qnv/8Pjcz/u+2JX8havCYXnrwjyOk3Tl4WI+Tc69E3XpY3A8JGyzzuaEXN6in59uAmlwiz829acZMJtVVZvb4mvxyUz+T9G2/xQyrAVm0Yk3902xPyi7U4txjBppk8tMalORCHzhw5zTt2ym3yUiHrzvP7xsu/Sew2SgCPs1NSjzmt+tS5ZGWGPr/07Nuy99gF+RcDAZeKrEty6+5tQaair7wqXzm+Lvcc+HTw+qf+wxVZPnZJbr33D+316CuvyL01Fh9YobR2Rh62zJn5ZdlQXZn2CIWJPveCvDHCE6YCIDdMaOZ+vZM95PXBr4IolI/72+deeMOZv5YOk0bR5+SFN4oFRrly3pCVI9m86pzYiiLRchqBonZ0y+We27irq3LFEXZp2T1BaUTaal6kmuFe42F0xZqmmYitcWkOxKFrU5O3mU/otoUpczqUm9Vd5/SZe58O5bp106Hfoutu2K6f1xJqXfiEVNuHZ61I8OaS2d8dcbH9+2uy7IkFA+CnHzG/D3vfpiLUvAn3VtQNBKUt91B9BuLPEZ5VO095oZYXmSafxBYFCytsmQO2NXFVNI+aG1e1Lm74UULNeqAcseLGneS8bJqZqPJE4mABRGy8YmPeZNO6ZZ6tKmmqmHTFl43veNPUM7h24Um5wymPLtQIeeqq2G3WHjUtWxWhtuyINBM/2vlfZfeR4lWdo4RatoiheG6clrHssYoXqGyabrhxAih9qK/JmYezF1I3vjlXIemKCj+M+3+R4AiJII03qpwqwPz8VRjp71XKqXGNZ8r1EmblyBYeaBndoxVLjteqSpohu2v8nPgbePJ88aZhQx5IrUMZwerWqYvntYRaFyrcGaFWIBLUxjocGRILRSJkKkLN8bJp2dxjkeixgm5MfDct/7yKUFPPpKYxyhZFZda4tuyO51CvNXEcJdRM+qlnKO+ZqpNvNBhydAVQKL1MFOVXfaoA8r1aoTS0burVqpKmes/ccobip4IuLyZNWbKw9bYX6YRQ81Z9ZkItvKpzlFAztvvUn7+XevkbGO5M2qLgQRxiZpLf9KHtP+g1LfUMjfK+aBoqiEzczGuTDte6gsEKshHiT/PXo+YRKmcqwDKPko3jrfrUNNxyalj/qELHD6tphMrhpmGFmjMEWSXNkI1C8VOP57CQth5KRyi65VuU894LtW3btsn+/fut+75tDTtOJGh51atTOG/F82CZeKPEiblelLcVJo6oCv2mZXOPVdJ045U5n5dQM2Wz9XLm94SGm8vUww+jYsYd2gyHceb2OB4lP+y4/0OeqlCcTOiUE2oqAHX+SXbMRFSVNK0gdOqqZXe9ZzrsmeXn2MkMsdb0Ri6iUDM8NDlHTb1A44RBiMMyv5URHhom4yQ/pKbXfVFj8tdrbvlDImRcWUPpaJxUrJQQagPhVmZuVkgUFdXH/K5DxJmNBn3J8chVSVPr63rPUvGbr6cviIfyLzHMq3bs47GWUNu4caMYj1UfDTOrOlkBMNajlg4dhjxqRWVFqGWrdUbZomwbqJ1teCPaagzlanplhJqGNcc0vLmBZkOK7vVx5yFPVShOJVGlE/m9uWN+3Sql6S020Ju362Ez5U7rk4nBUF3q/LaoQs21WSbasoUM7vVx5/rAdoXOuDhVrldNX8PHcTYB3npvHO+RlkHDu+VvWqilXr+8gDH5+8JoVDm1vHr049rfA3P6VCy5dXQ9ajp0WiXNsPAb9pyldR/+Xcu76MdaQq3tw4pdaFz70B8r1MxqyveDc9GK6jlKnJg4RXnbnfrxqBW+hGS2G54baGybLgCIpfw8rmpCQwWQDikWMRD63XqqxswxqyKqUq/WcB20nOotrJ7mqpz6dvG8ooTjwaKFunPRQrZK0u/AYgJ/w9u6Q58hWyRi7Xh4gYJ6zIqGFq24mNIQVkhIherg/pbFyeZppeIrE28aPgubbdvRtFDL8sjKY/JXAeV6+tK8x6+YLSuqiuYQ1hFqNs0S3rCiuqv9Q0ed01fEXChOV39DqLView4jwPIrL0NA6QrLsl4cHSocFT4Rc84keyvSzLYebRNqyVYmZoXs8FYbaq+iDW9HidZMdIXbILGJ5znToeiQh9MIIfNZKLOyqYzXyxczWhdzTNPKe87KLgZw0/HP0zxjccVNmm5o1ef4oc9QelasOitWqwg1tUsZMarz+NztRfw6T/r/vDxqprzqySraRqPoywR1hFq6jUfeczZugYGKCeP1dOdxuTbXeWLuMFj6MJ/uqs80j9Wh7SjSMue9OFZQOp42U4dMSExRqA2+sOBuSZGUce2CXHjDrLzMNuDNypm3t2/P8kIt/bpD3sPobKUywdCnK/Je/OqYly2tu2d3lx//3PXWuUz54frwf++FWl/mqClsyVwxZ68kO2fNExI2vG7p4cyt8r+DmawatdfNZ5QG3ruWCTVTp1RUrdntTJL6O3UvK9SC6VgbDA9pGqFnthex9jb70Y34TJURDolQ84YCtV1Gz6vyhNltT3h7rhlPXbathqZZ9Zhsn+Hv5eZsEVJFVJm8VSzpEOXaL5+UO5KtPDJPW5U0bVhn/ylNO/T9UR3StWEG8eqKt3kKNWNXFWsZe5mIqiLUon/9inzFZTi3x2LeU2aEnrsnW5K3t2DB5U2FTOLdGDG5XoVD1kbDQ31uuqPOMy+eNycxafe8VywRNt7+bf5KSDcvFZVZOU0eeVFX1qNWuZxme48Bu6k4S7f8cIWalnW4nHl7qr39uNpe+WHOwdYitr+laSX1nEComTJq/lof9xgSV8P1MbbIt6XWXYVgcp+dkqdW85r3sZZQ27Jli+zevbtweGjelTP5MzybzdNqQ3tQBtqjLAOh/eNM3ND+bGXTnCTcvIXaJGUmDv1s3gyM2kBYBVlIrFUptxGRoT3ZqqTRhbC1hFoXKohQ44bVBU4pY55THT4Ordi0c+xqruYsa3OEWr5tytqNcIttN/Uk+t48w4V69ELXynJj56g53r6ycbsWrvdCre1fJugaMJR3sW++s2r/bNhz+NNaOmzsbtExzXIh1GB+mnz1NW077OmtorWLDMyQpvMFhrJ2sJ665IsJ2by9svG7GK73Qq2LjUKZeTBUYUD3FnPnf4TPh0VPlXzmEdaf95bWK5vzNosyIdRm0x/VAxNmN5u3VTRnaRYskEc1FtxFD7l2XQAvWJOs1BJqDCtWg7bJhiMtbA8DMAADMAAD/WcAoTbn7TnoZP3vZLQxbQwDMAADMDApAwg1hFqrV+1OCjbxuCnCAAzAAAz0gYFaQm3r1q2yd+9eHvSIPRiAARiAARiAARiYAgO1hFoflCp14I0LBmAABmAABmCgrQwg1Kagftva2JSLGxEMwAAMwAAMdIsBhBpCDVc1DMAADMAADMBASxmoJdTa/h3NO5++IGtx+nHsyyf3AWFLIeTtrltvd7QX7QUDMAADs2OgllDryj5qKtgQa7MDi06MrWEABmAABmCgPgMLIdSi6E55+sKaxJdPyr4owrOGZw0GYAAGYAAGYKATDNQSam0f+lQlj1Crr+jVlhyxJQzAAAzAAAzMjoFaQq0rDYVQmx1QXWGCcsIEDMAADMBAFxhAqOH67YTrtwudiTJy04cBGIABGGiaAYQaQg2hBgMwAAMwAAMw0FIGagm1Ln1CKl35eV3OH94FjC2Fsem3ENLjzRYGYAAGYKDrDNQSal3ZnkMbSeeqffTRR8JWHXRe5YIjLMAADMAADLSVgYURanjU6IRt7YSUCzZhAAZgAAaKGKgl1JaWluTgwYOtH0pUT9q4fdSiO5+WC2uxxDFDpEXA8Ds3ExiAARiAARiYHQO1hFpXGqq0UDtwSlYHn5waJ+q6UnfKObvOhK2xNQzAAAzAQNMMINScifUq6MwcNoQana3pzkZ6MAUDMAADMFCVAYSaI9SM8fS7oNfPH5ZdfG6q9cPaVYEnPDdJGIABGICBLjFQS6ht2bJFdu/e3fqHuXrKxnnJouiAnFqNJb5+Xg7v4pugXQKZsnLjhQEYgAEY6CMDtYRaV7bniAZzz4q25FCBZoY88aTR0fvY0akTXMMADMBANxnotVDTYUwEWDfh5KZCu8EADMAADCw6A70WaoveuNSfGxwMwAAMwAAMdJuBWkKNxu9249N+tB8MwAAMwAAMtJsBhJq36hNg2w0s7UP7wAAMwAAMLBIDCDWEWutX7S5Sh6SuPIBgAAZgAAZcBmoJtc2bN8utt97Kgx6xBwMwAAMwAAMwAANTYKCWUOvK9hyuMuWcNxUYgAEYgAEYgIGuMIBQm4L6LWr8A6dWW7lP25dfeENWzzwk2/kSA2+DM+wPRf2E33mAwgAMwEDGAEJtRg8mI9Li+LqcP7xrJmJg3/l/khMf/T/7d/zXp2VjQIhF0ZflhTd+J2avufemINbc9ON4RV68gy8+cAPKbkDYAlvAAAzAwGgGagm1TZs2yY4dO2YiPNrUkOlGuuVF17gvI0yzblF0Qh754GMpEmqa94OvXpM4fk/OPLS9sfZUkYZAG90JtQ04YicYgAEYgAGfgVpCzU9sUf6vItT081TjvjM6LduVFWpR9KC8ei2W+L0z8tD2Zrxe0ZdfkDd+F8vKi3c0Jv6mZSfS5eYIAzAAAzDQRgYQahMMfVYRalXCTgOQskLN5B09+Kpci5sTVgg1bnrTYJo04QoGYGCRGKgl1Low9JkKpTiZg2XmYcXXz8vhXcMeI/V8mTD6537EPbrzabmwlqWjYdyjG95ApGkWedOi6AH5zqX/K8fjj+S+T+TLVHQt+uY/yFMffmznnpl5aM/+7SOyITD/LC1DuaHPNOzAq7byotxRkF6VzoFQ42ZahRfCwgsMwAAMDDNQS6i1fXuO0AR+M19s5dxjstMRIirCXEGl88queWENRGW9ZJquL+BcEG87+b/kaPyxPPrMJ3LDg9E335Snfv9xToQlv63+Ru7elIk6E/+l+GN59ucPy01OnTSPKh41Eyedq7YiL96e5aFpVT0i1IY7XFUbEh4bwgAMwMBiM9BboRZFd8rTF9YKPWgu+PvNisyApy0RetfOyWM786KltFDbf0pWx6z0VCF17Ff/QzY5Quu2E0aA/W/57r/ZlBNwbrnNuXre/PgaTtMft5hAw5utOn4XX5EzD31qZL4aftQRobbYN5dRbHANNmAABmCgHAO9FWoGACO0zNBkSIQpIFG0X06txsH9zVJBdk3OPbYzJ1rKCrWy4cxWGsfj/ynf2pIKwij6Uzl46Z/kWMGWGlp2c1Shdvy3v5G7NuQFZXq9/NBnEt7OU7s9V2c3z7LnD75yVVjxWa4jlrUp4bAnDMAADCwWA7WEWhc+IZWKpWxuWex5yHR4Mo5jCf8Nb8NRVoCVDafzznT4U4c9f/gftw2JpdTT9rEci/N/x99dzQ2Jakeu6lGru6Ag2ZLj4npiS1Z7LtbNRJnjSLvDAAzAQHMM1BJqXWsIFW1xfElOLKv36kChR62ofqUF2IHxQ58mD/WK6fBlIsYCwmv53P9JBJor4DRuU0Ltyy9clPWG9lOzHrUG5rsVtQW/N3czwJbYEgZgAAbax8BCCTUDYCqysuFMO5fN87SNgrW0UMOhprIAABgOSURBVBusFA0tSPDTTxcVmOHPv5Hv38gvIjBhdTjUF2RNCzUrrhr4gkA2R63+MKpvL/5v382ENqFNYAAGYKB5BmoJtY0bN4pZ+dnGhkm3xrgsJ/dl87asKPMWDugKz/jSCVl2JvQX1csOl44Jb7fnGBPO5KNDlI+eelue+v2o7Tr+UQ7dvyGxeRSlos4Mg/oCTsuu6ZZZTGA2vX3laiwx23O0kmltU47N3wixKTaFARhoKwO1hFrbt+dQQeXudRZfOin7AmLMiip/rlqByNK03Xltl04sDz3gfQ/eKBDMooJk7lnBIgIVXdn8tH9MVoUmixGcoVJXwGnY486ctsKtPB58Ra6y4e1QG45qM65xc4cBGIABGJgmA70WatM0XNm0rQAsEHxl05l2OOtN4xNSCLUJvtYxbT5JnwchDMDAojKAUJvBQyn1qsVSZq7avEBM56Y1/FF2vvWJ6JtB/5pXnyFfhAMMwMAsGKgl1LZs2SK7d+/mYVTiYZR+JSGW0PDoLBp6VB7pSs/mvvGpeSVbdbzxO4mvnJGHPpXNFdTrHLnJwQAMwAAMwMBoBmoJNYw72ri+fQ6cWpE3T34v9/kqP8ys/9d9z94785BsD8zdq1seM6T6qlmgkMz9a+bTVHXLRPxq3GIv7AUDMAAD82MAoVbCGwag8wMU22N7GIABGICBRWYAoYZQY+gaBmAABmAABmCgpQzUEmpt355jkRU4decNFAZgAAZgAAa6zwBCraUKms7V/c5FG9KGMAADMAADdRnovVDbunWr7N27F5cughQGYAAGYAAGYKBzDNQSal0QQQzP8jZT922G+DAEAzAAAzAwLwZqCbV5FbpKvgg1OlcVXggLLzAAAzAAA21iAKHWITfw9u+vyfKxc/KZTeU3j7354Juy99i6LD/7stxyU/l4TUAa3X1EVpL9067K6Qdmm/e48kc7HpbX3otl/eJz8sUp7B83Ln+uj38QRNEWeeZXugdfevzg/OHODVvQ1uPbGhthIxgoZqD3Qq0rjZ8Kqrdl510bCh9En35kTZaPn5PPbCwvem7+zpvyteNGqP1EbtlQPl4TdovuOSJvDYTaK4dmm/e48huhdvaqEWrPyx6EWiFz4+w4q+vRlmfkV3Esvz//eOvLOiubkE/xgw3bYJs+MVBLqC0tLcnBgwe5cTbglUsF1Tuy8+5NhfacRKj1CdYm64JQ69aNHKHWrfZqsq+SFm2/6AzUEmrM/2quAyHUmrNlmU6NUJutvcu0yagwCLVutdeotuQabQkD1RjovVBr84fjo9tekntfWpdlM4fM/JkhSj0fHO/61mbrYcs8al+Xzz9l5qsNwj/6Y7nJG75L57M56QXCaGcZKsex0UOwGq/ouOPh1+S9ZMhzML9o/aI898Xw0GcU7ZCHX3tv8C3QNHwT88ay+XE6xyk/Ty4n1OxcOhN2XS4+90Vrc62jCW/mtKXfLA2XU8NcPf2A5G1QPk1N37fB3UdWcnnHV0/LA16ba1lnfYyi++Vnq7HEH5yXw16Ziq5F9/9MVl1G4g/l0slvDtld61JWqGm6zGWr9iBQO3PEbjDQPgZqCbVt27bJ/v37C2+ubWjwrnj9SnvUnn1b9ry0Lnfd94nE7iqy9hz6I4m8h6SxfxT9SO4wYvCHT8qG0PXl15LFBnu++8dW7Jk4X3im/uKDRISdvSrx+kV5fs+wUIuiu+XISjx0/Z4jF4NiqSxPKmquvnLIspmIqJVM3Fihtroq7znlu+fIWxLHw6LutdV8HXY8fFauxvnFCJpmIrbGpTkQh+4cOZP3Rx99JLlyWyF7VXSeXxTdI0feSu1WJIDL2qqJcFG0Qe7/+W8ljj+Q84fz7ZwKpw/l8sn7srYwIu3SSblvwGMWv1islRFqucUHAdHYRF1Jo30PMdqENuk7A7WEWheM0zuhdiwTacb+UWS8a+8XruocJ9SSRQzHR8+Nm7Sdxwo1u/KyuQn96tVyBVCo/FZUOYIqsedgAYTxioXi6W+2bo5nq0qaqZjMxFeSt13gkK1ETT2D63Lx+T258qQLNcKeOi1j0fHuh/9G/u711+X1or//dkiWAqK+KL2k7IPJ/q4ny7w43P+zVYk/vCwn78sLOD+taMP98vPfxuLGd8OUEWom/JZnfpWIXRYd8PB2+eEcHrrMAEKtgYUATQBQ2qPmrfrMhFp4Vec4oRbtO5uuCq053BmygRUznhjSsNYz5Hmm9Pokx3TIMS+AQumoqPIFna5Udb1awfjG0zXwFqpXq0qa6rlTL5nJIxQ/EXQB+2VhM1EXKuesfrPeLMeTpcOeZUSTCrUPL52UbwZEYlmhNqv6kg8PfhiAgVkx0HuhtnHjRjFetVkZdNJ85iXUTHmT4dOjzny2hkTbOKGW5K2Cx5mv5M/PqmLTkKcqFD8TOnlvXpFQy885c+aqOSKqSpqaj1vXtOyZ9yyxnzd/T+ew6dEXmqG6zuq3Dff/XH7rDH+mw56/l/OP571p1tPmtLnW58PL2ZCoW26EGg9FlwfO4WGRGKgl1LrwCamuNOY8hZprI1e0uQsZ3DBlz8sINTctG948wJ0hRTfMuPOQpyoUp4qoSgVUPDx3zJt/VyXNsPAb9gQm9XHEYKguVX+bxtCnKYN6xczwpYoxX3hZz5sRdI6A07h+eK0bQo0Hs7LAERYWjYFaQq0r87+60KhtEWrGVirWQgsU7AKAOJbS87gqCA0r1kasFB3VnuqpGls2Ox9stEfNerW8Orjl1IUSZYWaTfPqK3IoMMzn1i9dtDDZXDQ3nVmc20UBZvgzmbOWX0RgyqDDob4ga0qo6arP0ArUWdiAPBARMAADTTPQe6G2adMm2bFjR+uHPlUcLY/YRiPbniMbSqo7R81s4+F7ztKvJIQXGOi2F2Z14jivV0jMuAAnaXmeMyN20k875QWUG2/Uuc3T22YjSTe06tP7MoEVeoMVo6H0XLHqrmitJNS8+W1Fdcrm8eVXohaFn/fvqefrA/nFqZ/J6u/Py+OeEFVBFn94SU5+M+VYvWVm+NMXcFofDTNqvpt68dJh1OIVpJomRx6oMAADXWCgllDrwpcJuuT1S8Sau6+aWeEZ3EdttFCLokflC0fcOWf5c9dTlgo9Z0+2ZG+24s9UqXDwt5FQ2K23KDD/KHmAesIsNAQ4biK/5jXqaDxR/l5u6vky8cqKqiSsbodh65TOI/OHJSulOfDo6dws9+jOW9M6pkO6zty4pCztE2/Z0KZZwRn+3JOKLltnI9ruS7/r6Qq1oXDW/sYOYSFmhWBcvIJUbcqRhzQMwEAXGKgl1LpQwS4JtS7YkzLWv7FZj5w3nGpsG9qfDZuXt3kmFIcXMWDH8nbEVtgKBtrDAEKtJdtz0Cna0ymm3RY6fBxasalDr6Fr0y5XH9LXOWquZ64P9aIOi3N/oK1pa5+B3gu1rsxR8xuG//vbWXWI1Mxv0z3YTHtnw8bZFh1wUI6DbJh0eAEDNixnQ+yEnWCgnQzUEmpt/o4mwLUTuKrtoltj2PlMuXlKzpwtT/RUzWfW4XWu31C9AsOhsy4b+fWj79COtCMM9IOBWkKN+V/9gIDOTDvCAAzAAAzAQDsZ6L1Q68qXCegg7ewgtAvtAgMwAAMwME8Gei/U8PrRwebZwcgb/mAABmAABuowUEuo1cl4VnERanSQWbFGPrAGAzAAAzDQNAMINbbnaP1XG5qGnvS4kcIADMAADHSFgd4Ltc2bN8utt96KGEGQwgAMwAAMwAAMdI6BWkINETTbN5LQtz7HvRGkH3tfl+VnfyK3bMg+PTUuXluv68797jc221jWScppvys6wRYddeK20X59LZNyYT7Blnwvd4K27qttqNdsnyfYuzv2riXUmP/VXEOngir8IXTtUAi17BNLTQk1FTj64Gzq4akP5Crl1LKE4ui+a7lyXn1FDg0+ej4qrvLDsbn+WteWtFd72qJuWxKftpw2Awi1lriBpyXUpg1Ql9PXzzX5wij5csBbmQiaVR2LHt62nI4wM2UyYvCtVw4lbvyiuLMqO/lUe1jRXtXsBV/Ya5EZ6L1Q64rXD6E22xuR/YyTJ37meTMIPbzLljMUd551Ie/RPNNeo+0DP9gHBjIGagm1Lmwm22ahFt32ktx7dF2+fuKDwr+77vuEnfiYDX1+XT7/1Ps2zvIPn5QNgyEwhduEddMNhdGwfjmWj48egtV44473HHkrmYejw3VxDVFUJa3QMOHVgedJy2zSi+Ny39RMPVppWB3S1DqF0tVr5jiqzvqwdsMncZx5S2l+48upaaXewXvkyFuxtX3oA+8a3s17yLMY7ZCHz15N67DjYTl7tXqamv5Q2l56ZdtC22/ax1F8hK6FmCvT9r5d/HppuuPC+fH4P3vIYQts0XUGagm1LlS+zULNtV9pj9qzb8ueo+uiAk5F1p7v/rHc5Ik1k34U/UjueGldioRatO+sfO34urjxkzjPTL74wD5c4qvyyqFsAYM7VOfWvcq5TbtA9IU8UKkoecuWRUVK2YefDj36Iir0wNa6lC2nK6L8ctn/PTtqHu7Rhl1fldWrmbDTsruCMg27Khef32NfAqzdHJGoaSb1dkRtOM1UHLo21XC+YNHf3bqrAHbL6dZv1uehMpoyhNo1/S3Pusb36671UNu69tJr7lHt0jYh65aRc4QQDEyXgd4Lta58OL6sUDNeMhVppnNEUepdK1rVOU6olcm3aics6wWqmm5a34EgKBJq9xyRt+JYRj3w7cPWESWjylL00NXfQ3nZPALlLHpI+7/bNEqU08Z1BFUZe7n1TtstExxV0gzZwsZ3ym9/8+xS9LtbvqJzzVu9d/5xnBgKpWvL45TdhNO8Qm3up5MIeS++hilKX6/rMSSg9RrH6T4csS/2bQsDtYTapk2bZMeOHfatvC2V6mI5ygimbOgz81LVFWrqUWtquNM+gLwHcVNtYsVLQfr6YDMP66KHqU3DeYjqA1gf8q4nRK8VpReqm80jUE695nqUTBrWdoNyabgyQsOPq2WyaQTKoWH06AvsKmmGbBSKr+0TsmXqocyEopZrXkffHqYco8SXX85R9QnZxo/P/wgFGIABw0AtodaVYcUuwD4voWZso8OnOqetjmirIgwmaZcy6WsYFV2+aNPrIQFkrznCJiRCxpU9lI7GUbEyXqgN5ohVGvq8KM/vcYV82AOpZXBtZM7dIbYiMRGqm/0tIH7deqot/Xz1/7hEXdWO0z5qnbT8/v9u/kX1KqpPkW3dNDnnIQ0DMGAYQKh1fHuOuh41/0bgijZ3iNUPV/S/Psxcj1RR2El+r5q+hjdCQB+4Jt/U25HN5dKyaHi3/PoQDnmBNJ5/DKWjYVQkueUx10IP76Jyalp6DMVN0xwWaloft44mrO9BqpSmtzhAhZdvM627/7vWY5Kj1kfz9I8hQV42H9eDluYz7PFL7Rbn+DLp41HjIVuWM8LByigGei/UlpaW5ODBg60fnp2nR80HRMWau8BAw6gAMQ/DooftqAeUpjPpUfP3Rcao9EJx9OE+LJaKhU1RfUN5h/LUcEXXtEyusLC/OR4+Tcc9VhFVviDTdPzfq6c5LGI0bT0W1V2vt+2Y2t8I+gPZClhv0U4R70W/mzoW2davv7WXN/fQD8f/POhhoL8M1BJqXZij1pXhWRVHRaszTSecxhw1k6bvORslGlU4GKFWJJbUa+IKDlN+IwR0g9ZJbyr2wVUgXEweqxeflz3Ow1TL7Ast8yA19XDFWij9ovij6hBKxw0/JIqSRRBX5cKFt8S3m5bTt7drz6IHf6gcad55D5DNwxEE1dMc9lC6ddbzUP56rW1HtcH6xVNy+q1w/dR2ypfGSfpIwVCuhvHb2q+/sjeqv/lx+L+/D2zadjHbtpZQ6wI0XRFqxpYq1nSumL/Cs6xQ05Webjruuesp06FT9/ry8XPymY3ZPCe3nfXBbx4c+mByr+u5PohMOP1zBZGGK3N089S03KOfrj44NYw778rPT0WlhtWjWzd9WLq/+emY/+uUUx/Ypux67uYRKqdbb7W3H1fL5Is830ZJWolYzMRIlTQ1rNrPPfplSmxVMFTq1smt/zzPVViG6pHUZbDfnFtnw0oaL/MyjrKRieu3kdZZ26oofw3HcTEf4rR7/9u990Jt27Ztsn///tYPfdLZ+t/Z+tzGicB0vHFaVxWYiIzJ+Vah2EYRq+3McfL2xXbYbhwDtYRaF75MMM4AXKeTwEA9BqzXzlnxqTYddU3DcCy2v7VfwRAqtiu2HbbBNn1hoJZQ69KwYl8ajHpw82kbAzqkFxpixhs0Ga9q01FDom3jgPJM1tbYDbuNYwCh1pLtOcY1VJ+uq5fAndNTdM5wT3duYjqXym3LkHjrE8vUpTt80la0VVcZ6L1QY44anbOrnZNywy4MwAAMwEAtodaF72gyPAvk3OhgAAZgAAZgoKsM1BJqXaj01q1bZe/evaz6ZIgXBmAABmAABmCgcwz0Xqh1QUxSRt70YAAGYAAGYAAGQgwg1Hi76NzbRQhkfuMGBwMwAAMw0EcGagk15n/RKfrYKagTXMMADMAADLSFAYQaHjU8ajAAAzAAAzAAAy1loNdC7c6nL8haHEscx3LpxDIQthTCtry1UA7eoGEABmAABtrGQC2h1pUVlSrYEGt0wLZ1QMoDkzAAAzAAA6MYqCXURiXcpmtRdKc8fWFN4ksnZF8U4VnDswYDMAADMAADMNAJBhZLqF0+iVCjY3aiY7bpRYey8LYPAzAAA/NjAKGGcEG4wAAMwAAMwAAMtJSBWkJtaWlJDh482PrGtUOfeNRa31a8tc3vrQ3bY3sYgAEYaB8DtYRaV/ZRQ6i1DzxuBrQJDMAADMAADIxnYCGEmgEhXfl5Tc49thOvUkvdu3TY8R0WG2EjGIABGFgsBmoJtW3btsn+/fs7I3ysZ4191TrTZtyQFuuGRHvT3jAAAzCQZ6CWUOuSMa1H7fAuRAoeNRiAARiAARiAgU4wsBBCzXrSWEzQCSi79AJAWfNvftgDe8AADMBAswwg1HijQLzBAAzAAAzAAAy0lIFaQq0rc9TwqDWr7nlbwp4wAAMwAAMwMBsGagk1tueYTSPRGbAzDMAADMAADCwmAwi1lro66ZCL2SFpd9odBmAABmDAZaCWUOvMlwn2n5LVOJbLJ/cxBo8whQEYgAEYgAEY6AwDtYSaq/jaeJ5uyRFLHMdy7fxh2RVFnWmYNtqTMvGWBwMwAAMwAAOzZaDXQg2YZgsT9sbeMAADMAADMNAsAwg13L94GWEABmAABmAABlrKAEKtpQ3DG0mzbyTYE3vCAAzAAAx0kQGEGkKNtygYgAEYgAEYgIGWMoBQa2nDdFH1U2beVmEABmAABmCgWQYQagg13qJgAAZgAAZgAAZaygBCraUNwxtJs28k2BN7wgAMwAAMdJGBiYTatgdOy7txuj/Z+2cfQYUj9mAABmAABmAABmBgCgxMJNRUkS4dOi1X4lgQa7ylKBMcYQEGYAAGYAAGmmOgllCLoiU5dPqKxO+flUfY9Z83iSm8SdDZm+vs2BJbwgAMwED3GGhGqK2flR8g1BBqCDUYgAEYgAEYgIFGGUCoAVSjQPG21r23NdqMNoMBGICB9jKAUEOoIdRgAAZgAAZgAAZaygBCraUNw9tNe99uaBvaBgZgAAZgYFYM1BJqppDpys8bsnJ0GTWO6IMBGIABGIABGICBBhmoLdSMWEtXf74rMVt1AGeDcM7qbYV8eDOGARiAARhoKwO1hVq6+a3xqO1DpCBSYAAGYAAGYAAGYKBBBmoJtSjaJg+cflditucAygahbOtbDeXijRsGYAAGYGDWDNQUaoMNbxFqCDWEGgzAAAzAAAzAQOMMINSAqnGoZv22QX684cIADMAADPSVAYQaQg2hBgMwAAMwAAMw0FIGEGotbZi+vhlQL956YQAGYAAGYKA8A/WE2vbn5GIcy/rZH6DEEXwwAAMwAAMwAAMw0DADEwm1dEuOONk37cbKUdnHB9kBs2Ewedsq/7aFrbAVDMAADPSXgYmEGkD0FwjalraFARiAARiAgfYwgFDDE4Q3EAZgAAZgAAZgoKUMINRa2jC8zbTnbYa2oC1gAAZgAAbmxQBCDaHGWxQMwAAMwAAMwEBLGUCotbRh5qXcyZe3RhiAARiAARhoDwMINYQab1EwAAMwAAMwAAMtZQCh1tKG4W2mPW8ztAVtAQMwAAMwMC8G/j/9WT8Yp0cIKQAAAABJRU5ErkJggg==;" vertex="1" parent="1">
                    <mxGeometry x="-827" y="680" width="618" height="221" as="geometry"/>
                </mxCell>
                <mxCell id="19" value="" style="endArrow=classic;html=1;fillColor=#d80073;strokeColor=#A50040;jumpSize=35;opacity=70;strokeWidth=9;" edge="1" parent="1">
                    <mxGeometry width="50" height="50" relative="1" as="geometry">
                        <mxPoint x="-810" y="333.5" as="sourcePoint"/>
                        <mxPoint x="-810" y="670" as="targetPoint"/>
                    </mxGeometry>
                </mxCell>
                <mxCell id="20" value="" style="endArrow=classic;html=1;fillColor=#d80073;strokeColor=#A50040;jumpSize=35;opacity=70;strokeWidth=9;edgeStyle=orthogonalEdgeStyle;" edge="1" parent="1">
                    <mxGeometry width="50" height="50" relative="1" as="geometry">
                        <mxPoint x="-413" y="870" as="sourcePoint"/>
                        <mxPoint x="-93" y="940.9969966254218" as="targetPoint"/>
                        <Array as="points">
                            <mxPoint x="-413" y="910"/>
                            <mxPoint x="-308" y="910"/>
                            <mxPoint x="-308" y="941"/>
                        </Array>
                    </mxGeometry>
                </mxCell>
                <mxCell id="22" value="&lt;font color=&quot;#ff0000&quot;&gt;c_isGridChange 功能&#9;&lt;/font&gt;&lt;br&gt;&amp;nbsp; &amp;nbsp; &amp;nbsp; 傳入的值為 false 時,會執行 清除 grid 內 isChange 的程序" style="text;whiteSpace=wrap;html=1;fontSize=20;" vertex="1" parent="1">
                    <mxGeometry x="-740" y="570" width="550" height="100" as="geometry"/>
                </mxCell>
                <mxCell id="28" style="edgeStyle=orthogonalEdgeStyle;rounded=0;jumpSize=35;orthogonalLoop=1;jettySize=auto;html=1;entryX=0;entryY=0.25;entryDx=0;entryDy=0;strokeWidth=9;fontSize=20;opacity=70;" edge="1" parent="1" source="23" target="17">
                    <mxGeometry relative="1" as="geometry">
                        <Array as="points">
                            <mxPoint x="-1249" y="1010"/>
                            <mxPoint x="-150" y="1010"/>
                        </Array>
                    </mxGeometry>
                </mxCell>
                <mxCell id="23" value="" style="shape=image;verticalLabelPosition=bottom;labelBackgroundColor=#ffffff;verticalAlign=top;aspect=fixed;imageAspect=0;image=data:image/png,iVBORw0KGgoAAAANSUhEUgAAAh0AAAETCAYAAACSgrQKAAAgAElEQVR4Ae19/5MdxXUv/0hjfUG7JiBbLAZkbEEBBgnkjUBeQXAQ+AtYgBRZfLWUGAOGxFhGIuAIVouIrRBY9MCbCBMBb+XKii9elGVBTxcJpkqV/PRevXqp/PLy8qpSVL3zqqfnzJzp2zN3Zu7M3Ln3fn64NXNnerpPn/7MnM+cc7rnrLPPPpvy/lY/dJg+8hbopTtU6rWmnEdehrJ5ZUD5/OMGnUFnwAAwAAwAA73EwFlFGs9KOtTqh+jwRx55J9+i3WvTCUoROXANbh5gABgABoABYKB/MFAp6Rh//l3yvJP01u61qR4RAKZ/AIOxwlgBA8AAMAAMFMVAbtKh1Dg9/65H3sJLdIdyey802Thz5gw8HAVCV0UHEtfhIQAMAAPAADDQdAxkJh0cKgGZAKibDmrIB4wCA8AAMNBMDGQmHRjAZg4gxgXjAgwAA8AAMNAvGADpQAgE+TbAADAADAADwEAtGADpANBqAVq/sHDIiTdGYAAYAAaqwwBIB0gHSAcwAAwAA8AAMFALBkA6ALRagIY3h+reHKBb6BYYAAb6BQMgHSAdIB3AADAADAADwEAtGADpqBhoavx5ehcrslYOZqVuphfem6eXvr+08rb65Y0CcuLtFxgABpqGgb4jHUqtpocOf+QvPqbXDElaN8Q39l5vv/vCMpx8azetTVhIbdm2f6Invc9p6vR/p9s3uRdbs0Gj1Lm0bvrfcl1j1zFo/9XNL9B7n+nxPl4J8eD6fby99XM6J2E8B02v6A+MFjAADJSJgdykgz/iFhr8Gpc5Z8KR5QNybPCzlC1ToVxXlpVbdVmQjvJuaKV+Sr897ZF3/CX6/tJsBI7HK23LhMMD2YAXqWLPaBoOca68ZwV02TtdZiYdkcGPf0vFN65H6/mgG6+KmuY5aAqYzHdnOn+Jt4i88HQk3zDqp7+l055Hx1/6Pi0tyRtx8wvv0WfeW/Tzc8ojMkXGHdckjzt0A90AA/2Bgcykowkfb2PvxcJLdzT6jatqcgTSkX5z/fS3p8krkSSAdKTrGw976AcYAAayYiAT6cgaKpCN8kffwjCMlUwZek70h+NWP0SHP/LCPI0kT0YW0tEW/rHaZRmZGGgCw/WyrLJ9n2xpGXVCaJgjEuWVuD58l8XLce7ef6EDZ/5f+Jtq/Te6PuHNnEmGLK/3ZR4I1/fc3Nv0NVGPGvsN/UTnjHj/Qffvqu5NfcmGKbr94O/opj9WtOyuV+nug8eC3z/Sd+6/ro0kxssco7t/dZjGrzDyKbWcvvqTN+nuAwfpctGXcOw6nQ+8HW/9/Jy2drmOPFuQDjxQ8+AFZYEXYCAZA9lIR2BwpTFOUmpIUISxD495UbiBSYefmCfyQpgAsDeD/zMhcG25rJSJ6/eEHLHzgujIvA8mLVwnkydTj/nC7sn5eZrXyaG+XuxwkyEkLjIi2+d9pS6hzbOfUxLpUKM/pR8ufE6STDAJkaRD18fE45czv/SNbVh3xYRDt21IR0A0ArIQkoeAjOhyWva1e22SERwLyoXXCSLC+orVkUhKgtyOknIwQDqSHyByXLAPPQEDwEAnDGQiHbYhTqvUlI3IBZdlzwITl5AUCMKhy4YERXsXrLdcJiBMCLhu1zasvwPpsEmJLSeTDt1mKFtQp0seLsP9dMkmj4XEwOHpSCIXyccDAhOQDE1Cprz/pMcnqw9HMem465dP0ioxbuZ45O2QHpGYHpbdSt+aPEZ8ve8JCUhHSEJCMmNICpeV9eh9M332s9ISSkE68CC1MYb/wAQwUAwDpZKO0NC7CEMw1ZU9AGFZixSw0eZycmBdRl6el/tJ9XMZm1zwcXsrQyW2bC55stbL7aSTDkMipJdDX5dEOvxzgWeEQzHs9eD2qtra5MLVjk0eZBn7nCQnKiAkd7MnJPh/5+N/khg+KSuvI5wRU5LXRPYZ+8UeWtAb9AYM9C8GMpEONq6d3t5toyyBYZMA+z+XTa0jCPOU6eno1Keekg5HaEXrKY106PPhNFyH94T1XPY2G+kIwiiOsEhIOti7MfowbT5oPCRK7x94ka7/yZukiYb/PziX1I9uSUc4TbbEhNQkWXG8fx+gGDuMHTCQDwPZSEeQ/+DyPkiFh0TC6ekw+RBcR1h20DwdKsj7SFkQLK6z5JwOVz6HvjaNdITXzP+rv+iY7SWRbZe5n410JCeI6j75uR4cQhHeDB1q0WTDD7no8z4hMUmrrj6UGV6BpyPfA8U1HjgGHQIDwABjIBvp4NCIlX/Blcit9AzI4xx2YC/F4JKOIJHUIlNSF3I/S3jFTjINZ6RYq5iGdQXH7cRS2a7eV+pR+u2nZtbQm08sTwxV2Ne5/mchHfo6M2ulnTBwCIVDJkxC7nx8F63da8obD8fv6OZdU3R7QpKp6RcSSV1jhGN48AMDwECvMZCJdGghmTR4FvHwwyFicbCwnDC6YcgkdsxtnMOyLm9JH4RXtK6SiJdrsEOikBAKMaGSKBnUEI7/oD898i+xKbOh90MkjoZ1J8xeUbf8Nf3+M0M6vA9epO+JBFCXrGnHspIOJhfxKbKBl0MQiTDcoqfecsiFvSH6mCNEw/LxAmGYMosHLGMCW2ABGGgGBjKTDh4wbVDltFU53ZTLMHGQ5ezciSo8HVynbFfuc2hHy8nkyJaL+8BbSSC4X1wP57qw94av6VQ3kwFO9rS3dkiEPRZybQ5/Zkrg0WDCoc/b14ZekQTi8ehvPzXfr6mJdPi6l+QhWM/DNRPFeEWiGS36Wtcx1jtvu83n4Hp4i9krzXhY8Xhgi/EABvoXA7lJBwY722BLstJknalHf0uf6kXP3nyClnfh6WhKH9nLgWXQs+G0KeMGOTBewMBwYACko6IPOLG3w14HpEk3llK30F///jPyvDfpieXVrVZaV5/DpM+SP/gGT8dwPAzrwinaAZ6GGQMgHRWRDg0qDr9wOKYpQGOyoUNPA+PhUDfTC+9pAlX+h9l4+myZ3pOmYAFywAACA8BAnRgA6aiQdOiB1MTj6LGX6Edr+9+TUCcw87ZliMFxeun7S7uahZPULodtfKKGhcIq0XGS7nEcRhEYGBwMgHRUTDpwswzOzYKxxFgCA8AAMNAdBkA6QDrw1goMAAPAADAADNSCAZAOAK0WoOHtoLu3A+gP+gMGgIFBwABIB0gHSAcwAAwAA8AAMFALBgqRjpGREdq8eXMtAg4Cs0Mf8IYCDAADwAAwAAycTYVIxxe/+EW65557QDrAjIEBYAAYAAaAAWAgMwaGgnQo9UO67OkWTTz8JC3LueqmUn9IFz/6EU08+SKtXIFpr2DqeFsDBoABYAAYKIqBQqSj38IrSu2gy55p0cQje3Iv9a2/t3Lxox/TxB6QjqIgw3V4QAEDwAAwAAxoDBQiHf0GHpAOgL3fMAt5gVlgABgYRAyAdHSIxcHTgRt/EG989Am4BgaAgV5gYCBJR5jDsb9FE/LnCK+svOef4mWsvI846QhyQ4I6v7ljG31B5IiMfPdtumH/+7Rm/R/EkmpMG0foK+fHc0JMeUtGv+54HYn90WVtecf/ljbIPu9vb1d99Sm6Zl+Lrv7OJaSs8nafegFKtImHITAADAADg4mBQqRjxYoVtHHjxphhbQpA2IhefdvqUD5XeCVMEN1/hC5aaciAX04nnIqk0Yh0vEPr92kycJ5frxp/2Tfu0kiPfO9t2jgVlWGdrLx3gSamonb0cUNEorKhjFY5JggyH8W006LxHVtpSRvpadE1ou8r79WkyiIxX/1LuuZZJjuRXLreG/YbMsKyYzuYNz7GFeMKDAADvcBAIdLR1CmzoUfA8miEBl0cN+QkMvqsfEMmIiMdkg7fcBvCwWV9MiEISlbSkSRndH3kKYm8J1HbYX+El4PrtIkIl5XkSDHpsJJj+bgsy33FFg8oYAAYAAaAgW4xMFikIwgbyDd9rSA2vNJb4HsaLKPrlw0MMhvekHQ4yvokQYQvItIQEQRdp+3pcMmjy7mudx1zXZ9Ionj2jSBHTC5sgqJlwA86AAaAAWAAGKgKA4VIx+joKG3ZsqVxBopDK51IRxRa4RBD+5YNckfS4YdTjGfCRRD0wNmkIzwmwh7sqbCn5jJBkLkbnAsi++kfm2rvR5jTIkgT18l9rApcqBcPLmAAGAAGgAGJgUKkQ1bQpH0/NDIVz2nQ8rk8Az4REIY4qR9ppMP3logcjKykIyQ9NkkQ4R+Wh4lUSB7CRNO4N8X0vT1cxPXILUgHHgISD9gHHoABYKAuDAwW6bBCI6xE9gzI8IpPEISngcva2yTSERIHQRRcpCP0YAhywsmh0lNht8v/k8JAfJ63TCQ4LMTHXVsuC08HHjQufOAYcAEMAANVYWCgSIdWku/BkHkWehrrk2/QlX/xcWxF0tD7Icq6lJxEOuzZJ/paNuZs+EPCob0TMdJhZo9wOVe7fMzuDx93bU3ZzrNPWE6QDjxYXDjCMeACGAAGqsJAIdKxfPlyWrduXeNyOrSSDEn4KFp742G99HmwlLnwSrBCzZRSOxcivraF8YpYZURiJtfltx9MpeVwiJ66azwg0dRUXU4f09NTuVy0jWbO+PXxEu6usmL2CsvAU3mj+kwbek2OsEzgEQLpwIOFMYEtsAAMAAN1YKAQ6WjqlNk6FFZGG5ynYRv9iDAZ4hGGcMRaItx+SC4cxIPLYIuHCDAADAADwECTMADS0YNpoiYB1Z306YdIggXGOPdD5qIweDhE4jrHZbDFwwYYAAaAAWCgSRgA6egB6TDhlhbZOR0hyQhm1aTlnZickvaZOk0CF2TBww4YAAaAAWBAYqAQ6ZAVYL8YoMLwiJWr8U1rafMo5GLnf8RzRDAOxcYBeoPegAFgABioDwMgHT3wdADg9QEcuoaugQFgABhoDgZAOkA6wlktuDGbc2NiLDAWwAAwMIgYKEQ6li1bRmvWrIGxAmEBBoABYAAYAAaAgcwYKEQ6MGUWDHwQGTj6BFwDA8AAMFAtBkA6wFAzM1TcjNXejNAv9AsMAAODjgGQDpAOkA5gABgABoABYKAWDBQiHUuXLqWxsbFaBBx01of+4c0GGAAGgAFgYFgwUIh0DIty0M/+eBCorzxDa/e3aHz7DzITYXXu/XTZXr32ySJ9Y/PazNc1DRNKbadXFj3yvOg3t+/yWvujtr9Ci6J9LUuSDHrdmadnW768C689QF9WKpOsavxpmm15lOcaOVYuPXlz++jyjO3LurDfH88FjFMzxwmkow9cakqtor2zHnknZ2jnkD0kmRzc8NDPaUVC39VXfknrpvKTjss16ZjSpKOZHy/M+9BU2w/RR77BvyKTIc9bf1L5PO36pOPoJ3TmzBn68LUHaFXCmNptadJx9BMv1zV2HfxfE5BDH3mkSccVGdvna7FtpiHDuPTPuBQiHQiv1DvASo0Z0tGaoV1D9pDUpEOTg+t/Ui7pGMSHVB7jX2b/62gXpKPeZ06Z+EBdGDuJgUKkA1Nm6wURSAdIh7xpk/brMP6ututoF6Sj3meOa5xxDGNQBgYGinSMfPdtumF/i67+ziVt7mXXuejT8eK7Jk++SCtXxOPM5toj9JXzFfGH1ib8b6aYT9CXMRCuOlbtnY3F6mXc3t8/NUeTE3FZ2685STM742VGtk7Tcc8cj5c/RXOTE226c8lW5TGlLqAv3zdPRsdibOR3avYcpPMDr48Mryzd8AqNh+Xep6+vjfed8z+iutvLcN9ccqSFefg61zbMKVh4jR74siUT52VY5/LkSug204x/2L6Vx5CUKyFzLxh3SfkUae2yLsL2Re5HUt6H35cgh4Pb5i2HZFhuz5ujfZdH+pRyJ8qbIbwSymuNCfcHWxhgYKAYBgaKdISfe3/4SVomwhAhuQi+3uo/1NQf0sWPvkNr1p8XGln/+n0tmrCIB38V1jdUD++h5UqRfrhd/OhHNLHfkJEqAZjV06EJxMmZXVF/OCwTEAyWcXTbNC3ww/+kCdkoNUrbphfIs8ryNb3aZg+vLNL63fM0EZARpS6kL98/TxO/fIO+cnFklGQ/zrl9liam5tuIiS6j1DfoksdaNPHLI7Hrz7n9SOHE0+2HPiLPW6DXHvhyOEZ+W0Ei5ty+KBfDJxxWzoG5PiVJMyWnQxtRVx6Dy4MQM7irjO78ci2TB2EnX2YhHVLvncqPPz1LLV9Pq0I9OeUM8jw8QQzMtem5H0m6kDJyPa7xkuWwX8zwQG/Dq7dCpKPJy6CvvHehjQjwJ+PHrS+4uoDvEwyLSDDpsK83x6v1dmgZs5IOV3/U2F6a9eIeDCYdp+cmaZMgZ+Z4vKyrTvuYWvYt+unfHKbDh5N+r9Lu29yG367L/p+ddLRCwsF1LL3+EI2nzE5JJR3B7Ja0XBJuJ+uWDaf9Br79lUXy39ivSNcRG0v7em4/zZjztXbyJMvEHgRdlzG4c7TPkmf86aP0ieVZ0OXT2mXZ5DatvJZHz1KR8vhtJCSSGpmCWS3sHbHImmzbryuBgMlyrBfvw9fogYB4yfPYH16jibHvbuwLkY4mK93/ZPxUPMTC4ZGLVqY/1HW/XEQiOhZ5RerUQfekw6OTMzvDt0ZDLk7T3OSm8Fid/cnTVh7SYU+Z9UlHyuyUVNKhrqaLtadjf4uKhlTsfvLMDflmzl4F28ja1+r/kjjY3gb/fAmejjA84TDcEVmIT8mNjkeeGpf8fCytvAkpfUivPRB5Ofy+JZAOfY49QH4IJgNJkHrE7JXuDAiPKbbQY1YMDB7p8MMeH9NEEGIJQyuPmLCIVAx7QKL4fpA/MKW9FxHB6BfSEU6t5dCJ2LZE2AWkwzwg0kiHxokJ0XwQyy3ploAYgxuFWJKMrG7feECi9Tc4r8H2VjCmU415wts9v9Ez6WESFLYlMMTHZBjI11MK2WHZ5DZNTuNlyUc6QhLhtV8n2+X9sLyDWHEZbGFEgYFqMFCIdCxZsoT0DJamDopPEoIQiSEWcRKh5Vbjf0sbdMKhRUZcBMN1rM6+Z/F0qJGtNH3cI08nl26KPDomvOJRlaSjKeGVMj0d9vjGCIhIYrXLdfrPBo9DJD6xsIxf6G2wjChfWy3pGKenj36Saw2LNBLh0kdaeRMuaScPNjmS9Rpy9iHNz+tFx+KJpbIc73fSI5fDthqjA70Ot14LkY6mT5nlhFI9i8WfbSISSBnwfsjF8mjocy6C4TrG9dSxzUQ6VuncjTi50LLVQTqq1EGvwiuuPoXEIyE5NZptkm74/HCATn7cbPIX2jwHPJuljYy4k0FZ1jRjnmRoOWGSPR26LhOuSO8Dt6m3ae3KcryfVj46Fw/hsNdHyqnrY/m1DpmYyPAVtym3Sbqwy5iVXiOvlDyP/eE2nBj/4uM/kKRDA8JPKH3413Tpox/RNbetbvPKGCLRom/u2EZfCJIpw+mwFhnpNenQ/Rnzp88mJ3kyuZCrlpqpscY9X6Wno8obMDT0+1OmtiasSNpVTodeWt3yaGgCpJdOT0ouZcOowxCdpoMebS3Qawf/nhYdOQihURRv7dqg6gRLP8RhkRHWf2Sw3bkVNplgg63rlMY8q/HO2i6X422anK68F+MNOkJHPrLk5OXXhT5iiaUiSZrb1ttQv+I6ed4vw3Xr8JI1zdgui//FDRB0N3y6G1jS4SeU+us1HKGkBFIz0yVaB+KbenbL+Mu0oYGkQ9+chniIGL+1TgfPSuHYuyYgu0a30fRC3APSTzkdut+GeFjrdghCINfpkA8xF+nw8zjCdTz0MujR+NvTa5deL9f8MOXsEI5sj41pp5koxrCa749IYx+ri6eDhjkVejZJe+gj8q4IXITXxN/SZbs+RrS3ZZXxnthytJXlOsX0VJaX+217bPi83uaTczsdEt+T0aGoVUFOCssZ1RefZROSFi/5Oy1ZSIeWWZM0vVx7J8+J7Cf2h8+IYszzjXkh0rF8+XJat24wvlcBwOQDDPQFfdkYyEI67Gt6+T8r6WCvCROdXsqMtnHfDQoGCpGOQek8+oEbGRjoHgODSDo0MTE5HXFPCvDSPV6gw+HWIUhHH3xlFjfpcN+kTR//QSIdfnhm1oS+kmYJNX08IB+eF03GAEhHzaQj/q0TVxw+OGblazQZRJBtuB9yTDrCXKIOibS9wEvkuRD3XEoiaS9kRJvDfR8Ny/gXIh1NnzI7LIOHfuIhBQwAA8AAMNBPGADpqNnT0U/ggKx4mAEDwAAwAAyUiQGQDpCOtjVMygQY6sIDCxgABoABYIAxUIh0rFixgjZu3AhjBcICDAADwAAwAAwAA5kxUIh0MGPBFuwVGAAGgAFgABgABrJiAKQDDDUzQ80KKpTDAwgYAAaAAWDAhQGQjgEmHUptoH1zp+jo0+3fnnGBAcfwkKgTA2M/mqEPF6bproRvpNQpSz+2tW7PLM3P7KQLoT+8OPWRHStEOkZGRmjz5s0Y6BoGesO+OTrlLdCh7efl0jcTDs87Ss9cGn3qPs/DVamf0BXPtWjizx6nszM+2JT6I/rqz07SxP4Wrd96K6mM1+WRq+yySq2l54555DkMoP7C749mPvQ/tNaa3UvX9kF/ytZPFfX5hEN/aG767ly4lrKor79AOz/+nPZ7/Pt32vn4tYXrk3V32ldqHz3Q+pz2z/4XWtEDTCi1jvbMnvRxuTiAxEMTqpPB937mJtfWMqadxhzny3kpK0Q6sE5HOcrPAuIbmHTsOD/XjReSlYTrQnKw+wU6N+GhWYx03ExffeIk3XjgNK3felvfkI7JOY+8D6fpbksX+mNzO2cW/Q9/adJxnXWex1CtfY6O6Y+MTd+Va5z4+mHaqrEf0cyHHqXpM68+vvzYp/S0939o159fV4v+fdLxyec0NftqT0gH6+eu6QXyvEWa2XlhLf3mdqvcMuGYm8T3varUc6/qBumowVvRzeAWIR1qwz6aO+XRwqEddH6SkVSGHEzsfoH+ILFMfk9HN33t1bXa05FEOrLKpNZO0lyXb+5Z2+rncqHnqDVLe68r5oFz9X9YSYdSd/lfkfYWZ2jnheXp06XjOo6FHpy5SVqX8FyqQw60Ud2LdSHSgfBKdQNig70I6bjv1RPUKayiQDrCN0OQjvrwzB6hbsIq9j2i/w8r6dB9V3dN04Jeer6mMAQTgyrCOkpdS3v1t29AOsLnkwvv/XysEOno5w4XlZ29B9H3Jdx5FkrdR6+eEN930HHJo0/T6gTWbgiCKG+VlaQjVnbhEG0/r/3NhuVM8nJ88c5/pG/tb/k5Fzrvov13mC78gqk3Fl65/Dm6bjIqf+W3l8ZuirCsqNMuI3XfJkdKmEdel7a/9rljfow7HCNHjoa+PszhCGLGYXkRXnGVsUMnrjJhXUHdRfNA/L5ob8C1UU6JqXuBpu+Kj3voPZD9EX1nOZNk6XQ+Ted5zoVyZvByfOnRT+kvw1yNz2n/ic/opsvj/ZZtN4F0KPUDuv3Yf5ock+Mf0DXLI3nDHBDRp4eeXBXeQ9G1/0y3nB9dZ/DK9bafM+cDb8fcJK1NeM5IXZWxf+3eIOeiZA8LSEd9LwBl4KBIHSAdGcIr6r5X6YSO14twhSEDXmxmiCEc8cRN9cBr/rU28YjISby8rvdtMduEScf8/KmwfaUeoNc0sbEIigaAkXWBDiXkcjBI8ng61u9+h761/zBduMQ8DM/1ics79LUr4w/HsO4bZ2jjVIuu+vay8KHK5/T2gp0naGL/O3TpVdH16sYZuq5g4mlozLwFmr7b1KkNqR8y8Q23aCfMvYgSGMOygnRIebOETrKUkXV22l87ORcSKM59COUUfeL8CJ0Ey/ko6sKdfs6EF5QLrxNERLbPdXA78lyZ+1oOnbDbqZ01L/xP2u/9e5ifod+sb3zjf9N+73/RXX8cjaWUrdekIyINn9NDe8ZiuFeb3qbHT+uk0yj/Q/34E/or73Pa/fJPaGlAFNZM/Q96zvucJBnRfeTrd08/TEsSSIXJ7ZijybVu/UhdlbWvrt1Lsyf1C1N57YJ0gHTEbp6ywNpP9YSzQI4+Q5eKG16pG/zpqC7Db/fvgddOkGd5JjolenIdTG4k4dHn/Dq9o/T06vhDxtQbJzJcl9zmIR0T+18PCYeuQ10+SddOJs9O0QQiiXTIBNakXBIpZ5Z947Jv0ezeeBKhIQL6uJnRwEbPThgNjXLDSMeZM2faZncYMhJ5O0KPiJUfwSRIe2c4GZb7zXpgz4dPUha7m0mSaZyCBNK00ArPSNl9cHvs2aMu+xXtPPE5PfHrP4kd53Z7SzrYE/FvtP2ukTb5Nv79f9D+48dp7Tnxe3Xj4f9L+4VHhJNT7RkxX9+vycg/0y0r49dz3/VWex5aXSSUqnV7AgIhvK7Sc5ZALMKckpLCOyAdIB1tN5AG+DAtg87hiqPPXNqmiyTDLx8Get8ul0Rk7Ov0f/Z02J4LrtOeDpsln0PXm4t0WFNmI9Lhnp2SRjp028bT0SKdxJo0c8ali6RjiYZXv/EvmjdrPdWV3+hto9dU0uF5H4aeG1ffJXmwZ9Vwn5hY+GSFPR+Btyf0hPj/20mbq81ujmXJ5zBhlX+lu2+JG1il7qQ7f/857Z8/RpcL8s/y9I50/J7u9kMqblLAYRWXl8J4Nv6N/uTOc8JniyYiU5pgBCEWvl56SbjPclt3XodsW+8bT4tH3eZ5qDtfDvJTMHPF1vGg/C8UXhmmKbMcWrFj9dH/uFchuXxULgytWN4TF6jyko4kMmLX3UvSoWUxIZooR6QoAYlCK0lvaJE7P8nosYFmT0CbrjLMTGHPgk1o7Lqy/jcejQ6kI2XqadinIKRy4c4ZWtThp7sU6TUy5mcP0itzxgtk1sxIbyur3GnlsujIhFZ43Y327dT8O80iHUGOhk8UHJ4IDo1Ea4nYfYp7R9RN/5Ue/zQKu6gft+ivvHgZl44j0tEbY61Jh/bMFQ218DRZJJDC0xEycAn0oSIdN5jppy5Ph9SJ3jehjXjuhz5uE4EoJ8VkUqUAACAASURBVCMesrHr0//zkg5TPiI4rjr1sV6TDilXRECiJFZ5vtN++BZvhRjs65KMXmigGxZeyeLp0HkrrhwJ9urwOdN3TTI2049m5ml2763++iP6/GZNSLQXpIP+bH3m/Z8ljGM8Fu2ejk5t9c7T8SqtCIiCDJWwvBwycXk6uIzcKrWFbn/nP8OwS1JoRl6j943RXqSZXRc5n9l2eft/8fBKtEhZGetqqLvY04EFwewxGpT/hTwdo6OjtGXLlkLgbpriwlCHnyi6nc6zXLcRQUiegcJ9Sgpt2KRDl+djdk4G18XbvKSDE1c7LX3eJNKh++oTjyl3cip7KLzgTZ11w1vzFh/lbvBxe8tGj0MOfJ5Xx+w7T0ewcBmHSbg/emvnuZi+t2h2ci/NzBuC4eutNUsHp4+5F0YLPCme11m3su2k/ZDcJSS0+nLfNEdPeMm5G0l1ZyUdd0+b1WW9Y8/S1da9nlS36ziTCV4czPdQ6GRRkaPh98ciEa667GM6yXSfp8MuB/xVT+3EVLu8/n/ny3qRsDmaXBcPS7nKlnUsIirltStzOuqaiVOWPlBPNi9NIdIxSMrlnA3fNWgle3I/jeHXHox2UsJl9NYQiWhGiyQ09roZKvCguBJMXbNXsuZ0cL2dZNXysochaWprOA22xJwOU2fco9EpuVROhbWnrep+hMYsgZTIMbITMX3C0ZqjI7OLTsPr158lvJIwW0a2nWc/S3hFyiaXcGcvhyRRkY7Mcu96pguTMB0qZI+IlDEie+4l4mXZLPthQquYfWNfZ2aq/Ls/eyXPkuZZSAcbNBMG+JBmHozPMrFlSftvkw5d1pAFB/HwSUT2JdO5bj8k40hAteXS+S4vL3i1rm3BuRd6UbJdF5VHdHiMEGbJZsBtLPTDf5COYBaKfhDZM0TkALIxj3I5TA6BNO7hjBaR9a3DMkkhD1d5W4a8ng4tc1Yvii7LxCNaryMiBHlIh04eja3/MSXyNfbHPRg6EVWu+eG3bRGbmO4Do98p3GAMtZ3bEc300HUawxe87epx8qeamqXOY0aaky3FWEZj737zjxn24DrbqyL7lbaflXT4feIpskLWBeubJmzwNc4578R1TMokz0vdyDJ59znE5SKPsi5NImLrdPi5E/Fvq7St5SHWwEiaXqu2TtOir6dFmvlR8aXDmRiwp4Nl52mv+0UyqD7nl9ffaonJmExEuJ4sYRkmAGWEN7gfadtocbBddFEX3iJXGyAdg0s2eLyHnnSwIgZpywRJEqJB6h/6Ut+DyYSu3J6QIuPARMYVEipSX95rlNpK04uamB6j52pc0yKvnDyzxTUFV9YVejlK9jjINurcB+mo796uc1xlW4VIx/Lly2ndut5kSUvhsZ8MUDvUA10l6wq6cetGe278r++WnGTK3g4ZEqprDMx6Fh4de665iYqhV0QsJpakH5PLUTyBNKneXh0H6XDfi70ajyraLUQ6hmn2ShVKr6POKHTjXq69DhnQRn8+QEKykZDrUca4Sg+KXkOljDrT6mCy0XQPR7SyqXvdD9lHnmZaV1hFtl3lfrcLnVUpG+ru/pk2MKQjeX2M9hj/oe3nVf6QawI4DfGY77gkehNkHWQZpBGP8kJsXJr/RXNA+lF/mnjMz+4le2GzfuxLtzLH1vPIlDxqpqouzpSfV9FtX8q4nhcb0/dLXR+yK0Nu1NGZlAwM6cBgdx5s6Ag6AgaAAWAAGOglBgqRjl4KjLZxwwADwAAwAAwAA/2JAZCODF+ZBbj7E9wYN4wbMAAMAAPNwgBIB0jHUOS34MHTrAcPxgPjAQwMJwYKkY5ly5bRmjVrGm2s9Jdwr7/++kbLiJtuOG86jDvGHRgABoYVA4VIRz9Mmb3gggvonnvuAemAJwcYAAaAAWAAGGgIBkA6GjIQw8p60W+88QEDwAAwMDwYAOkA6ej4BrBq7yzF15c4STM74ws6mTLtx+t6mKiRrTR9PL72xam5SZqoYeGpKvo49uBv6EPxLRV/2fCKPz1fRT9Q5/AYE4w1xjoLBgqRjiVLlpAOsWRpoFdlli5dSjrE0qv2y2xXqVW0d9Yj7+QM7eyBER3zSUeLZnbFiYbsY5YysnyV+2p0G00veHR6bpI29UBfZfZNqTF6cGaRNOl4an2y/stsE3XBeAADwEBVGChEOqoSBvW6ga4Nj086WjO0qwdGNAuhyFKmrvEF6XDjqC79ox3oHxgABpIwANLRB+EVkI58NzBIRz59JT0ccBx6BAaAgbIxUIh06NDF2NhYo0MX55xzDl1xxRWNlrHTYLbnUsRzFrxTczQ5EXe5t1/TnmcxsnWajnvmeLz8KZqbnGjTWRYvhquMaUfL3F5vvN320BFfe3JmZ5s8aee0TptMOvxwyW8+jOXI6O+tJH1/JGt4Jap3kaa3xjHRCWc4D8MCDAADdWGgEOnAlNl6AZrV06EN+cmZXaGRDq8LCAaDanTbNC1wkuJJE7JRapS2TS+QZ5XV17gIBdfFW7sMEwPPCgkpNUJbp4+bdoIckVBOQaKYONh5LOH1p+docpPbuPK1TcvpUOob9OycF8vPUGMP0syHHnmL07TVETrzyUSGnA71jWdpLhjTxemtIQZ4fLCt956FvqFvYMCNAZCOAQ+vqLG9NGt5Gph02EbZHG/3StiEwnUzyTJMOPTsETuRU61ieTbFDKNLTlNn3FPDs1RaglzZ8nRLOpRaSjc8+jd0+PDhxN9ru78Tk9+WwfXfzEhZpFe2xcnS2IMztOi5PRSZSYe6mp49pr1K7fW7ZMEx9wMReoFegIFqMQDSMRSkwyMZpjDk4jTNTcYNf9LNJglFpzKHD+rQjW4v8rjIa/ywisNLwURBTnM1RCQuuwnLpM+k4bpsUiXlqHvfJw86rLL4Cm2zPBrq6mfpmOeRy0ORlXTU3R+0V+2DGfqFfgcVA4VIB5ZBr/eG0IYny+yVcGoth07EVnoGqiMdUc6JbI9vnjA0IuSKr/8Rn+YahnyCsAv3rxOZaCbpCEIrKX1ffGVbm/cEpKPee42xii30DgxUg4FCpAODUc1gJOk1C+ngsIOfXCpyHdhbIElAdaRDeyA4N6Q9TKP753tNHJ6OpL7LkI8JzXT20HRLOqoIr4TkweHpSOq7Ph5eh3U62ghZmt5wrt5nFPQNfWfFAEjHgIRXjEH2SJILDYL6SYei0ENh5ZJoeSSJyAJSJlw67HKHXqTMSkx11dEt6XDVWcaxq5895udc5JldkpV0+OWCWTGuME0Z8qMOGBZgABjoFgOFSAdWJK0feCavwu090CBgciFne3BCpw5hSDJSrafDJEkyWbCny0bH4wmiaUA2feept53zUJpKOvyZKotm9srejEuaZyYdYw/Sbz706MyZM/7smKz1p+kd5+q/z6Fz6HzQMVCIdGDKbG9ujMj4BrkTYoqpBqohE1FehSYgu4IlwesmHVoeNv6a9MhEVn2urS9+roObiIT1ZAzLcPlOuR+9uLkNiYiv0+HntbRmiYmCX8ZayyOW+5IwvdbMgtHj754J04v+os3ePCugd+i9qRgA6eiD8EqvwWMIQvqMkSplzEsi8pavUvY66+ZZMK4ZMnXKgbZg8IABYCAJAyAdIB0dE/R6TTqyTJOVAB9G0hF5R1o0+9T6jmMq9YV9GAhgABioCwOFSMfy5ctp3bp1jX6w6RDQ5s2bGy1jXYPcbTu9JB2clyLDQ536M2yk4xvPzpll1THDBfc7XqKAgYZjoBDp6PTQx/lk1mze2kXeRdK6DVa+Ri912p5/4c69KEvG+HoeOnk2Q/LoyFaaPh7XaxNzOsrSEepJvsegG+gGGGguBkA6Gs4KcfM09+bB2GBsgAFgABjIhwGQDpAOuCOBAWAAGAAGgIFaMFCIdPTDlFmwz3zsE/qCvoABYAAYAAaqxgBIB9htLey2aiCjfjwsgQFgABhoPgZAOkA6QDqAAWAAGAAGgIFaMFCIdKxYsYI2btxYi4Bgrs1nrhgjjBEwAAwAA8BAFgwUIh1ZKu6HMkrdR6+eOEpPrzbfC+kHmSEjbmxgABgABoCBfsXAwJEOtWEfzZ0K1ms4+jStVsmEQt33Kp3w18kA8ehXAENuPHyBAWAAGOgfDAwc6WDwqRsC8tGJeGQsx/Vi2z/gxlhhrIABYAAYaBYGCpGO0dFR2rJlS+NzOm7YN0envM5eDFPOo6NPr258n3ADNesGwnhgPIABYAAYyI6BQqSjX9bpYNLxzKXJIRYNFqVuoH1zp8hbOETbz0svC3BlBxd0BV0BA8AAMAAMSAyAdATTpAxBWaBD28+DtwNTx4ABYAAYAAaAgQowUIh0jIyM9MUXXLN6OjQL4xyQhUPb6byU5FPJ2LAPBg8MAAPAADAADGTHQCHS0S8KzkU61AP02gmPvA6Jp/3Sd8iZ/SaArqArYAAYAAbqwcBAk4483gvkddQDONzY0DMwAAwAA8OLgYEmHQxs4/FI92JI0rHjfCSTsu6wHd6HA8YeYw8MAANlY6AQ6eiXnA5eKGzh0A46v0OehlmdVBOTZ+jSDmXLHgTUhxsbGAAGgAFgYBgwUIh09MuU2Q3BOh2dpszqgc5DUIYBGOgjHoDAADAADAADZWNgoElHnkRSQ1AW6NCO8zFNqoJpUmUDF/XhYQgMAAPAQP9hoBDp6LcVSTt5OpTaEC4OhnyO/gMxHjwYM2AAGAAG+gMDhUhHvwxuVk+H8XJ4dPSZS+HlgJcDGAAGgAFgABioCANDTzo4lwMJpP3BkvuF8EJO4AkYAAaAgXYMDCzpyDIbJSyzcIgQVmkHB24Y6AQYAAaAAWCgTAwUIh3Lly+ndevWNdL9FHouPM//gFsamVD3vUonvKPUKeejTIWjLtzAwAAwAAwAA8OKgUKko1+mzA7roKLfeKABA8AAMAAMNBEDZ2mvRd7fypUr6Z577sl9Xd52UD7/2EBn0BkwAAwAA8BAUzFw1jXXXEN5f+vXr/dJR97rUD6/rqEz6AwYAAaAAWBgUDBQiHQMSufRD9zIwAAwAAwAA8BAfRg4S+dn4AcdAAPAADAADAADwEDVGCiUSNrE5JRhkWls7yx5rRna1QcfpdOynp6bpE19IOuw4Af9RHJhGRhQX3+EXp9/k352Jb7IXYY+h6mOQqRj2bJltGbNmkZOmc06eGr8Zdow1aJrbluduR/qq39J1zzboomp92nN+vMyX5dVpk7llBqlbdMLfWHIfXLknaa5yU2166mTHnt9XqkVdN/9u+j0C39OH+y4LFU/auxbNPv8Y9R6fhe9uK5ZD3h17lX0ylOP0eIjG2jdgBFL7lsT9d5r/Or2v/7I6/SxXpbgBIhHE8ajn2QoRDq0+0XPXmlqR5kcjO/YSksSHob9RDrU6DaaXvDozJkzsV9rZlctY2AIRItmdmUzempsL816HpUhH/d90DwmV92+vfGkgwmPJkf8kySJDfNAkg71JXr6sfrJnlJfoD/Y9g5NTP4jffXybPdbr57DauIAved5dOLNn9GVCc/ZXsmGdpvr0QPpyOHp6AWQR7dN04LnGe+GTz7q9x7kIR1KjdHeWa+0ENAgk47W8w/RkVtX1UIc82LXRYqMh+aHocdlKEjHvq30i4vrM/79RDo0piYOvEeed4Le/NmVjcRxXtyjfPVkBaSjwaQjNOCn52hykyJjgJtNOgxJKk/GQSUdF2z4Ln3QUNJhZHusc+hnkMMrQQisBdKRSiaUmqAD73nkfXCQvgNvR6quQGgMoSlEOpYsWeLPeGmSEpUap4sf/ZhuPHA68TfxyB5aHtwYMrwy8r23aeNUy79uYuoIXbQy/mbDZbluVxnWhUuOtDAPX+fatpEOP2yRHuZgzwiHYryAsNj1szEPy1n5Fxwi4fP21rPK6/pDebtMdOXcFbtN+d9OpnVd4+q777XxdWLyY7hOz0vXq62/qv+z4eewRprxkzkiXL5oyIPrSmuP+x7zdAS5J7r9JA8Ol2cZ9daWk8voMI7UQZ46uX67bvbe8PnWU7fSloYYSnXVX9P64BnEzxm5nZg6QVfcKJ5L3349CMGYcAyXtcuZek/SdXf+Udwg6uvtOvU9bMmRJcxjvB0f0MHvCPmsL5QiFFO9B4Hvy6ZvC5GOpncqe07H+7R+98fEZIQJw8SeF2nlCvcNtPLeBUoiHUrtoMueaZF9/cp7f1c48VQbSW0YtQE98ItpWkggEXpMTBgk7mXQ5OEtawYJEwqZJ8FkxZWHkTW8wkTGVUdRzHCdUla7LkM45mNJq3ydTTxYn1qnXGdIllJ0a7dZ1/9OJEBx7oH1Rn7V7VsLhW7Y6GcxyFx2cff99IFoXxt3OwHTL7s7HqpgUiHJAdepiYEkPs46A6Ijr2diEcs9Ya+FSMZN0ltd45rUTubwyrdfD1+uvvWz5+iLSpFSy+jCP2vF8kFykQ6fiEQEJZTFQU6k/EwoPjj4nTixCYiHUl+nR17/2DzHkHjq1JHU56DvDznpaIWEgwfaeD2SZ6ekko5gdktRzwbLYG+loXR5GHR5ftO3jaxdV1jO8kYkHdfXZyYdvicmTnrs9vP+Z/LABCHP9YZIxT0YrEubGGXtY572yyjbkXSUHOLg5FFpyJP6wQRBkgNdluuQht9VR9g34XHIU6eTiDj0YeRpz59JOu6Sta5joaHvlEgakI6NO38SN2KWByMr6VBn30Zf290iu76k41If/vTZj9MTSnm2C5JO4fEoRDqWLl1KY2NjcbBb7jQJyrr3s3s62qfMdkU6Ak+HdnWWTTyYFKSFA9igphEPNuK20dVjlGR4k47b41p2Poeun+UtTjriJChrX+y+9ep/aJiFJ0HKwm/srlCFLJd1nwlDHtJhl+U6MpMO0TcmHVnqzEo6/HKiDdZFUlt8vhfbPKTDFR6xZc5MOvywihXC8V9mAu/JczN0QUIoCnkdIBI27tL+FyIdgzxlthvSoRXNIRqOsZZFQDgEoMkCh0dceQgcJgnJiRUy4Gv5vL111ZnVUPeSdDA5ae/PYJMOg7lo3Q/OV7CNdtpDQJ5jQ5wrvGKt05FEOjicwjLyVnpKuH1bfledfEyWNUQk8mowaeO2XFt5vdRFL/Z7RTrOFuEa+ezi/QmQjsa+ZPcCp920CdJhzV7plnTIwZAEhPNG5Pk8+5J06OsMEYgbVLs+JiCSSLBxdnk67Ov5f1bSYQhNukxcZ9Yty5vm6WAiZSeXukhQ1r5kla/qcmw0pWFOa5PLa+OahTjYdbHnJEt7eQiCJgNaJun9YFllW3nqdJEYO5dE9y/J02H3vQn/e0U6jEek3dORRSdZwitZ6kGZ4fCYgHRUSDr0TcTEw04u5RtMG0H9dm4bTD7PW2N8I4OehXToa23Dy+SlU3vcrt5mNdRZCIKsN8t+ljrtPnK9ruNZ+8J1sL70GOUhanx9t1uXYe5UZ5FrZJ0ugiDP835WgpAkj+t47jpFPgjLZW8NOYm8H/b5bv//+PAn5h6e3UMrE0IQWduog3SECaciQVQtfZyummrP6cgid6dEUl0Hl8EKpsNBLNJwU4h0ND6nI5g+mzTLxL8JEpZB78bT4U+tFdNy/XZSkkulQZPeCB4w3+C+Z76zYt7mTVIkv9nLt39TVzxpkvNA7BwPY4yDBccyPCRd7bGMcsv9yUNo5PWu/bAPKVNaXf0JyZw1tTc36RCrwdp6dMlb9jGXYZZt+CEGy/AmGW55Xdo+ezvcnonOi4Nx2IO9GmEfxLokso0ino6wTkeuht03bsvlBbHL5v2v1E009c6nhnR4x2n6rnO6dsMbr0MHAmAljCbJzYmg9gwXHTaROSEh2ZmKZq8k1WkfzzJlVpfh0GfSLBe7XvwfTIJSiHT0AxjYw8AxSf8mE4SA196wv73iIh16xoqsR+7bHgxzvVnzg8vZbUj9hcbRmk3CZdjg8w3re0UsQxqWFQaSyycRAPYgcDneSiLD9eqtLUfSLBqXd0HWU2SfiQfLqLd2v1iPXMbvh2M2TV7SoeXluusiHWxQXfkHrrCJK8zABr+Ivvkau157rYwkcmOTDl0fG37uE9dlhz5y1RnMVOE65daVp8EeHFmuDCKifnyYPtHfISmJdPj6stfLEF4Jf3wykg6/rsCLwc8jPUMlKZzChIfL6u1EChHJmkTK5fT9iRksg0kmfFxmmFAysKQjqwL6pZxvLBOISZP6UIW3o9f9Y8JlE51eyzXM7TOJkV4S1geTJRfx4DJlbpX6MR3+RJOOWdpjLSxYZjtNrCvrMui8VgeWTB9uwqExXIh0NHFF0ibekGXJxG/6SV6Istopqx5XuKOsuuuuh3XvCn/VLQvaix7Y7E1xEYu0c1Xo8Kapd+hTz6PZPSu7Dq1UIV9VdXKeRhbPBZfFcukRhqsal6bXW4h0NH3KbNOVPgzycUiiF8mXZeiXyYYrlFNG/aiju4cvh2FsTweHpjh8U6WemWwMo4eDZ6x0IhFcTt9HyOXoDvNVYrnOukE6MsSg6hyQQWprbO9b9N7MI7TJX6I5/q0Tzr1wbRHGKPfh5MplkHkNvG8b8KZjkUMsLD9v+60fTdezSz5/hVEsaT5Uni0XDoocO2vNmjWU93fVVVfRPffck/u6vO2gfP6xgc6gM2AAGAAGgIGmYuCsa665hvL+rr32WrrllltyX5e3HZTPPzbQGXQGDAADwAAw0FQMnHXJJZcQftABMAAMAAPAADAADFSNgUI5HUXiOLim3Dg99Al9AgPAADAADPQbBkA6kEiKZChgABgABoABYKAWDBQiHZgyC3bdb+wa8gKzwAAwAAz0HgMgHWC3tbBb3Oy9v9kxBhgDYAAY6DUGhpZ0JH17JW1AVPDxtomp92nN+vP6wljzEt6uRbr4+ytJ31FJ0wXOdf/wGntwhhY9z/8Q1uIr22J4Ulc/S8eCc63Zp2h9hg/zYUy6HxPoEDoEBqrFQCHSsWLFCtq4cWPsIdmkgWJyML5jKy1JeFiDdJxNWUlHkY+kNQkPTZSFCYdNNmxZmXyAeFT7ILT1jv/QNzBQDQYKkY6mD0ZVpKPp/XbJl+bpcJV3HQPpKPfm0x/Fe3BmkbzFV2hbAimW43D1s8fIa83SU+tVY4m+lBf75eIF+oQ+BwkDIB23rR7oBzlIR/MeWCAdzRuTQXqooy/AV5MxMDCkQ6lxuvjRj+nGA6cTfxOP7KHlwZulDK+MfO9t2jjV8q+bmDpCF1mfp+ayXLerDA+yS460MA9fl7blz8XL75S4cjR0HUwyZFm9L8vbZVxfULXL2PUVzQPhvvhfzB3dRtMLJqdB1+/65gqHgGT77X05TXOTm5zk0fQj+Xya3qs6VwXpCOv0FumVbfCIVDV2qBcGHRjoDgOFSMfo6Cht2bLF+ZBvwoBkD6+8T+t3f0xMRpgwTOx5kVaucD+4V967QEmkQ6kddNkzLbKvX3nv7wonnrLRlQaZCYH9qXtXGITLSkMtx8h1jTyv97OUsa9J+s+kwycZXkQGWE7Zp9Ft07TgeTHCxMe4HF+X1D9TPmonSa46j4cEocTwCud+aL12yhOps69oq7sHNPQH/Q0aBgqRjqav05GddLRCwsEDa7weybNTUklHMLulW88Gy6K3vsE/PUeTm+IkyD6eZHyTjnMbWQhFljJcX6ctkw7buxIeb83QLv+rtGO0d9YjJheyXikPkzImHaa/EckwpKNFM7vi+pP12ftKLaONj/4NvfHGG4m/3+z+bmHSXQnpUFfTs8c88uDpKDwuNg7wHwYfGCgfA0NPOq6xcjq6Ih2Bp0OHYcogHmyIXYbXfoNPMq6NJR0BuUi6qW3yIMvJc7aONCHRb/usM5+gOEibrK/uffZKZPVI5C1fd3/QXvkPZugUOh1UDBQiHSMjI7R58+bGvlHk8XSUSTo0SDhEw/kf3RAQfouX+QxyX+ZVyLd/CdZ+JR02qUrqk1KjtG16IcgH0fvzNHfwZZr1iYY8l93TIdsqc5+nyWadtWK3rWex6PHH9FkYJBsb+A9M9AsGCpGOpneul6RD6kYSEM4bkec77dtv8WnlB410SG+G3W+bkITejFu30fT8HE3q7YIOsdzqExL2etj1JP2vPLwSLPwFTwcMRRIGcRzYGFQMgHSUGF5xgYSJh51cymW1wdRvrzJRlM+Fb/EZwgO2IdZ18PX+2/HMLqdnKomssAx6m6WMLJ+2z0TK1V95HXt5XIQhJBlBnovf99NzdOAX0zQ/N0mbAu/H6bmD9PJsPBFVttGrfa2Dstfp4Dr1WGclM73qP9qFQQUGhhcDg0k6gumzSbNMNOB5GmyZ4RW/TjEt128nJbmUDbBPOjx3siOHRzoaaWUSL7kcE47T7x2htxaSDW8WQsEyuAhA3ocH95nlTLtey2YTJkOu4v1h+WRZLidDUGlt1XmOCULWMEuWxcHU2IM0s2imH2MhseF9oNeJY7QFnBXBQCHS0fScDq0I9jDI3AoZ4shDOvSMFVmP3Lc9GHLNDy5nExs5UGxY04wwG2ptVOXPvoa9A1xGz+jgYzy7Q7fNbXI5ufUSvCrSsOvyRY0598WWXepE7jN5YBntWS+6LPdRnnMdk/X2cr8K0qH7E+aMYAaL06vXyzFH2zDQwIDBQCHS0fQpsxhc3OBNxkBVpINnuWT1oDRZR5AN9zAwMJgYAOnAp+3xVlgzBqogHWGdXotmn1qPMa15TGEgB9NAYlzLH9dCpKPpK5ICKOUDBTotV6cmFNKZIHCuRto0WZ5Ki1yOcscImIc+gYHyMVCIdGAgyh+IftWpnevBuRf2tmgOSL/qJYvcTBa0ruwZJxwq0ecQLsH9lgVPKAOc9AMGQDrghoUrHhgABoABYAAYqAUDIB0AWi1A6wcGDhnxpggMAAPAQLUYKEQ6VqxYQRs3boSxAmEBBoABYAAYAAaAgcwYKEQ6MGW2WiYIpg39AgPAADAADAwiBkA6wFAzM9RBvAHQJzzYgQFgABioDwMgHSAdIB3AADAASdrJNgAAFQVJREFUDAADwEAtGChEOsAK62OF0DV0DQwAA8AAMDAoGBha0pH07ZW0gVXBx9smpt6nNevPq4UVpsmDc3gQVYEBpW6kS59oxb43dN2dNzrx/sW7jsXKTTyxn76olLNsFbKiTtwDwEB/YWAgSQeTg/EdW2lJwgMQpKM/gMofbkv7wm3SAmVZPyqHh1YyFtRlU3TdVIuSSAfrjokKSEeyLllX2EJHw4yBQqRj2bJltGbNmsa+zVRFOoYZKL3qex7SIb+ky0Qk6au5vepPv7UL0gED2W+YhbzNxmwh0tH0KbMgHc0GXZ6HQlHSodsY2ztL8nP3edpFWYMhkI7BuZeAaYxlEzAwMKRDqXG6+NGPY/HlGw+cjv2feGQPLQ/CLTK8MvK9t2njlIlhT0wdoYtWxmPSXJbrc5XhwXTJkRbm4es6bfnNnb9pYhvTJOPM10kvwOi2aVrwWjSzS/mGOarzNM1Nbgo9WPrLpXtnPfJDG6PbaHrBo7Bsa4Z2WaErliEs48Xr03008pjjmhREZY08fhk1StumF8JzXEZuZejE1UcV1GHrKZJB9MWSU+rHNS6dzruuqerY8pv+jjZMzdFXL1tDF+xcCPE+8fQMXbAqwnFS+EOtepiufKZFG3Y9HN4bUtaySYdSN9Hz735KnjdLT54XySfbxD6MIzAwuBgYGNIhQZrd0/E+rd/9MTEZYcIwsedFWrnC/UBcee8CJZEOpXbQZc+0yL5+5b2/6yrxlI2zJA6+gX8vMvxs8O3cB5dBNkbTGF023i4jzaRDG3v5wTauU7blOsbtxOQe20uzXkLbp+doclNc70n9io13UKdsh9uWMuprjPcjToZs/Zpr42Vke6aOiCTJc3XvG9JhCDMTBxfBcB3TstZOOh46TKeC8Z99EsnYdeMF7Q2uMe+XsS1EOpYsWUI6xNLUTmYnHa2QcHBfjNcjeXZKKukIZreU4dlgebIYXV02qRyTgSwG2Ta2TDpsb0F4PPB2hITF8n64jrM8THa4n3bbfDypX3ze77sgMuwNkSSJy3JdUhf+9ewVCUiPkTEiHUa2iGT4pMNBkLgd11ap82jzz16iN954I/H30uMTue8pJh1MOLhtPatkwveAGBLXGNKhHqLDpzx4OrAmRG6sM7ax7W/iVIh0NH3Q85COa25bHQN/V6Qj8HToMExZxMM2eEm6Z4Nqv9mzkZeGNsnA23Xb5MI+z/+5bdkGn7O9Ai55dNkkmbhuu19cv97adZq6PLLlSdOlPMdt6uuZOGkyI//bpEnKU+e+IR3/RFfcFE/sbirpqFM3aKu/jRPGbzDHD6SjRNKhbxIO0XD+R7cExDbaSTciG0rbONsGWV+fZODtujOTDoengT0OJjQTeQlc8qTJlNQvKatdJxMFe+ZKmi6lTrjfRpc6r6VFrx+cpgXfkyPyXKycFilTXfsgHYP5YK4LP2gH+KkbA4VIx9KlS2lsbCzmIahb8LT2euXpsGWSBITzRuwynf6nGUp5bZJxtg2yvkYaWFmHvc/Gt9NbPbdtexbs+vR/lzz6eJJMXLdNpmTdrjpdx0wbEQGSdUg9h6RFkwxNqHjrJ98a0pGlr7L+asMr8HRIXWMfhhQYaC4GCpGOQZ4y2014xQV0Jh52cimX1cbO9wZY+RB83mU8+ZzcJhlnrl8aySQDL+vT+5lJRzDLpRM58et0JH3q40kyJfVLyurSUUgcRO6Fq5zpp5ktI+X3SUhrhn62dzYIqwRk4/WDNL0Q5XtIOXqx362nIyknhPtS1ewVjXkkkjbXMPD4Y4sxKhsDg0k6gumzSbNMtBJ5GmypOR3jL9MGMS3XbycluZSNuh2CkIMcGk9rWqdvjOXsFSsZUtfBhEPXXyXp0G0Z0hBMr00JOyQZ/kTSwf0KpvhK3fB+ep1RbkeSLn2CYemX+yMTUlmfdmIty9GLbVbSoWWz8zyYcOgQoJ2Iyn0pnXTc9Dy9+2kwe+n4y7RleXy2EreLLYwdMDCYGBhI0qHByh4GmVshQxx5SIeesSLrkfu2B0Ou+cHlbGIjb6bQkCV4OrgsG0FNIHySIt7guYwkMX4ZXWewvkbVpMPXubWWB8sqQyPpBMHtQWCywPWFfeM1VxK8J6wPV25HrC6XLoM65bUsuzzGuu/VNg/pUMq1lof5zookHUw0GL9yOzEVhXJ4Row8L/dlnVI/Nz3/Ln3qYQaL1An2B9PAYlzbx7UQ6Wh6TgcGun2goRPopCkYUMFaHd7sk3ReilesKfJCDtw7wEB5GChEOjAA5Q0AdAldDhMGohVJj9PLW5Y3Nhl9mMYEfcUzqE4MgHRgkR48+IGBWjDw0OFTJjSIXI5a9F2nIUFbIC5ZMVCIdDR9RdKsnUc53CjAADAADAADwEB9GChEOpo+ZRYAqg9A0DV0DQwAA8AAMJAVAyAdcK3D1QsMAAPAADAADNSCAZAOAK0WoGVlwSiHNyZgABgABgYXA4VIx7Jly2jNmvgHpgCSwQUJxhZjCwwAA8AAMFAGBgqRjjIaRh0AMDAADAADwAAwMFwYAOlAeAXhFWAAGAAGgAFgoBYMgHT0GdD874R0WDK9394czEfd3F9/7be+QN7hemvr5XiP7H6LTr3+SC2Gopf9RNuDdU8VIh2DMGU26dsraQBXwcfbJqbepzXrz6v9ZudvkMhvmaTJW+a5rN+Iydsmf0VWfuHVrkOd+w069NRj1Hp+Jx1cm/6BsKvv2E6nX/hzaj21mX4wAEtsq698i2aff4xa+7bSzy9O77utt6r/K3UXfX1viyZ++jStyKhrpa6jix5e9L9lNH7fvbQk43VV9yVv/UqN0O63zIfr+Ds+dRIA2X6d7ebVE8oPFmEoYzwHknQwORjfsTXxodZPpIMNMz/ceCs/4lYGGNLqyEI6WM6spIhJVKcPqCn1Jfrl44NBOrSxuP/+XZlJREi4aiYdTA4m9r5CXzrXTXaGmXTIe0WN7Ka3PK92r4NSS+mOl46T552i1x9xj5GUE/sgAE3AAEjHbatr91jkGXj+uqxvyP2vuLq/xJqnzqrK5iUdSZ+zt+ULSUfNhteWo4z/hUlHzZ6bqkhHGTpsWh29Ih1aD2rpHfTScY+8U6/TI33qNWraeEKeaslZIdKxfPlyWrduXWONdVWejrrBaH+a3Rj1wSAdYd8y5KfkNdR1j1Oe9vL2JSRcIB3Nfd70yNPBuFt6x0t03PuM3jtwc2N1xLJiW61B7wf9FiIdTeyYUuN08aMf+7HiGw+cdm4nHtlDy4O3ARleGfne27RxquVfMzF1hC5aGXdVclmu11WGdeKSIy3Mw9e5tqFhPj1Hk5sUqbG9NOulJ1yyZ4RDMHbowj+v67t1G00veOR5hsSE4ZOgLS0Phz+4Lr21QyeuMrK83nfla2T1crj0Yh9jQ65zOfi3+Mgf0jrrzY/L+fkeQZ5IUvkLr/8ufeDnkJhwCJezcyuSSAGHRVgOU99joXxcH2+z5KvY/a7i/8htR+j64F5gvMvtxNQsXTxm7o9YeOWS3XT1X5l7SJdf+70rYwaQy8q67DKyP7YcaWEeeZ29r8dc5154n71HB2627uuEc+y5kDhOy5vg8q4yYfuWJ4I9FJ+9d4BuFjjlkIls2y7T1sfA25FWjutFKAZG38ZP3f8HhnRIxWX3dLxP63d/TExGmDBM7HmRVq6IP6C4/pX3LlAS6VBqB132TIvs61fe+7vCiaeSDBz4xTQtCFLAMvFWl2USoY8xIfAEUWFSYo6N0rbpBTo9P08L2uPgh288cuWKZAmdZCkTkzWlL1wu79Y29vJ6Jh3a0Leef4iObP6ybxg5WXP+h9GCd5IkMHEICYYI84THLE9Ekhwsg01epJxN2M8TXhnf/Q5dL8iIIQwf0GUbVsWIB/dLXfsijU+12ogJnz//hx/QxFT8en3N2oKJp3qWh+fwBLjIgn/MIgj6ek0CXKRCy+yqh/uSh3SEZQVBYnKSFj4JCYW4jtvnLcuY1g8uiy2ISZUYGHLS0QoJByvZeD2SZ6ekko5gdktRzwbLYG+ZeOgHhiQVshwbfJsw2MeZdBiPhSEdTEq4rO3N0O2knWM5spTx61JBuxlCK1x31m2SsTftBkmcgnCY40GiqiAOTDqYcHD7hqAIwsJJruJav87Ak9J2fc5EUm637m0e0iG9H37fA69H0uyUNNKRpd28umDDbXsCDBnpnITJZMC+nuVgg+4iJXytTRpcMpkwSbs8Sce5fb3t1JdQDiSdOomw1CX2qyVdhUjH6OgobdmypbGDl93T0aJrrETSrkhH4OnQLuSyiQd7LdjtykSBbxBDJtpDL2GIJjDwMqzBdXIIJo00pJ1jGbKU0WVtmfj6MraZSIfwVBh5kkhHRC5YNq6fvSLwdLRPmVVdkA6tZ+3p0PdQ0ZAKjxVvXZ4ANsJJRIKv1VsuaxMHLlMG6QhltLwsfvsZckaQ11GtoeSxxrZ7PRciHU1fp6NXpMN/QDhyS8ogIGyotSfD5HbofIyIZEhvCBMTueW8CpCO9umqLuJgPB3JpIM9GK5rfRwMk6fDWqejW9Kh9VdWTgcbCUMMomRL+z+X89sOwiny/tH71ZKO9nU/7PZdnhSWG6Sje2PIusS2Wl2CdJTo6bDByjki/lubSGK1y2X5L0mHLm/nbyR5Ouy6m0E6ehxe6cbTESzWBU+H9gC4Fwcrg3RI3DIBscM4skynffZWsGfDD0dYXoXQ22Dlf/C11ZKOYM0NS6ZO/eLzncIrXA7bag0q9NtZv4VIx8jICG3evBnhlQxLqDPxsJNLGZzsoWBPBB+3tyZ0EU2XtUkHez/snA67niaQDi2TkT/y1NhyFv3P4Q/2RMh6tPFwLczl8lYkeTrM8WhlVNe1us3EnJAEGaScRfaVupl+PW9WyPz9r7qfOpklt6Iu0qH1kZacyuGNTjMzfMOsky1vNWtb2J6DJHKRdJzHidu369Pnk641ngmPmAT5ffQTXttzOridpG1IltISSYOFxLT3xCVnUt043tmIQkf5dFSIdDRdyaGhd0x/Zdl5GmypOR3jL9MGy6ORFuph74XvuhWhklBGPZvkvRnapeLTZZlgyITPMD8jmALLddjbSkkHJ4g6+pImh32um/9Vkg6e5WITGr30upzyyoRDz5Kxy+q+8Xn2lnTTX75WXf44/cMJQzq8E2/Q45e7Z19x+Sxb9jAkTW2tgnSYOqNpuVrOTgRIkwkORaQZVJO8+Rm9d/BFesthoEOCIJItOeHTv0cTvBBppEPLb3shmHDoOiXp4LZc03vTxouvk3XZ5bmM3w9H3+3y+J/PkEJf2fU1kKRDA4CJh1wXgKfG+uc1QZjKlkiqZ6zIeuS+7cGQa35wOZvYSIB28nQwweCHqv/QSCEWhlTEvwkhZ7zkIR2cGCrblvsurwqTH1nO5cVhwuU6J/WTZZ+JBq95YW/ZuGujks/TEV9XQ06zlXJxvdyumQ5rklNdpENfy8QjvCbDd2Vkm679m3897xvfskiHboOJB2NZhjjykA6escL1yG3b9FhrzQ9dNu37Lmz0O3k62COgsZlkoKVx1uVMne2hD25T4pz37em5sl2/Tt/omxwOWw67bFhnClHIms/BZKeTnlzYwrHsRhW6StfVwJKOQRt4PxxRwRTTXupJEqBeyuFq25CC9kRSV9mmHFM3/5rmPY+83/8qtuBUU+SDHOkP4yL6YZKUlG8i62SilKWsvA775Y/bMOu0EOloek7HoA0oew9kOGUQ+hh6OzKEY+rub7+RDqUup8f/4QR53u/pV9bKm3XrDu3VY6TYK5LFcxGVjWbwYJzqGSfoOa7nQqSj6VNmMcjxQW6yPjiEw2uFNEXWfiEdTDZ8tz08HI1Nbq8C1yZXpDOJ4JyXvLkiVciMOvvn2VzVWIF0ZJiBUpXyUa+5AX3iMW++L9MUnfQL6WiKviBHvcaEk17TEmcxJvWOCfSdTd+FSEfTVyTF4GcbfOgJegIGgAFgABioEwOFSEedAqIt3BDAADAADAADwMBgYACkA+GVoYqD48E1GA8ujCPGERjoTwyAdIB0gHQAA8AAMAAMAAO1YKDvSAeddRbhBx0AA8AAMNAMDMDj0J8eh16NG0gHSAxIHDAADAADhTHQK+OFdvuT7IB04GFT+GGDN81mvGliHDAOvcQAjH9/Gv9ejVtm0qFWP0SHPwo+KLXwEt2huv+gVK86jXZxkwADwAAwAAwAA/VjIDPp4MFh8uGBeNSSdMN6x7b+mwM6h86BAWAAGCgXA7lJhx6A1Q8dpo+8BXrpDng7AMhyAQl9Qp/AADAADAwuBkA6ME0KHhtgABgABoABYKAWDIB0AGi1AA1vLoP75oKxxdgCA8BAVgyAdIB0gHQAA8AAMAAMAAO1YACkA0CrBWhZWTDK4Y0JGAAGgIHBxUAh0sEzWE6+tZvWYuosjDaIGzAADAADwAAwkAEDhUgHs1Azi8UjTJ8dXFbKY40txhgYAAaAAWCgWwwUIh3wdAB43QIP1wNDwAAwAAwMHwYKkY4s63QotZoeOvwRnTlzhhCGGT5g4WGCMQcGgAFgABiwMVAh6Rin598Nlk3HQmKI9WWI9dngxH88sIABYAAYGCwMVEY6NFDCnA+QDpAOkA5gABgABoCBocdApaSDcz+8k2/R7rVYMh2MfbAYO8YT4wkMAAPAQD4MVEo6xp9/lzzvJL21e+3QszsAMx8woS/oCxgABoCBwcNAbtKhlMnVSJsmq8mGTiCFh2PwAIOHAMYUGAAGgAFgoCgGMpMODpWATABsRcGG64AdYAAYAAaGGwOZSQeAMtxAwfhj/IEBYAAYAAa6xQBIB7KpkW8DDAADwAAwAAzUggGQDgCtFqB1y45xPd6wgAFgABjofwyAdIB0gHQAA8AAMAAMAAO1YACkA0CrBWh4Q+n/NxSMIcYQGAAGusUASEcB0sHflVl46Y5GGWylLqI//bt5mt1zbaPk6hakuB4POmAAGAAGBgMDQ0s6eL0RPQWYf1lIBBMOL2Vpd6W+RlfvPkp3HzxGP/iLe2lEZVuNVV30p3TLgXzXyBtRX/93ix55XqsS4sH1+9OmF6bpzoz9kjJifzAeHBhHjCMwAAwUwUBu0sHfU2FDPQgrjqrx5+ldz6MspMP0P32V1V6RDg0Apa6lyTmPvNYs7bk2G9nJAhwmHB7IBrxIBbyDWTCGMjBiwMDgY+D/A1BVLccEcIb7AAAAAElFTkSuQmCC;" vertex="1" parent="1">
                    <mxGeometry x="-1520" y="310" width="541" height="275" as="geometry"/>
                </mxCell>
                <mxCell id="25" value="" style="endArrow=classic;html=1;fillColor=#d80073;strokeColor=#A50040;jumpSize=35;opacity=70;strokeWidth=9;" edge="1" parent="1">
                    <mxGeometry width="50" height="50" relative="1" as="geometry">
                        <mxPoint x="-890" y="510" as="sourcePoint"/>
                        <mxPoint x="-1030" y="510" as="targetPoint"/>
                    </mxGeometry>
                </mxCell>
            </root>
        </mxGraphModel>
    </diagram>
</mxfile>